<?xml  version="1.0" encoding="UTF-8"?>
<!DOCTYPE svg PUBLIC "-//W3C//DTD SVG 1.0//EN" "http://www.w3.org/TR/2001/REC-SVG-20010904/DTD/svg10.dtd" >
<svg xmlns="http://www.w3.org/2000/svg" >
<metadata>
<version>1.0</version>
<id><![CDATA[Helvetica Neue LT W1G 45 Light]]></id>
<vendor>Monotype Imaging Inc.</vendor>
<credits>
<name>Fonts.com WebFonts</name>
<URL>http://webfonts.fonts.com</URL>
<role>Home of the Web fonts</role>
</credits>
<license>
<URL>http://webfonts.fonts.com/Legal</URL>
</license>
<copyright><![CDATA[Copyright © 2011 Linotype Corp. All rights reserved. This font software may not be reproduced, modified, disclosed or transferred without the express written approval of Linotype Corp.]]></copyright>
<trademark><![CDATA[Helvetica is a trademark of Linotype Corp. registered in the U.S. Patent and Trademark Office and may be registered in certain other jurisdictions in the name of Linotype Corp. or its licensee Linotype GmbH.]]></trademark>
<licensee>
<name></name>
</licensee>
</metadata>
<defs >
<font horiz-adv-x="1088" id="372ff71a-8da9-4c0f-9011-889bce34da76">
<font-face font-family="" panose-1="2 11 4 3 2 2 2 2 2 4" ascent="1993" descent="-588" units-per-em="2048" alphabetic="0">
</font-face>
<missing-glyph horiz-adv-x="1049" d="M1049 1470V0H0V1470H1049ZM946 102V1366H102V102H946ZM530 1247Q639 1247 711 1174T784 979Q784 909 756 854T654 732Q579 664 567 626T555 479H461L457 519Q457 623 483 679T593 816Q645 867 662 900T680 971Q680 1044 634 1094T524 1145Q461 1145 415 1100T356 950L254 967Q268 1111 344 1179T530 1247ZM455 377H569V240H455V377Z"  />

<glyph unicode="&#xA;" />
<glyph unicode="&#xD;" horiz-adv-x="569" />
<glyph unicode=" " horiz-adv-x="569" />
<glyph unicode="!" horiz-adv-x="494" d="M317 1462V1026L287 365H209L178 1026V1462H317ZM334 217V0H162V217H334Z"  />
<glyph unicode="&quot;" horiz-adv-x="758" d="M307 1462V965H178V1462H307ZM580 1462V965H451V1462H580Z"  />
<glyph unicode="#" horiz-adv-x="1139" d="M430 1415H532L469 961H758L821 1415H924L860 961H1075V868H848L803 549H1018V457H791L726 0H625L688 457H399L336 1H233L297 457H72V549H309L354 868H129V961H367L430 1415ZM412 549H700L745 868H457L412 549Z"  />
<glyph unicode="$" horiz-adv-x="1139" d="M526 1653H606V1493Q794 1490 915 1371T1040 1068V1049H911Q909 1196 829 1289T606 1384V795Q882 736 980 636T1079 379Q1079 198 949 85T606 -31V-205H526V-29Q292 -7 180 110T59 467H188Q190 293 275 195T526 78V684Q285 732 191 829T96 1093Q96 1263 213 1376T526 1493V1653ZM225 1080Q225 976 287 914T526 813V1384Q385 1384 305 1303T225 1080ZM606 78Q765 80 857 159T950 377Q950 486 873 555T606 668V78Z"  />
<glyph unicode="%" horiz-adv-x="1821" d="M1317 1485H1413L487 -70H389L1317 1485ZM467 1446Q625 1446 709 1344T793 1059Q793 876 709 774T467 672Q311 672 226 773T141 1059Q141 1245 226 1345T467 1446ZM250 1057Q250 918 306 841T467 764Q571 764 627 843T684 1057Q684 1191 628 1272T465 1354Q365 1354 308 1277T250 1057ZM1366 743Q1524 743 1608 641T1692 356Q1692 173 1608 71T1366 -31Q1209 -31 1125 71T1040 356Q1040 539 1124 641T1366 743ZM1149 354Q1149 216 1206 139T1366 61Q1469 61 1526 140T1583 354Q1583 487 1528 569T1364 651Q1262 651 1206 574T1149 354Z"  />
<glyph unicode="&amp;" horiz-adv-x="1251" d="M582 1462Q720 1462 812 1378T905 1165Q905 1061 842 974T618 786L938 401Q961 448 971 501T981 647H1110Q1110 558 1087 464T1024 297L1270 0H1108L952 190Q865 81 752 25T521 -31Q323 -31 202 80T80 378Q80 505 173 613T438 813Q319 959 289 1029T258 1165Q258 1293 350 1377T582 1462ZM387 1166Q387 1110 424 1042T551 870Q681 953 728 1021T776 1165Q776 1253 721 1303T580 1354Q497 1354 442 1303T387 1166ZM209 367Q209 244 303 161T526 78Q620 78 708 129T872 287L509 728H507Q355 647 282 559T209 367Z"  />
<glyph unicode="&apos;" horiz-adv-x="569" d="M350 1462V965H221V1462H350Z"  />
<glyph unicode="(" horiz-adv-x="494" d="M393 1493H496Q364 1284 299 1032T233 500Q233 282 304 42T496 -391H393Q233 -125 169 94T104 545Q104 791 176 1030T393 1493Z"  />
<glyph unicode=")" horiz-adv-x="494" d="M-2 1493H100Q248 1249 318 1028T389 557Q389 304 316 66T101 -390H-2Q130 -177 195 73T260 602Q260 815 191 1050T-2 1493Z"  />
<glyph unicode="*" horiz-adv-x="721" d="M319 1462H399V1210L635 1294L666 1219L424 1139L571 938L506 891L356 1096L207 891L141 938L291 1139L55 1219L84 1294L319 1210V1462Z"  />
<glyph unicode="+" horiz-adv-x="1229" d="M561 1030H670V569H1130V461H670V0H561V461H100V569H561V1030Z"  />
<glyph unicode="&#x2c;" horiz-adv-x="569" d="M371 217V-8Q371 -96 325 -175T190 -281V-193Q233 -175 259 -122T285 -12V0H199V217H371Z"  />
<glyph unicode="-" horiz-adv-x="758" d="M635 623V504H123V623H635Z"  />
<glyph unicode="." horiz-adv-x="569" d="M371 217V0H199V217H371Z"  />
<glyph unicode="/" horiz-adv-x="682" d="M604 1493H709L84 -31H-27L604 1493Z"  />
<glyph unicode="0" horiz-adv-x="1139" d="M569 1446Q818 1446 943 1258T1069 709Q1069 339 942 154T569 -31Q325 -31 198 153T70 707Q70 1077 198 1261T569 1446ZM199 709Q199 395 292 237T569 78Q754 78 847 235T940 709Q940 1021 847 1179T567 1337Q388 1337 294 1182T199 709Z"  />
<glyph unicode="1" horiz-adv-x="1139" d="M602 1434H707V0H578V1065H199V1157Q375 1160 444 1187T550 1273T602 1434Z"  />
<glyph unicode="2" horiz-adv-x="1139" d="M567 1446Q769 1446 890 1337T1012 1042Q1012 895 921 767T588 492Q393 374 314 289T221 119H1018V0H74Q76 159 166 288T485 564Q714 710 798 810T883 1044Q883 1174 793 1255T561 1337Q413 1337 328 1240T237 966V938H109V958Q109 1179 228 1312T567 1446Z"  />
<glyph unicode="3" horiz-adv-x="1139" d="M550 1446Q737 1446 865 1350T994 1081Q994 963 932 879T753 764V760Q901 733 974 637T1048 406Q1048 210 908 90T554 -31Q338 -31 201 90T63 424Q63 449 65 457H194V430Q194 272 290 175T552 78Q708 78 813 167T919 395Q919 534 827 616T573 698H466V807H580Q695 807 780 876T865 1067Q865 1198 779 1267T552 1337Q405 1337 316 1244T226 983V975H97Q99 1187 225 1316T550 1446Z"  />
<glyph unicode="4" horiz-adv-x="1139" d="M725 1434H842V465H1057V356H842V0H723V356H61V481L725 1434ZM178 465H723V1245H719L178 465Z"  />
<glyph unicode="5" horiz-adv-x="1139" d="M973 1415V1296H346L254 821L258 817Q314 881 394 915T562 950Q781 950 911 813T1042 455Q1042 249 898 109T545 -31Q349 -31 215 85T74 410H203Q208 261 307 170T555 78Q711 78 812 191T913 469Q913 631 808 736T547 842Q454 842 370 800T227 672H117L256 1415H973Z"  />
<glyph unicode="6" horiz-adv-x="1139" d="M594 1446Q791 1446 902 1350T1034 1071H905Q888 1191 809 1264T606 1337Q413 1337 313 1172T212 696H215Q269 807 373 870T597 934Q806 934 937 801T1069 455Q1069 244 931 107T583 -31Q310 -31 196 149T82 727Q82 1042 212 1244T594 1446ZM238 446Q238 273 332 176T595 78Q745 78 842 186T940 446Q940 610 846 717T592 825Q437 825 338 721T238 446Z"  />
<glyph unicode="7" horiz-adv-x="1139" d="M1026 1415V1296Q764 1021 615 693T446 0H307Q331 368 470 671T897 1296H104V1415H1026Z"  />
<glyph unicode="8" horiz-adv-x="1139" d="M567 1446Q752 1446 878 1349T1004 1087Q1004 973 943 889T770 772V768Q913 737 988 641T1063 401Q1063 200 926 85T569 -31Q349 -31 213 86T76 398Q76 530 152 635T367 768V772Q251 810 192 891T133 1087Q133 1251 258 1348T567 1446ZM262 1087Q262 964 344 893T562 821Q718 821 796 895T874 1087Q874 1203 792 1270T568 1337Q439 1337 351 1269T262 1087ZM205 401Q205 252 305 165T569 78Q737 78 835 164T934 401Q934 537 838 625T567 713Q396 713 301 627T205 401Z"  />
<glyph unicode="9" horiz-adv-x="1139" d="M556 1446Q828 1446 942 1267T1057 689Q1057 377 927 173T545 -31Q354 -31 241 62T104 344H233Q254 218 333 148T532 78Q724 78 825 243T927 719H924Q866 605 762 543T542 481Q333 481 202 615T70 961Q70 1171 208 1308T556 1446ZM199 969Q199 802 294 696T545 590Q704 590 802 696T901 969Q901 1138 809 1237T542 1337Q396 1337 298 1231T199 969Z"  />
<glyph unicode=":" horiz-adv-x="569" d="M371 1024V807H199V1024H371ZM371 217V0H199V217H371Z"  />
<glyph unicode=";" horiz-adv-x="569" d="M371 1024V807H199V1024H371ZM371 217V-8Q371 -96 325 -175T190 -281V-193Q233 -175 259 -123T285 -12V0H199V217H371Z"  />
<glyph unicode="&lt;" horiz-adv-x="1229" d="M1135 1053V940L221 518L1135 96V-16L94 463V573L1135 1053Z"  />
<glyph unicode="=" horiz-adv-x="1229" d="M1130 774V666H100V774H1130ZM1130 371V262H100V371H1130Z"  />
<glyph unicode="&gt;" horiz-adv-x="1229" d="M94 1053L1135 573V463L94 -16V96L1008 518L94 940V1053Z"  />
<glyph unicode="?" horiz-adv-x="1100" d="M575 1493Q755 1493 873 1388T991 1114Q991 1025 957 949T839 791L707 661Q648 602 636 543T624 367H493V407Q494 541 536 624T714 829Q789 896 825 965T862 1108Q862 1226 777 1305T568 1384Q418 1384 330 1290T240 1032V1012H111Q111 1236 236 1364T575 1493ZM645 217V0H473V217H645Z"  />
<glyph unicode="@" horiz-adv-x="1638" d="M848 1493Q1147 1493 1344 1313T1542 856Q1542 698 1471 559T1290 341T1068 262Q1013 262 975 296T930 398H926Q855 329 791 297T666 264Q546 264 471 348T395 562Q395 702 458 843T634 1068T880 1153Q956 1153 1011 1109T1098 981L1149 1114H1257L1068 545Q1039 457 1039 411Q1039 383 1051 369T1088 354Q1217 354 1325 519T1434 863Q1434 1101 1269 1251T852 1401Q574 1401 390 1206T205 723Q205 443 394 252T856 61Q1006 61 1150 134T1383 334H1489Q1394 167 1221 68T856 -31Q532 -31 314 189T96 737Q96 1052 315 1272T848 1493ZM524 571Q524 483 571 428T694 373Q823 373 928 538T1034 853Q1034 923 984 983T870 1044Q731 1044 628 888T524 571Z"  />
<glyph unicode="A" horiz-adv-x="1290" d="M731 1462L1305 0H1155L977 455H311L135 0H-14L575 1462H731ZM354 573H930L647 1322L354 573Z"  />
<glyph unicode="B" horiz-adv-x="1366" d="M776 1462Q987 1462 1111 1372T1235 1105Q1235 990 1166 897T981 776V772Q1121 754 1205 657T1290 416Q1290 211 1157 106T777 0H147V1462H776ZM774 821Q915 821 1005 888T1096 1070Q1096 1208 1012 1275T764 1343H287V821H774ZM776 119Q959 119 1055 193T1151 420Q1151 560 1051 631T765 702H287V119H776Z"  />
<glyph unicode="C" horiz-adv-x="1442" d="M768 1493Q990 1493 1157 1367T1356 1020H1217Q1176 1189 1054 1281T767 1374Q513 1374 365 1194T217 731Q217 454 363 271T767 88Q957 88 1085 216T1237 556H1376Q1345 281 1182 125T768 -31Q451 -31 265 184T78 731Q78 1066 266 1279T768 1493Z"  />
<glyph unicode="D" horiz-adv-x="1403" d="M634 1462Q962 1462 1143 1287T1325 731Q1325 348 1142 174T649 0H147V1462H634ZM596 119Q899 119 1042 261T1186 731Q1186 1056 1046 1199T576 1343H287V119H596Z"  />
<glyph unicode="E" horiz-adv-x="1214" d="M1157 1462V1343H287V815H1102V696H287V119H1167V0H147V1462H1157Z"  />
<glyph unicode="F" horiz-adv-x="1100" d="M1075 1462V1343H287V815H987V696H287V0H147V1462H1075Z"  />
<glyph unicode="G" horiz-adv-x="1518" d="M768 1493Q1004 1493 1169 1369T1378 1008H1239Q1222 1153 1088 1263T768 1374Q512 1374 365 1194T217 731Q217 452 363 270T768 88Q993 88 1133 229T1274 621V625H776V743H1397V0H1296L1278 266H1274Q1204 120 1073 45T768 -31Q452 -31 265 183T78 731Q78 1066 265 1279T768 1493Z"  />
<glyph unicode="H" horiz-adv-x="1442" d="M287 1462V827H1155V1462H1294V0H1155V709H287V0H147V1462H287Z"  />
<glyph unicode="I" horiz-adv-x="455" d="M297 1462V0H158V1462H297Z"  />
<glyph unicode="J" horiz-adv-x="1024" d="M877 1462V398Q877 179 779 74T452 -31Q246 -31 145 91T43 464V469H182Q185 244 256 166T464 88Q617 88 677 168T737 454V1462H877Z"  />
<glyph unicode="K" horiz-adv-x="1327" d="M287 1462V676L1137 1462H1325L672 858L1356 0H1176L567 762L287 502V0H147V1462H287Z"  />
<glyph unicode="L" horiz-adv-x="1100" d="M287 1462V119H1106V0H147V1462H287Z"  />
<glyph unicode="M" horiz-adv-x="1706" d="M348 1462L854 180L1358 1462H1563V0H1423V1264H1419L920 0H788L287 1264H283V0H143V1462H348Z"  />
<glyph unicode="N" horiz-adv-x="1442" d="M301 1462L1153 225H1157V1462H1296V0H1141L289 1237H285V0H145V1462H301Z"  />
<glyph unicode="O" horiz-adv-x="1518" d="M760 1493Q966 1493 1123 1396T1364 1121T1448 731Q1448 401 1262 185T760 -31Q444 -31 257 182T70 731Q70 1066 257 1279T760 1493ZM209 731Q209 455 354 272T760 88Q1017 88 1163 270T1309 731Q1309 1006 1164 1190T758 1374Q504 1374 357 1194T209 731Z"  />
<glyph unicode="P" horiz-adv-x="1290" d="M805 1462Q994 1462 1112 1352T1231 1044Q1231 848 1113 738T805 627H287V0H147V1462H805ZM774 745Q917 745 1004 822T1092 1044Q1092 1186 1008 1264T754 1343H287V745H774Z"  />
<glyph unicode="Q" horiz-adv-x="1518" d="M760 1493Q1075 1493 1261 1278T1448 731Q1448 552 1389 401T1227 152L1436 -8L1366 -94L1139 78Q1063 24 969 -3T760 -31Q445 -31 258 182T70 731Q70 1066 257 1279T760 1493ZM209 731Q209 455 354 272T760 88Q838 88 905 106T1030 160L838 305L909 393L1122 231Q1216 321 1262 451T1309 731Q1309 1006 1164 1190T758 1374Q504 1374 357 1194T209 731Z"  />
<glyph unicode="R" horiz-adv-x="1366" d="M826 1462Q1017 1462 1139 1363T1262 1081Q1262 935 1187 836T977 709V705L1008 699Q1110 675 1163 609T1231 397L1240 241Q1249 150 1256 110T1290 13L1300 0H1147Q1118 40 1109 227Q1095 488 1026 569T835 649H287V0H147V1462H826ZM814 768Q938 768 1030 846T1122 1053Q1122 1195 1039 1269T815 1343H287V768H814Z"  />
<glyph unicode="S" horiz-adv-x="1290" d="M623 1493Q858 1493 1010 1372T1162 1038H1024Q1015 1198 903 1286T625 1374Q452 1374 355 1300T258 1084Q258 1001 307 946T488 858L821 776Q1027 725 1121 631T1215 388Q1215 204 1074 87T656 -31Q383 -31 227 92T71 448V481H211V471Q211 277 332 183T686 88Q837 88 956 167T1075 385Q1075 574 790 645Q504 715 449 729Q274 772 197 857T119 1080Q119 1250 248 1371T623 1493Z"  />
<glyph unicode="T" horiz-adv-x="1139" d="M1149 1462V1343H639V0H500V1343H-10V1462H1149Z"  />
<glyph unicode="U" horiz-adv-x="1403" d="M272 1462V547Q272 323 376 206T700 88Q921 88 1025 204T1130 547V1462H1270V517Q1270 275 1125 122T700 -31Q529 -31 401 33T203 226T133 517V1462H272Z"  />
<glyph unicode="V" horiz-adv-x="1214" d="M135 1462L610 154H614L1085 1462H1233L691 2L689 0H528L-14 1462H135Z"  />
<glyph unicode="W" horiz-adv-x="1858" d="M150 1462L481 182H485L842 1462H1016L1374 182H1378L1712 1462H1851L1448 0H1300L930 1309H926L557 0H406L0 1462H150Z"  />
<glyph unicode="X" horiz-adv-x="1176" d="M170 1462L584 850L1012 1462H1167L668 750L1196 0H1028L584 645L133 0H-25L502 754L6 1462H170Z"  />
<glyph unicode="Y" horiz-adv-x="1251" d="M145 1462L625 724L628 722L1106 1462H1272L694 602V0H555V602L-20 1462H145Z"  />
<glyph unicode="Z" horiz-adv-x="1176" d="M1128 1462V1339L166 119H1149V0H10V123L973 1343H76V1462H1128Z"  />
<glyph unicode="[" horiz-adv-x="494" d="M485 1493V1384H285V-283H485V-391H156V1493H485Z"  />
<glyph unicode="\" horiz-adv-x="682" d="M-27 1493H78L709 -31H598L-27 1493Z"  />
<glyph unicode="]" horiz-adv-x="494" d="M338 1493V-391H8V-283H209V1384H8V1493H338Z"  />
<glyph unicode="^" horiz-adv-x="1229" d="M561 1415H668L1139 487H1022L612 1286L209 487H90L561 1415Z"  />
<glyph unicode="_" horiz-adv-x="1024" d="M1024 -154V-256H0V-154H1024Z"  />
<glyph unicode="`" horiz-adv-x="379" d="M96 1495L311 1206H207L-63 1495H96Z"  />
<glyph unicode="a" horiz-adv-x="1063" d="M540 1087Q740 1087 834 1001T928 756V182Q928 150 946 130T1004 109Q1015 109 1025 110T1044 117V8Q1020 3 1002 2T962 0Q878 0 844 40T809 173V184H805Q726 64 640 17T421 -31Q260 -31 163 49T66 279Q66 432 172 509T648 620Q732 627 765 658T799 762Q799 869 734 924T523 979Q390 979 317 916T240 733H111Q120 907 230 997T540 1087ZM795 578Q775 542 672 528Q570 514 446 493T259 422T195 287Q195 193 265 136T431 78Q589 78 694 172T799 404V578H795Z"  />
<glyph unicode="b" horiz-adv-x="1176" d="M252 1462V856H256Q293 963 395 1025T624 1087Q845 1087 971 931T1098 528Q1098 279 970 124T623 -31Q497 -31 395 29T246 201H242V0H123V1462H252ZM252 528Q252 328 348 203T623 78Q785 78 877 206T969 528Q969 722 878 850T621 979Q446 979 349 855T252 528Z"  />
<glyph unicode="c" horiz-adv-x="1063" d="M569 1087Q755 1087 865 991T997 725H868Q840 851 765 915T569 979Q403 979 301 849T199 528Q199 340 301 209T569 78Q685 78 773 160T877 379H1006Q976 182 861 76T569 -31Q345 -31 208 126T70 528Q70 773 207 930T569 1087Z"  />
<glyph unicode="d" horiz-adv-x="1176" d="M1053 1462V0H934V201H930Q885 95 776 32T552 -31Q336 -31 207 121T78 528Q78 781 206 934T552 1087Q676 1087 777 1027T920 856H924V1462H1053ZM207 528Q207 332 299 205T553 78Q730 78 827 204T924 528Q924 727 828 853T552 979Q395 979 301 855T207 528Z"  />
<glyph unicode="e" horiz-adv-x="1063" d="M547 1087Q762 1087 887 931T1012 515V494H199Q202 310 297 194T547 78Q676 78 759 144T879 348H1008Q963 157 850 63T547 -31Q323 -31 197 119T70 528Q70 774 197 930T547 1087ZM883 602Q878 759 785 869T545 979Q408 979 315 877T199 602H883Z"  />
<glyph unicode="f" horiz-adv-x="530" d="M450 1462Q529 1460 557 1454V1343Q533 1349 506 1351T463 1354Q388 1354 355 1317T322 1198V1057H530V948H322V0H193V948H12V1057H193V1157Q193 1326 256 1394T450 1462Z"  />
<glyph unicode="g" horiz-adv-x="1139" d="M546 1087Q658 1087 750 1027T883 874H887V1057H1016V75Q1016 -169 902 -295T548 -422Q368 -422 245 -339T109 -102H238Q254 -202 335 -257T547 -313Q719 -313 803 -215T887 76V229H883Q835 126 746 69T546 12Q320 12 195 154T70 554Q70 786 199 936T546 1087ZM199 541Q199 354 293 238T547 121Q700 121 793 242T887 541Q887 729 797 854T545 979Q386 979 293 858T199 541Z"  />
<glyph unicode="h" horiz-adv-x="1100" d="M250 1462V874H254Q291 969 384 1028T593 1087Q796 1087 887 988T979 690V0H850V668Q850 821 784 900T582 979Q476 979 400 928T287 790T250 618V0H121V1462H250Z"  />
<glyph unicode="i" horiz-adv-x="379" d="M254 1462V1255H125V1462H254ZM254 1057V0H125V1057H254Z"  />
<glyph unicode="j" horiz-adv-x="379" d="M254 1462V1255H125V1462H254ZM254 1057V-107Q254 -248 199 -319T28 -391Q6 -391 -16 -390T-61 -387V-281Q-48 -282 -35 -282T-9 -283Q74 -284 99 -246T125 -137V1057H254Z"  />
<glyph unicode="k" horiz-adv-x="1024" d="M252 1462V545L838 1057H1010L560 666L1040 0H879L461 575L252 401V0H123V1462H252Z"  />
<glyph unicode="l" horiz-adv-x="379" d="M254 1462V0H125V1462H254Z"  />
<glyph unicode="m" horiz-adv-x="1706" d="M594 1087Q704 1087 785 1035T897 881Q946 982 1034 1034T1234 1087Q1410 1087 1496 994T1583 726V0H1454V719Q1454 853 1394 916T1205 979Q1064 979 991 882T918 608V0H788V724Q788 843 733 911T567 979Q413 979 333 875T252 599V0H123V1057H242V879H248Q303 983 389 1035T594 1087Z"  />
<glyph unicode="n" horiz-adv-x="1100" d="M593 1087Q796 1087 887 988T979 690V0H850V668Q850 821 784 900T582 979Q476 979 400 928T287 790T250 618V0H121V1057H250V874H254Q291 969 384 1028T593 1087Z"  />
<glyph unicode="o" horiz-adv-x="1139" d="M569 1087Q795 1087 932 930T1069 528Q1069 380 1013 252T841 47T569 -31Q345 -31 208 126T70 528Q70 773 207 930T569 1087ZM199 528Q199 341 300 210T569 78Q737 78 838 210T940 528Q940 714 839 846T567 979Q403 979 301 848T199 528Z"  />
<glyph unicode="p" horiz-adv-x="1176" d="M623 1087Q845 1087 971 932T1098 528Q1098 281 971 125T624 -31Q498 -31 397 31T256 201H252V-391H123V1057H242V856H246Q293 967 394 1027T623 1087ZM252 529Q252 328 348 203T623 78Q785 78 877 206T969 528Q969 722 877 850T620 979Q441 979 347 866T252 529Z"  />
<glyph unicode="q" horiz-adv-x="1176" d="M552 1087Q672 1087 779 1023T930 856H934V1057H1053V-391H924V201H920Q880 93 779 31T552 -31Q336 -31 207 121T78 528Q78 782 206 934T552 1087ZM207 528Q207 332 299 205T553 78Q730 78 827 204T924 528Q924 727 828 853T552 979Q395 979 301 855T207 528Z"  />
<glyph unicode="r" horiz-adv-x="645" d="M613 1071H645V942H630Q459 942 356 833T252 560V0H123V1057H242V809H246Q294 933 391 1002T613 1071Z"  />
<glyph unicode="s" horiz-adv-x="985" d="M498 1087Q670 1087 772 999T885 748H756Q750 860 675 919T479 979Q367 979 298 931T229 797Q229 729 290 685T449 618L670 569Q779 544 850 471T922 287Q922 139 801 54T497 -31Q301 -31 190 63T63 342H193Q200 217 284 148T504 78Q624 78 708 132T793 279Q793 350 739 397T557 472L395 508Q256 538 178 605T100 791Q100 928 212 1007T498 1087Z"  />
<glyph unicode="t" horiz-adv-x="606" d="M328 1374V1057H543V948H328V227Q328 146 358 121T437 96Q457 96 484 97T543 102V-8Q515 -10 487 -11T429 -12Q300 -12 250 37T199 213V948H14V1057H199V1374H328Z"  />
<glyph unicode="u" horiz-adv-x="1100" d="M250 1057V368Q250 235 312 157T531 78Q680 78 765 197T850 494V1057H979V0H860V190H856Q805 86 709 28T491 -31Q301 -31 211 70T121 362V1057H250Z"  />
<glyph unicode="v" horiz-adv-x="948" d="M147 1057L479 129H483L811 1057H944L549 0H412L4 1057H147Z"  />
<glyph unicode="w" horiz-adv-x="1518" d="M154 1057L424 152H428L686 1057H831L1090 152H1094L1364 1057H1501L1162 4L1160 0H1020L760 889H756L498 0H356L16 1057H154Z"  />
<glyph unicode="x" horiz-adv-x="985" d="M195 1057L496 655L791 1057H952L571 551L983 0H819L487 444L162 0H2L412 549L33 1057H195Z"  />
<glyph unicode="y" horiz-adv-x="948" d="M141 1057L489 157L815 1057H944L489 -151Q444 -274 390 -332T211 -391Q206 -391 166 -389T109 -381V-272H111Q118 -275 147 -279T197 -283Q277 -283 318 -234T426 4L4 1057H141Z"  />
<glyph unicode="z" horiz-adv-x="948" d="M885 1057V965L186 109H913V0H31V104L721 948H78V1057H885Z"  />
<glyph unicode="{" horiz-adv-x="682" d="M600 1384H581Q545 1384 528 1379T495 1354T468 1309T452 1249T446 1181V876Q446 774 408 686Q370 598 303 553V549Q374 500 410 412Q446 324 446 225V-81Q446 -103 454 -159T492 -250T561 -283H600V-391H486Q427 -388 388 -349T333 -254T317 -142V182Q317 333 281 414Q245 495 170 495V604Q247 604 282 688Q317 770 317 918V1244Q317 1300 332 1355T388 1450T487 1493H600V1384Z"  />
<glyph unicode="|" horiz-adv-x="455" d="M174 1610H283V-438H174V1610Z"  />
<glyph unicode="}" horiz-adv-x="682" d="M82 1493H196Q255 1490 294 1451T349 1356T365 1244V920Q365 772 400 690Q435 608 512 606V498Q435 498 400 415Q365 332 365 184Q365 -86 365 -142T350 -253T294 -348T196 -391H82V-283H114Q137 -283 154 -278T187 -253T214 -208T230 -148T236 -79V225Q236 324 272 412Q308 500 379 549V553Q312 597 274 686Q236 774 236 876V1183Q236 1226 226 1271T201 1335T178 1364T155 1378T116 1384H82V1493Z"  />
<glyph unicode="~" horiz-adv-x="1229" d="M1014 645L1087 571Q1031 482 970 439T831 395Q791 395 741 408T611 461Q530 500 481 514T388 528Q332 528 290 494T215 387L141 461Q186 549 250 593T397 637Q457 637 528 612T692 546Q784 504 834 504Q881 504 923 536T1014 645Z"  />
<glyph unicode="&#xA0;" horiz-adv-x="569" />
<glyph unicode="&#xA1;" horiz-adv-x="494" d="M334 1057V840H162V1057H334ZM209 692H287L317 31V-391H178V31L209 692Z"  />
<glyph unicode="&#xA2;" horiz-adv-x="1139" d="M552 1266H633V1087Q805 1082 912 986T1038 725H909Q883 847 813 911T633 979V78Q743 84 823 167T918 379H1047Q1020 190 910 83T633 -31V-238H553V-29Q346 -7 229 148T111 528Q111 754 229 908T552 1083V1266ZM240 528Q240 356 325 229T553 80V975Q408 952 324 827T240 528Z"  />
<glyph unicode="&#xA3;" horiz-adv-x="1139" d="M578 1493Q797 1493 925 1369T1053 1012V1008H924Q922 1186 831 1285T578 1384Q429 1384 335 1297T240 1063Q240 963 290 879T360 741H688V676H397Q417 647 431 588T446 477Q446 382 389 286T221 104L225 100Q286 132 334 147T426 162Q535 162 635 120Q734 78 809 78Q870 78 933 109T1044 193L1110 94Q1037 29 966 -1T811 -31Q710 -31 595 11Q479 53 387 53Q323 53 280 36T162 -31L88 80Q208 178 262 269T317 461Q317 505 303 565T260 676H94V741H223Q164 833 138 913T111 1072Q111 1269 243 1381T578 1493Z"  />
<glyph unicode="&#xA4;" horiz-adv-x="1139" d="M251 1102Q311 1154 395 1185T570 1217Q658 1217 736 1189T884 1104L996 1217L1074 1139L964 1028Q1023 953 1050 875T1078 709Q1078 618 1050 540T964 389L1074 279L996 201L884 313Q820 259 740 230T570 201Q482 201 404 228T251 315L136 201L58 279L175 395Q119 464 91 542T62 709Q62 795 90 876T173 1024L58 1139L136 1217L251 1102ZM192 709Q192 542 304 431T570 319Q723 319 836 430T949 709Q949 873 838 985T568 1098Q416 1098 304 987T192 709Z"  />
<glyph unicode="&#xA5;" horiz-adv-x="1139" d="M160 1462L567 715L979 1462H1120L688 715H911V623H643L631 602V453H911V360H631V0H502V360H225V453H502V602L489 623H225V715H442L12 1462H160Z"  />
<glyph unicode="&#xA6;" horiz-adv-x="455" d="M174 1354H283V842H174V1354ZM174 330H283V-182H174V330Z"  />
<glyph unicode="&#xA7;" horiz-adv-x="1139" d="M560 1493Q738 1493 837 1398T937 1130H809V1145Q809 1243 742 1313T571 1384Q468 1384 405 1335T342 1202Q342 1124 405 1057T678 882Q880 779 963 685T1047 473Q1047 386 992 311T823 186Q874 141 900 85T926 -37Q926 -166 825 -248T579 -330Q406 -330 304 -238T202 33H330V17Q330 -81 397 -151T567 -221Q668 -221 732 -173T797 -39Q797 41 729 111T455 285Q249 389 171 483T92 690Q92 784 153 860T315 977Q264 1022 239 1078T213 1200Q213 1330 314 1411T560 1493ZM221 694Q221 612 295 537T540 369Q710 277 745 250Q830 284 874 339T918 471Q918 552 847 628T608 793Q439 880 389 915Q300 876 261 823T221 694Z"  />
<glyph unicode="&#xA8;" horiz-adv-x="379" d="M78 1456V1249H-61V1456H78ZM440 1456V1249H301V1456H440Z"  />
<glyph unicode="&#xA9;" horiz-adv-x="1638" d="M819 1493Q1145 1493 1363 1271T1581 731Q1581 411 1360 190T819 -31Q500 -31 279 189T57 731Q57 1053 278 1273T819 1493ZM176 731Q176 458 360 268T819 78Q1091 78 1276 267T1462 731Q1462 1005 1277 1194T817 1384Q545 1384 361 1195T176 731ZM838 1200Q986 1200 1090 1119T1217 891H1112Q1091 991 1016 1049T837 1108Q683 1108 593 1005T502 731Q502 558 594 456T840 354Q944 354 1017 412T1112 571H1217Q1196 427 1092 345T838 262Q635 262 514 392T393 731Q393 941 515 1070T838 1200Z"  />
<glyph unicode="&#xAA;" horiz-adv-x="637" d="M301 1446Q438 1446 500 1395T563 1247V889Q563 873 575 858T614 842Q622 842 628 843T641 848V778Q627 775 615 774T586 772Q532 772 510 796T487 882V887H483Q442 821 379 788T231 754Q116 754 53 804T-10 950Q-10 1053 62 1100T295 1160Q389 1166 428 1178T467 1230Q467 1297 423 1331T288 1366Q209 1366 161 1329T112 1223H14Q20 1334 94 1390T301 1446ZM463 1124Q453 1105 385 1095Q362 1091 224 1069Q86 1047 86 954Q86 905 129 870T228 834Q331 834 399 889T467 1026V1124H463Z"  />
<glyph unicode="&#xAB;" horiz-adv-x="872" d="M395 883V745L203 563L395 381V244L123 500V627L395 883ZM725 883V745L532 563L725 381V244L453 500V627L725 883Z"  />
<glyph unicode="&#xAC;" horiz-adv-x="1229" d="M1130 774V227H1022V666H100V774H1130Z"  />
<glyph unicode="&#xAD;" horiz-adv-x="758" d="M635 623V504H123V623H635Z"  />
<glyph unicode="&#xAE;" horiz-adv-x="1638" d="M819 1493Q1144 1493 1362 1271T1581 731Q1581 411 1360 190T819 -31Q500 -31 279 189T57 731Q57 1053 278 1273T819 1493ZM176 731Q176 458 360 268T819 78Q1091 78 1276 267T1462 731Q1462 1005 1277 1194T817 1384Q545 1384 361 1195T176 731ZM889 1171Q1022 1171 1094 1113T1167 928Q1167 827 1112 766T946 682L1208 291H1081L834 682H651V291H543V1171H889ZM811 774Q960 774 1009 812T1059 928Q1059 1003 1007 1041T857 1079H651V774H811Z"  />
<glyph unicode="&#xAF;" horiz-adv-x="379" d="M526 1399V1307H-147V1399H526Z"  />
<glyph unicode="&#xB0;" horiz-adv-x="819" d="M410 1446Q531 1446 618 1358T705 1151Q705 1030 619 943T410 856Q288 856 202 940T115 1151Q115 1276 202 1361T410 1446ZM195 1151Q195 1061 257 999T410 936Q498 936 561 999T625 1151Q625 1236 563 1301T408 1366Q319 1366 257 1303T195 1151Z"  />
<glyph unicode="&#xB1;" horiz-adv-x="1229" d="M561 1030H670V662H1130V553H670V184H561V553H102V662H561V1030ZM1130 109V0H100V109H1130Z"  />
<glyph unicode="&#xB2;" horiz-adv-x="758" d="M391 1698Q524 1698 594 1631T664 1442Q664 1353 617 1284T482 1159L369 1087Q276 1027 240 984T190 893H662V813H80Q82 921 135 1000T417 1220Q497 1269 532 1323T567 1450Q567 1526 519 1571T391 1616Q299 1616 248 1556T196 1384H98Q98 1533 174 1615T391 1698Z"  />
<glyph unicode="&#xB3;" horiz-adv-x="758" d="M389 1698Q505 1698 578 1638T651 1470Q651 1401 612 1351T495 1276Q584 1264 635 1209T686 1065Q686 943 600 869T377 795Q234 795 153 867T72 1064Q73 1072 73 1080T74 1096H170V1089Q170 984 227 929T375 874Q466 874 528 924T590 1059Q590 1139 530 1185T347 1231H313V1311H357Q451 1311 503 1354T555 1462Q555 1537 510 1577T385 1618Q296 1618 244 1564T191 1407H94Q98 1544 176 1621T389 1698Z"  />
<glyph unicode="&#xB4;" horiz-adv-x="379" d="M442 1495L172 1206H68L283 1495H442Z"  />
<glyph unicode="&#xB5;" horiz-adv-x="1100" d="M250 1057V368Q250 235 312 157T531 78Q680 78 765 195T850 494V1057H979V0H860V190H856Q805 86 708 28T492 -31Q423 -31 360 -13T250 41V-391H121V1057H250Z"  />
<glyph unicode="&#xB6;" horiz-adv-x="1229" d="M1063 1462V-362H934V1354H688V-362H559V672Q374 675 255 789T135 1062Q135 1253 254 1357T583 1462H1063Z"  />
<glyph unicode="&#xB7;" horiz-adv-x="569" d="M285 768Q335 768 370 731T406 645Q406 600 370 563T285 526Q236 526 200 564T164 649Q164 697 201 732T285 768Z"  />
<glyph unicode="&#xB8;" horiz-adv-x="379" d="M186 0H258L168 -111Q180 -107 200 -105T237 -102Q308 -102 357 -139T406 -240Q406 -320 340 -368T180 -416Q134 -416 86 -407T-12 -373L16 -307Q40 -318 89 -327T177 -336Q230 -336 258 -313T287 -248Q287 -213 261 -192T197 -170Q164 -170 138 -174T94 -186L61 -156L186 0Z"  />
<glyph unicode="&#xB9;" horiz-adv-x="758" d="M391 1679H471V813H375V1452H137V1524Q206 1527 268 1534T356 1575T391 1679Z"  />
<glyph unicode="&#xBA;" horiz-adv-x="684" d="M332 1446Q490 1446 584 1352T678 1100Q678 945 587 850T332 754Q181 754 94 850T6 1100Q6 1255 95 1350T332 1446ZM102 1100Q102 992 167 913T342 834Q451 834 516 913T582 1100Q582 1208 517 1287T340 1366Q234 1366 168 1288T102 1100Z"  />
<glyph unicode="&#xBB;" horiz-adv-x="872" d="M420 627V500L147 244V381L340 563L147 745V883L420 627ZM750 627V500L477 244V381L670 563L477 745V883L750 627Z"  />
<glyph unicode="&#xBC;" horiz-adv-x="1708" d="M1200 1485H1296L371 -70H272L1200 1485ZM362 1427H442V561H346V1200H109V1272Q268 1276 309 1303T362 1427ZM1321 866H1411V285H1550V205H1411V0H1315V205H885V285L1321 866ZM979 285H1315V729L979 285Z"  />
<glyph unicode="&#xBD;" horiz-adv-x="1708" d="M1200 1485H1296L371 -70H272L1200 1485ZM362 1427H442V561H346V1200H109V1272Q268 1276 309 1303T362 1427ZM1315 885Q1448 885 1517 818T1587 629Q1587 538 1543 472T1408 348L1285 269Q1209 221 1167 174T1114 80H1585V0H1004Q1007 102 1053 176T1227 334Q1241 343 1366 423T1491 637Q1491 713 1443 758T1315 803Q1224 803 1172 744T1119 571H1022Q1022 720 1098 802T1315 885Z"  />
<glyph unicode="&#xBE;" horiz-adv-x="1708" d="M1354 1485H1450L524 -70H426L1354 1485ZM1362 866H1452V285H1591V205H1452V0H1356V205H926V285L1362 866ZM1020 285H1356V729L1020 285ZM465 1446Q581 1446 654 1386T727 1218Q727 1149 688 1099T571 1024Q660 1012 711 957T762 813Q762 691 676 617T453 543Q310 543 229 615T148 812Q149 820 149 828T150 844H246V837Q246 732 303 677T451 622Q542 622 604 672T666 807Q666 887 606 933T423 979H389V1059H433Q527 1059 579 1102T631 1210Q631 1285 586 1325T461 1366Q372 1366 320 1312T267 1155H170Q174 1292 252 1369T465 1446Z"  />
<glyph unicode="&#xBF;" horiz-adv-x="1100" d="M629 1057V840H457V1057H629ZM608 705V669Q608 528 567 447T392 245Q313 174 277 105T240 -37Q240 -155 325 -234T532 -313Q682 -313 771 -219T862 39V59H991Q989 -170 864 -296T527 -422Q346 -422 229 -317T111 -43Q111 51 149 130T308 324Q416 426 446 473T479 705H608Z"  />
<glyph unicode="&#xC0;" horiz-adv-x="1290" d="M731 1462L1305 0H1155L977 455H311L135 0H-14L575 1462H731ZM354 573H930L647 1322L354 573ZM518 1884L733 1595H629L359 1884H518Z"  />
<glyph unicode="&#xC1;" horiz-adv-x="1290" d="M731 1462L1305 0H1155L977 455H311L135 0H-14L575 1462H731ZM354 573H930L647 1322L354 573ZM948 1884L678 1595H574L789 1884H948Z"  />
<glyph unicode="&#xC2;" horiz-adv-x="1290" d="M731 1462L1305 0H1155L977 455H311L135 0H-14L575 1462H731ZM354 573H930L647 1322L354 573ZM721 1884L955 1595H822L645 1804L465 1595H346L580 1884H721Z"  />
<glyph unicode="&#xC3;" horiz-adv-x="1290" d="M731 1462L1305 0H1155L977 455H311L135 0H-14L575 1462H731ZM354 573H930L647 1322L354 573ZM893 1843H971Q952 1747 906 1698T793 1649Q726 1649 640 1696Q553 1743 510 1743Q472 1743 447 1718T408 1638H328Q340 1727 390 1781T510 1835Q580 1835 663 1790Q746 1745 787 1745Q827 1745 852 1768T893 1843Z"  />
<glyph unicode="&#xC4;" horiz-adv-x="1290" d="M731 1462L1305 0H1155L977 455H311L135 0H-14L575 1462H731ZM354 573H930L647 1322L354 573ZM535 1845V1638H396V1845H535ZM897 1845V1638H758V1845H897Z"  />
<glyph unicode="&#xC5;" horiz-adv-x="1290" d="M731 1462L1305 0H1155L977 455H311L135 0H-14L575 1462H731ZM354 573H930L647 1322L354 573ZM651 1980Q744 1980 807 1914T871 1761Q871 1672 806 1607T651 1542Q562 1542 497 1607T432 1761Q432 1848 495 1914T651 1980ZM512 1761Q512 1702 552 1662T651 1622Q711 1622 751 1662T791 1761Q791 1820 751 1860T650 1901Q593 1901 553 1861T512 1761Z"  />
<glyph unicode="&#xC6;" horiz-adv-x="1858" d="M1802 1462V1343H1051V815H1755V696H1051V119H1810V0H911V463H381L143 0H-14L752 1462H1802ZM442 582H911V1343H829L442 582Z"  />
<glyph unicode="&#xC7;" horiz-adv-x="1442" d="M768 1493Q990 1493 1157 1367T1356 1020H1217Q1176 1189 1054 1281T767 1374Q513 1374 365 1194T217 731Q217 454 363 271T767 88Q957 88 1085 216T1237 557H1376Q1346 285 1185 128T766 -31L700 -111Q713 -107 732 -105T770 -102Q838 -102 888 -138T938 -240Q938 -322 871 -369T712 -416Q665 -416 617 -407T520 -373L549 -307Q569 -316 616 -326T710 -336Q762 -336 790 -313T819 -248Q819 -212 794 -191T729 -170Q698 -170 672 -174T627 -186L594 -156L695 -27Q401 1 240 212T78 731Q78 1066 266 1279T768 1493Z"  />
<glyph unicode="&#xC8;" horiz-adv-x="1214" d="M1157 1462V1343H287V815H1102V696H287V119H1167V0H147V1462H1157ZM516 1884L731 1595H627L357 1884H516Z"  />
<glyph unicode="&#xC9;" horiz-adv-x="1214" d="M1157 1462V1343H287V815H1102V696H287V119H1167V0H147V1462H1157ZM946 1884L676 1595H572L787 1884H946Z"  />
<glyph unicode="&#xCA;" horiz-adv-x="1214" d="M1157 1462V1343H287V815H1102V696H287V119H1167V0H147V1462H1157ZM719 1884L953 1595H820L643 1804L463 1595H344L578 1884H719Z"  />
<glyph unicode="&#xCB;" horiz-adv-x="1214" d="M1157 1462V1343H287V815H1102V696H287V119H1167V0H147V1462H1157ZM533 1845V1638H394V1845H533ZM895 1845V1638H756V1845H895Z"  />
<glyph unicode="&#xCC;" horiz-adv-x="455" d="M297 1462V0H158V1462H297ZM98 1884L313 1595H209L-61 1884H98Z"  />
<glyph unicode="&#xCD;" horiz-adv-x="455" d="M297 1462V0H158V1462H297ZM528 1884L258 1595H154L369 1884H528Z"  />
<glyph unicode="&#xCE;" horiz-adv-x="455" d="M297 1462V0H158V1462H297ZM301 1884L535 1595H402L225 1804L45 1595H-74L160 1884H301Z"  />
<glyph unicode="&#xCF;" horiz-adv-x="455" d="M297 1462V0H158V1462H297ZM115 1845V1638H-24V1845H115ZM477 1845V1638H338V1845H477Z"  />
<glyph unicode="&#xD0;" horiz-adv-x="1403" d="M624 1462Q965 1462 1145 1287T1325 731Q1325 348 1142 174T634 0H147V713H0V805H147V1462H624ZM770 805V713H287V119H576Q899 119 1042 261T1186 731Q1186 1056 1046 1199T566 1343H287V805H770Z"  />
<glyph unicode="&#xD1;" horiz-adv-x="1442" d="M301 1462L1153 225H1157V1462H1296V0H1141L289 1237H285V0H145V1462H301ZM985 1843H1063Q1044 1747 998 1698T885 1649Q818 1649 732 1696Q645 1743 602 1743Q564 1743 539 1718T500 1638H420Q432 1727 482 1781T602 1835Q672 1835 755 1790Q838 1745 879 1745Q919 1745 944 1768T985 1843Z"  />
<glyph unicode="&#xD2;" horiz-adv-x="1518" d="M760 1493Q966 1493 1123 1396T1364 1121T1448 731Q1448 401 1262 185T760 -31Q444 -31 257 182T70 731Q70 1066 257 1279T760 1493ZM209 731Q209 455 354 272T760 88Q1017 88 1163 270T1309 731Q1309 1006 1164 1190T758 1374Q504 1374 357 1194T209 731ZM631 1884L846 1595H742L472 1884H631Z"  />
<glyph unicode="&#xD3;" horiz-adv-x="1518" d="M760 1493Q966 1493 1123 1396T1364 1121T1448 731Q1448 401 1262 185T760 -31Q444 -31 257 182T70 731Q70 1066 257 1279T760 1493ZM209 731Q209 455 354 272T760 88Q1017 88 1163 270T1309 731Q1309 1006 1164 1190T758 1374Q504 1374 357 1194T209 731ZM1060 1884L790 1595H686L901 1884H1060Z"  />
<glyph unicode="&#xD4;" horiz-adv-x="1518" d="M760 1493Q966 1493 1123 1396T1364 1121T1448 731Q1448 401 1262 185T760 -31Q444 -31 257 182T70 731Q70 1066 257 1279T760 1493ZM209 731Q209 455 354 272T760 88Q1017 88 1163 270T1309 731Q1309 1006 1164 1190T758 1374Q504 1374 357 1194T209 731ZM833 1884L1067 1595H934L757 1804L577 1595H458L692 1884H833Z"  />
<glyph unicode="&#xD5;" horiz-adv-x="1518" d="M760 1493Q966 1493 1123 1396T1364 1121T1448 731Q1448 401 1262 185T760 -31Q444 -31 257 182T70 731Q70 1066 257 1279T760 1493ZM209 731Q209 455 354 272T760 88Q1017 88 1163 270T1309 731Q1309 1006 1164 1190T758 1374Q504 1374 357 1194T209 731ZM1005 1843H1083Q1064 1747 1018 1698T905 1649Q838 1649 752 1696Q665 1743 622 1743Q584 1743 559 1718T520 1638H440Q452 1727 502 1781T622 1835Q692 1835 775 1790Q858 1745 899 1745Q939 1745 964 1768T1005 1843Z"  />
<glyph unicode="&#xD6;" horiz-adv-x="1518" d="M760 1493Q966 1493 1123 1396T1364 1121T1448 731Q1448 401 1262 185T760 -31Q444 -31 257 182T70 731Q70 1066 257 1279T760 1493ZM209 731Q209 455 354 272T760 88Q1017 88 1163 270T1309 731Q1309 1006 1164 1190T758 1374Q504 1374 357 1194T209 731ZM647 1845V1638H508V1845H647ZM1009 1845V1638H870V1845H1009Z"  />
<glyph unicode="&#xD7;" horiz-adv-x="1229" d="M227 977L614 590L1001 977L1077 901L690 514L1077 127L1001 51L614 436L227 51L152 127L537 514L152 901L227 977Z"  />
<glyph unicode="&#xD8;" horiz-adv-x="1518" d="M760 1493Q900 1493 1018 1449T1231 1313L1376 1473L1430 1425L1280 1260Q1361 1162 1404 1026T1448 731Q1448 401 1262 185T760 -31Q615 -31 497 14T287 152L131 -25L76 27L238 207Q154 311 112 444T70 731Q70 1066 258 1279T760 1493ZM209 731Q209 608 239 499T328 307L1143 1214Q1073 1292 976 1333T758 1374Q506 1374 358 1194T209 731ZM1188 1157L375 250Q448 169 543 129T760 88Q1017 88 1163 270T1309 731Q1309 855 1279 963T1188 1157Z"  />
<glyph unicode="&#xD9;" horiz-adv-x="1403" d="M272 1462V547Q272 323 376 206T700 88Q921 88 1025 204T1130 547V1462H1270V517Q1270 275 1125 122T700 -31Q529 -31 401 33T203 226T133 517V1462H272ZM569 1884L784 1595H680L410 1884H569Z"  />
<glyph unicode="&#xDA;" horiz-adv-x="1403" d="M272 1462V547Q272 323 376 206T700 88Q921 88 1025 204T1130 547V1462H1270V517Q1270 275 1125 122T700 -31Q529 -31 401 33T203 226T133 517V1462H272ZM999 1884L729 1595H625L840 1884H999Z"  />
<glyph unicode="&#xDB;" horiz-adv-x="1403" d="M272 1462V547Q272 323 376 206T700 88Q921 88 1025 204T1130 547V1462H1270V517Q1270 275 1125 122T700 -31Q529 -31 401 33T203 226T133 517V1462H272ZM772 1884L1006 1595H873L696 1804L516 1595H397L631 1884H772Z"  />
<glyph unicode="&#xDC;" horiz-adv-x="1403" d="M272 1462V547Q272 323 376 206T700 88Q921 88 1025 204T1130 547V1462H1270V517Q1270 275 1125 122T700 -31Q529 -31 401 33T203 226T133 517V1462H272ZM586 1845V1638H447V1845H586ZM948 1845V1638H809V1845H948Z"  />
<glyph unicode="&#xDD;" horiz-adv-x="1251" d="M145 1462L625 724L628 722L1106 1462H1272L694 602V0H555V602L-20 1462H145ZM929 1884L659 1595H555L770 1884H929Z"  />
<glyph unicode="&#xDE;" horiz-adv-x="1290" d="M287 1462V1223H785Q993 1223 1112 1112T1231 805Q1231 610 1113 499T805 387H287V0H147V1462H287ZM774 506Q919 506 1005 583T1092 805Q1092 945 1007 1024T754 1104H287V506H774Z"  />
<glyph unicode="&#xDF;" horiz-adv-x="1100" d="M532 1493Q710 1493 822 1394T934 1133Q934 1019 873 935T702 825V821H704Q844 808 926 700T1008 441Q1008 236 886 110T526 -16Q502 -16 489 -16T451 -12V100Q476 96 499 94T546 92Q696 92 787 178T879 420Q879 593 788 673T463 754H451V862Q631 862 718 931T805 1128Q805 1237 728 1310T534 1384Q388 1384 321 1312T254 1094V0H125V1104Q125 1286 232 1389T532 1493Z"  />
<glyph unicode="&#xE0;" horiz-adv-x="1063" d="M540 1087Q740 1087 834 1001T928 756V182Q928 150 946 130T1004 109Q1015 109 1025 110T1044 117V8Q1020 3 1002 2T962 0Q878 0 844 40T809 173V184H805Q726 64 640 17T421 -31Q260 -31 163 49T66 279Q66 432 172 509T648 620Q732 627 765 658T799 762Q799 869 734 924T523 979Q390 979 317 916T240 733H111Q120 907 230 997T540 1087ZM795 578Q775 542 672 528Q570 514 446 493T259 422T195 287Q195 193 265 136T431 78Q589 78 694 172T799 404V578H795ZM399 1495L614 1206H510L240 1495H399Z"  />
<glyph unicode="&#xE1;" horiz-adv-x="1063" d="M540 1087Q740 1087 834 1001T928 756V182Q928 150 946 130T1004 109Q1015 109 1025 110T1044 117V8Q1020 3 1002 2T962 0Q878 0 844 40T809 173V184H805Q726 64 640 17T421 -31Q260 -31 163 49T66 279Q66 432 172 509T648 620Q732 627 765 658T799 762Q799 869 734 924T523 979Q390 979 317 916T240 733H111Q120 907 230 997T540 1087ZM795 578Q775 542 672 528Q570 514 446 493T259 422T195 287Q195 193 265 136T431 78Q589 78 694 172T799 404V578H795ZM829 1495L559 1206H455L670 1495H829Z"  />
<glyph unicode="&#xE2;" horiz-adv-x="1063" d="M540 1087Q740 1087 834 1001T928 756V182Q928 150 946 130T1004 109Q1015 109 1025 110T1044 117V8Q1020 3 1002 2T962 0Q878 0 844 40T809 173V184H805Q726 64 640 17T421 -31Q260 -31 163 49T66 279Q66 432 172 509T648 620Q732 627 765 658T799 762Q799 869 734 924T523 979Q390 979 317 916T240 733H111Q120 907 230 997T540 1087ZM795 578Q775 542 672 528Q570 514 446 493T259 422T195 287Q195 193 265 136T431 78Q589 78 694 172T799 404V578H795ZM602 1495L836 1206H703L526 1415L346 1206H227L461 1495H602Z"  />
<glyph unicode="&#xE3;" horiz-adv-x="1063" d="M540 1087Q740 1087 834 1001T928 756V182Q928 150 946 130T1004 109Q1015 109 1025 110T1044 117V8Q1020 3 1002 2T962 0Q878 0 844 40T809 173V184H805Q726 64 640 17T421 -31Q260 -31 163 49T66 279Q66 432 172 509T648 620Q732 627 765 658T799 762Q799 869 734 924T523 979Q390 979 317 916T240 733H111Q120 907 230 997T540 1087ZM795 578Q775 542 672 528Q570 514 446 493T259 422T195 287Q195 193 265 136T431 78Q589 78 694 172T799 404V578H795ZM774 1454H852Q833 1358 787 1309T674 1260Q624 1260 571 1283T472 1330Q426 1354 391 1354Q353 1354 328 1329T289 1249H209Q220 1338 271 1392T391 1446Q435 1446 482 1429T580 1384Q631 1356 668 1356Q706 1356 732 1378T774 1454Z"  />
<glyph unicode="&#xE4;" horiz-adv-x="1063" d="M540 1087Q740 1087 834 1001T928 756V182Q928 150 946 130T1004 109Q1015 109 1025 110T1044 117V8Q1020 3 1002 2T962 0Q878 0 844 40T809 173V184H805Q726 64 640 17T421 -31Q260 -31 163 49T66 279Q66 432 172 509T648 620Q732 627 765 658T799 762Q799 869 734 924T523 979Q390 979 317 916T240 733H111Q120 907 230 997T540 1087ZM795 578Q775 542 672 528Q570 514 446 493T259 422T195 287Q195 193 265 136T431 78Q589 78 694 172T799 404V578H795ZM416 1456V1249H277V1456H416ZM778 1456V1249H639V1456H778Z"  />
<glyph unicode="&#xE5;" horiz-adv-x="1063" d="M540 1087Q740 1087 834 1001T928 756V182Q928 150 946 130T1004 109Q1015 109 1025 110T1044 117V8Q1020 3 1002 2T962 0Q878 0 844 40T809 173V184H805Q726 64 640 17T421 -31Q260 -31 163 49T66 279Q66 432 172 509T648 620Q732 627 765 658T799 762Q799 869 734 924T523 979Q390 979 317 916T240 733H111Q120 907 230 997T540 1087ZM795 578Q775 542 672 528Q570 514 446 493T259 422T195 287Q195 193 265 136T431 78Q589 78 694 172T799 404V578H795ZM526 1612Q615 1612 680 1547T746 1393Q746 1305 682 1240T526 1174Q435 1174 371 1239T307 1393Q307 1481 372 1546T526 1612ZM387 1393Q387 1334 427 1294T526 1253Q586 1253 626 1293T666 1393Q666 1452 627 1492T525 1532Q467 1532 427 1493T387 1393Z"  />
<glyph unicode="&#xE6;" horiz-adv-x="1782" d="M539 1087Q698 1087 787 1030T891 868H895Q936 973 1039 1030T1267 1087Q1489 1087 1605 933T1722 494H927V452Q928 281 1020 180T1272 78Q1396 78 1475 145T1585 342H1714Q1670 159 1552 64T1253 -31Q1109 -31 1011 37T866 236H862Q840 117 708 43T420 -31Q261 -31 164 49T66 279Q66 432 172 509T648 620Q732 627 765 658T799 762Q799 869 734 924T523 979Q390 979 317 916T240 733H111Q120 907 230 997T539 1087ZM928 602H1593Q1590 766 1496 872T1258 979Q1115 979 1022 876T928 614V602ZM795 578Q775 542 672 528Q570 514 446 493T259 422T195 287Q195 193 265 136T431 78Q589 78 694 172T799 404V578H795Z"  />
<glyph unicode="&#xE7;" horiz-adv-x="1063" d="M569 1087Q755 1087 865 991T997 725H868Q840 851 765 915T569 979Q403 979 301 849T199 528Q199 340 301 209T569 78Q685 78 773 160T877 379H1006Q977 187 866 81T580 -31L514 -111Q526 -107 546 -105T583 -102Q654 -102 703 -139T752 -240Q752 -320 686 -368T526 -416Q480 -416 432 -407T334 -373L362 -307Q381 -316 429 -326T523 -336Q576 -336 604 -313T633 -248Q633 -211 606 -191T543 -170Q510 -170 484 -174T440 -186L408 -156L510 -27Q303 -2 187 151T70 528Q70 773 207 930T569 1087Z"  />
<glyph unicode="&#xE8;" horiz-adv-x="1063" d="M547 1087Q762 1087 887 931T1012 515V494H199Q202 310 297 194T547 78Q676 78 759 144T879 348H1008Q963 157 850 63T547 -31Q323 -31 197 119T70 528Q70 774 197 930T547 1087ZM883 602Q878 759 785 869T545 979Q408 979 315 877T199 602H883ZM418 1495L633 1206H529L259 1495H418Z"  />
<glyph unicode="&#xE9;" horiz-adv-x="1063" d="M547 1087Q762 1087 887 931T1012 515V494H199Q202 310 297 194T547 78Q676 78 759 144T879 348H1008Q963 157 850 63T547 -31Q323 -31 197 119T70 528Q70 774 197 930T547 1087ZM883 602Q878 759 785 869T545 979Q408 979 315 877T199 602H883ZM848 1495L578 1206H474L689 1495H848Z"  />
<glyph unicode="&#xEA;" horiz-adv-x="1063" d="M547 1087Q762 1087 887 931T1012 515V494H199Q202 310 297 194T547 78Q676 78 759 144T879 348H1008Q963 157 850 63T547 -31Q323 -31 197 119T70 528Q70 774 197 930T547 1087ZM883 602Q878 759 785 869T545 979Q408 979 315 877T199 602H883ZM620 1495L854 1206H721L544 1415L364 1206H245L479 1495H620Z"  />
<glyph unicode="&#xEB;" horiz-adv-x="1063" d="M547 1087Q762 1087 887 931T1012 515V494H199Q202 310 297 194T547 78Q676 78 759 144T879 348H1008Q963 157 850 63T547 -31Q323 -31 197 119T70 528Q70 774 197 930T547 1087ZM883 602Q878 759 785 869T545 979Q408 979 315 877T199 602H883ZM434 1456V1249H295V1456H434ZM796 1456V1249H657V1456H796Z"  />
<glyph unicode="&#xEC;" horiz-adv-x="379" d="M254 1057V0H125V1057H254ZM61 1495L276 1206H172L-98 1495H61Z"  />
<glyph unicode="&#xED;" horiz-adv-x="379" d="M254 1057V0H125V1057H254ZM489 1495L219 1206H115L330 1495H489Z"  />
<glyph unicode="&#xEE;" horiz-adv-x="379" d="M254 1057V0H125V1057H254ZM264 1495L498 1206H365L188 1415L8 1206H-111L123 1495H264Z"  />
<glyph unicode="&#xEF;" horiz-adv-x="379" d="M254 1057V0H125V1057H254ZM78 1456V1249H-61V1456H78ZM440 1456V1249H301V1456H440Z"  />
<glyph unicode="&#xF0;" horiz-adv-x="1139" d="M365 1520Q419 1490 464 1464T578 1389L811 1520L879 1454L655 1329Q853 1169 955 967T1057 529Q1057 275 923 122T555 -31Q328 -31 199 114T70 509Q70 738 202 887T556 1036Q649 1036 719 1016T827 954H831Q792 1031 727 1112T559 1276L344 1155L276 1221L481 1335Q451 1355 393 1391T291 1448L365 1520ZM199 508Q199 312 295 195T561 78Q732 78 830 195T928 512Q928 693 833 810T563 928Q391 928 295 815T199 508Z"  />
<glyph unicode="&#xF1;" horiz-adv-x="1100" d="M593 1087Q796 1087 887 988T979 690V0H850V668Q850 821 784 900T582 979Q476 979 400 928T287 790T250 618V0H121V1057H250V874H254Q291 969 384 1028T593 1087ZM794 1454H872Q853 1358 807 1309T694 1260Q644 1260 591 1283T492 1330Q446 1354 411 1354Q373 1354 348 1329T309 1249H229Q240 1338 291 1392T411 1446Q455 1446 502 1429T600 1384Q651 1356 688 1356Q726 1356 752 1378T794 1454Z"  />
<glyph unicode="&#xF2;" horiz-adv-x="1139" d="M569 1087Q795 1087 932 930T1069 528Q1069 380 1013 252T841 47T569 -31Q345 -31 208 126T70 528Q70 773 207 930T569 1087ZM199 528Q199 341 300 210T569 78Q737 78 838 210T940 528Q940 714 839 846T567 979Q403 979 301 848T199 528ZM442 1495L657 1206H553L283 1495H442Z"  />
<glyph unicode="&#xF3;" horiz-adv-x="1139" d="M569 1087Q795 1087 932 930T1069 528Q1069 380 1013 252T841 47T569 -31Q345 -31 208 126T70 528Q70 773 207 930T569 1087ZM199 528Q199 341 300 210T569 78Q737 78 838 210T940 528Q940 714 839 846T567 979Q403 979 301 848T199 528ZM872 1495L602 1206H498L713 1495H872Z"  />
<glyph unicode="&#xF4;" horiz-adv-x="1139" d="M569 1087Q795 1087 932 930T1069 528Q1069 380 1013 252T841 47T569 -31Q345 -31 208 126T70 528Q70 773 207 930T569 1087ZM199 528Q199 341 300 210T569 78Q737 78 838 210T940 528Q940 714 839 846T567 979Q403 979 301 848T199 528ZM645 1495L879 1206H746L569 1415L389 1206H270L504 1495H645Z"  />
<glyph unicode="&#xF5;" horiz-adv-x="1139" d="M569 1087Q795 1087 932 930T1069 528Q1069 380 1013 252T841 47T569 -31Q345 -31 208 126T70 528Q70 773 207 930T569 1087ZM199 528Q199 341 300 210T569 78Q737 78 838 210T940 528Q940 714 839 846T567 979Q403 979 301 848T199 528ZM817 1454H895Q876 1358 830 1309T717 1260Q667 1260 614 1283T515 1330Q469 1354 434 1354Q396 1354 371 1329T332 1249H252Q263 1338 314 1392T434 1446Q478 1446 525 1429T623 1384Q674 1356 711 1356Q749 1356 775 1378T817 1454Z"  />
<glyph unicode="&#xF6;" horiz-adv-x="1139" d="M569 1087Q795 1087 932 930T1069 528Q1069 380 1013 252T841 47T569 -31Q345 -31 208 126T70 528Q70 773 207 930T569 1087ZM199 528Q199 341 300 210T569 78Q737 78 838 210T940 528Q940 714 839 846T567 979Q403 979 301 848T199 528ZM459 1456V1249H320V1456H459ZM821 1456V1249H682V1456H821Z"  />
<glyph unicode="&#xF7;" horiz-adv-x="1229" d="M614 1042Q662 1042 695 1009T729 928Q729 883 695 848T616 813Q569 813 535 847T500 928Q500 975 533 1008T614 1042ZM1130 569V461H100V569H1130ZM614 217Q662 217 695 184T729 102Q729 58 695 23T616 -12Q569 -12 535 21T500 102Q500 150 533 183T614 217Z"  />
<glyph unicode="&#xF8;" horiz-adv-x="1139" d="M569 1087Q679 1087 766 1052T918 948L1024 1063L1069 1022L958 901Q1015 821 1042 726T1069 528Q1069 380 1013 252T841 46T569 -31Q465 -31 379 4T225 109L104 -23L59 18L184 156Q129 229 100 323T70 528Q70 773 207 930T569 1087ZM199 528Q199 449 217 381T272 252L831 856Q783 916 716 947T567 979Q403 979 301 848T199 528ZM868 803L309 199Q359 138 424 108T569 78Q738 78 839 210T940 528Q940 602 922 673T868 803Z"  />
<glyph unicode="&#xF9;" horiz-adv-x="1100" d="M250 1057V368Q250 235 312 157T531 78Q680 78 765 197T850 494V1057H979V0H860V190H856Q805 86 709 28T491 -31Q301 -31 211 70T121 362V1057H250ZM420 1495L635 1206H531L261 1495H420Z"  />
<glyph unicode="&#xFA;" horiz-adv-x="1100" d="M250 1057V368Q250 235 312 157T531 78Q680 78 765 197T850 494V1057H979V0H860V190H856Q805 86 709 28T491 -31Q301 -31 211 70T121 362V1057H250ZM850 1495L580 1206H476L691 1495H850Z"  />
<glyph unicode="&#xFB;" horiz-adv-x="1100" d="M250 1057V368Q250 235 312 157T531 78Q680 78 765 197T850 494V1057H979V0H860V190H856Q805 86 709 28T491 -31Q301 -31 211 70T121 362V1057H250ZM622 1495L856 1206H723L546 1415L366 1206H247L481 1495H622Z"  />
<glyph unicode="&#xFC;" horiz-adv-x="1100" d="M250 1057V368Q250 235 312 157T531 78Q680 78 765 197T850 494V1057H979V0H860V190H856Q805 86 709 28T491 -31Q301 -31 211 70T121 362V1057H250ZM436 1456V1249H297V1456H436ZM798 1456V1249H659V1456H798Z"  />
<glyph unicode="&#xFD;" horiz-adv-x="948" d="M141 1057L489 157L815 1057H944L489 -151Q444 -274 390 -332T211 -391Q206 -391 166 -389T109 -381V-272H111Q118 -275 147 -279T197 -283Q277 -283 318 -234T426 4L4 1057H141ZM786 1495L516 1206H412L627 1495H786Z"  />
<glyph unicode="&#xFE;" horiz-adv-x="1176" d="M252 1462V856H256Q293 963 395 1025T624 1087Q845 1087 971 931T1098 528Q1098 281 971 125T624 -31Q498 -31 397 31T256 201H252V-391H123V1462H252ZM252 528Q252 328 348 203T623 78Q785 78 877 206T969 528Q969 722 878 850T621 979Q446 979 349 855T252 528Z"  />
<glyph unicode="&#xFF;" horiz-adv-x="948" d="M141 1057L489 157L815 1057H944L489 -151Q444 -274 390 -332T211 -391Q206 -391 166 -389T109 -381V-272H111Q118 -275 147 -279T197 -283Q277 -283 318 -234T426 4L4 1057H141ZM373 1456V1249H234V1456H373ZM735 1456V1249H596V1456H735Z"  />
<glyph unicode="&#x100;" horiz-adv-x="1290" d="M731 1462L1305 0H1155L977 455H311L135 0H-14L575 1462H731ZM354 573H930L647 1322L354 573ZM987 1788V1696H314V1788H987Z"  />
<glyph unicode="&#x101;" horiz-adv-x="1063" d="M540 1087Q740 1087 834 1001T928 756V182Q928 150 946 130T1004 109Q1015 109 1025 110T1044 117V8Q1020 3 1002 2T962 0Q878 0 844 40T809 173V184H805Q726 64 640 17T421 -31Q260 -31 163 49T66 279Q66 432 172 509T648 620Q732 627 765 658T799 762Q799 869 734 924T523 979Q390 979 317 916T240 733H111Q120 907 230 997T540 1087ZM795 578Q775 542 672 528Q570 514 446 493T259 422T195 287Q195 193 265 136T431 78Q589 78 694 172T799 404V578H795ZM868 1399V1307H195V1399H868Z"  />
<glyph unicode="&#x102;" horiz-adv-x="1290" d="M731 1462L1305 0H1155L977 455H311L135 0H-14L575 1462H731ZM354 573H930L647 1322L354 573ZM357 1872H436Q442 1794 503 1749T647 1704Q727 1704 789 1748T864 1872H944Q929 1753 850 1683T647 1612Q518 1612 443 1682T357 1872Z"  />
<glyph unicode="&#x103;" horiz-adv-x="1063" d="M540 1087Q740 1087 834 1001T928 756V182Q928 150 946 130T1004 109Q1015 109 1025 110T1044 117V8Q1020 3 1002 2T962 0Q878 0 844 40T809 173V184H805Q726 64 640 17T421 -31Q260 -31 163 49T66 279Q66 432 172 509T648 620Q732 627 765 658T799 762Q799 869 734 924T523 979Q390 979 317 916T240 733H111Q120 907 230 997T540 1087ZM795 578Q775 542 672 528Q570 514 446 493T259 422T195 287Q195 193 265 136T431 78Q589 78 694 172T799 404V578H795ZM238 1483H317Q323 1404 383 1360T528 1315Q608 1315 670 1359T745 1483H825Q810 1364 731 1294T528 1223Q400 1223 324 1293T238 1483Z"  />
<glyph unicode="&#x104;" horiz-adv-x="1290" d="M731 1462L1305 0H1233Q1139 -79 1102 -127T1065 -239Q1065 -284 1090 -310T1155 -336Q1187 -336 1215 -315T1268 -252L1327 -279Q1295 -349 1248 -382T1126 -416Q1042 -416 991 -371T940 -248Q940 -184 994 -125T1155 0L977 455H311L135 0H-14L574 1460L576 1462H731ZM354 573H930L647 1322L354 573Z"  />
<glyph unicode="&#x105;" horiz-adv-x="1063" d="M540 1087Q740 1087 834 1001T928 756V182Q928 150 946 130T1004 109Q1015 109 1025 110T1044 117V8Q1017 3 999 2T952 0Q869 -68 827 -120T784 -239Q784 -284 810 -310T874 -336Q909 -336 938 -313T987 -252L1047 -279Q1017 -345 970 -380T846 -416Q758 -416 709 -369T659 -248Q659 -178 725 -113T891 10Q847 25 828 64T809 176V184H805Q726 64 640 17T421 -31Q260 -31 163 49T66 279Q66 432 172 509T648 620Q732 627 765 658T799 762Q799 869 734 924T523 979Q390 979 317 916T240 733H111Q120 907 230 997T540 1087ZM795 578Q775 542 672 528Q570 514 446 493T259 422T195 287Q195 193 265 136T431 78Q589 78 694 172T799 404V578H795Z"  />
<glyph unicode="&#x106;" horiz-adv-x="1442" d="M768 1493Q990 1493 1157 1367T1356 1020H1217Q1176 1189 1054 1281T767 1374Q513 1374 365 1194T217 731Q217 454 363 271T767 88Q957 88 1085 216T1237 556H1376Q1345 281 1182 125T768 -31Q451 -31 265 184T78 731Q78 1066 266 1279T768 1493ZM1065 1884L795 1595H691L906 1884H1065Z"  />
<glyph unicode="&#x107;" horiz-adv-x="1063" d="M569 1087Q755 1087 865 991T997 725H868Q840 851 765 915T569 979Q403 979 301 849T199 528Q199 340 301 209T569 78Q685 78 773 160T877 379H1006Q976 182 861 76T569 -31Q345 -31 208 126T70 528Q70 773 207 930T569 1087ZM866 1495L596 1206H492L707 1495H866Z"  />
<glyph unicode="&#x108;" horiz-adv-x="1442" d="M768 1493Q990 1493 1157 1367T1356 1020H1217Q1176 1189 1054 1281T767 1374Q513 1374 365 1194T217 731Q217 454 363 271T767 88Q957 88 1085 216T1237 556H1376Q1345 281 1182 125T768 -31Q451 -31 265 184T78 731Q78 1066 266 1279T768 1493ZM837 1884L1071 1595H938L761 1804L581 1595H462L696 1884H837Z"  />
<glyph unicode="&#x109;" horiz-adv-x="1063" d="M569 1087Q755 1087 865 991T997 725H868Q840 851 765 915T569 979Q403 979 301 849T199 528Q199 340 301 209T569 78Q685 78 773 160T877 379H1006Q976 182 861 76T569 -31Q345 -31 208 126T70 528Q70 773 207 930T569 1087ZM639 1495L873 1206H740L563 1415L383 1206H264L498 1495H639Z"  />
<glyph unicode="&#x10A;" horiz-adv-x="1442" d="M768 1493Q990 1493 1157 1367T1356 1020H1217Q1176 1189 1054 1281T767 1374Q513 1374 365 1194T217 731Q217 454 363 271T767 88Q957 88 1085 216T1237 556H1376Q1345 281 1182 125T768 -31Q451 -31 265 184T78 731Q78 1066 266 1279T768 1493ZM835 1845V1638H696V1845H835Z"  />
<glyph unicode="&#x10B;" horiz-adv-x="1063" d="M569 1087Q755 1087 865 991T997 725H868Q840 851 765 915T569 979Q403 979 301 849T199 528Q199 340 301 209T569 78Q685 78 773 160T877 379H1006Q976 182 861 76T569 -31Q345 -31 208 126T70 528Q70 773 207 930T569 1087ZM635 1456V1249H496V1456H635Z"  />
<glyph unicode="&#x10C;" horiz-adv-x="1442" d="M768 1493Q990 1493 1157 1367T1356 1020H1217Q1176 1189 1054 1281T767 1374Q513 1374 365 1194T217 731Q217 454 363 271T767 88Q957 88 1085 216T1237 556H1376Q1345 281 1182 125T768 -31Q451 -31 265 184T78 731Q78 1066 266 1279T768 1493ZM592 1884L768 1675L949 1884H1067L834 1595H693L459 1884H592Z"  />
<glyph unicode="&#x10D;" horiz-adv-x="1063" d="M569 1087Q755 1087 865 991T997 725H868Q840 851 765 915T569 979Q403 979 301 849T199 528Q199 340 301 209T569 78Q685 78 773 160T877 379H1006Q976 182 861 76T569 -31Q345 -31 208 126T70 528Q70 773 207 930T569 1087ZM399 1495L575 1286L756 1495H874L641 1206H500L266 1495H399Z"  />
<glyph unicode="&#x10E;" horiz-adv-x="1403" d="M634 1462Q962 1462 1143 1287T1325 731Q1325 348 1142 174T649 0H147V1462H634ZM596 119Q899 119 1042 261T1186 731Q1186 1056 1046 1199T576 1343H287V119H596ZM452 1884L628 1675L809 1884H927L694 1595H553L319 1884H452Z"  />
<glyph unicode="&#x10F;" horiz-adv-x="1176" d="M1053 1462V0H934V201H930Q885 95 776 32T552 -31Q336 -31 207 121T78 528Q78 781 206 934T552 1087Q676 1087 777 1027T920 856H924V1462H1053ZM207 528Q207 332 299 205T553 78Q730 78 827 204T924 528Q924 727 828 853T552 979Q395 979 301 855T207 528ZM1428 1462L1251 1174H1155L1268 1462H1428Z"  />
<glyph unicode="&#x110;" horiz-adv-x="1403" d="M624 1462Q965 1462 1145 1287T1325 731Q1325 348 1142 174T634 0H147V713H0V805H147V1462H624ZM770 805V713H287V119H576Q899 119 1042 261T1186 731Q1186 1056 1046 1199T566 1343H287V805H770Z"  />
<glyph unicode="&#x111;" horiz-adv-x="1225" d="M1053 1462V1288H1225V1196H1053V0H934V201H930Q885 95 776 32T552 -31Q336 -31 207 121T78 528Q78 781 206 934T552 1087Q676 1087 777 1027T920 856H924V1196H569V1288H924V1462H1053ZM207 528Q207 332 299 205T553 78Q730 78 827 204T924 528Q924 727 828 853T552 979Q395 979 301 855T207 528Z"  />
<glyph unicode="&#x112;" horiz-adv-x="1214" d="M1157 1462V1343H287V815H1102V696H287V119H1167V0H147V1462H1157ZM985 1788V1696H312V1788H985Z"  />
<glyph unicode="&#x113;" horiz-adv-x="1063" d="M547 1087Q762 1087 887 931T1012 515V494H199Q202 310 297 194T547 78Q676 78 759 144T879 348H1008Q963 157 850 63T547 -31Q323 -31 197 119T70 528Q70 774 197 930T547 1087ZM883 602Q878 759 785 869T545 979Q408 979 315 877T199 602H883ZM886 1399V1307H213V1399H886Z"  />
<glyph unicode="&#x114;" horiz-adv-x="1214" d="M1157 1462V1343H287V815H1102V696H287V119H1167V0H147V1462H1157ZM355 1872H434Q440 1794 501 1749T645 1704Q725 1704 787 1748T862 1872H942Q927 1753 848 1683T645 1612Q516 1612 441 1682T355 1872Z"  />
<glyph unicode="&#x115;" horiz-adv-x="1063" d="M547 1087Q762 1087 887 931T1012 515V494H199Q202 310 297 194T547 78Q676 78 759 144T879 348H1008Q963 157 850 63T547 -31Q323 -31 197 119T70 528Q70 774 197 930T547 1087ZM883 602Q878 759 785 869T545 979Q408 979 315 877T199 602H883ZM256 1483H335Q341 1404 401 1360T546 1315Q626 1315 688 1359T763 1483H843Q828 1364 749 1294T546 1223Q418 1223 342 1293T256 1483Z"  />
<glyph unicode="&#x116;" horiz-adv-x="1214" d="M1157 1462V1343H287V815H1102V696H287V119H1167V0H147V1462H1157ZM717 1845V1638H578V1845H717Z"  />
<glyph unicode="&#x117;" horiz-adv-x="1063" d="M547 1087Q762 1087 887 931T1012 515V494H199Q202 310 297 194T547 78Q676 78 759 144T879 348H1008Q963 157 850 63T547 -31Q323 -31 197 119T70 528Q70 774 197 930T547 1087ZM883 602Q878 759 785 869T545 979Q408 979 315 877T199 602H883ZM616 1456V1249H477V1456H616Z"  />
<glyph unicode="&#x118;" horiz-adv-x="1214" d="M1157 1462V1343H287V815H1102V696H287V119H1167V0H1073Q990 -68 948 -120T905 -239Q905 -284 931 -310T995 -336Q1030 -336 1059 -313T1108 -252L1167 -279Q1139 -344 1091 -380T967 -416Q879 -416 830 -369T780 -249Q780 -181 837 -121T995 0H147V1462H1157Z"  />
<glyph unicode="&#x119;" horiz-adv-x="1063" d="M547 1087Q762 1087 887 931T1012 515V494H199Q202 310 297 194T547 78Q676 78 759 144T879 348H1008Q967 176 872 83T618 -27Q548 -89 516 -133T483 -239Q483 -284 509 -310T573 -336Q608 -336 637 -313T686 -252L745 -279Q718 -343 670 -379T545 -416Q457 -416 408 -370T358 -248Q358 -184 407 -129T524 -31Q305 -20 188 129T70 528Q70 774 197 930T547 1087ZM883 602Q878 759 785 869T545 979Q408 979 315 877T199 602H883Z"  />
<glyph unicode="&#x11A;" horiz-adv-x="1214" d="M1157 1462V1343H287V815H1102V696H287V119H1167V0H147V1462H1157ZM473 1884L649 1675L830 1884H948L715 1595H574L340 1884H473Z"  />
<glyph unicode="&#x11B;" horiz-adv-x="1063" d="M547 1087Q762 1087 887 931T1012 515V494H199Q202 310 297 194T547 78Q676 78 759 144T879 348H1008Q963 157 850 63T547 -31Q323 -31 197 119T70 528Q70 774 197 930T547 1087ZM883 602Q878 759 785 869T545 979Q408 979 315 877T199 602H883ZM377 1495L553 1286L734 1495H852L619 1206H478L244 1495H377Z"  />
<glyph unicode="&#x11C;" horiz-adv-x="1518" d="M768 1493Q1004 1493 1169 1369T1378 1008H1239Q1222 1153 1088 1263T768 1374Q512 1374 365 1194T217 731Q217 452 363 270T768 88Q993 88 1133 229T1274 621V625H776V743H1397V0H1296L1278 266H1274Q1204 120 1073 45T768 -31Q452 -31 265 183T78 731Q78 1066 265 1279T768 1493ZM839 1884L1073 1595H940L763 1804L583 1595H464L698 1884H839Z"  />
<glyph unicode="&#x11D;" horiz-adv-x="1139" d="M546 1087Q658 1087 750 1027T883 874H887V1057H1016V75Q1016 -169 902 -295T548 -422Q368 -422 245 -339T109 -102H238Q254 -202 335 -257T547 -313Q719 -313 803 -215T887 76V229H883Q835 126 746 69T546 12Q320 12 195 154T70 554Q70 786 199 936T546 1087ZM199 541Q199 354 293 238T547 121Q700 121 793 242T887 541Q887 729 797 854T545 979Q386 979 293 858T199 541ZM637 1495L871 1206H738L561 1415L381 1206H262L496 1495H637Z"  />
<glyph unicode="&#x11E;" horiz-adv-x="1518" d="M768 1493Q1004 1493 1169 1369T1378 1008H1239Q1222 1153 1088 1263T768 1374Q512 1374 365 1194T217 731Q217 452 363 270T768 88Q993 88 1133 229T1274 621V625H776V743H1397V0H1296L1278 266H1274Q1204 120 1073 45T768 -31Q452 -31 265 183T78 731Q78 1066 265 1279T768 1493ZM476 1872H555Q561 1794 622 1749T766 1704Q846 1704 908 1748T983 1872H1063Q1048 1753 969 1683T766 1612Q637 1612 562 1682T476 1872Z"  />
<glyph unicode="&#x11F;" horiz-adv-x="1139" d="M546 1087Q658 1087 750 1027T883 874H887V1057H1016V75Q1016 -169 902 -295T548 -422Q368 -422 245 -339T109 -102H238Q254 -202 335 -257T547 -313Q719 -313 803 -215T887 76V229H883Q835 126 746 69T546 12Q320 12 195 154T70 554Q70 786 199 936T546 1087ZM199 541Q199 354 293 238T547 121Q700 121 793 242T887 541Q887 729 797 854T545 979Q386 979 293 858T199 541ZM273 1483H352Q358 1404 418 1360T563 1315Q643 1315 705 1359T780 1483H860Q845 1364 766 1294T563 1223Q435 1223 359 1293T273 1483Z"  />
<glyph unicode="&#x120;" horiz-adv-x="1518" d="M768 1493Q1004 1493 1169 1369T1378 1008H1239Q1222 1153 1088 1263T768 1374Q512 1374 365 1194T217 731Q217 452 363 270T768 88Q993 88 1133 229T1274 621V625H776V743H1397V0H1296L1278 266H1274Q1204 120 1073 45T768 -31Q452 -31 265 183T78 731Q78 1066 265 1279T768 1493ZM835 1845V1638H696V1845H835Z"  />
<glyph unicode="&#x121;" horiz-adv-x="1139" d="M546 1087Q658 1087 750 1027T883 874H887V1057H1016V75Q1016 -169 902 -295T548 -422Q368 -422 245 -339T109 -102H238Q254 -202 335 -257T547 -313Q719 -313 803 -215T887 76V229H883Q835 126 746 69T546 12Q320 12 195 154T70 554Q70 786 199 936T546 1087ZM199 541Q199 354 293 238T547 121Q700 121 793 242T887 541Q887 729 797 854T545 979Q386 979 293 858T199 541ZM635 1456V1249H496V1456H635Z"  />
<glyph unicode="&#x122;" horiz-adv-x="1518" d="M768 1493Q1004 1493 1169 1369T1378 1008H1239Q1222 1153 1088 1263T768 1374Q512 1374 365 1194T217 731Q217 452 363 270T768 88Q993 88 1133 229T1274 621V625H776V743H1397V0H1296L1278 266H1274Q1204 120 1073 45T768 -31Q452 -31 265 183T78 731Q78 1066 265 1279T768 1493ZM854 -102V-271Q854 -333 813 -372T678 -416V-358Q712 -353 732 -337T758 -289H678V-102H854Z"  />
<glyph unicode="&#x123;" horiz-adv-x="1139" d="M546 1087Q658 1087 750 1027T883 874H887V1057H1016V75Q1016 -169 902 -295T548 -422Q368 -422 245 -339T109 -102H238Q254 -202 335 -257T547 -313Q719 -313 803 -215T887 76V229H883Q835 126 746 69T546 12Q320 12 195 154T70 554Q70 786 199 936T546 1087ZM199 541Q199 354 293 238T547 121Q700 121 793 242T887 541Q887 729 797 854T545 979Q386 979 293 858T199 541ZM652 1532Q616 1525 596 1509T572 1462H652V1276H476V1445Q476 1510 519 1547T652 1589V1532Z"  />
<glyph unicode="&#x124;" horiz-adv-x="1442" d="M287 1462V827H1155V1462H1294V0H1155V709H287V0H147V1462H287ZM794 1884L1028 1595H895L718 1804L538 1595H419L653 1884H794Z"  />
<glyph unicode="&#x125;" horiz-adv-x="1100" d="M250 1462V874H254Q291 969 384 1028T593 1087Q796 1087 887 988T979 690V0H850V668Q850 821 784 900T582 979Q476 979 400 928T287 790T250 618V0H121V1462H250ZM606 1884L840 1595H707L530 1804L350 1595H231L465 1884H606Z"  />
<glyph unicode="&#x126;" horiz-adv-x="1442" d="M287 1462V1145H1155V1462H1294V0H1155V668H287V0H147V1462H287ZM1155 786V1053H287V786H1155Z"  />
<glyph unicode="&#x127;" horiz-adv-x="1147" d="M250 1462V1288H651V1196H250V874H254Q291 969 384 1028T593 1087Q796 1087 887 988T979 690V0H850V668Q850 821 784 900T582 979Q476 979 400 928T287 790T250 618V0H121V1196H0V1288H121V1462H250Z"  />
<glyph unicode="&#x128;" horiz-adv-x="455" d="M297 1462V0H158V1462H297ZM473 1843H551Q532 1747 486 1698T373 1649Q306 1649 220 1696Q133 1743 90 1743Q52 1743 27 1718T-12 1638H-92Q-80 1727 -30 1781T90 1835Q160 1835 243 1790Q326 1745 367 1745Q407 1745 432 1768T473 1843Z"  />
<glyph unicode="&#x129;" horiz-adv-x="379" d="M254 1057V0H125V1057H254ZM434 1454H512Q493 1358 447 1309T334 1260Q284 1260 231 1283T132 1330Q86 1354 51 1354Q13 1354 -12 1329T-51 1249H-131Q-120 1338 -69 1392T51 1446Q95 1446 142 1429T240 1384Q291 1356 328 1356Q366 1356 392 1378T434 1454Z"  />
<glyph unicode="&#x12A;" horiz-adv-x="455" d="M297 1462V0H158V1462H297ZM567 1788V1696H-106V1788H567Z"  />
<glyph unicode="&#x12B;" horiz-adv-x="379" d="M254 1057V0H125V1057H254ZM528 1399V1307H-145V1399H528Z"  />
<glyph unicode="&#x12C;" horiz-adv-x="455" d="M297 1462V0H158V1462H297ZM-63 1872H16Q22 1794 83 1749T227 1704Q307 1704 369 1748T444 1872H524Q509 1753 430 1683T227 1612Q98 1612 23 1682T-63 1872Z"  />
<glyph unicode="&#x12D;" horiz-adv-x="379" d="M254 1057V0H125V1057H254ZM-102 1483H-23Q-17 1404 43 1360T188 1315Q268 1315 330 1359T405 1483H485Q470 1364 391 1294T188 1223Q60 1223 -16 1293T-102 1483Z"  />
<glyph unicode="&#x12E;" horiz-adv-x="455" d="M297 1462V0Q216 -76 181 -126T145 -239Q145 -283 168 -309T227 -336Q259 -336 284 -314T328 -252L383 -279Q357 -345 313 -380T201 -416Q124 -416 79 -371T33 -248Q33 -180 84 -120T227 0H158V1462H297Z"  />
<glyph unicode="&#x12F;" horiz-adv-x="379" d="M254 1462V1255H125V1462H254ZM254 1057V0Q176 -72 139 -124T102 -239Q102 -282 126 -309T184 -336Q215 -336 241 -314T285 -252L338 -279Q313 -346 270 -381T158 -416Q82 -416 36 -371T-10 -248Q-10 -190 33 -134T184 0H125V1057H254Z"  />
<glyph unicode="&#x130;" horiz-adv-x="455" d="M297 1462V0H158V1462H297ZM297 1845V1638H158V1845H297Z"  />
<glyph unicode="&#x131;" horiz-adv-x="379" d="M254 1057V0H125V1057H254Z"  />
<glyph unicode="&#x132;" horiz-adv-x="1479" d="M297 1462V0H158V1462H297ZM1332 1462V398Q1332 179 1234 74T907 -31Q701 -31 600 91T498 464V469H637Q640 244 711 166T919 88Q1072 88 1132 168T1192 454V1462H1332Z"  />
<glyph unicode="&#x133;" horiz-adv-x="758" d="M254 1462V1255H125V1462H254ZM254 1057V0H125V1057H254ZM633 1462V1255H504V1462H633ZM633 1057V-107Q633 -248 578 -319T407 -391Q385 -391 363 -390T318 -387V-281Q331 -282 344 -282T370 -283Q453 -284 478 -246T504 -137V1057H633Z"  />
<glyph unicode="&#x134;" horiz-adv-x="1024" d="M877 1462V398Q877 179 779 74T452 -31Q246 -31 145 91T43 464V469H182Q185 244 256 166T464 88Q617 88 677 168T737 454V1462H877ZM870 1884L1104 1595H971L794 1804L614 1595H495L729 1884H870Z"  />
<glyph unicode="&#x135;" horiz-adv-x="379" d="M254 1057V-107Q254 -246 200 -318T32 -391L-61 -387V-281L-9 -284Q74 -284 99 -246T125 -137V1057H254ZM258 1495L492 1206H359L182 1415L2 1206H-117L117 1495H258Z"  />
<glyph unicode="&#x136;" horiz-adv-x="1327" d="M287 1462V676L1137 1462H1325L672 858L1356 0H1176L567 762L287 502V0H147V1462H287ZM813 -102V-271Q813 -333 772 -372T637 -416V-358Q671 -353 691 -337T717 -289H637V-102H813Z"  />
<glyph unicode="&#x137;" horiz-adv-x="1024" d="M252 1462V545L838 1057H1010L560 666L1040 0H879L461 575L252 401V0H123V1462H252ZM629 -102V-271Q629 -333 588 -372T453 -416V-358Q487 -353 507 -337T533 -289H453V-102H629Z"  />
<glyph unicode="&#x138;" horiz-adv-x="1022" d="M250 1057V545L836 1057H1008L558 666L1038 0H877L459 575L250 401V0H121V1057H250Z"  />
<glyph unicode="&#x139;" horiz-adv-x="1100" d="M287 1462V119H1106V0H147V1462H287ZM536 1884L266 1595H162L377 1884H536Z"  />
<glyph unicode="&#x13A;" horiz-adv-x="379" d="M254 1462V0H125V1462H254ZM495 1884L225 1595H121L336 1884H495Z"  />
<glyph unicode="&#x13B;" horiz-adv-x="1100" d="M287 1462V119H1106V0H147V1462H287ZM703 -102V-271Q703 -333 662 -372T527 -416V-358Q561 -353 581 -337T607 -289H527V-102H703Z"  />
<glyph unicode="&#x13C;" horiz-adv-x="379" d="M254 1462V0H125V1462H254ZM281 -102V-271Q281 -333 240 -372T105 -416V-358Q139 -353 159 -337T185 -289H105V-102H281Z"  />
<glyph unicode="&#x13D;" horiz-adv-x="1100" d="M287 1462V119H1106V0H147V1462H287ZM775 1462L598 1174H502L615 1462H775Z"  />
<glyph unicode="&#x13E;" horiz-adv-x="379" d="M254 1462V0H125V1462H254ZM629 1462L452 1174H356L469 1462H629Z"  />
<glyph unicode="&#x13F;" horiz-adv-x="1100" d="M287 1462V119H1106V0H147V1462H287ZM729 895V688H590V895H729Z"  />
<glyph unicode="&#x140;" horiz-adv-x="606" d="M254 1462V0H125V1462H254ZM524 895V688H385V895H524Z"  />
<glyph unicode="&#x141;" horiz-adv-x="1100" d="M287 1462V723L784 1067V952L287 610V119H1106V0H147V514L-20 397V512L147 627V1462H287Z"  />
<glyph unicode="&#x142;" horiz-adv-x="379" d="M254 1462V915L391 1028V915L254 803V0H125V696L-12 584V696L125 809V1462H254Z"  />
<glyph unicode="&#x143;" horiz-adv-x="1442" d="M301 1462L1153 225H1157V1462H1296V0H1141L289 1237H285V0H145V1462H301ZM1034 1884L764 1595H660L875 1884H1034Z"  />
<glyph unicode="&#x144;" horiz-adv-x="1100" d="M593 1087Q796 1087 887 988T979 690V0H850V668Q850 821 784 900T582 979Q476 979 400 928T287 790T250 618V0H121V1057H250V874H254Q291 969 384 1028T593 1087ZM850 1495L580 1206H476L691 1495H850Z"  />
<glyph unicode="&#x145;" horiz-adv-x="1442" d="M301 1462L1153 225H1157V1462H1296V0H1141L289 1237H285V0H145V1462H301ZM813 -102V-271Q813 -333 772 -372T637 -416V-358Q671 -353 691 -337T717 -289H637V-102H813Z"  />
<glyph unicode="&#x146;" horiz-adv-x="1100" d="M593 1087Q796 1087 887 988T979 690V0H850V668Q850 821 784 900T582 979Q476 979 400 928T287 790T250 618V0H121V1057H250V874H254Q291 969 384 1028T593 1087ZM641 -102V-271Q641 -333 600 -372T465 -416V-358Q499 -353 519 -337T545 -289H465V-102H641Z"  />
<glyph unicode="&#x147;" horiz-adv-x="1442" d="M301 1462L1153 225H1157V1462H1296V0H1141L289 1237H285V0H145V1462H301ZM563 1884L739 1675L920 1884H1038L805 1595H664L430 1884H563Z"  />
<glyph unicode="&#x148;" horiz-adv-x="1100" d="M593 1087Q796 1087 887 988T979 690V0H850V668Q850 821 784 900T582 979Q476 979 400 928T287 790T250 618V0H121V1057H250V874H254Q291 969 384 1028T593 1087ZM377 1495L553 1286L734 1495H852L619 1206H478L244 1495H377Z"  />
<glyph unicode="&#x149;" horiz-adv-x="1321" d="M814 1087Q1017 1087 1108 988T1200 690V0H1071V668Q1071 821 1005 900T803 979Q697 979 621 928T508 790T471 618V0H342V1057H471V874H475Q512 969 605 1028T814 1087ZM254 1462V1237Q254 1149 209 1071T72 964V1052Q114 1066 141 1118T168 1232V1245H82V1462H254Z"  />
<glyph unicode="&#x14A;" horiz-adv-x="1442" d="M301 1462L1153 225H1157V1462H1296V-71Q1296 -240 1225 -315T992 -391Q974 -391 933 -390T865 -385V-266Q875 -268 900 -271T960 -274Q1078 -274 1117 -233T1157 -80V-25L289 1237H285V0H145V1462H301Z"  />
<glyph unicode="&#x14B;" horiz-adv-x="1100" d="M593 1087Q796 1087 887 988T979 690V-92Q979 -249 918 -320T713 -391Q697 -391 659 -390T596 -385V-276Q608 -278 641 -280T693 -283Q783 -283 816 -248T850 -121V668Q850 821 784 900T582 979Q476 979 400 928T287 790T250 618V0H121V1057H250V874H254Q291 969 384 1028T593 1087Z"  />
<glyph unicode="&#x14C;" horiz-adv-x="1518" d="M760 1493Q966 1493 1123 1396T1364 1121T1448 731Q1448 401 1262 185T760 -31Q444 -31 257 182T70 731Q70 1066 257 1279T760 1493ZM209 731Q209 455 354 272T760 88Q1017 88 1163 270T1309 731Q1309 1006 1164 1190T758 1374Q504 1374 357 1194T209 731ZM1099 1788V1696H426V1788H1099Z"  />
<glyph unicode="&#x14D;" horiz-adv-x="1139" d="M569 1087Q795 1087 932 930T1069 528Q1069 380 1013 252T841 47T569 -31Q345 -31 208 126T70 528Q70 773 207 930T569 1087ZM199 528Q199 341 300 210T569 78Q737 78 838 210T940 528Q940 714 839 846T567 979Q403 979 301 848T199 528ZM911 1399V1307H238V1399H911Z"  />
<glyph unicode="&#x14E;" horiz-adv-x="1518" d="M760 1493Q966 1493 1123 1396T1364 1121T1448 731Q1448 401 1262 185T760 -31Q444 -31 257 182T70 731Q70 1066 257 1279T760 1493ZM209 731Q209 455 354 272T760 88Q1017 88 1163 270T1309 731Q1309 1006 1164 1190T758 1374Q504 1374 357 1194T209 731ZM469 1872H548Q554 1794 615 1749T759 1704Q839 1704 901 1748T976 1872H1056Q1041 1753 962 1683T759 1612Q630 1612 555 1682T469 1872Z"  />
<glyph unicode="&#x14F;" horiz-adv-x="1139" d="M569 1087Q795 1087 932 930T1069 528Q1069 380 1013 252T841 47T569 -31Q345 -31 208 126T70 528Q70 773 207 930T569 1087ZM199 528Q199 341 300 210T569 78Q737 78 838 210T940 528Q940 714 839 846T567 979Q403 979 301 848T199 528ZM281 1483H360Q366 1404 426 1360T571 1315Q651 1315 713 1359T788 1483H868Q853 1364 774 1294T571 1223Q443 1223 367 1293T281 1483Z"  />
<glyph unicode="&#x150;" horiz-adv-x="1518" d="M760 1493Q966 1493 1123 1396T1364 1121T1448 731Q1448 401 1262 185T760 -31Q444 -31 257 182T70 731Q70 1066 257 1279T760 1493ZM209 731Q209 455 354 272T760 88Q1017 88 1163 270T1309 731Q1309 1006 1164 1190T758 1374Q504 1374 357 1194T209 731ZM901 1884L643 1595H538L745 1884H901ZM1220 1884L962 1595H858L1065 1884H1220Z"  />
<glyph unicode="&#x151;" horiz-adv-x="1139" d="M569 1087Q795 1087 932 930T1069 528Q1069 380 1013 252T841 47T569 -31Q345 -31 208 126T70 528Q70 773 207 930T569 1087ZM199 528Q199 341 300 210T569 78Q737 78 838 210T940 528Q940 714 839 846T567 979Q403 979 301 848T199 528ZM713 1495L455 1206H350L557 1495H713ZM1032 1495L774 1206H670L877 1495H1032Z"  />
<glyph unicode="&#x152;" horiz-adv-x="2200" d="M768 1493Q895 1493 995 1455T1165 1341V1462H2136V1343H1305V815H2058V696H1305V119H2142V0H1165V143Q1093 60 986 15T767 -31Q463 -31 270 187T76 731Q76 1056 268 1274T768 1493ZM215 731Q215 453 366 271T768 88Q952 88 1058 177T1165 358V1058Q1165 1159 1150 1192T1088 1266T951 1340T765 1374Q521 1374 368 1193T215 731Z"  />
<glyph unicode="&#x153;" horiz-adv-x="1821" d="M545 1087Q693 1087 787 1020T922 827H926Q969 944 1070 1015T1316 1087Q1545 1087 1656 941T1767 494H981Q985 301 1074 190T1312 78Q1439 78 1519 144T1636 340H1765Q1723 162 1602 66T1299 -31Q1162 -31 1057 42T922 238H918Q878 105 778 37T539 -31Q319 -31 197 119T74 528Q74 775 201 931T545 1087ZM203 505Q203 316 291 197T541 78Q694 78 773 192T852 536Q852 758 774 868T541 979Q381 979 292 856T203 505ZM1638 602Q1638 769 1547 874T1309 979Q1164 979 1074 878T981 602H1638Z"  />
<glyph unicode="&#x154;" horiz-adv-x="1366" d="M826 1462Q1017 1462 1139 1363T1262 1081Q1262 935 1187 836T977 709V705L1008 699Q1110 675 1163 609T1231 397L1240 241Q1249 150 1256 110T1290 13L1300 0H1147Q1118 40 1109 227Q1095 488 1026 569T835 649H287V0H147V1462H826ZM814 768Q938 768 1030 846T1122 1053Q1122 1195 1039 1269T815 1343H287V768H814ZM942 1884L672 1595H568L783 1884H942Z"  />
<glyph unicode="&#x155;" horiz-adv-x="645" d="M613 1071H645V942H630Q459 942 356 833T252 560V0H123V1057H242V809H246Q294 933 391 1002T613 1071ZM700 1495L430 1206H326L541 1495H700Z"  />
<glyph unicode="&#x156;" horiz-adv-x="1366" d="M826 1462Q1017 1462 1139 1363T1262 1081Q1262 935 1187 836T977 709V705L1008 699Q1110 675 1163 609T1231 397L1240 241Q1249 150 1256 110T1290 13L1300 0H1147Q1118 40 1109 227Q1095 488 1026 569T835 649H287V0H147V1462H826ZM814 768Q938 768 1030 846T1122 1053Q1122 1195 1039 1269T815 1343H287V768H814ZM787 -102V-271Q787 -333 746 -372T611 -416V-358Q645 -353 665 -337T691 -289H611V-102H787Z"  />
<glyph unicode="&#x157;" horiz-adv-x="645" d="M613 1071H645V942H630Q459 942 356 833T252 560V0H123V1057H242V809H246Q294 933 391 1002T613 1071ZM281 -102V-271Q281 -333 240 -372T105 -416V-358Q139 -353 159 -337T185 -289H105V-102H281Z"  />
<glyph unicode="&#x158;" horiz-adv-x="1366" d="M826 1462Q1017 1462 1139 1363T1262 1081Q1262 935 1187 836T977 709V705L1008 699Q1110 675 1163 609T1231 397L1240 241Q1249 150 1256 110T1290 13L1300 0H1147Q1118 40 1109 227Q1095 488 1026 569T835 649H287V0H147V1462H826ZM814 768Q938 768 1030 846T1122 1053Q1122 1195 1039 1269T815 1343H287V768H814ZM463 1884L639 1675L820 1884H938L705 1595H564L330 1884H463Z"  />
<glyph unicode="&#x159;" horiz-adv-x="645" d="M613 1071H645V942H630Q459 942 356 833T252 560V0H123V1057H242V809H246Q294 933 391 1002T613 1071ZM223 1495L399 1286L580 1495H698L465 1206H324L90 1495H223Z"  />
<glyph unicode="&#x15A;" horiz-adv-x="1290" d="M623 1493Q858 1493 1010 1372T1162 1038H1024Q1015 1198 903 1286T625 1374Q452 1374 355 1300T258 1084Q258 1001 307 946T488 858L821 776Q1027 725 1121 631T1215 388Q1215 204 1074 87T656 -31Q383 -31 227 92T71 448V481H211V471Q211 277 332 183T686 88Q837 88 956 167T1075 385Q1075 574 790 645Q504 715 449 729Q274 772 197 857T119 1080Q119 1250 248 1371T623 1493ZM948 1884L678 1595H574L789 1884H948Z"  />
<glyph unicode="&#x15B;" horiz-adv-x="985" d="M498 1087Q670 1087 772 999T885 748H756Q750 860 675 919T479 979Q367 979 298 931T229 797Q229 729 290 685T449 618L670 569Q779 544 850 471T922 287Q922 139 801 54T497 -31Q301 -31 190 63T63 342H193Q200 217 284 148T504 78Q624 78 708 132T793 279Q793 350 739 397T557 472L395 508Q256 538 178 605T100 791Q100 928 212 1007T498 1087ZM802 1495L532 1206H428L643 1495H802Z"  />
<glyph unicode="&#x15C;" horiz-adv-x="1290" d="M623 1493Q858 1493 1010 1372T1162 1038H1024Q1015 1198 903 1286T625 1374Q452 1374 355 1300T258 1084Q258 1001 307 946T488 858L821 776Q1027 725 1121 631T1215 388Q1215 204 1074 87T656 -31Q383 -31 227 92T71 448V481H211V471Q211 277 332 183T686 88Q837 88 956 167T1075 385Q1075 574 790 645Q504 715 449 729Q274 772 197 857T119 1080Q119 1250 248 1371T623 1493ZM719 1884L953 1595H820L643 1804L463 1595H344L578 1884H719Z"  />
<glyph unicode="&#x15D;" horiz-adv-x="985" d="M498 1087Q670 1087 772 999T885 748H756Q750 860 675 919T479 979Q367 979 298 931T229 797Q229 729 290 685T449 618L670 569Q779 544 850 471T922 287Q922 139 801 54T497 -31Q301 -31 190 63T63 342H193Q200 217 284 148T504 78Q624 78 708 132T793 279Q793 350 739 397T557 472L395 508Q256 538 178 605T100 791Q100 928 212 1007T498 1087ZM575 1495L809 1206H676L499 1415L319 1206H200L434 1495H575Z"  />
<glyph unicode="&#x15E;" horiz-adv-x="1290" d="M623 1493Q858 1493 1010 1372T1162 1038H1024Q1015 1198 903 1286T625 1374Q452 1374 355 1300T258 1084Q258 1001 307 946T488 858L821 776Q1027 725 1121 631T1215 388Q1215 213 1084 94T662 -31L596 -111Q608 -107 628 -105T665 -102Q736 -102 785 -139T834 -240Q834 -320 768 -368T608 -416Q562 -416 514 -407T416 -373L444 -307Q463 -316 511 -326T605 -336Q658 -336 686 -313T715 -248Q715 -211 688 -191T625 -170Q592 -170 566 -174T522 -186L490 -156L592 -29H590Q338 -11 205 111T71 446V481H211V471Q211 277 332 183T686 88Q837 88 956 167T1075 385Q1075 574 790 645Q504 715 449 729Q274 772 197 857T119 1080Q119 1250 248 1371T623 1493Z"  />
<glyph unicode="&#x15F;" horiz-adv-x="985" d="M498 1087Q670 1087 772 999T885 748H756Q750 860 675 919T479 979Q367 979 298 931T229 797Q229 729 290 685T449 618L684 565Q779 544 850 471T922 287Q922 147 813 63T516 -31L451 -111Q465 -107 484 -105T520 -102Q588 -102 638 -138T688 -240Q688 -321 621 -368T462 -416Q416 -416 369 -407T270 -373L299 -307Q319 -316 366 -326T460 -336Q511 -336 540 -314T569 -248Q569 -212 544 -191T479 -170Q448 -170 422 -174T377 -186L344 -156L444 -29H442Q274 -15 178 74T63 342H193Q200 217 284 148T504 78Q624 78 708 132T793 279Q793 350 739 397T557 473L395 508Q256 538 178 605T100 791Q100 928 212 1007T498 1087Z"  />
<glyph unicode="&#x160;" horiz-adv-x="1290" d="M623 1493Q858 1493 1010 1372T1162 1038H1024Q1015 1198 903 1286T625 1374Q452 1374 355 1300T258 1084Q258 1001 307 946T488 858L821 776Q1027 725 1121 631T1215 388Q1215 204 1074 87T656 -31Q383 -31 227 92T71 448V481H211V471Q211 277 332 183T686 88Q837 88 956 167T1075 385Q1075 574 790 645Q504 715 449 729Q274 772 197 857T119 1080Q119 1250 248 1371T623 1493ZM473 1884L649 1675L830 1884H948L715 1595H574L340 1884H473Z"  />
<glyph unicode="&#x161;" horiz-adv-x="985" d="M498 1087Q670 1087 772 999T885 748H756Q750 860 675 919T479 979Q367 979 298 931T229 797Q229 729 290 685T449 618L670 569Q779 544 850 471T922 287Q922 139 801 54T497 -31Q301 -31 190 63T63 342H193Q200 217 284 148T504 78Q624 78 708 132T793 279Q793 350 739 397T557 472L395 508Q256 538 178 605T100 791Q100 928 212 1007T498 1087ZM329 1495L505 1286L686 1495H804L571 1206H430L196 1495H329Z"  />
<glyph unicode="&#x162;" horiz-adv-x="1139" d="M1149 1462V1343H639V0H500V1343H-10V1462H1149ZM658 -102V-271Q658 -333 617 -372T482 -416V-358Q516 -353 536 -337T562 -289H482V-102H658Z"  />
<glyph unicode="&#x163;" horiz-adv-x="606" d="M328 1374V1057H543V948H328V227Q328 146 358 121T437 96Q457 96 484 97T543 102V-8Q515 -10 487 -11T429 -12Q300 -12 250 37T199 213V948H14V1057H199V1374H328ZM455 -102V-271Q455 -333 414 -372T279 -416V-358Q313 -353 333 -337T359 -289H279V-102H455Z"  />
<glyph unicode="&#x164;" horiz-adv-x="1139" d="M1149 1462V1343H639V0H500V1343H-10V1462H1149ZM401 1884L577 1675L758 1884H876L643 1595H502L268 1884H401Z"  />
<glyph unicode="&#x165;" horiz-adv-x="606" d="M328 1374V1057H543V948H328V227Q328 146 358 121T437 96Q457 96 484 97T543 102V-8Q515 -10 487 -11T429 -12Q300 -12 250 37T199 213V948H14V1057H199V1374H328ZM729 1462L552 1174H456L569 1462H729Z"  />
<glyph unicode="&#x166;" horiz-adv-x="1139" d="M1149 1462V1343H639V995H977V903H639V0H500V903H164V995H500V1343H-10V1462H1149Z"  />
<glyph unicode="&#x167;" horiz-adv-x="606" d="M328 1374V1057H543V948H328V725H524V633H328V227Q328 146 358 121T437 96Q457 96 484 97T543 102V-8L424 -12Q299 -12 249 38T199 216V633H23V725H199V948H14V1057H199V1374H328Z"  />
<glyph unicode="&#x168;" horiz-adv-x="1403" d="M272 1462V547Q272 323 376 206T700 88Q921 88 1025 204T1130 547V1462H1270V517Q1270 275 1125 122T700 -31Q529 -31 401 33T203 226T133 517V1462H272ZM944 1843H1022Q1003 1747 957 1698T844 1649Q777 1649 691 1696Q604 1743 561 1743Q523 1743 498 1718T459 1638H379Q391 1727 441 1781T561 1835Q631 1835 714 1790Q797 1745 838 1745Q878 1745 903 1768T944 1843Z"  />
<glyph unicode="&#x169;" horiz-adv-x="1100" d="M250 1057V368Q250 235 312 157T531 78Q680 78 765 197T850 494V1057H979V0H860V190H856Q805 86 709 28T491 -31Q301 -31 211 70T121 362V1057H250ZM794 1454H872Q853 1358 807 1309T694 1260Q644 1260 591 1283T492 1330Q446 1354 411 1354Q373 1354 348 1329T309 1249H229Q240 1338 291 1392T411 1446Q455 1446 502 1429T600 1384Q651 1356 688 1356Q726 1356 752 1378T794 1454Z"  />
<glyph unicode="&#x16A;" horiz-adv-x="1403" d="M272 1462V547Q272 323 376 206T700 88Q921 88 1025 204T1130 547V1462H1270V517Q1270 275 1125 122T700 -31Q529 -31 401 33T203 226T133 517V1462H272ZM1038 1788V1696H365V1788H1038Z"  />
<glyph unicode="&#x16B;" horiz-adv-x="1100" d="M250 1057V368Q250 235 312 157T531 78Q680 78 765 197T850 494V1057H979V0H860V190H856Q805 86 709 28T491 -31Q301 -31 211 70T121 362V1057H250ZM888 1399V1307H215V1399H888Z"  />
<glyph unicode="&#x16C;" horiz-adv-x="1403" d="M272 1462V547Q272 323 376 206T700 88Q921 88 1025 204T1130 547V1462H1270V517Q1270 275 1125 122T700 -31Q529 -31 401 33T203 226T133 517V1462H272ZM408 1872H487Q493 1794 554 1749T698 1704Q778 1704 840 1748T915 1872H995Q980 1753 901 1683T698 1612Q569 1612 494 1682T408 1872Z"  />
<glyph unicode="&#x16D;" horiz-adv-x="1100" d="M250 1057V368Q250 235 312 157T531 78Q680 78 765 197T850 494V1057H979V0H860V190H856Q805 86 709 28T491 -31Q301 -31 211 70T121 362V1057H250ZM258 1483H337Q343 1404 403 1360T548 1315Q628 1315 690 1359T765 1483H845Q830 1364 751 1294T548 1223Q420 1223 344 1293T258 1483Z"  />
<glyph unicode="&#x16E;" horiz-adv-x="1403" d="M272 1462V547Q272 323 376 206T700 88Q921 88 1025 204T1130 547V1462H1270V517Q1270 275 1125 122T700 -31Q529 -31 401 33T203 226T133 517V1462H272ZM696 1980Q789 1980 852 1914T916 1761Q916 1672 851 1607T696 1542Q607 1542 542 1607T477 1761Q477 1848 540 1914T696 1980ZM557 1761Q557 1702 597 1662T696 1622Q756 1622 796 1662T836 1761Q836 1820 796 1860T695 1901Q638 1901 598 1861T557 1761Z"  />
<glyph unicode="&#x16F;" horiz-adv-x="1100" d="M250 1057V368Q250 235 312 157T531 78Q680 78 765 197T850 494V1057H979V0H860V190H856Q805 86 709 28T491 -31Q301 -31 211 70T121 362V1057H250ZM550 1612Q639 1612 704 1547T770 1393Q770 1305 706 1240T550 1174Q459 1174 395 1239T331 1393Q331 1481 396 1546T550 1612ZM411 1393Q411 1334 451 1294T550 1253Q610 1253 650 1293T690 1393Q690 1452 651 1492T549 1532Q491 1532 451 1493T411 1393Z"  />
<glyph unicode="&#x170;" horiz-adv-x="1403" d="M272 1462V547Q272 323 376 206T700 88Q921 88 1025 204T1130 547V1462H1270V517Q1270 275 1125 122T700 -31Q529 -31 401 33T203 226T133 517V1462H272ZM840 1884L582 1595H477L684 1884H840ZM1159 1884L901 1595H797L1004 1884H1159Z"  />
<glyph unicode="&#x171;" horiz-adv-x="1100" d="M250 1057V368Q250 235 312 157T531 78Q680 78 765 197T850 494V1057H979V0H860V190H856Q805 86 709 28T491 -31Q301 -31 211 70T121 362V1057H250ZM690 1495L432 1206H327L534 1495H690ZM1009 1495L751 1206H647L854 1495H1009Z"  />
<glyph unicode="&#x172;" horiz-adv-x="1403" d="M272 1462V547Q272 323 376 206T700 88Q921 88 1025 204T1130 547V1462H1270V517Q1270 294 1142 142T764 -29Q715 -68 673 -119T631 -239Q631 -284 656 -310T721 -336Q753 -336 781 -315T834 -252L893 -279Q861 -349 814 -382T692 -416Q606 -416 556 -371T506 -248Q506 -179 557 -126T672 -31Q399 -19 266 134T133 517V1462H272Z"  />
<glyph unicode="&#x173;" horiz-adv-x="1100" d="M250 1057V368Q250 235 312 157T531 78Q680 78 765 197T850 494V1057H979V0H938Q847 -75 809 -124T770 -239Q770 -284 795 -310T860 -336Q892 -336 920 -315T973 -252L1032 -279Q1004 -344 956 -380T831 -416Q746 -416 696 -371T645 -248Q645 -186 695 -129T860 0V190H856Q805 86 708 28T491 -31Q301 -31 211 70T121 362V1057H250Z"  />
<glyph unicode="&#x174;" horiz-adv-x="1858" d="M150 1462L481 182H485L842 1462H1016L1374 182H1378L1712 1462H1851L1448 0H1300L930 1309H926L557 0H406L0 1462H150ZM1001 1884L1235 1595H1102L925 1804L745 1595H626L860 1884H1001Z"  />
<glyph unicode="&#x175;" horiz-adv-x="1518" d="M154 1057L424 152H428L686 1057H831L1090 152H1094L1364 1057H1501L1162 4L1160 0H1020L760 889H756L498 0H356L16 1057H154ZM831 1495L1065 1206H932L755 1415L575 1206H456L690 1495H831Z"  />
<glyph unicode="&#x176;" horiz-adv-x="1251" d="M145 1462L625 724L628 722L1106 1462H1272L694 602V0H555V602L-20 1462H145ZM702 1884L936 1595H803L626 1804L446 1595H327L561 1884H702Z"  />
<glyph unicode="&#x177;" horiz-adv-x="948" d="M141 1057L489 157L815 1057H944L489 -151Q444 -274 390 -332T211 -391Q206 -391 166 -389T109 -381V-272H111Q118 -275 147 -279T197 -283Q277 -283 318 -234T426 4L4 1057H141ZM559 1495L793 1206H660L483 1415L303 1206H184L418 1495H559Z"  />
<glyph unicode="&#x178;" horiz-adv-x="1251" d="M145 1462L625 724L628 722L1106 1462H1272L694 602V0H555V602L-20 1462H145ZM516 1845V1638H377V1845H516ZM878 1845V1638H739V1845H878Z"  />
<glyph unicode="&#x179;" horiz-adv-x="1176" d="M1128 1462V1339L166 119H1149V0H10V123L973 1343H76V1462H1128ZM891 1884L621 1595H517L732 1884H891Z"  />
<glyph unicode="&#x17A;" horiz-adv-x="948" d="M885 1057V965L186 109H913V0H31V104L721 948H78V1057H885ZM778 1495L508 1206H404L619 1495H778Z"  />
<glyph unicode="&#x17B;" horiz-adv-x="1176" d="M1128 1462V1339L166 119H1149V0H10V123L973 1343H76V1462H1128ZM661 1845V1638H522V1845H661Z"  />
<glyph unicode="&#x17C;" horiz-adv-x="948" d="M885 1057V965L186 109H913V0H31V104L721 948H78V1057H885ZM547 1456V1249H408V1456H547Z"  />
<glyph unicode="&#x17D;" horiz-adv-x="1176" d="M1128 1462V1339L166 119H1149V0H10V123L973 1343H76V1462H1128ZM416 1884L592 1675L773 1884H891L658 1595H517L283 1884H416Z"  />
<glyph unicode="&#x17E;" horiz-adv-x="948" d="M885 1057V965L186 109H913V0H31V104L721 948H78V1057H885ZM303 1495L479 1286L660 1495H778L545 1206H404L170 1495H303Z"  />
<glyph unicode="&#x192;" horiz-adv-x="1139" d="M878 1462Q908 1462 937 1460T1004 1452L979 1346Q953 1350 929 1352T888 1354Q815 1354 766 1310T697 1190T659 1036L631 899H862L844 791H612L468 26Q427 -197 346 -275T120 -354Q88 -354 64 -352T14 -344L33 -233Q61 -240 87 -243T136 -246Q204 -246 253 -190T328 -17L481 791H276L295 899H502L528 1037Q555 1160 582 1250T677 1401T878 1462Z"  />
<glyph unicode="&#x1FA;" horiz-adv-x="1290" d="M860 1980L672 1776H573L715 1980H860ZM651 1739Q733 1739 789 1686T846 1552Q846 1506 823 1463T758 1395L1305 0H1155L977 455H311L135 0H-14L547 1393Q505 1417 481 1458T457 1552Q457 1632 513 1685T651 1739ZM532 1552Q532 1500 566 1468T653 1436Q703 1436 736 1467T770 1552Q770 1602 737 1634T650 1667Q598 1667 565 1635T532 1552ZM354 573H930L647 1322L354 573Z"  />
<glyph unicode="&#x1FB;" horiz-adv-x="1063" d="M815 1882L571 1624H465L655 1882H815ZM524 1577Q614 1577 673 1517T733 1374Q733 1287 672 1229T526 1171Q441 1171 379 1229T317 1374Q317 1458 377 1517T524 1577ZM397 1374Q397 1319 433 1283T526 1247Q580 1247 616 1281T653 1374Q653 1428 617 1464T523 1501Q468 1501 433 1465T397 1374ZM540 1087Q740 1087 834 1001T928 756V182Q928 150 946 130T1004 109Q1015 109 1025 110T1044 117V8Q1020 3 1002 2T962 0Q878 0 844 40T809 173V184H805Q726 64 640 17T421 -31Q260 -31 163 49T66 279Q66 407 137 477T341 576T648 620Q732 627 765 658T799 762Q799 869 734 924T523 979Q390 979 317 916T240 733H111Q120 907 230 997T540 1087ZM795 578Q775 542 672 528Q570 514 446 493T259 422T195 287Q195 193 265 136T431 78Q589 78 694 172T799 404V578H795Z"  />
<glyph unicode="&#x1FC;" horiz-adv-x="1858" d="M1802 1462V1343H1051V815H1755V696H1051V119H1810V0H911V463H381L143 0H-14L752 1462H1802ZM442 582H911V1343H829L442 582ZM1448 1884L1178 1595H1074L1289 1884H1448Z"  />
<glyph unicode="&#x1FD;" horiz-adv-x="1782" d="M539 1087Q698 1087 787 1030T891 868H895Q936 973 1039 1030T1267 1087Q1489 1087 1605 933T1722 494H927V452Q928 281 1020 180T1272 78Q1396 78 1475 145T1585 342H1714Q1670 159 1552 64T1253 -31Q1109 -31 1011 37T866 236H862Q840 117 708 43T420 -31Q261 -31 164 49T66 279Q66 432 172 509T648 620Q732 627 765 658T799 762Q799 869 734 924T523 979Q390 979 317 916T240 733H111Q120 907 230 997T539 1087ZM928 602H1593Q1590 766 1496 872T1258 979Q1115 979 1022 876T928 614V602ZM795 578Q775 542 672 528Q570 514 446 493T259 422T195 287Q195 193 265 136T431 78Q589 78 694 172T799 404V578H795ZM1243 1495L973 1206H869L1084 1495H1243Z"  />
<glyph unicode="&#x1FE;" horiz-adv-x="1518" d="M760 1493Q900 1493 1018 1449T1231 1313L1376 1473L1430 1425L1280 1260Q1361 1162 1404 1026T1448 731Q1448 401 1262 185T760 -31Q615 -31 497 14T287 152L131 -25L76 27L238 207Q154 311 112 444T70 731Q70 1066 258 1279T760 1493ZM209 731Q209 608 239 499T328 307L1143 1214Q1073 1292 976 1333T758 1374Q506 1374 358 1194T209 731ZM1188 1157L375 250Q448 169 543 129T760 88Q1017 88 1163 270T1309 731Q1309 855 1279 963T1188 1157ZM1060 1884L790 1595H686L901 1884H1060Z"  />
<glyph unicode="&#x1FF;" horiz-adv-x="1139" d="M569 1087Q679 1087 766 1052T918 948L1024 1063L1069 1022L958 901Q1015 821 1042 726T1069 528Q1069 380 1013 252T841 46T569 -31Q465 -31 379 4T225 109L104 -23L59 18L184 156Q129 229 100 323T70 528Q70 773 207 930T569 1087ZM199 528Q199 449 217 381T272 252L831 856Q783 916 716 947T567 979Q403 979 301 848T199 528ZM868 803L309 199Q359 138 424 108T569 78Q738 78 839 210T940 528Q940 602 922 673T868 803ZM872 1495L602 1206H498L713 1495H872Z"  />
<glyph unicode="&#x218;" horiz-adv-x="1290" d="M623 1493Q858 1493 1010 1372T1162 1038H1024Q1015 1198 903 1286T625 1374Q452 1374 355 1300T258 1084Q258 1001 307 946T488 858L821 776Q1027 725 1121 631T1215 388Q1215 204 1074 87T656 -31Q383 -31 227 92T71 448V481H211V471Q211 277 332 183T686 88Q837 88 956 167T1075 385Q1075 574 790 645Q504 715 449 729Q274 772 197 857T119 1080Q119 1250 248 1371T623 1493ZM731 -102V-271Q731 -333 690 -372T555 -416V-358Q589 -353 609 -337T635 -289H555V-102H731Z"  />
<glyph unicode="&#x219;" horiz-adv-x="985" d="M498 1087Q670 1087 772 999T885 748H756Q750 860 675 919T479 979Q367 979 298 931T229 797Q229 729 290 685T449 618L670 569Q779 544 850 471T922 287Q922 139 801 54T497 -31Q301 -31 190 63T63 342H193Q200 217 284 148T504 78Q624 78 708 132T793 279Q793 350 739 397T557 472L395 508Q256 538 178 605T100 791Q100 928 212 1007T498 1087ZM586 -102V-271Q586 -333 545 -372T410 -416V-358Q444 -353 464 -337T490 -289H410V-102H586Z"  />
<glyph unicode="&#x21A;" horiz-adv-x="1139" d="M1149 1462V1343H639V0H500V1343H-10V1462H1149ZM658 -102V-271Q658 -333 617 -372T482 -416V-358Q516 -353 536 -337T562 -289H482V-102H658Z"  />
<glyph unicode="&#x21B;" horiz-adv-x="606" d="M328 1374V1057H543V948H328V227Q328 146 358 121T437 96Q457 96 484 97T543 102V-8Q515 -10 487 -11T429 -12Q300 -12 250 37T199 213V948H14V1057H199V1374H328ZM455 -102V-271Q455 -333 414 -372T279 -416V-358Q313 -353 333 -337T359 -289H279V-102H455Z"  />
<glyph unicode="&#x237;" horiz-adv-x="379" d="M254 1057V-107Q254 -246 200 -318T32 -391L-61 -387V-281L-9 -284Q74 -284 99 -246T125 -137V1057H254Z"  />
<glyph unicode="&#x2C6;" horiz-adv-x="379" d="M266 1495L500 1206H367L190 1415L10 1206H-109L125 1495H266Z"  />
<glyph unicode="&#x2C7;" horiz-adv-x="379" d="M10 1495L186 1286L367 1495H485L252 1206H111L-123 1495H10Z"  />
<glyph unicode="&#x2C9;" horiz-adv-x="379" d="M526 1399V1307H-147V1399H526Z"  />
<glyph unicode="&#x2D8;" horiz-adv-x="379" d="M-104 1483H-25Q-19 1404 41 1360T186 1315Q266 1315 328 1359T403 1483H483Q468 1364 389 1294T186 1223Q58 1223 -18 1293T-104 1483Z"  />
<glyph unicode="&#x2D9;" horiz-adv-x="379" d="M260 1456V1249H121V1456H260Z"  />
<glyph unicode="&#x2DA;" horiz-adv-x="379" d="M190 1612Q279 1612 344 1547T410 1393Q410 1305 346 1240T190 1174Q99 1174 35 1239T-29 1393Q-29 1481 36 1546T190 1612ZM51 1393Q51 1334 91 1294T190 1253Q250 1253 290 1293T330 1393Q330 1452 291 1492T189 1532Q131 1532 91 1493T51 1393Z"  />
<glyph unicode="&#x2DB;" horiz-adv-x="379" d="M309 0H387Q295 -77 257 -126T219 -239Q219 -284 245 -310T309 -336Q340 -336 368 -317T422 -252L481 -279Q453 -344 405 -380T281 -416Q196 -416 145 -371T94 -248Q94 -184 148 -125T309 0Z"  />
<glyph unicode="&#x2DC;" horiz-adv-x="379" d="M432 1454H510Q491 1358 445 1309T332 1260Q282 1260 229 1283T130 1330Q84 1354 49 1354Q11 1354 -14 1329T-53 1249H-133Q-122 1338 -71 1392T49 1446Q93 1446 140 1429T238 1384Q289 1356 326 1356Q364 1356 390 1378T432 1454Z"  />
<glyph unicode="&#x2DD;" horiz-adv-x="379" d="M295 1495L37 1206H-68L139 1495H295ZM614 1495L356 1206H252L459 1495H614Z"  />
<glyph unicode="&#x374;" horiz-adv-x="451" d="M401 1495L195 1145H90L252 1495H401Z"  />
<glyph unicode="&#x375;" horiz-adv-x="451" d="M231 -66H336L174 -416H25L231 -66Z"  />
<glyph unicode="&#x37E;" horiz-adv-x="569" d="M371 1024V807H199V1024H371ZM371 217V-8Q371 -96 325 -175T190 -281V-193Q233 -175 259 -123T285 -12V0H199V217H371Z"  />
<glyph unicode="&#x384;" horiz-adv-x="494" d="M440 1495L270 1206H166L283 1495H440Z"  />
<glyph unicode="&#x385;" horiz-adv-x="680" d="M440 1495L270 1206H166L283 1495H440ZM133 1456V1249H-6V1456H133ZM604 1456V1249H465V1456H604Z"  />
<glyph unicode="&#x386;" horiz-adv-x="1305" d="M745 1462L1319 0H1169L991 455H325L149 0H0L589 1462H745ZM368 573H944L661 1322L368 573ZM336 1460L166 1171H62L179 1460H336Z"  />
<glyph unicode="&#x387;" horiz-adv-x="569" d="M371 1024V807H199V1024H371Z"  />
<glyph unicode="&#x388;" horiz-adv-x="1489" d="M1431 1462V1343H561V815H1376V696H561V119H1441V0H421V1462H1431ZM276 1460L106 1171H2L119 1460H276Z"  />
<glyph unicode="&#x389;" horiz-adv-x="1716" d="M561 1462V827H1429V1462H1568V0H1429V709H561V0H421V1462H561ZM276 1460L106 1171H2L119 1460H276Z"  />
<glyph unicode="&#x38A;" horiz-adv-x="686" d="M528 1462V0H389V1462H528ZM276 1460L106 1171H2L119 1460H276Z"  />
<glyph unicode="&#x38C;" horiz-adv-x="1710" d="M953 1493Q1159 1493 1316 1396T1557 1121T1641 731Q1641 401 1455 185T953 -31Q637 -31 450 182T263 731Q263 1066 450 1279T953 1493ZM402 731Q402 455 547 272T953 88Q1210 88 1356 270T1502 731Q1502 1006 1357 1190T951 1374Q697 1374 550 1194T402 731ZM276 1460L106 1171H2L119 1460H276Z"  />
<glyph unicode="&#x38E;" horiz-adv-x="1638" d="M532 1462L1012 724L1015 722L1493 1462H1659L1081 602V0H942V602L367 1462H532ZM276 1460L106 1171H2L119 1460H276Z"  />
<glyph unicode="&#x38F;" horiz-adv-x="1761" d="M987 1493Q1182 1493 1338 1399T1582 1145T1669 802Q1669 595 1582 423T1319 127V119H1692V0H1151V123Q1344 258 1436 422T1528 802Q1528 1048 1378 1211T987 1374Q738 1374 587 1218T436 805Q436 596 530 428T820 124V0H277V119H641V127Q474 243 385 416T295 803Q295 1102 491 1297T987 1493ZM276 1460L106 1171H2L119 1460H276Z"  />
<glyph unicode="&#x390;" horiz-adv-x="387" d="M252 1057V182Q252 150 270 130T328 109Q338 109 348 110T369 117V8Q343 4 323 2T280 0Q195 0 159 41T123 176V1057H252ZM411 1495L241 1206H137L254 1495H411ZM104 1456V1249H-35V1456H104ZM575 1456V1249H436V1456H575Z"  />
<glyph unicode="&#x391;" horiz-adv-x="1290" d="M731 1462L1305 0H1155L977 455H311L135 0H-14L575 1462H731ZM354 573H930L647 1322L354 573Z"  />
<glyph unicode="&#x392;" horiz-adv-x="1366" d="M776 1462Q987 1462 1111 1372T1235 1105Q1235 990 1166 897T981 776V772Q1121 754 1205 657T1290 416Q1290 211 1157 106T777 0H147V1462H776ZM774 821Q915 821 1005 888T1096 1070Q1096 1208 1012 1275T764 1343H287V821H774ZM776 119Q959 119 1055 193T1151 420Q1151 560 1051 631T765 702H287V119H776Z"  />
<glyph unicode="&#x393;" horiz-adv-x="1071" d="M1077 1462V1343H285V0H147V1462H1077Z"  />
<glyph unicode="&#x394;" horiz-adv-x="1290" d="M731 1462L1305 0H-14L575 1462H731ZM180 119H1108L647 1322L180 119Z"  />
<glyph unicode="&#x395;" horiz-adv-x="1214" d="M1157 1462V1343H287V815H1102V696H287V119H1167V0H147V1462H1157Z"  />
<glyph unicode="&#x396;" horiz-adv-x="1176" d="M1128 1462V1339L166 119H1149V0H10V123L973 1343H76V1462H1128Z"  />
<glyph unicode="&#x397;" horiz-adv-x="1442" d="M287 1462V827H1155V1462H1294V0H1155V709H287V0H147V1462H287Z"  />
<glyph unicode="&#x398;" horiz-adv-x="1518" d="M760 1493Q1075 1493 1261 1278T1448 731Q1448 401 1262 185T760 -31Q444 -31 257 182T70 731Q70 1066 257 1279T760 1493ZM209 731Q209 455 354 272T760 88Q1017 88 1163 270T1309 731Q1309 1006 1164 1190T758 1374Q504 1374 357 1194T209 731ZM1079 811V694H438V811H1079Z"  />
<glyph unicode="&#x399;" horiz-adv-x="455" d="M297 1462V0H158V1462H297Z"  />
<glyph unicode="&#x39A;" horiz-adv-x="1327" d="M287 1462V676L1137 1462H1325L672 858L1356 0H1176L567 762L287 502V0H147V1462H287Z"  />
<glyph unicode="&#x39B;" horiz-adv-x="1257" d="M715 1462L1272 0H1122L631 1323L135 0H-14L559 1462H715Z"  />
<glyph unicode="&#x39C;" horiz-adv-x="1706" d="M348 1462L854 180L1358 1462H1563V0H1423V1264H1419L920 0H788L287 1264H283V0H143V1462H348Z"  />
<glyph unicode="&#x39D;" horiz-adv-x="1442" d="M301 1462L1153 225H1157V1462H1296V0H1141L289 1237H285V0H145V1462H301Z"  />
<glyph unicode="&#x39E;" horiz-adv-x="1167" d="M1073 1462V1343H119V1462H1073ZM1001 807V690H190V807H1001ZM1094 117V0H96V117H1094Z"  />
<glyph unicode="&#x39F;" horiz-adv-x="1518" d="M760 1493Q966 1493 1123 1396T1364 1121T1448 731Q1448 401 1262 185T760 -31Q444 -31 257 182T70 731Q70 1066 257 1279T760 1493ZM209 731Q209 455 354 272T760 88Q1017 88 1163 270T1309 731Q1309 1006 1164 1190T758 1374Q504 1374 357 1194T209 731Z"  />
<glyph unicode="&#x3A0;" horiz-adv-x="1464" d="M1307 1462V0H1169V1343H324V0H186V1462H1307Z"  />
<glyph unicode="&#x3A1;" horiz-adv-x="1290" d="M805 1462Q994 1462 1112 1352T1231 1044Q1231 848 1113 738T805 627H287V0H147V1462H805ZM774 745Q917 745 1004 822T1092 1044Q1092 1186 1008 1264T754 1343H287V745H774Z"  />
<glyph unicode="&#x3A3;" horiz-adv-x="1243" d="M1128 1462V1343H279L844 766L252 119H1165V0H86V123L676 762L111 1339V1462H1128Z"  />
<glyph unicode="&#x3A4;" horiz-adv-x="1139" d="M1149 1462V1343H639V0H500V1343H-10V1462H1149Z"  />
<glyph unicode="&#x3A5;" horiz-adv-x="1251" d="M145 1462L625 724L628 722L1106 1462H1272L694 602V0H555V602L-20 1462H145Z"  />
<glyph unicode="&#x3A6;" horiz-adv-x="1575" d="M858 1524V1376Q1174 1365 1339 1209T1505 762Q1505 483 1338 327T858 160V0H719V160Q401 170 236 321T70 754Q70 1040 243 1203T719 1376V1524H858ZM209 754Q209 514 334 401T719 276V1260Q464 1247 337 1119T209 754ZM858 276Q1118 288 1242 407T1366 762Q1366 1002 1241 1124T858 1260V276Z"  />
<glyph unicode="&#x3A7;" horiz-adv-x="1176" d="M170 1462L584 850L1012 1462H1167L668 750L1196 0H1028L584 645L133 0H-25L502 754L6 1462H170Z"  />
<glyph unicode="&#x3A8;" horiz-adv-x="1679" d="M283 1462V889Q283 659 393 557T766 454V1462H905V453Q1160 453 1278 564T1397 890V1462H1536V895Q1536 631 1381 488T905 334V0H766V334Q436 338 290 474T143 894V1462H283Z"  />
<glyph unicode="&#x3A9;" horiz-adv-x="1554" d="M780 1493Q975 1493 1131 1399T1375 1145T1462 802Q1462 595 1375 423T1112 127V119H1485V0H944V123Q1137 258 1229 422T1321 802Q1321 1048 1171 1211T780 1374Q531 1374 380 1218T229 805Q229 596 323 428T613 124V0H70V119H434V127Q267 243 178 416T88 803Q88 1102 284 1297T780 1493Z"  />
<glyph unicode="&#x3AA;" horiz-adv-x="455" d="M297 1462V0H158V1462H297ZM119 1845V1638H-20V1845H119ZM481 1845V1638H342V1845H481Z"  />
<glyph unicode="&#x3AB;" horiz-adv-x="1251" d="M145 1462L625 724L628 722L1106 1462H1272L694 602V0H555V602L-20 1462H145ZM516 1845V1638H377V1845H516ZM878 1845V1638H739V1845H878Z"  />
<glyph unicode="&#x3AC;" horiz-adv-x="1165" d="M544 1087Q654 1087 756 1026T897 856H901V1057H1030V182Q1030 150 1048 130T1106 109Q1118 109 1127 110T1147 117V8Q1116 3 1100 2T1064 0Q981 0 946 40T911 184V201H907Q863 94 757 32T544 -31Q320 -31 193 125T66 532Q66 783 195 935T544 1087ZM195 532Q195 333 287 206T545 78Q710 78 805 205T901 528Q901 732 803 855T543 979Q381 979 288 853T195 532ZM768 1495L598 1206H494L611 1495H768Z"  />
<glyph unicode="&#x3AD;" horiz-adv-x="987" d="M508 1087Q681 1087 776 1019T899 819H770Q746 905 685 942T508 979Q366 979 299 932T231 791Q231 696 287 649T436 602H608V494H441Q327 494 261 442T195 287Q195 181 274 130T512 78Q663 78 732 132T821 295H950Q914 134 807 52T511 -31Q293 -31 180 48T66 287Q66 396 127 463T305 547V549Q210 559 156 623T102 786Q102 926 213 1006T508 1087ZM725 1495L555 1206H451L568 1495H725Z"  />
<glyph unicode="&#x3AE;" horiz-adv-x="1100" d="M593 1087Q796 1087 887 988T979 690V-391H850V668Q850 821 784 900T582 979Q476 979 400 928T287 790T250 618V0H121V1057H250V874H254Q291 969 384 1028T593 1087ZM782 1495L612 1206H508L625 1495H782Z"  />
<glyph unicode="&#x3AF;" horiz-adv-x="387" d="M252 1057V182Q252 150 270 130T328 109Q338 109 348 110T369 117V8Q343 4 323 2T280 0Q195 0 159 41T123 176V1057H252ZM413 1495L243 1206H139L256 1495H413Z"  />
<glyph unicode="&#x3B0;" horiz-adv-x="1073" d="M252 1057V374Q252 223 315 151T534 78Q703 78 788 200T874 563Q874 700 847 824T764 1057H893Q949 947 976 820T1004 567Q1004 276 886 123T534 -31Q321 -31 222 72T123 374V1057H252ZM649 1495L479 1206H375L492 1495H649ZM342 1456V1249H203V1456H342ZM813 1456V1249H674V1456H813Z"  />
<glyph unicode="&#x3B1;" horiz-adv-x="1165" d="M544 1087Q654 1087 756 1026T897 856H901V1057H1030V182Q1030 150 1048 130T1106 109Q1118 109 1127 110T1147 117V8Q1116 3 1100 2T1064 0Q981 0 946 40T911 184V201H907Q863 94 757 32T544 -31Q320 -31 193 125T66 532Q66 783 195 935T544 1087ZM195 532Q195 333 287 206T545 78Q710 78 805 205T901 528Q901 732 803 855T543 979Q381 979 288 853T195 532Z"  />
<glyph unicode="&#x3B2;" horiz-adv-x="1139" d="M545 1462Q746 1462 850 1370T954 1120Q954 1017 904 935T776 829V825Q913 801 987 700T1061 426Q1061 209 937 89T625 -31Q500 -31 397 30T256 201H252V-391H123V1016Q123 1226 228 1344T545 1462ZM252 519Q252 319 352 199T625 78Q783 78 857 164T932 426Q932 586 864 661T644 741H520V850H543Q682 850 753 921T825 1120Q825 1233 753 1293T543 1354Q387 1354 320 1272T252 1012V519Z"  />
<glyph unicode="&#x3B3;" horiz-adv-x="891" d="M152 1057Q252 865 339 590T444 148H453Q559 359 632 579T750 1057H883Q837 772 735 494T477 -47V-391H348V-133Q348 87 246 448T8 1057H152Z"  />
<glyph unicode="&#x3B4;" horiz-adv-x="1104" d="M594 1462Q680 1462 760 1447T895 1409V1298Q824 1323 736 1338T592 1354Q481 1354 426 1331T371 1251Q371 1201 429 1164T643 1048Q865 935 951 803T1038 504Q1038 267 910 118T565 -31Q331 -31 199 113T66 507Q66 703 179 828T502 1006Q380 1058 311 1117T242 1251Q242 1337 332 1399T594 1462ZM195 508Q195 302 296 190T565 78Q720 78 814 196T909 504Q909 657 831 763T593 950Q393 915 294 806T195 508Z"  />
<glyph unicode="&#x3B5;" horiz-adv-x="987" d="M508 1087Q681 1087 776 1019T899 819H770Q746 905 685 942T508 979Q366 979 299 932T231 791Q231 696 287 649T436 602H608V494H441Q327 494 261 442T195 287Q195 181 274 130T512 78Q663 78 732 132T821 295H950Q914 134 807 52T511 -31Q293 -31 180 48T66 287Q66 396 127 463T305 547V549Q210 559 156 623T102 786Q102 926 213 1006T508 1087Z"  />
<glyph unicode="&#x3B6;" horiz-adv-x="874" d="M858 1462V1366Q529 1215 364 1011T199 541Q199 342 288 226T572 109H611Q722 102 779 35T836 -150Q836 -184 831 -216T817 -276H700Q707 -244 710 -218T713 -172Q713 -96 691 -51T595 0H545Q403 5 334 37T216 117T124 252T70 509Q70 801 230 1017T649 1348V1354H166V1462H858Z"  />
<glyph unicode="&#x3B7;" horiz-adv-x="1100" d="M593 1087Q796 1087 887 988T979 690V-391H850V668Q850 821 784 900T582 979Q476 979 400 928T287 790T250 618V0H121V1057H250V874H254Q291 969 384 1028T593 1087Z"  />
<glyph unicode="&#x3B8;" horiz-adv-x="1063" d="M532 1462Q775 1462 886 1286T997 719Q997 329 886 149T532 -31Q293 -31 180 144T66 718Q66 1104 179 1283T532 1462ZM198 786H866V800Q866 1079 786 1216T530 1354Q406 1354 333 1287T230 1080T198 786ZM532 78Q707 78 787 213T868 663V678H197V663Q197 364 277 221T532 78Z"  />
<glyph unicode="&#x3B9;" horiz-adv-x="387" d="M252 1057V182Q252 150 270 130T328 109Q338 109 348 110T369 117V8Q343 4 323 2T280 0Q195 0 159 41T123 176V1057H252Z"  />
<glyph unicode="&#x3BA;" horiz-adv-x="1024" d="M252 1057V520L838 1057H1010L565 659L1040 0H879L467 569L252 377V0H123V1057H252Z"  />
<glyph unicode="&#x3BB;" horiz-adv-x="1032" d="M229 1462Q325 1462 390 1408T544 1118L894 171Q909 132 928 121T973 109Q985 109 994 110T1014 117V8Q985 3 965 2T926 0Q879 0 848 21T795 100L508 895L166 0H25L451 1024Q448 1033 389 1193T228 1354Q203 1354 170 1348T121 1333V1444Q145 1453 171 1457T229 1462Z"  />
<glyph unicode="&#x3BC;" horiz-adv-x="1100" d="M250 1057V368Q250 235 312 157T531 78Q680 78 765 195T850 494V1057H979V0H860V190H856Q805 86 708 28T492 -31Q423 -31 360 -13T250 41V-391H121V1057H250Z"  />
<glyph unicode="&#x3BD;" horiz-adv-x="934" d="M152 1057L481 129H485Q600 344 676 578T793 1057H926Q879 789 783 525T545 0H408L8 1057H152Z"  />
<glyph unicode="&#x3BE;" horiz-adv-x="840" d="M543 1462Q615 1462 685 1448T809 1415V1305Q743 1329 677 1341T544 1354Q400 1354 324 1284T248 1078Q248 951 335 888T577 825H737V717H568Q389 717 294 643T199 399Q199 248 296 179T565 109Q698 109 760 43T823 -150Q823 -184 819 -215T805 -276H688Q695 -244 697 -222T700 -173Q700 -72 668 -36T567 1Q368 1 275 50T126 184T70 399Q70 552 143 641T354 756V762Q236 793 178 875T119 1077Q119 1259 232 1360T543 1462Z"  />
<glyph unicode="&#x3BF;" horiz-adv-x="1139" d="M569 1087Q795 1087 932 930T1069 528Q1069 380 1013 252T841 47T569 -31Q345 -31 208 126T70 528Q70 773 207 930T569 1087ZM199 528Q199 341 300 210T569 78Q737 78 838 210T940 528Q940 714 839 846T567 979Q403 979 301 848T199 528Z"  />
<glyph unicode="&#x3C0;" horiz-adv-x="1210" d="M1155 1057V948H987V183Q987 154 1006 132T1077 109Q1097 109 1110 111T1128 117V8Q1106 4 1077 2T1023 0Q933 0 896 46T858 177V948H330V0H201V948H47V1057H1155Z"  />
<glyph unicode="&#x3C1;" horiz-adv-x="1165" d="M600 1087Q831 1087 959 935T1087 527Q1087 284 963 127T624 -31Q495 -31 398 29T256 201H252V-391H123V537Q123 785 246 936T600 1087ZM252 531Q252 325 351 202T623 78Q773 78 865 205T958 526Q958 736 863 857T594 979Q434 979 343 862T252 531Z"  />
<glyph unicode="&#x3C2;" horiz-adv-x="985" d="M565 1087Q718 1087 822 1017T969 817H840Q799 902 733 940T565 979Q391 979 295 861T199 537Q199 328 300 219T600 109H662Q711 106 745 96T815 59T873 -20T895 -150Q895 -184 891 -215T877 -276H760Q767 -243 769 -221T772 -173Q772 -74 741 -37T637 0H573Q331 1 201 144T70 537Q70 793 201 940T565 1087Z"  />
<glyph unicode="&#x3C3;" horiz-adv-x="1165" d="M1149 1057V946H870Q965 877 1017 771T1069 528Q1069 379 1010 248T836 43T569 -31Q338 -31 204 124T70 528Q70 773 218 915T609 1057H1149ZM199 528Q199 322 301 200T569 78Q736 78 838 207T940 528Q940 665 891 770T754 948H622Q438 948 319 843T199 528Z"  />
<glyph unicode="&#x3C4;" horiz-adv-x="936" d="M920 1057V948H514V183Q514 154 533 132T604 109Q624 109 637 111T655 117V8Q634 4 606 2T550 0Q460 0 423 46T385 177V948H16V1057H920Z"  />
<glyph unicode="&#x3C5;" horiz-adv-x="1073" d="M252 1057V374Q252 223 315 151T534 78Q703 78 788 200T874 563Q874 700 847 824T764 1057H893Q949 947 976 820T1004 567Q1004 276 886 123T534 -31Q321 -31 222 72T123 374V1057H252Z"  />
<glyph unicode="&#x3C6;" horiz-adv-x="1483" d="M680 1343H805V1087Q1087 1078 1252 930T1417 539Q1417 275 1258 130T809 -31V-391H680V-31Q383 -18 225 128T66 535Q66 784 230 931T680 1087V1343ZM195 535Q195 322 323 201T680 78V979Q454 977 325 858T195 535ZM805 78Q1034 78 1161 201T1288 538Q1288 732 1161 854T805 979V78Z"  />
<glyph unicode="&#x3C7;" horiz-adv-x="956" d="M180 1057L465 498L776 1057H938L549 391L969 -391H805L463 276L147 -391H-12L385 389L18 1057H180Z"  />
<glyph unicode="&#x3C8;" horiz-adv-x="1356" d="M745 1339V78Q945 90 1051 213T1157 563Q1157 693 1130 819T1047 1057H1176Q1224 968 1255 836T1286 567Q1286 300 1146 143T745 -31V-391H616V-31H614Q359 -13 241 117T123 484V1057H252V485Q252 294 340 195T616 78V1339H745Z"  />
<glyph unicode="&#x3C9;" horiz-adv-x="1468" d="M367 1057Q290 943 245 786T199 480Q199 292 261 185T439 78Q555 78 612 150T670 348V811H799V348Q799 219 857 149T1029 78Q1145 78 1207 185T1270 481Q1270 620 1227 774T1102 1057H1231Q1318 925 1358 782T1399 482Q1399 257 1300 113T1030 -31Q912 -31 836 24T735 195H729Q706 82 633 26T438 -31Q271 -31 171 110T70 482Q70 643 110 782T238 1057H367Z"  />
<glyph unicode="&#x3CA;" horiz-adv-x="387" d="M252 1057V182Q252 150 270 130T328 109Q338 109 348 110T369 117V8Q343 4 323 2T280 0Q195 0 159 41T123 176V1057H252ZM78 1456V1249H-61V1456H78ZM440 1456V1249H301V1456H440Z"  />
<glyph unicode="&#x3CB;" horiz-adv-x="1073" d="M252 1057V374Q252 223 315 151T534 78Q703 78 788 200T874 563Q874 700 847 824T764 1057H893Q949 947 976 820T1004 567Q1004 276 886 123T534 -31Q321 -31 222 72T123 374V1057H252ZM410 1456V1249H271V1456H410ZM772 1456V1249H633V1456H772Z"  />
<glyph unicode="&#x3CC;" horiz-adv-x="1139" d="M569 1087Q795 1087 932 930T1069 528Q1069 380 1013 252T841 47T569 -31Q345 -31 208 126T70 528Q70 773 207 930T569 1087ZM199 528Q199 341 300 210T569 78Q737 78 838 210T940 528Q940 714 839 846T567 979Q403 979 301 848T199 528ZM788 1495L618 1206H514L631 1495H788Z"  />
<glyph unicode="&#x3CD;" horiz-adv-x="1073" d="M252 1057V374Q252 223 315 151T534 78Q703 78 788 200T874 563Q874 700 847 824T764 1057H893Q949 947 976 820T1004 567Q1004 276 886 123T534 -31Q321 -31 222 72T123 374V1057H252ZM733 1495L563 1206H459L576 1495H733Z"  />
<glyph unicode="&#x3CE;" horiz-adv-x="1468" d="M367 1057Q290 943 245 786T199 480Q199 292 261 185T439 78Q555 78 612 150T670 348V811H799V348Q799 219 857 149T1029 78Q1145 78 1207 185T1270 481Q1270 620 1227 774T1102 1057H1231Q1318 925 1358 782T1399 482Q1399 257 1300 113T1030 -31Q912 -31 836 24T735 195H729Q706 82 633 26T438 -31Q271 -31 171 110T70 482Q70 643 110 782T238 1057H367ZM956 1495L786 1206H682L799 1495H956Z"  />
<glyph unicode="&#x400;" horiz-adv-x="1214" d="M1157 1462V1343H287V815H1102V696H287V119H1167V0H147V1462H1157ZM516 1884L731 1595H627L357 1884H516Z"  />
<glyph unicode="&#x401;" horiz-adv-x="1214" d="M1157 1462V1343H287V815H1102V696H287V119H1167V0H147V1462H1157ZM533 1845V1638H394V1845H533ZM895 1845V1638H756V1845H895Z"  />
<glyph unicode="&#x402;" horiz-adv-x="1520" d="M1149 1462V1343H598V690H604Q664 795 760 842T977 889Q1194 889 1319 744T1444 352Q1444 92 1300 -76T907 -254V-133Q1104 -120 1205 6T1307 352Q1307 541 1216 656T965 772Q786 772 692 660T598 351V0H459V1343H-10V1462H1149Z"  />
<glyph unicode="&#x403;" horiz-adv-x="1063" d="M1051 1462V1343H287V0H147V1462H1051ZM821 1884L551 1595H447L662 1884H821Z"  />
<glyph unicode="&#x404;" horiz-adv-x="1442" d="M767 1493Q988 1493 1153 1370T1352 1034H1212Q1177 1192 1055 1283T768 1374Q536 1374 392 1228T219 813H1012V696H215Q227 416 374 252T767 88Q946 88 1071 199T1233 508H1370Q1327 252 1167 111T768 -31Q451 -31 265 184T78 731Q78 1066 266 1279T767 1493Z"  />
<glyph unicode="&#x405;" horiz-adv-x="1290" d="M623 1493Q858 1493 1010 1372T1162 1038H1024Q1015 1198 903 1286T625 1374Q452 1374 355 1300T258 1084Q258 1001 307 946T488 858L821 776Q1027 725 1121 631T1215 388Q1215 204 1074 87T656 -31Q383 -31 227 92T71 448V481H211V471Q211 277 332 183T686 88Q837 88 956 167T1075 385Q1075 574 790 645Q504 715 449 729Q274 772 197 857T119 1080Q119 1250 248 1371T623 1493Z"  />
<glyph unicode="&#x406;" horiz-adv-x="455" d="M297 1462V0H158V1462H297Z"  />
<glyph unicode="&#x407;" horiz-adv-x="455" d="M297 1462V0H158V1462H297ZM115 1845V1638H-24V1845H115ZM477 1845V1638H338V1845H477Z"  />
<glyph unicode="&#x408;" horiz-adv-x="1024" d="M877 1462V398Q877 179 779 74T452 -31Q246 -31 145 91T43 464V469H182Q185 244 256 166T464 88Q617 88 677 168T737 454V1462H877Z"  />
<glyph unicode="&#x409;" horiz-adv-x="2056" d="M1159 1462V844H1562Q1749 844 1869 733T1989 422Q1989 226 1870 113T1562 0H1020V1343H496L464 466Q454 180 377 75T147 -31Q113 -31 77 -25T8 -6V113Q28 102 61 95T129 88Q236 88 276 173T324 480L358 1462H1159ZM1532 119Q1674 119 1761 197T1849 422Q1849 569 1760 647T1531 725H1159V119H1532Z"  />
<glyph unicode="&#x40A;" horiz-adv-x="2058" d="M287 1462V844H1001V1462H1141V844H1564Q1752 844 1871 733T1991 422Q1991 226 1873 113T1564 0H1001V725H287V0H147V1462H287ZM1534 119Q1676 119 1763 197T1851 422Q1851 569 1762 647T1533 725H1141V119H1534Z"  />
<glyph unicode="&#x40B;" horiz-adv-x="1532" d="M1149 1462V1343H598V801Q675 840 767 864T947 889Q1173 889 1283 783T1393 497V0H1253V473Q1253 623 1174 697T937 772Q856 772 759 744T598 678V0H459V1343H-10V1462H1149Z"  />
<glyph unicode="&#x40C;" horiz-adv-x="1327" d="M287 1462V676L1137 1462H1325L672 858L1356 0H1176L567 762L287 502V0H147V1462H287ZM931 1884L661 1595H557L772 1884H931Z"  />
<glyph unicode="&#x40D;" horiz-adv-x="1442" d="M287 1462V150L1114 1462H1294V0H1155V1313L329 2L327 0H147V1462H287ZM633 1884L848 1595H744L474 1884H633Z"  />
<glyph unicode="&#x40E;" horiz-adv-x="1214" d="M143 1462L621 473L1083 1462H1233L650 250Q579 102 493 36T294 -31Q250 -31 213 -23T135 2V125Q171 108 212 98T290 88Q363 88 421 138T545 338L-14 1462H143ZM326 1872H405Q411 1794 472 1749T616 1704Q696 1704 758 1748T833 1872H913Q898 1753 819 1683T616 1612Q487 1612 412 1682T326 1872Z"  />
<glyph unicode="&#x40F;" horiz-adv-x="1442" d="M287 1462V119H1155V1462H1294V0H791V-393H651V0H147V1462H287Z"  />
<glyph unicode="&#x410;" horiz-adv-x="1290" d="M731 1462L1305 0H1155L977 455H311L135 0H-14L575 1462H731ZM354 573H930L647 1322L354 573Z"  />
<glyph unicode="&#x411;" horiz-adv-x="1358" d="M1157 1462V1343H287V844H846Q1037 844 1154 733T1272 422Q1272 226 1153 113T846 0H147V1462H1157ZM815 119Q958 119 1045 198T1133 422Q1133 568 1043 646T814 725H287V119H815Z"  />
<glyph unicode="&#x412;" horiz-adv-x="1366" d="M776 1462Q987 1462 1111 1372T1235 1105Q1235 990 1166 897T981 776V772Q1121 754 1205 657T1290 416Q1290 211 1157 106T777 0H147V1462H776ZM774 821Q915 821 1005 888T1096 1070Q1096 1208 1012 1275T764 1343H287V821H774ZM776 119Q959 119 1055 193T1151 420Q1151 560 1051 631T765 702H287V119H776Z"  />
<glyph unicode="&#x413;" horiz-adv-x="1063" d="M1051 1462V1343H287V0H147V1462H1051Z"  />
<glyph unicode="&#x414;" horiz-adv-x="1452" d="M1268 1462V119H1421V-393H1282V0H152V-393H12V119H145Q251 305 306 560T362 1207V1462H1268ZM502 1187Q502 817 450 565T293 119H1128V1343H502V1187Z"  />
<glyph unicode="&#x415;" horiz-adv-x="1214" d="M1157 1462V1343H287V815H1102V696H287V119H1167V0H147V1462H1157Z"  />
<glyph unicode="&#x416;" horiz-adv-x="2015" d="M217 1462L938 698V1462H1077V694L1798 1462H1987L1380 834L2038 0H1858L1283 729H1281L1077 518V0H938V514L733 729L154 0H-23L637 827L29 1462H217Z"  />
<glyph unicode="&#x417;" horiz-adv-x="1284" d="M668 1493Q898 1493 1030 1386T1163 1092Q1163 987 1107 905T948 780V774Q1073 737 1137 647T1202 419Q1202 224 1054 97T657 -31Q383 -31 230 102T76 475V481H209Q209 291 328 189T664 86Q847 86 955 176T1063 416Q1063 550 972 629T738 709H498V827H737Q856 827 940 895T1024 1083Q1024 1223 929 1300T669 1378Q483 1378 378 1293T258 1046V1044H123Q134 1258 280 1375T668 1493Z"  />
<glyph unicode="&#x418;" horiz-adv-x="1442" d="M287 1462V150L1114 1462H1294V0H1155V1313L329 2L327 0H147V1462H287Z"  />
<glyph unicode="&#x419;" horiz-adv-x="1442" d="M287 1462V150L1114 1462H1294V0H1155V1313L329 2L327 0H147V1462H287ZM433 1872H512Q518 1794 579 1749T723 1704Q803 1704 865 1748T940 1872H1020Q1005 1753 926 1683T723 1612Q594 1612 519 1682T433 1872Z"  />
<glyph unicode="&#x41A;" horiz-adv-x="1327" d="M287 1462V676L1137 1462H1325L672 858L1356 0H1176L567 762L287 502V0H147V1462H287Z"  />
<glyph unicode="&#x41B;" horiz-adv-x="1364" d="M1217 1462V0H1077V1343H496L464 466Q454 180 377 75T147 -31Q113 -31 77 -25T8 -6V113Q28 102 61 95T129 88Q236 88 276 173T324 480L358 1462H1217Z"  />
<glyph unicode="&#x41C;" horiz-adv-x="1706" d="M348 1462L854 180L1358 1462H1563V0H1423V1264H1419L920 0H788L287 1264H283V0H143V1462H348Z"  />
<glyph unicode="&#x41D;" horiz-adv-x="1442" d="M287 1462V827H1155V1462H1294V0H1155V709H287V0H147V1462H287Z"  />
<glyph unicode="&#x41E;" horiz-adv-x="1518" d="M760 1493Q966 1493 1123 1396T1364 1121T1448 731Q1448 401 1262 185T760 -31Q444 -31 257 182T70 731Q70 1066 257 1279T760 1493ZM209 731Q209 455 354 272T760 88Q1017 88 1163 270T1309 731Q1309 1006 1164 1190T758 1374Q504 1374 357 1194T209 731Z"  />
<glyph unicode="&#x41F;" horiz-adv-x="1442" d="M1294 1462V0H1155V1343H287V0H147V1462H1294Z"  />
<glyph unicode="&#x420;" horiz-adv-x="1290" d="M805 1462Q994 1462 1112 1352T1231 1044Q1231 848 1113 738T805 627H287V0H147V1462H805ZM774 745Q917 745 1004 822T1092 1044Q1092 1186 1008 1264T754 1343H287V745H774Z"  />
<glyph unicode="&#x421;" horiz-adv-x="1442" d="M768 1493Q990 1493 1157 1367T1356 1020H1217Q1176 1189 1054 1281T767 1374Q513 1374 365 1194T217 731Q217 454 363 271T767 88Q957 88 1085 216T1237 556H1376Q1345 281 1182 125T768 -31Q451 -31 265 184T78 731Q78 1066 266 1279T768 1493Z"  />
<glyph unicode="&#x422;" horiz-adv-x="1139" d="M1149 1462V1343H639V0H500V1343H-10V1462H1149Z"  />
<glyph unicode="&#x423;" horiz-adv-x="1214" d="M143 1462L621 473L1083 1462H1233L650 250Q579 102 493 36T294 -31Q250 -31 213 -23T135 2V125Q171 108 212 98T290 88Q363 88 421 138T545 338L-14 1462H143Z"  />
<glyph unicode="&#x424;" horiz-adv-x="1544" d="M842 1462V1300Q1132 1298 1305 1148T1479 743Q1479 491 1307 339T842 178V0H702V178Q410 181 238 332T66 743Q66 908 145 1035T374 1231T702 1300V1462H842ZM203 743Q203 537 331 422T702 295V1182Q463 1175 333 1062T203 743ZM842 295Q1076 302 1208 419T1341 743Q1341 950 1213 1061T842 1182V295Z"  />
<glyph unicode="&#x425;" horiz-adv-x="1176" d="M170 1462L584 850L1012 1462H1167L668 750L1196 0H1028L584 645L133 0H-25L502 754L6 1462H170Z"  />
<glyph unicode="&#x426;" horiz-adv-x="1479" d="M287 1462V119H1155V1462H1294V119H1448V-393H1309V0H147V1462H287Z"  />
<glyph unicode="&#x427;" horiz-adv-x="1311" d="M1163 1462V0H1024V696Q910 669 790 652T575 635Q329 635 217 738T104 1046V1460H244V1055Q244 904 322 830T582 756Q649 756 745 767T1024 815V1462H1163Z"  />
<glyph unicode="&#x428;" horiz-adv-x="2138" d="M287 1462V119H999V1462H1139V119H1851V1462H1991V0H147V1462H287Z"  />
<glyph unicode="&#x429;" horiz-adv-x="2175" d="M287 1462V119H999V1462H1139V119H1851V1462H1991V119H2144V-393H2005V0H147V1462H287Z"  />
<glyph unicode="&#x42A;" horiz-adv-x="1616" d="M604 1462V844H1122Q1311 844 1429 732T1548 422Q1548 227 1430 114T1122 0H465V1343H-10V1462H604ZM1091 119Q1236 119 1322 198T1409 422Q1409 566 1321 645T1091 725H604V119H1091Z"  />
<glyph unicode="&#x42B;" horiz-adv-x="1729" d="M287 1462V844H805Q991 844 1111 733T1231 422Q1231 226 1112 113T805 0H147V1462H287ZM1581 1462V0H1442V1462H1581ZM774 119Q917 119 1004 198T1092 422Q1092 568 1002 646T773 725H287V119H774Z"  />
<glyph unicode="&#x42C;" horiz-adv-x="1298" d="M287 1462V844H805Q991 844 1111 733T1231 422Q1231 226 1112 113T805 0H147V1462H287ZM774 119Q917 119 1004 198T1092 422Q1092 568 1002 646T773 725H287V119H774Z"  />
<glyph unicode="&#x42D;" horiz-adv-x="1442" d="M703 1493Q1018 1493 1191 1287T1364 732Q1364 513 1279 335T1039 63T682 -31Q435 -31 269 111T70 508H209Q236 313 364 201T682 88Q928 88 1071 248T1227 696H442V813H1223Q1203 1084 1070 1229T703 1374Q531 1374 403 1286T229 1034H92Q138 1252 309 1372T703 1493Z"  />
<glyph unicode="&#x42E;" horiz-adv-x="2050" d="M1292 1493Q1606 1493 1793 1280T1980 731Q1980 395 1793 182T1292 -31Q990 -31 801 170T602 709H287V0H147V1462H287V827H606Q642 1144 826 1318T1292 1493ZM741 731Q741 453 888 271T1292 88Q1548 88 1694 270T1841 731Q1841 1013 1694 1193T1290 1374Q1126 1374 1002 1295T809 1065T741 731Z"  />
<glyph unicode="&#x42F;" horiz-adv-x="1290" d="M1143 1462V0H1004V649H686L184 0H8L512 649Q308 657 198 763T88 1057Q88 1251 208 1356T521 1462H1143ZM227 1057Q227 917 313 843T543 768H1004V1343H529Q394 1343 311 1272T227 1057Z"  />
<glyph unicode="&#x430;" horiz-adv-x="1063" d="M540 1087Q740 1087 834 1001T928 756V182Q928 150 946 130T1004 109Q1015 109 1025 110T1044 117V8Q1020 3 1002 2T962 0Q878 0 844 40T809 173V184H805Q726 64 640 17T421 -31Q260 -31 163 49T66 279Q66 432 172 509T648 620Q732 627 765 658T799 762Q799 869 734 924T523 979Q390 979 317 916T240 733H111Q120 907 230 997T540 1087ZM795 578Q775 542 672 528Q570 514 446 493T259 422T195 287Q195 193 265 136T431 78Q589 78 694 172T799 404V578H795Z"  />
<glyph unicode="&#x431;" horiz-adv-x="1139" d="M1036 1462Q1012 1340 917 1310T672 1272Q523 1264 430 1217T282 1070T207 807H213Q274 922 374 980T604 1038Q807 1038 937 891T1067 508Q1067 264 931 117T578 -31Q348 -31 218 131T88 583Q88 740 110 891T206 1164T405 1335T704 1390Q877 1396 895 1462H1036ZM217 512Q217 323 318 201T582 78Q742 78 840 194T938 508Q938 697 841 813T588 930Q425 930 321 817T217 512Z"  />
<glyph unicode="&#x432;" horiz-adv-x="1063" d="M627 1057Q771 1057 859 989T948 791Q948 704 902 645T770 563V559Q880 537 936 472T993 301Q993 155 896 78T623 0H121V1057H627ZM609 602Q709 602 767 646T825 772Q825 860 769 905T609 950H248V602H609ZM613 106Q738 106 802 153T866 303Q866 406 797 454T614 502H248V106H613Z"  />
<glyph unicode="&#x433;" horiz-adv-x="819" d="M815 1057V948H250V0H121V1057H815Z"  />
<glyph unicode="&#x434;" horiz-adv-x="1130" d="M971 1057V109H1116V-336H987V0H141V-336H12V109H137Q220 262 251 454T283 869V1057H971ZM842 109V948H410V902Q410 624 375 438T270 109H842Z"  />
<glyph unicode="&#x435;" horiz-adv-x="1063" d="M547 1087Q762 1087 887 931T1012 515V494H199Q202 310 297 194T547 78Q676 78 759 144T879 348H1008Q963 157 850 63T547 -31Q323 -31 197 119T70 528Q70 774 197 930T547 1087ZM883 602Q878 759 785 869T545 979Q408 979 315 877T199 602H883Z"  />
<glyph unicode="&#x436;" horiz-adv-x="1518" d="M207 1057L694 526V1057H823V520L1315 1057H1483L1069 621L1528 0H1366L979 535L823 371V0H694V365L535 532L147 0H-10L446 616L35 1057H207Z"  />
<glyph unicode="&#x437;" horiz-adv-x="993" d="M492 1087Q682 1087 782 1009T883 799Q883 722 840 660T713 565V561Q813 541 865 477T918 313Q918 162 801 66T494 -31Q295 -31 181 61T57 330H186Q206 198 281 138T496 78Q633 78 707 136T782 309Q782 401 723 449T564 498H381V600H532Q626 600 688 653T750 793Q750 880 685 929T490 979Q362 979 290 922T205 750H78Q92 914 200 1000T492 1087Z"  />
<glyph unicode="&#x438;" horiz-adv-x="1100" d="M250 1057V152L819 1057H979V0H850V905L281 0H121V1057H250Z"  />
<glyph unicode="&#x439;" horiz-adv-x="1100" d="M250 1057V152L819 1057H979V0H850V905L281 0H121V1057H250ZM273 1483H352Q358 1404 418 1360T563 1315Q643 1315 705 1359T780 1483H860Q845 1364 766 1294T563 1223Q435 1223 359 1293T273 1483Z"  />
<glyph unicode="&#x43A;" horiz-adv-x="1024" d="M252 1057V520L838 1057H1010L565 659L1040 0H879L467 569L252 377V0H123V1057H252Z"  />
<glyph unicode="&#x43B;" horiz-adv-x="1090" d="M969 1057V0H840V948H412L392 372Q384 138 313 54T118 -31Q92 -31 61 -25T4 -8V98Q35 87 57 83T108 78Q190 78 222 137T262 415L283 1057H969Z"  />
<glyph unicode="&#x43C;" horiz-adv-x="1368" d="M293 1057L686 145L1075 1057H1247V0H1118V870H1112L741 0H627L256 870H250V0H121V1057H293Z"  />
<glyph unicode="&#x43D;" horiz-adv-x="1100" d="M250 1057V606H850V1057H979V0H850V498H250V0H121V1057H250Z"  />
<glyph unicode="&#x43E;" horiz-adv-x="1139" d="M569 1087Q795 1087 932 930T1069 528Q1069 380 1013 252T841 47T569 -31Q345 -31 208 126T70 528Q70 773 207 930T569 1087ZM199 528Q199 341 300 210T569 78Q737 78 838 210T940 528Q940 714 839 846T567 979Q403 979 301 848T199 528Z"  />
<glyph unicode="&#x43F;" horiz-adv-x="1100" d="M979 1057V0H850V948H250V0H121V1057H979Z"  />
<glyph unicode="&#x440;" horiz-adv-x="1176" d="M623 1087Q845 1087 971 932T1098 528Q1098 281 971 125T624 -31Q498 -31 397 31T256 201H252V-391H123V1057H242V856H246Q293 967 394 1027T623 1087ZM252 529Q252 328 348 203T623 78Q785 78 877 206T969 528Q969 722 877 850T620 979Q441 979 347 866T252 529Z"  />
<glyph unicode="&#x441;" horiz-adv-x="1063" d="M569 1087Q755 1087 865 991T997 725H868Q840 851 765 915T569 979Q403 979 301 849T199 528Q199 340 301 209T569 78Q685 78 773 160T877 379H1006Q976 182 861 76T569 -31Q345 -31 208 126T70 528Q70 773 207 930T569 1087Z"  />
<glyph unicode="&#x442;" horiz-adv-x="911" d="M911 1057V948H520V0H391V948H0V1057H911Z"  />
<glyph unicode="&#x443;" horiz-adv-x="948" d="M141 1057L489 157L815 1057H944L489 -151Q444 -274 390 -332T211 -391Q206 -391 166 -389T109 -381V-272H111Q118 -275 147 -279T197 -283Q277 -283 318 -234T426 4L4 1057H141Z"  />
<glyph unicode="&#x444;" horiz-adv-x="1640" d="M885 1462V944H889Q929 1011 1000 1049T1159 1087Q1352 1087 1457 941T1563 524Q1563 264 1447 117T1147 -31Q1063 -31 997 3T891 98H885V-391H756V104H750Q710 40 642 5T487 -31Q301 -31 190 114T78 524Q78 793 189 940T489 1087Q580 1087 646 1052T752 950H756V1462H885ZM207 524Q207 309 288 194T520 78Q624 78 690 144T756 302V753Q756 838 684 908T512 979Q370 979 289 866T207 524ZM885 302Q885 206 952 142T1120 78Q1271 78 1352 193T1434 524Q1434 743 1353 861T1125 979Q1025 979 955 914T885 759V302Z"  />
<glyph unicode="&#x445;" horiz-adv-x="985" d="M195 1057L496 655L791 1057H952L571 551L983 0H819L487 444L162 0H2L412 549L33 1057H195Z"  />
<glyph unicode="&#x446;" horiz-adv-x="1139" d="M250 1057V109H850V1057H979V109H1124V-336H995V0H121V1057H250Z"  />
<glyph unicode="&#x447;" horiz-adv-x="1034" d="M219 1057V775Q219 668 272 611T452 553Q515 553 601 565T784 606V1057H913V0H784V496Q716 477 623 460T444 442Q260 442 175 525T90 767V1057H219Z"  />
<glyph unicode="&#x448;" horiz-adv-x="1616" d="M250 1057V109H743V1057H872V109H1366V1057H1495V0H121V1057H250Z"  />
<glyph unicode="&#x449;" horiz-adv-x="1655" d="M250 1057V109H743V1057H872V109H1366V1057H1495V109H1640V-336H1511V0H121V1057H250Z"  />
<glyph unicode="&#x44A;" horiz-adv-x="1266" d="M475 1057V639H881Q1021 639 1114 555T1208 319Q1208 170 1117 85T881 0H346V948H0V1057H475ZM853 109Q957 109 1019 163T1081 319Q1081 419 1021 474T853 530H475V109H853Z"  />
<glyph unicode="&#x44B;" horiz-adv-x="1372" d="M250 1057V639H599Q743 639 834 553T926 319Q926 169 834 85T599 0H121V1057H250ZM1251 1057V0H1122V1057H1251ZM570 109Q673 109 736 162T799 319Q799 421 737 475T570 530H250V109H570Z"  />
<glyph unicode="&#x44C;" horiz-adv-x="1040" d="M250 1057V639H656Q798 639 890 554T983 319Q983 169 891 85T656 0H121V1057H250ZM628 109Q731 109 793 162T856 319Q856 421 794 475T628 530H250V109H628Z"  />
<glyph unicode="&#x44D;" horiz-adv-x="1063" d="M528 1087Q747 1087 870 936T993 517Q993 270 860 120T512 -31Q337 -31 217 63T63 340H193Q216 215 299 147T512 78Q662 78 756 186T860 494H365V602H858Q839 786 754 882T526 979Q407 979 324 920T211 750H78Q108 907 228 997T528 1087Z"  />
<glyph unicode="&#x44E;" horiz-adv-x="1554" d="M985 1087Q1214 1087 1349 929T1485 528Q1485 283 1348 126T985 -31Q775 -31 638 109T487 498H250V0H121V1057H250V606H492Q517 832 649 959T985 1087ZM614 528Q614 341 716 210T985 78Q1152 78 1254 209T1356 528Q1356 715 1256 847T983 979Q819 979 717 848T614 528Z"  />
<glyph unicode="&#x44F;" horiz-adv-x="1063" d="M936 1057V0H807V444H539L174 0H6L391 449Q244 457 164 537T84 748Q84 886 173 971T403 1057H936ZM213 750Q213 652 273 603T433 553H807V948H422Q332 948 273 896T213 750Z"  />
<glyph unicode="&#x450;" horiz-adv-x="1063" d="M547 1087Q762 1087 887 931T1012 515V494H199Q202 310 297 194T547 78Q676 78 759 144T879 348H1008Q963 157 850 63T547 -31Q323 -31 197 119T70 528Q70 774 197 930T547 1087ZM883 602Q878 759 785 869T545 979Q408 979 315 877T199 602H883ZM418 1495L633 1206H529L259 1495H418Z"  />
<glyph unicode="&#x451;" horiz-adv-x="1063" d="M547 1087Q762 1087 887 931T1012 515V494H199Q202 310 297 194T547 78Q676 78 759 144T879 348H1008Q963 157 850 63T547 -31Q323 -31 197 119T70 528Q70 774 197 930T547 1087ZM883 602Q878 759 785 869T545 979Q408 979 315 877T199 602H883ZM434 1456V1249H295V1456H434ZM796 1456V1249H657V1456H796Z"  />
<glyph unicode="&#x452;" horiz-adv-x="1096" d="M250 1462V1298H686V1194H250V844H254Q301 947 391 1002T610 1057Q802 1057 890 953T979 659V190Q979 -51 838 -213T446 -391V-270H448Q646 -254 748 -126T850 208V638Q850 783 787 865T586 948Q436 948 343 846T250 593V0H121V1194H0V1298H121V1462H250Z"  />
<glyph unicode="&#x453;" horiz-adv-x="819" d="M815 1057V948H250V0H121V1057H815ZM704 1495L434 1206H330L545 1495H704Z"  />
<glyph unicode="&#x454;" horiz-adv-x="1063" d="M553 1087Q735 1087 847 999T989 750H856Q828 863 752 921T555 979Q409 979 316 878T205 602H698V494H203Q214 300 310 189T553 78Q676 78 756 145T866 340H995Q959 160 842 65T549 -31Q340 -31 205 120T70 517Q70 776 202 931T553 1087Z"  />
<glyph unicode="&#x455;" horiz-adv-x="985" d="M498 1087Q670 1087 772 999T885 748H756Q750 860 675 919T479 979Q367 979 298 931T229 797Q229 729 290 685T449 618L670 569Q779 544 850 471T922 287Q922 139 801 54T497 -31Q301 -31 190 63T63 342H193Q200 217 284 148T504 78Q624 78 708 132T793 279Q793 350 739 397T557 472L395 508Q256 538 178 605T100 791Q100 928 212 1007T498 1087Z"  />
<glyph unicode="&#x456;" horiz-adv-x="379" d="M254 1462V1255H125V1462H254ZM254 1057V0H125V1057H254Z"  />
<glyph unicode="&#x457;" horiz-adv-x="379" d="M254 1057V0H125V1057H254ZM78 1456V1249H-61V1456H78ZM440 1456V1249H301V1456H440Z"  />
<glyph unicode="&#x458;" horiz-adv-x="379" d="M254 1462V1255H125V1462H254ZM254 1057V-107Q254 -248 199 -319T28 -391Q6 -391 -16 -390T-61 -387V-281Q-48 -282 -35 -282T-9 -283Q74 -284 99 -246T125 -137V1057H254Z"  />
<glyph unicode="&#x459;" horiz-adv-x="1597" d="M913 1057V639H1195Q1347 639 1439 554T1532 319Q1532 169 1440 85T1195 0H784V948H412L392 372Q384 138 313 54T118 -31Q92 -31 61 -25T4 -8V98Q35 87 57 83T108 78Q190 78 222 137T262 415L283 1057H913ZM1166 109Q1280 109 1342 163T1405 319Q1405 419 1344 474T1166 530H913V109H1166Z"  />
<glyph unicode="&#x45A;" horiz-adv-x="1593" d="M250 1057V639H768V1057H897V639H1191Q1343 639 1435 554T1528 319Q1528 169 1436 85T1191 0H768V530H250V0H121V1057H250ZM1162 109Q1276 109 1338 163T1401 319Q1401 419 1340 474T1162 530H897V109H1162Z"  />
<glyph unicode="&#x45B;" horiz-adv-x="1096" d="M250 1462V1298H686V1194H250V844H254Q301 947 391 1002T610 1057Q802 1057 890 953T979 659V0H850V638Q850 783 787 865T586 948Q436 948 343 846T250 593V0H121V1194H0V1298H121V1462H250Z"  />
<glyph unicode="&#x45C;" horiz-adv-x="1024" d="M252 1057V520L838 1057H1010L565 659L1040 0H879L467 569L252 377V0H123V1057H252ZM786 1495L516 1206H412L627 1495H786Z"  />
<glyph unicode="&#x45D;" horiz-adv-x="1100" d="M250 1057V152L819 1057H979V0H850V905L281 0H121V1057H250ZM434 1495L649 1206H545L275 1495H434Z"  />
<glyph unicode="&#x45E;" horiz-adv-x="948" d="M141 1057L489 157L815 1057H944L489 -151Q444 -274 390 -332T211 -391Q206 -391 166 -389T109 -381V-272H111Q118 -275 147 -279T197 -283Q277 -283 318 -234T426 4L4 1057H141ZM191 1483H270Q276 1404 336 1360T481 1315Q561 1315 623 1359T698 1483H778Q763 1364 684 1294T481 1223Q353 1223 277 1293T191 1483Z"  />
<glyph unicode="&#x45F;" horiz-adv-x="1100" d="M250 1057V109H850V1057H979V0H614V-336H485V0H121V1057H250Z"  />
<glyph unicode="&#x462;" horiz-adv-x="1421" d="M410 1462V1239H842V1120H410V823H926Q1122 823 1238 713T1354 412Q1354 222 1236 111T926 0H270V1120H-10V1239H270V1462H410ZM895 119Q1045 119 1129 195T1214 412Q1214 551 1128 628T894 705H410V119H895Z"  />
<glyph unicode="&#x463;" horiz-adv-x="1153" d="M362 1462V1057H739V948H362V639H759Q913 639 1004 553T1096 319Q1096 169 1004 85T759 0H233V948H0V1057H233V1462H362ZM730 109Q843 109 906 162T969 319Q969 421 907 475T730 530H362V109H730Z"  />
<glyph unicode="&#x472;" horiz-adv-x="1518" d="M760 1493Q966 1493 1123 1396T1364 1121T1448 731Q1448 401 1262 185T760 -31Q444 -31 257 182T70 731Q70 1066 257 1279T760 1493ZM1309 813Q1282 1073 1138 1223T757 1374Q527 1374 381 1224T209 813H1309ZM760 88Q1000 88 1148 251T1313 696H205Q219 417 367 253T760 88Z"  />
<glyph unicode="&#x473;" horiz-adv-x="1139" d="M569 1087Q795 1087 932 930T1069 528Q1069 380 1013 252T841 47T569 -31Q345 -31 208 126T70 528Q70 773 207 930T569 1087ZM199 602H938Q916 771 817 875T567 979Q423 979 322 878T199 602ZM569 78Q728 78 829 193T942 494H195Q207 310 310 194T569 78Z"  />
<glyph unicode="&#x474;" horiz-adv-x="1274" d="M1253 1493Q1278 1493 1305 1490T1356 1479V1358Q1329 1367 1306 1370T1262 1374Q1210 1374 1180 1340T1109 1191L690 0H528L-14 1462H135L610 154H614L983 1240Q1034 1388 1092 1440T1253 1493Z"  />
<glyph unicode="&#x475;" horiz-adv-x="1008" d="M967 1087Q997 1087 1012 1084L1040 1077V965Q1022 971 1002 974T967 977Q928 977 905 955T854 854L549 0H412L4 1057H147L479 129H483L743 904Q772 990 817 1038T967 1087Z"  />
<glyph unicode="&#x490;" horiz-adv-x="1063" d="M1051 1792V1343H287V0H147V1462H911V1792H1051Z"  />
<glyph unicode="&#x491;" horiz-adv-x="819" d="M815 1378V948H250V0H121V1057H686V1378H815Z"  />
<glyph unicode="&#x1E80;" horiz-adv-x="1858" d="M150 1462L481 182H485L842 1462H1016L1374 182H1378L1712 1462H1851L1448 0H1300L930 1309H926L557 0H406L0 1462H150ZM819 1884L1034 1595H930L660 1884H819Z"  />
<glyph unicode="&#x1E81;" horiz-adv-x="1518" d="M154 1057L424 152H428L686 1057H831L1090 152H1094L1364 1057H1501L1162 4L1160 0H1020L760 889H756L498 0H356L16 1057H154ZM628 1495L843 1206H739L469 1495H628Z"  />
<glyph unicode="&#x1E82;" horiz-adv-x="1858" d="M150 1462L481 182H485L842 1462H1016L1374 182H1378L1712 1462H1851L1448 0H1300L930 1309H926L557 0H406L0 1462H150ZM1208 1884L938 1595H834L1049 1884H1208Z"  />
<glyph unicode="&#x1E83;" horiz-adv-x="1518" d="M154 1057L424 152H428L686 1057H831L1090 152H1094L1364 1057H1501L1162 4L1160 0H1020L760 889H756L498 0H356L16 1057H154ZM1058 1495L788 1206H684L899 1495H1058Z"  />
<glyph unicode="&#x1E84;" horiz-adv-x="1858" d="M150 1462L481 182H485L842 1462H1016L1374 182H1378L1712 1462H1851L1448 0H1300L930 1309H926L557 0H406L0 1462H150ZM815 1845V1638H676V1845H815ZM1177 1845V1638H1038V1845H1177Z"  />
<glyph unicode="&#x1E85;" horiz-adv-x="1518" d="M154 1057L424 152H428L686 1057H831L1090 152H1094L1364 1057H1501L1162 4L1160 0H1020L760 889H756L498 0H356L16 1057H154ZM645 1456V1249H506V1456H645ZM1007 1456V1249H868V1456H1007Z"  />
<glyph unicode="&#x1EF2;" horiz-adv-x="1251" d="M145 1462L625 724L628 722L1106 1462H1272L694 602V0H555V602L-20 1462H145ZM499 1884L714 1595H610L340 1884H499Z"  />
<glyph unicode="&#x1EF3;" horiz-adv-x="948" d="M141 1057L489 157L815 1057H944L489 -151Q444 -274 390 -332T211 -391Q206 -391 166 -389T109 -381V-272H111Q118 -275 147 -279T197 -283Q277 -283 318 -234T426 4L4 1057H141ZM356 1495L571 1206H467L197 1495H356Z"  />
<glyph unicode="&#x2010;" horiz-adv-x="758" d="M635 623V504H123V623H635Z"  />
<glyph unicode="&#x2013;" horiz-adv-x="1024" d="M1024 623V504H0V623H1024Z"  />
<glyph unicode="&#x2014;" horiz-adv-x="2048" d="M1782 623V504H266V623H1782Z"  />
<glyph unicode="&#x2015;" horiz-adv-x="2048" d="M1843 623V504H205V623H1843Z"  />
<glyph unicode="&#x2018;" horiz-adv-x="569" d="M377 1374Q334 1356 308 1308T281 1202V1182H367V965H195V1190Q195 1278 241 1358T377 1462V1374Z"  />
<glyph unicode="&#x2019;" horiz-adv-x="569" d="M375 1462V1237Q375 1149 330 1071T193 964V1052Q235 1066 262 1118T289 1232V1245H203V1462H375Z"  />
<glyph unicode="&#x201A;" horiz-adv-x="569" d="M375 217V-8Q375 -96 329 -174T193 -281V-193Q235 -179 262 -127T289 -13V0H203V217H375Z"  />
<glyph unicode="&#x201C;" horiz-adv-x="758" d="M446 965V1190Q446 1277 492 1356T629 1462V1374Q586 1357 559 1307T532 1195V1182H618V965H446ZM131 965V1190Q131 1277 177 1356T313 1462V1374Q271 1357 244 1307T217 1195V1182H303V965H131Z"  />
<glyph unicode="&#x201D;" horiz-adv-x="758" d="M627 1462V1237Q627 1149 581 1071T444 964V1052Q487 1066 514 1118T541 1232V1245H455V1462H627ZM311 1462V1237Q311 1149 265 1071T129 964V1052Q171 1066 198 1118T225 1232V1245H139V1462H311Z"  />
<glyph unicode="&#x201E;" horiz-adv-x="758" d="M311 217V-8Q311 -96 265 -175T129 -281V-193Q177 -175 201 -122T226 -17V0H139V217H311ZM627 217V-8Q627 -96 581 -174T444 -281V-193Q487 -179 514 -127T541 -13V0H455V217H627Z"  />
<glyph unicode="&#x2020;" horiz-adv-x="1139" d="M633 1462V1010H1040V901H633V-309H504V901H98V1010H504V1462H633Z"  />
<glyph unicode="&#x2021;" horiz-adv-x="1139" d="M633 1462V1057H1040V948H633V205H1040V96H633V-309H504V96H98V205H504V948H98V1057H504V1462H633Z"  />
<glyph unicode="&#x2022;" horiz-adv-x="1024" d="M512 1096Q663 1096 771 988T879 731Q879 583 773 474T512 365Q358 365 253 474T147 731Q147 879 253 987T512 1096Z"  />
<glyph unicode="&#x2026;" horiz-adv-x="2048" d="M428 217V0H256V217H428ZM1110 217V0H938V217H1110ZM1792 217V0H1620V217H1792Z"  />
<glyph unicode="&#x2030;" horiz-adv-x="2275" d="M1192 1485H1288L362 -70H264L1192 1485ZM438 1446Q588 1446 665 1357T743 1100Q743 930 665 842T438 754Q289 754 211 843T133 1100Q133 1263 210 1354T438 1446ZM242 1100Q242 968 291 907T438 846Q537 846 586 911T635 1100Q635 1223 586 1288T436 1354Q343 1354 293 1294T242 1100ZM1120 662Q1266 662 1345 574T1425 315Q1425 148 1348 59T1120 -31Q969 -31 892 60T815 315Q815 484 894 573T1120 662ZM1845 662Q1991 662 2070 574T2150 315Q2150 148 2073 59T1845 -31Q1694 -31 1617 60T1540 315Q1540 481 1618 571T1845 662ZM924 315Q924 183 974 122T1120 61Q1219 61 1268 126T1317 315Q1317 440 1269 504T1118 569Q1024 569 974 510T924 315ZM1649 315Q1649 183 1699 122T1845 61Q1944 61 1993 126T2042 315Q2042 440 1994 504T1843 569Q1749 569 1699 510T1649 315Z"  />
<glyph unicode="&#x2039;" horiz-adv-x="530" d="M381 883V745L188 563L381 381V244L109 500V627L381 883Z"  />
<glyph unicode="&#x203A;" horiz-adv-x="530" d="M422 627V500L150 244V381L342 563L150 745V883L422 627Z"  />
<glyph unicode="&#x203D;" horiz-adv-x="1100" d="M602 1462V1333Q785 1326 888 1238T991 997Q991 912 961 851T873 734T740 615Q667 553 646 507T624 367H500L463 1026V1217Q356 1195 297 1126T237 950H111Q111 1103 202 1202T463 1327V1462H602ZM582 608Q629 668 697 723Q809 815 837 867T866 995Q866 1101 797 1159T602 1225V1026L582 608ZM645 217V0H473V217H645Z"  />
<glyph unicode="&#x2044;" horiz-adv-x="342" d="M588 1485H684L-242 -70H-340L588 1485Z"  />
<glyph unicode="&#x2070;" horiz-adv-x="758" d="M381 1698Q542 1698 624 1582T707 1247Q707 1027 626 911T381 795Q217 795 134 910T51 1245Q51 1463 135 1580T381 1698ZM152 1247Q152 1065 209 971T381 877Q494 877 550 971T606 1247Q606 1429 549 1522T379 1616Q270 1616 211 1524T152 1247Z"  />
<glyph unicode="&#x2074;" horiz-adv-x="758" d="M475 1679H565V1098H705V1018H565V813H469V1018H39V1098L475 1679ZM133 1098H469V1542L133 1098Z"  />
<glyph unicode="&#x2075;" horiz-adv-x="758" d="M635 1679V1591H256L203 1335Q236 1364 281 1380T382 1397Q519 1397 598 1316T678 1095Q678 968 591 882T367 795Q230 795 148 868T61 1071H158Q162 978 220 926T369 874Q466 874 524 934T582 1102Q582 1199 526 1259T377 1319Q314 1319 263 1294T173 1220H86L178 1679H635Z"  />
<glyph unicode="&#x2076;" horiz-adv-x="758" d="M408 1698Q525 1698 593 1643T674 1475H573Q563 1546 520 1582T406 1618Q295 1618 235 1530T164 1251Q209 1317 270 1348T408 1380Q538 1380 616 1303T694 1090Q694 960 612 878T391 795Q231 795 150 901T68 1217Q68 1449 156 1573T408 1698ZM182 1092Q182 994 239 934T391 874Q484 874 541 931T598 1085Q598 1180 544 1240T393 1300Q295 1300 239 1241T182 1092Z"  />
<glyph unicode="&#x2077;" horiz-adv-x="758" d="M678 1679V1595Q519 1441 426 1245T319 813H209Q225 1037 304 1217T565 1591H88V1679H678Z"  />
<glyph unicode="&#x2078;" horiz-adv-x="758" d="M377 1698Q502 1698 574 1637T647 1473Q647 1411 613 1364T508 1290Q597 1264 642 1206T688 1061Q688 938 604 867T379 795Q231 795 150 864T68 1060Q68 1144 115 1201T246 1284Q177 1309 142 1358T106 1473Q106 1572 180 1635T377 1698ZM205 1473Q205 1398 253 1360T379 1321Q458 1321 504 1361T551 1473Q551 1541 507 1581T377 1622Q295 1622 250 1583T205 1473ZM164 1061Q164 974 222 924T379 874Q479 874 535 923T592 1061Q592 1143 534 1194T377 1245Q279 1245 222 1195T164 1061Z"  />
<glyph unicode="&#x2079;" horiz-adv-x="758" d="M365 1698Q524 1698 606 1591T688 1276Q688 1044 600 920T348 795Q227 795 161 852T82 1018H182Q194 946 237 910T350 874Q462 874 522 962T592 1241Q547 1175 485 1144T348 1112Q216 1112 139 1191T61 1403Q61 1532 144 1615T365 1698ZM158 1407Q158 1310 213 1251T360 1192Q456 1192 514 1249T573 1401Q573 1497 517 1557T363 1618Q270 1618 214 1561T158 1407Z"  />
<glyph unicode="&#x207A;" horiz-adv-x="819" d="M362 1438H457V1167H752V1083H457V813H362V1083H68V1167H362V1438Z"  />
<glyph unicode="&#x207B;" horiz-adv-x="512" d="M444 1196V1112H68V1196H444Z"  />
<glyph unicode="&#x207C;" horiz-adv-x="819" d="M745 1288V1204H74V1288H745ZM745 1051V967H74V1051H745Z"  />
<glyph unicode="&#x207D;" horiz-adv-x="389" d="M285 1794H371Q280 1640 240 1507T199 1223Q199 1067 239 940T371 651H285Q188 792 141 935T94 1223Q94 1360 138 1500T285 1794Z"  />
<glyph unicode="&#x207E;" horiz-adv-x="389" d="M18 1794H104Q202 1651 248 1507T295 1223Q295 1081 249 941T104 651H18Q108 800 149 935T190 1223Q190 1389 145 1521T18 1794Z"  />
<glyph unicode="&#x207F;" horiz-adv-x="758" d="M418 1473Q529 1473 592 1413T655 1245V813H551V1217Q551 1302 514 1347T397 1393Q310 1393 258 1334T205 1191V813H102V1454H205V1352Q243 1415 294 1444T418 1473Z"  />
<glyph unicode="&#x2080;" horiz-adv-x="758" d="M381 539Q542 539 624 423T707 88Q707 -132 626 -248T381 -364Q217 -364 134 -249T51 86Q51 304 135 421T381 539ZM152 88Q152 -94 209 -188T381 -282Q494 -282 550 -188T606 88Q606 270 549 363T379 457Q270 457 211 365T152 88Z"  />
<glyph unicode="&#x2081;" horiz-adv-x="758" d="M391 521H471V-345H375V294H137V366Q206 369 268 376T356 417T391 521Z"  />
<glyph unicode="&#x2082;" horiz-adv-x="758" d="M391 540Q524 540 594 473T664 284Q664 195 617 126T482 1L369 -71Q276 -131 240 -174T190 -265H662V-345H80Q82 -237 135 -158T417 62Q497 111 532 165T567 292Q567 368 519 413T391 458Q299 458 248 398T196 226H98Q98 375 174 457T391 540Z"  />
<glyph unicode="&#x2083;" horiz-adv-x="758" d="M389 539Q505 539 578 479T651 311Q651 242 612 192T495 117Q584 105 635 50T686 -94Q686 -216 600 -290T377 -364Q234 -364 153 -292T72 -95Q73 -87 73 -79T74 -63H170V-70Q170 -175 227 -230T375 -285Q466 -285 528 -235T590 -100Q590 -20 530 26T347 72H313V152H357Q451 152 503 195T555 303Q555 378 510 418T385 459Q296 459 244 405T191 248H94Q98 385 176 462T389 539Z"  />
<glyph unicode="&#x2084;" horiz-adv-x="758" d="M475 521H565V-60H705V-140H565V-345H469V-140H39V-60L475 521ZM133 -60H469V384L133 -60Z"  />
<glyph unicode="&#x2085;" horiz-adv-x="758" d="M635 520V432H256L203 176Q236 205 281 221T382 238Q519 238 598 157T678 -64Q678 -191 591 -277T367 -364Q230 -364 148 -291T61 -88H158Q162 -181 220 -233T369 -285Q466 -285 524 -225T582 -57Q582 40 526 100T377 160Q314 160 263 135T173 61H86L178 520H635Z"  />
<glyph unicode="&#x2086;" horiz-adv-x="758" d="M408 539Q525 539 593 484T674 316H573Q563 387 520 423T406 459Q295 459 235 371T164 92Q209 158 270 189T408 221Q538 221 616 144T694 -69Q694 -199 612 -281T391 -364Q231 -364 150 -258T68 58Q68 290 156 414T408 539ZM182 -67Q182 -165 239 -225T391 -285Q484 -285 541 -228T598 -74Q598 21 544 81T393 141Q295 141 239 82T182 -67Z"  />
<glyph unicode="&#x2087;" horiz-adv-x="758" d="M678 521V437Q519 283 426 87T319 -345H209Q225 -121 304 59T565 433H88V521H678Z"  />
<glyph unicode="&#x2088;" horiz-adv-x="758" d="M377 539Q502 539 574 478T647 314Q647 252 613 205T508 131Q597 105 642 47T688 -98Q688 -221 604 -292T379 -364Q231 -364 150 -295T68 -99Q68 -15 115 42T246 125Q177 150 142 199T106 314Q106 413 180 476T377 539ZM205 314Q205 239 253 201T379 162Q458 162 504 202T551 314Q551 382 507 422T377 463Q295 463 250 424T205 314ZM164 -98Q164 -185 222 -235T379 -285Q479 -285 535 -236T592 -98Q592 -16 534 35T377 86Q279 86 222 36T164 -98Z"  />
<glyph unicode="&#x2089;" horiz-adv-x="758" d="M365 539Q524 539 606 432T688 117Q688 -115 600 -239T348 -364Q227 -364 161 -307T82 -141H182Q194 -213 237 -249T350 -285Q462 -285 522 -197T592 82Q547 16 485 -15T348 -47Q216 -47 139 32T61 244Q61 373 144 456T365 539ZM158 248Q158 151 213 92T360 33Q456 33 514 90T573 242Q573 338 517 398T363 459Q270 459 214 402T158 248Z"  />
<glyph unicode="&#x208A;" horiz-adv-x="819" d="M362 280H457V9H752V-75H457V-345H362V-75H68V9H362V280Z"  />
<glyph unicode="&#x208B;" horiz-adv-x="512" d="M444 38V-46H68V38H444Z"  />
<glyph unicode="&#x208C;" horiz-adv-x="819" d="M745 130V46H74V130H745ZM745 -107V-191H74V-107H745Z"  />
<glyph unicode="&#x208D;" horiz-adv-x="389" d="M285 636H371Q280 482 240 349T199 65Q199 -91 239 -218T371 -507H285Q188 -366 141 -223T94 65Q94 202 138 342T285 636Z"  />
<glyph unicode="&#x208E;" horiz-adv-x="389" d="M18 636H104Q202 493 248 349T295 65Q295 -77 249 -217T104 -507H18Q108 -358 149 -223T190 65Q190 231 145 363T18 636Z"  />
<glyph unicode="&#x20AC;" horiz-adv-x="1139" d="M760 1458Q887 1458 982 1419T1141 1300L1086 1182H1084Q1017 1262 936 1301T758 1341Q580 1341 465 1220T309 889H991L954 797H297Q291 767 291 737T293 676H915L877 584H299Q331 343 449 214T752 84Q840 84 919 117T1108 260V102Q1030 36 940 3T748 -31Q506 -31 352 132T166 584H31L70 676H159Q158 706 158 736T162 797H31L68 889H172Q218 1147 371 1302T760 1458Z"  />
<glyph unicode="&#x2105;" horiz-adv-x="1708" d="M1268 1485H1364L438 -70H340L1268 1485ZM401 1446Q536 1446 605 1375T686 1163H588V1165Q580 1265 533 1315T401 1366Q291 1366 232 1269T172 995Q172 817 231 721T401 625Q484 625 529 669T590 801H690Q674 682 598 613T401 543Q243 543 158 659T72 995Q72 1214 159 1330T401 1446ZM1311 885Q1469 885 1552 771T1636 434Q1636 210 1554 96T1311 -18Q1147 -18 1064 98T981 432Q981 651 1064 768T1311 885ZM1081 434Q1081 252 1139 158T1311 63Q1422 63 1479 156T1536 434Q1536 615 1480 709T1309 803Q1201 803 1141 712T1081 434Z"  />
<glyph unicode="&#x2113;" horiz-adv-x="1024" d="M584 1477Q671 1477 728 1412T786 1225Q786 1079 700 914T446 567V236Q446 153 488 103T606 53Q651 53 698 73T786 133H791L831 78Q782 28 719 0T586 -29Q473 -29 408 37T342 218V492L221 360H217L174 416L342 588V1137Q342 1286 409 1381T584 1477ZM446 666Q569 810 633 952T698 1214Q698 1298 664 1349T581 1401Q521 1401 484 1331T446 1151V666Z"  />
<glyph unicode="&#x2116;" horiz-adv-x="1985" d="M303 1415L1073 225H1077V1415H1217V0H1061L291 1190H287V0H147V1415H303ZM1626 864Q1762 864 1838 783T1915 567Q1915 434 1836 352T1626 270Q1494 270 1416 351T1337 567Q1337 701 1416 782T1626 864ZM1448 567Q1448 476 1497 421T1626 365Q1707 365 1755 418T1804 567Q1804 660 1755 715T1625 770Q1546 770 1497 716T1448 567ZM1915 109V0H1341V109H1915Z"  />
<glyph unicode="&#x2117;" horiz-adv-x="1638" d="M819 1493Q1142 1493 1361 1271T1581 731Q1581 411 1360 190T819 -31Q500 -31 279 189T57 731Q57 1053 278 1273T819 1493ZM176 731Q176 458 360 268T819 78Q1091 78 1276 267T1462 731Q1462 1005 1277 1194T817 1384Q545 1384 361 1195T176 731ZM898 1171Q1040 1171 1114 1106T1188 913Q1188 790 1107 723T900 655H666V291H557V1171H898ZM888 748Q982 748 1030 789T1079 913Q1079 997 1029 1038T888 1079H666V748H888Z"  />
<glyph unicode="&#x2122;" horiz-adv-x="2028" d="M825 1462V1370H551V618H442V1370H168V1462H825ZM1149 1462L1421 778L1686 1462H1860V618H1751V1364H1747L1448 618H1386L1087 1364H1083V618H975V1462H1149Z"  />
<glyph unicode="&#x2126;" horiz-adv-x="1554" d="M780 1493Q975 1493 1131 1399T1375 1145T1462 802Q1462 595 1375 423T1112 127V119H1485V0H944V123Q1137 258 1229 422T1321 802Q1321 1048 1171 1211T780 1374Q531 1374 380 1218T229 805Q229 596 323 428T613 124V0H70V119H434V127Q267 243 178 416T88 803Q88 1102 284 1297T780 1493Z"  />
<glyph unicode="&#x212E;" horiz-adv-x="1556" d="M780 1446Q1081 1446 1274 1244T1473 707H393V223Q469 147 564 107T780 66Q952 66 1076 145T1296 387L1391 330Q1272 143 1133 56T781 -31Q583 -31 425 63T179 328T90 707Q90 919 180 1091T429 1354T780 1446ZM393 805H1171V1192Q1089 1270 991 1311T776 1352Q670 1352 573 1314T393 1192V805Z"  />
<glyph unicode="&#x2153;" horiz-adv-x="1708" d="M1167 1485H1264L338 -70H240L1167 1485ZM362 1427H442V561H346V1200H109V1272Q268 1276 309 1303T362 1427ZM1282 885Q1398 885 1471 825T1544 657Q1544 588 1505 538T1388 463Q1477 451 1528 396T1579 252Q1579 130 1493 56T1270 -18Q1127 -18 1046 54T965 251Q966 259 966 267T967 283H1063V276Q1063 171 1120 116T1268 61Q1359 61 1421 111T1483 246Q1483 326 1421 372T1240 418H1206V498H1250Q1344 498 1396 541T1448 649Q1448 724 1403 764T1278 805Q1189 805 1137 751T1084 594H987Q991 731 1069 808T1282 885Z"  />
<glyph unicode="&#x2154;" horiz-adv-x="1708" d="M1288 1485H1384L459 -70H360L1288 1485ZM397 1446Q530 1446 600 1379T670 1190Q670 1106 627 1037T485 906L357 824Q293 783 251 738T197 641H668V561H86Q86 659 134 736T312 896Q327 905 450 985T573 1198Q573 1277 524 1320T397 1364Q305 1364 254 1304T202 1133H104Q104 1285 182 1365T397 1446ZM1335 885Q1451 885 1524 825T1597 657Q1597 588 1558 538T1441 463Q1530 451 1581 396T1632 252Q1632 130 1546 56T1323 -18Q1180 -18 1099 54T1018 251Q1019 259 1019 267T1020 283H1116V276Q1116 171 1173 116T1321 61Q1412 61 1474 111T1536 246Q1536 326 1476 372T1293 418H1260V498H1303Q1397 498 1449 541T1501 649Q1501 724 1456 764T1331 805Q1242 805 1190 751T1137 594H1040Q1044 731 1122 808T1335 885Z"  />
<glyph unicode="&#x215B;" horiz-adv-x="1708" d="M1167 1485H1264L338 -70H240L1167 1485ZM362 1427H442V561H346V1200H109V1272Q268 1276 309 1303T362 1427ZM1272 885Q1396 885 1469 825T1542 659Q1542 597 1508 550T1403 477Q1492 451 1537 393T1583 248Q1583 125 1499 54T1274 -18Q1126 -18 1045 51T963 247Q963 331 1010 388T1141 471Q1071 496 1036 545T1001 659Q1001 759 1075 822T1272 885ZM1100 659Q1100 587 1146 548T1274 508Q1351 508 1398 547T1446 659Q1446 728 1402 768T1272 809Q1190 809 1145 770T1100 659ZM1059 248Q1059 161 1117 111T1274 61Q1374 61 1430 110T1487 248Q1487 330 1429 381T1272 432Q1174 432 1117 382T1059 248Z"  />
<glyph unicode="&#x215C;" horiz-adv-x="1708" d="M1284 1485H1380L455 -70H356L1284 1485ZM1303 885Q1426 885 1499 825T1573 659Q1573 595 1537 548T1434 477Q1520 452 1567 394T1614 248Q1614 126 1530 54T1305 -18Q1153 -18 1073 53T993 247Q993 328 1039 386T1171 471Q1103 497 1068 544T1032 659Q1032 761 1107 823T1303 885ZM1130 659Q1130 591 1175 550T1305 508Q1385 508 1431 549T1477 659Q1477 728 1433 768T1303 809Q1220 809 1175 770T1130 659ZM1090 248Q1090 160 1148 111T1305 61Q1407 61 1462 110T1518 248Q1518 327 1462 379T1303 432Q1204 432 1147 382T1090 248ZM434 1446Q550 1446 623 1386T696 1218Q696 1149 657 1099T540 1024Q629 1012 680 957T731 813Q731 691 645 617T422 543Q279 543 198 615T117 812Q118 820 118 828T119 844H215V837Q215 732 272 677T420 622Q511 622 573 672T635 807Q635 887 575 933T392 979H358V1059H402Q496 1059 548 1102T600 1210Q600 1285 555 1325T430 1366Q341 1366 289 1312T236 1155H139Q143 1292 221 1369T434 1446Z"  />
<glyph unicode="&#x215D;" horiz-adv-x="1708" d="M1284 1485H1380L455 -70H356L1284 1485ZM692 1427V1339H313L260 1083Q293 1113 339 1129T439 1145Q577 1145 656 1065T735 843Q735 716 648 630T424 543Q289 543 206 615T119 819H215Q218 731 274 677T426 623Q529 623 584 685T639 850Q639 943 586 1005T434 1067Q372 1067 321 1042T229 967H143L236 1427H692ZM1303 885Q1426 885 1499 825T1573 659Q1573 595 1537 548T1434 477Q1520 452 1567 394T1614 248Q1614 126 1530 54T1305 -18Q1153 -18 1073 53T993 247Q993 328 1039 386T1171 471Q1103 497 1068 544T1032 659Q1032 761 1107 823T1303 885ZM1130 659Q1130 591 1175 550T1305 508Q1385 508 1431 549T1477 659Q1477 728 1433 768T1303 809Q1220 809 1175 770T1130 659ZM1090 248Q1090 160 1148 111T1305 61Q1407 61 1462 110T1518 248Q1518 327 1462 379T1303 432Q1204 432 1147 382T1090 248Z"  />
<glyph unicode="&#x215E;" horiz-adv-x="1708" d="M1182 1485H1278L352 -70H254L1182 1485ZM799 1427V1343Q640 1189 547 992T440 561H330Q347 793 430 974T686 1339H209V1427H799ZM1272 885Q1396 885 1469 825T1542 659Q1542 597 1508 550T1403 477Q1492 451 1537 393T1583 248Q1583 125 1499 54T1274 -18Q1126 -18 1045 51T963 247Q963 331 1010 388T1141 471Q1071 496 1036 545T1001 659Q1001 759 1075 822T1272 885ZM1100 659Q1100 587 1146 548T1274 508Q1351 508 1398 547T1446 659Q1446 728 1402 768T1272 809Q1190 809 1145 770T1100 659ZM1059 248Q1059 161 1117 111T1274 61Q1374 61 1430 110T1487 248Q1487 330 1429 381T1272 432Q1174 432 1117 382T1059 248Z"  />
<glyph unicode="&#x2202;" horiz-adv-x="1047" d="M446 1477Q694 1477 827 1275T961 740Q961 376 841 176T485 -25Q305 -25 187 107T68 436Q68 628 181 751T475 874Q569 874 653 836T805 720L807 816Q807 949 766 1077T644 1277T453 1348Q395 1348 339 1325T219 1251L133 1354Q205 1417 281 1447T446 1477ZM219 430Q219 291 294 195T489 98Q629 98 712 240T796 573Q731 660 652 704T492 748Q370 748 295 658T219 430Z"  />
<glyph unicode="&#x2206;" horiz-adv-x="1290" d="M731 1462L1305 0H-14L575 1462H731ZM180 119H1108L647 1322L180 119Z"  />
<glyph unicode="&#x220F;" horiz-adv-x="1473" d="M1331 1610V-438H1171V1462H299V-438H139V1610H1331Z"  />
<glyph unicode="&#x2211;" horiz-adv-x="1260" d="M1182 1610V1462H287L903 594L250 -291H1206V-438H51V-307L711 594L80 1479V1610H1182Z"  />
<glyph unicode="&#x2212;" horiz-adv-x="1229" d="M1130 569V461H100V569H1130Z"  />
<glyph unicode="&#x2215;" horiz-adv-x="342" d="M588 1485H684L-242 -70H-340L588 1485Z"  />
<glyph unicode="&#x2219;" horiz-adv-x="569" d="M285 768Q335 768 370 731T406 645Q406 600 370 563T285 526Q236 526 200 564T164 649Q164 697 201 732T285 768Z"  />
<glyph unicode="&#x221A;" horiz-adv-x="1032" d="M1053 1610L621 -438H467L135 246L39 201L-18 324L211 430L520 -219L896 1604L898 1610H1053Z"  />
<glyph unicode="&#x221E;" horiz-adv-x="1554" d="M1165 840Q1296 840 1382 751T1468 522Q1468 383 1386 292T1167 201Q1081 201 990 249T778 424Q712 363 651 311T524 231T387 203Q254 203 170 291T86 516Q86 656 170 746T383 836Q475 836 564 784T778 602Q921 751 1002 795T1165 840ZM866 514Q977 408 1043 374T1174 340Q1247 340 1291 388T1335 516Q1335 597 1291 648T1166 700Q1113 700 1049 664T866 514ZM219 516Q219 438 265 389T389 340Q452 340 528 384T690 514Q599 602 523 650T382 698Q309 698 264 645T219 516Z"  />
<glyph unicode="&#x222B;" horiz-adv-x="1135" d="M697 1610Q765 1610 812 1580T860 1495Q860 1459 835 1438T774 1417Q749 1417 728 1435T691 1480Q675 1505 659 1505Q628 1505 612 1457T595 1312L600 1137V15Q600 -229 535 -332T343 -436Q284 -436 243 -407T201 -330Q201 -299 225 -278T276 -256Q317 -256 343 -299Q368 -342 383 -342Q411 -342 426 -285T442 -110Q442 -83 440 -35L438 1162Q438 1416 504 1513T697 1610Z"  />
<glyph unicode="&#x2248;" horiz-adv-x="1229" d="M1053 854H1157Q1140 731 1072 662T893 592Q789 592 607 665Q424 737 333 737Q272 737 231 696T176 584H72Q88 704 156 775T336 846Q439 846 625 773Q810 700 897 700Q953 700 995 740T1053 854ZM1053 451H1157Q1138 320 1067 254T893 188Q844 188 775 205T592 266Q478 309 425 321T333 334Q277 334 234 295T176 180H72Q87 300 156 371T336 442Q389 442 455 426T634 367Q745 324 800 311T896 297Q951 297 993 335T1053 451Z"  />
<glyph unicode="&#x2260;" horiz-adv-x="1229" d="M884 1081L977 1030L829 774H1130V666H766L596 371H1130V262H532L348 -57L254 -6L408 262H100V371H471L641 666H100V774H705L884 1081Z"  />
<glyph unicode="&#x2264;" horiz-adv-x="1229" d="M1128 1080V969L221 629L1128 289V176L98 573V684L1125 1080H1128ZM1128 109V0H98V109H1128Z"  />
<glyph unicode="&#x2265;" horiz-adv-x="1229" d="M100 1081L1130 684V573L100 176V289L1008 629L100 969V1081ZM1130 109V0H100V109H1130Z"  />
<glyph unicode="&#x25CA;" horiz-adv-x="1214" d="M680 1530L1032 729L680 -72H532L182 729L532 1530H680ZM338 729L606 84L877 729L606 1374L338 729Z"  />
<glyph unicode="&#xF001;" horiz-adv-x="909" d="M450 1462Q529 1460 557 1454V1343Q533 1349 506 1351T463 1354Q388 1354 355 1317T322 1198V1057H530V948H322V0H193V948H12V1057H193V1157Q193 1326 256 1394T450 1462ZM784 1462V1255H655V1462H784ZM784 1057V0H655V1057H784Z"  />
<glyph unicode="&#xF002;" horiz-adv-x="909" d="M450 1462Q529 1460 557 1454V1343Q533 1349 506 1351T463 1354Q388 1354 355 1317T322 1198V1057H530V948H322V0H193V948H12V1057H193V1157Q193 1326 256 1394T450 1462ZM784 1462V0H655V1462H784Z"  />
<glyph unicode="&#xF8FF;" horiz-adv-x="1049" d="M1049 1470V0H0V1470H1049ZM946 102V1366H102V102H946ZM530 1247Q640 1247 712 1173T784 979Q784 897 751 844T653 731Q586 671 571 637T555 479H461L457 519Q457 637 490 694T585 808Q619 839 649 878T680 971Q680 1043 634 1094T524 1145Q457 1145 413 1097T356 951L254 967Q268 1104 339 1175T530 1247ZM455 377H569V240H455V377Z"  />
<glyph unicode="&#xFB00;" horiz-adv-x="1026" d="M450 1462H494Q519 1460 557 1454V1343Q533 1349 506 1351T463 1354Q388 1354 355 1317T322 1198V1057H688V1182Q692 1320 749 1391T945 1462Q977 1462 999 1461T1053 1454V1343Q1030 1349 1002 1351T958 1354Q873 1354 845 1310T817 1176V1057H1026V948H817V0H688V948H322V0H193V948H12V1057H193V1152Q193 1334 259 1398T450 1462Z"  />
<glyph unicode="&#xFB01;" horiz-adv-x="909" d="M450 1462Q529 1460 557 1454V1343Q533 1349 506 1351T463 1354Q388 1354 355 1317T322 1198V1057H530V948H322V0H193V948H12V1057H193V1157Q193 1326 256 1394T450 1462ZM784 1462V1255H655V1462H784ZM784 1057V0H655V1057H784Z"  />
<glyph unicode="&#xFB02;" horiz-adv-x="909" d="M450 1462Q529 1460 557 1454V1343Q533 1349 506 1351T463 1354Q388 1354 355 1317T322 1198V1057H530V948H322V0H193V948H12V1057H193V1157Q193 1326 256 1394T450 1462ZM784 1462V0H655V1462H784Z"  />
<glyph unicode="&#xFB03;" horiz-adv-x="1405" d="M450 1462H494Q519 1460 557 1454V1343Q533 1349 506 1351T463 1354Q388 1354 355 1317T322 1198V1057H688V1182Q692 1320 749 1391T945 1462Q977 1462 999 1461T1053 1454V1343Q1030 1349 1002 1351T958 1354Q873 1354 845 1310T817 1176V1057H1026V948H817V0H688V948H322V0H193V948H12V1057H193V1152Q193 1334 259 1398T450 1462ZM1280 1462V1255H1151V1462H1280ZM1280 1057V0H1151V1057H1280Z"  />
<glyph unicode="&#xFB04;" horiz-adv-x="1405" d="M450 1462H494Q519 1460 557 1454V1343Q533 1349 506 1351T463 1354Q388 1354 355 1317T322 1198V1057H688V1182Q692 1320 749 1391T945 1462Q977 1462 999 1461T1053 1454V1343Q1030 1349 1002 1351T958 1354Q873 1354 845 1310T817 1176V1057H1026V948H817V0H688V948H322V0H193V948H12V1057H193V1152Q193 1334 259 1398T450 1462ZM1280 1462V0H1151V1462H1280Z"  />

</font>
</defs>
</svg>
