<?xml  version="1.0" encoding="UTF-8"?>
<!DOCTYPE svg PUBLIC "-//W3C//DTD SVG 1.0//EN" "http://www.w3.org/TR/2001/REC-SVG-20010904/DTD/svg10.dtd" >
<svg xmlns="http://www.w3.org/2000/svg" >
<metadata>
<version>1.0</version>
<id><![CDATA[Helvetica Neue LT W1G 75 Bold]]></id>
<vendor>Monotype Imaging Inc.</vendor>
<credits>
<name>Fonts.com WebFonts</name>
<URL>http://webfonts.fonts.com</URL>
<role>Home of the Web fonts</role>
</credits>
<license>
<URL>http://webfonts.fonts.com/Legal</URL>
</license>
<copyright><![CDATA[Copyright © 2011 Linotype Corp. All rights reserved. This font software may not be reproduced, modified, disclosed or transferred without the express written approval of Linotype Corp.]]></copyright>
<trademark><![CDATA[Helvetica is a trademark of Linotype Corp. registered in the U.S. Patent and Trademark Office and may be registered in certain other jurisdictions in the name of Linotype Corp. or its licensee Linotype GmbH.]]></trademark>
<licensee>
<name></name>
</licensee>
</metadata>
<defs >
<font horiz-adv-x="1185" id="976e6960-07b9-4991-9fa9-a9c4aecfd647">
<font-face font-family="" panose-1="2 11 8 4 2 2 2 2 2 4" ascent="1993" descent="-588" units-per-em="2048" alphabetic="0">
</font-face>
<missing-glyph horiz-adv-x="1049" d="M1049 1470V0H0V1470H1049ZM946 102V1366H102V102H946ZM530 1247Q640 1247 712 1173T784 979Q784 897 751 844T653 731Q586 671 571 637T555 479H461L457 519Q457 582 465 629T512 726T585 808Q619 839 649 878T680 971Q680 1043 634 1094T524 1145Q457 1145 413 1097T356 951L254 967Q268 1104 339 1175T530 1247ZM455 377H569V240H455V377Z"  />

<glyph unicode="&#xA;" />
<glyph unicode="&#xD;" horiz-adv-x="569" />
<glyph unicode=" " horiz-adv-x="569" />
<glyph unicode="!" horiz-adv-x="569" d="M436 1462V1069L356 438H211L133 1069V1462H436ZM446 315V0H125V315H446Z"  />
<glyph unicode="&quot;" horiz-adv-x="948" d="M393 1462V805H174V1462H393ZM774 1462V805H555V1462H774Z"  />
<glyph unicode="#" horiz-adv-x="1139" d="M580 1434L522 1028H721L776 1434H975L920 1028H1071V844H893L858 590H1010V406H831L776 0H578L633 406H436L380 6L378 0H180L238 406H68V590H262L299 844H129V1028H324L381 1434H580ZM498 844L461 590H659L694 844H498Z"  />
<glyph unicode="$" horiz-adv-x="1139" d="M508 1655H629V1497Q837 1474 957 1364T1090 1061H799Q794 1147 746 1201T629 1256V895Q846 842 943 782T1090 636T1141 398Q1141 273 1043 150Q968 65 868 21T629 -35V-209H508V-35Q275 -16 149 109T-2 475H289V468Q289 364 348 295T508 205V633Q479 643 438 653Q239 699 136 795T33 1059Q33 1248 163 1364T508 1497V1655ZM324 1087Q324 1019 368 982T508 924V1257H505Q430 1257 377 1211T324 1087ZM629 205Q725 215 787 268T850 406Q850 483 802 524T629 598V205Z"  />
<glyph unicode="%" horiz-adv-x="2048" d="M1542 1479L698 -45H520L1368 1479H1542ZM502 1462Q668 1462 753 1355T838 1050Q838 865 747 765T492 664Q321 664 238 763T154 1057Q154 1244 245 1353T502 1462ZM362 1051Q362 916 395 867T494 817Q559 817 594 871T629 1050Q629 1184 597 1246T501 1309Q431 1309 397 1246T362 1051ZM1559 770Q1726 770 1810 667T1894 368Q1894 184 1804 78T1548 -29Q1382 -29 1296 76T1210 374Q1210 557 1302 663T1559 770ZM1419 373Q1419 233 1452 179T1550 125Q1620 125 1653 187T1686 372Q1686 493 1655 554T1557 616Q1485 616 1452 557T1419 373Z"  />
<glyph unicode="&amp;" horiz-adv-x="1403" d="M636 1479Q812 1479 924 1385T1036 1128Q1036 1015 971 925T776 764L965 532Q983 567 997 611T1018 707H1270Q1256 593 1220 504T1128 346L1425 0H1069L950 145Q863 58 762 15T539 -29Q334 -29 200 90T66 409Q66 539 148 647T393 834Q309 934 282 1003T254 1145Q254 1288 366 1383T636 1479ZM518 1155Q518 1109 539 1065T633 936Q716 987 749 1033T782 1144Q782 1202 743 1243T648 1284Q592 1284 555 1246T518 1155ZM342 403Q342 326 405 269T551 211Q615 211 673 239T797 340L547 645Q448 603 395 541T342 403Z"  />
<glyph unicode="&apos;" horiz-adv-x="569" d="M395 1462V805H176V1462H395Z"  />
<glyph unicode="(" horiz-adv-x="606" d="M621 1497Q512 1294 455 1057T397 569Q397 318 450 84T618 -373H377Q244 -154 175 83T106 549Q106 787 176 1045T377 1497H621Z"  />
<glyph unicode=")" horiz-adv-x="606" d="M229 1497Q362 1279 431 1042T500 573Q500 339 431 79T230 -372H-14Q98 -159 153 74T209 553Q209 808 154 1044T-12 1497H229Z"  />
<glyph unicode="*" horiz-adv-x="834" d="M496 1462V1206L733 1296L788 1139L547 1059L698 858L563 758L412 969L268 758L131 858L283 1059L45 1139L100 1296L332 1206V1462H496Z"  />
<glyph unicode="+" horiz-adv-x="1229" d="M725 1034V627H1133V408H725V0H506V408H98V627H506V1034H725Z"  />
<glyph unicode="&#x2c;" horiz-adv-x="569" d="M446 315V-6Q446 -124 364 -218T127 -340V-193Q194 -177 233 -125T273 -14V0H125V315H446Z"  />
<glyph unicode="-" horiz-adv-x="834" d="M725 684V434H109V684H725Z"  />
<glyph unicode="." horiz-adv-x="569" d="M444 315V0H123V315H444Z"  />
<glyph unicode="/" horiz-adv-x="760" d="M782 1497L211 -35H-23L549 1497H782Z"  />
<glyph unicode="0" horiz-adv-x="1139" d="M567 1462Q824 1462 960 1275T1096 723Q1096 354 961 163T567 -29Q311 -29 177 161T43 723Q43 1085 176 1273T567 1462ZM334 721Q334 499 364 399T446 255T567 211Q682 211 743 323T805 722Q805 997 744 1110T566 1223Q456 1223 395 1114T334 721Z"  />
<glyph unicode="1" horiz-adv-x="1139" d="M803 1434V0H512V930H152V1149H171Q347 1149 448 1221T571 1434H803Z"  />
<glyph unicode="2" horiz-adv-x="1139" d="M596 1462Q806 1462 946 1337T1087 1014Q1087 876 1021 766T744 521Q597 428 527 367T418 250H1096V0H43Q43 142 93 251T238 447T599 711Q701 778 749 845T797 991Q797 1088 739 1150T582 1212Q474 1212 416 1124T354 883H76V910Q76 1159 217 1310T596 1462Z"  />
<glyph unicode="3" horiz-adv-x="1139" d="M565 1462Q760 1462 903 1349T1047 1065Q1047 961 996 882T846 772V768Q966 740 1033 651T1100 442Q1100 232 946 102T567 -29Q325 -29 180 108T35 477V494H311Q318 359 384 285T563 211Q667 211 732 275T797 436Q797 543 734 596T496 649H465V854L514 852Q637 852 703 899T770 1032Q770 1118 713 1170T567 1223Q469 1223 409 1159T346 967H70Q78 1193 213 1327T565 1462Z"  />
<glyph unicode="4" horiz-adv-x="1139" d="M915 1434V571H1106V332H915V0H639V332H33V598L655 1434H915ZM633 1069L262 571H639V1069H633Z"  />
<glyph unicode="5" horiz-adv-x="1139" d="M1024 1434V1194H432L375 868L379 864Q433 918 499 946T659 975Q859 975 980 838T1102 487Q1102 274 949 123T576 -29Q344 -29 194 92T37 426H328Q339 328 403 270T563 211Q670 211 740 292T811 487Q811 606 743 681T562 756Q485 756 435 728T344 641H82L223 1434H1024Z"  />
<glyph unicode="6" horiz-adv-x="1139" d="M606 1462Q798 1462 922 1356T1071 1065H795Q777 1148 724 1195T602 1243Q484 1243 412 1126T328 807L332 803Q391 888 469 925T654 963Q772 963 882 899T1044 725T1096 496Q1096 272 954 122T594 -29Q324 -29 184 164T43 712Q43 1035 192 1248T606 1462ZM354 477Q354 369 418 290T586 211Q680 211 742 288T805 473Q805 584 747 663T584 743Q479 743 417 670T354 477Z"  />
<glyph unicode="7" horiz-adv-x="1139" d="M1059 1434V1184Q848 993 723 662T590 0H279Q304 318 429 617T760 1163H80V1434H1059Z"  />
<glyph unicode="8" horiz-adv-x="1139" d="M572 1462Q795 1462 923 1342T1051 1076Q1051 972 999 893T842 776V772Q975 740 1042 647T1110 422Q1110 216 956 94T573 -29Q337 -29 183 91T29 420Q29 556 100 648T299 772V776Q197 806 143 884T88 1071Q88 1246 230 1354T572 1462ZM352 1044Q352 962 413 909T571 856Q668 856 727 907T786 1044Q786 1134 731 1188T570 1243Q473 1243 413 1187T352 1044ZM319 434Q319 330 392 260T573 190Q679 190 749 258T819 432Q819 531 748 596T571 662Q466 662 393 602T319 434Z"  />
<glyph unicode="9" horiz-adv-x="1139" d="M546 1462Q816 1462 956 1269T1096 722Q1096 398 946 185T532 -29Q345 -29 219 76T68 369H344Q361 288 414 239T537 190Q653 190 724 300T811 627L807 631Q749 549 671 510T484 471Q366 471 256 535T95 707T43 939Q43 1162 184 1312T546 1462ZM334 961Q334 844 393 767T553 690Q657 690 720 763T784 956Q784 1069 719 1146T552 1223Q459 1223 397 1147T334 961Z"  />
<glyph unicode=":" horiz-adv-x="569" d="M446 1040V725H125V1040H446ZM446 315V0H125V315H446Z"  />
<glyph unicode=";" horiz-adv-x="569" d="M446 1040V725H125V1040H446ZM446 315V-6Q446 -124 364 -218T127 -340V-193Q194 -177 233 -125T273 -14V0H125V315H446Z"  />
<glyph unicode="&lt;" horiz-adv-x="1229" d="M1135 817L383 518L1135 219V-17L94 397V639L1135 1053V817Z"  />
<glyph unicode="=" horiz-adv-x="1229" d="M1133 846V627H98V846H1133ZM1133 408V188H98V408H1133Z"  />
<glyph unicode="&gt;" horiz-adv-x="1229" d="M94 1053L1135 639V397L94 -16V219L846 518L94 817V1053Z"  />
<glyph unicode="?" horiz-adv-x="1139" d="M564 1497Q804 1497 938 1381T1073 1091Q1068 998 1053 952T1008 862T924 773L805 686Q761 648 738 616T700 517V438H424V530Q431 633 475 712T611 860Q702 929 727 973T752 1073Q752 1163 708 1210T578 1257Q477 1257 422 1186T367 991H66Q72 1218 208 1357T564 1497ZM717 315V0H395V315H717Z"  />
<glyph unicode="@" horiz-adv-x="1638" d="M852 1497Q1145 1497 1355 1319T1565 872Q1565 705 1492 571T1296 358T1082 279Q1019 279 980 310T934 394H930Q892 335 834 306T709 276Q583 276 485 379T387 628Q387 836 516 992T833 1149Q909 1149 974 1114T1073 1006L1106 1116H1274L1149 604Q1133 547 1131 530T1128 500Q1128 478 1137 466T1164 453Q1255 453 1330 563T1405 829Q1405 1059 1252 1196T850 1333Q593 1333 432 1163T270 727Q270 463 439 296T874 129Q1001 129 1118 173T1315 297H1487Q1376 131 1212 48T862 -35Q534 -35 304 186T74 731Q74 1053 304 1275T852 1497ZM596 653Q596 573 640 522T756 471Q859 471 933 569T1008 780Q1008 850 964 902T848 954Q744 954 670 858T596 653Z"  />
<glyph unicode="A" horiz-adv-x="1403" d="M870 1462L1417 1H1083L973 326H426L311 0H-14L541 1462H870ZM700 1102L510 565H889L705 1102H700Z"  />
<glyph unicode="B" horiz-adv-x="1442" d="M840 1462Q1064 1462 1180 1374T1296 1101Q1296 988 1244 914T1098 795Q1231 755 1298 660T1366 424Q1366 222 1220 111T859 0H141V1462H840ZM794 870Q880 870 932 914T985 1044Q985 1130 931 1171T772 1212H463V870H794ZM815 250Q922 250 983 297T1044 442Q1044 545 987 598T820 651H463V250H815Z"  />
<glyph unicode="C" horiz-adv-x="1518" d="M797 1497Q1046 1497 1221 1357T1427 971H1116Q1095 1086 1002 1156T796 1227Q608 1227 504 1090T399 725Q399 508 502 372T797 236Q936 236 1022 321T1128 563H1440Q1412 284 1238 125T797 -35Q586 -35 422 61T168 334T78 725Q78 1062 275 1279T797 1497Z"  />
<glyph unicode="D" horiz-adv-x="1518" d="M782 1462Q1074 1462 1255 1272T1436 739Q1436 397 1259 199T782 0H141V1462H782ZM757 270Q911 270 1012 380T1114 710Q1114 963 1008 1077T701 1192H463V270H757Z"  />
<glyph unicode="E" horiz-adv-x="1327" d="M1235 1462V1192H463V879H1171V629H463V270H1251V0H141V1462H1235Z"  />
<glyph unicode="F" horiz-adv-x="1214" d="M1169 1462V1192H463V854H1075V604H463V0H141V1462H1169Z"  />
<glyph unicode="G" horiz-adv-x="1554" d="M796 1497Q1034 1497 1210 1360T1413 981H1106Q1075 1104 994 1165T797 1227Q606 1227 503 1089T399 725Q399 512 501 374T797 236Q951 236 1040 314T1145 551H821V791H1436V0H1231L1198 165Q1119 66 1019 16T796 -35Q587 -35 422 61T168 334T78 725Q78 1063 275 1280T796 1497Z"  />
<glyph unicode="H" horiz-adv-x="1518" d="M463 1462V901H1055V1462H1376V0H1055V631H463V0H141V1462H463Z"  />
<glyph unicode="I" horiz-adv-x="604" d="M463 1462V0H141V1462H463Z"  />
<glyph unicode="J" horiz-adv-x="1139" d="M997 1462V451Q997 216 875 91T511 -35Q298 -35 164 85T29 410V545H319V490Q319 344 366 290T506 236Q590 236 633 281T676 463V1462H997Z"  />
<glyph unicode="K" horiz-adv-x="1479" d="M463 1462V856L1034 1462H1436L864 885L1491 0H1087L647 657L463 471V0H141V1462H463Z"  />
<glyph unicode="L" horiz-adv-x="1214" d="M463 1462V270H1176V0H141V1462H463Z"  />
<glyph unicode="M" horiz-adv-x="1858" d="M594 1462L936 457H940L1263 1458L1265 1462H1716V0H1415V1036H1411L1053 0H805L446 1026H442V0H141V1462H594Z"  />
<glyph unicode="N" horiz-adv-x="1518" d="M461 1462L1071 481H1075V1462H1376V0H1055L446 979H442V0H141V1462H461Z"  />
<glyph unicode="O" horiz-adv-x="1593" d="M797 1497Q1123 1497 1319 1279T1516 725Q1516 398 1319 182T797 -35Q586 -35 422 62T168 334T78 725Q78 1063 275 1280T797 1497ZM399 725Q399 509 502 373T797 236Q986 236 1090 370T1194 725Q1194 956 1089 1091T795 1227Q608 1227 504 1090T399 725Z"  />
<glyph unicode="P" horiz-adv-x="1366" d="M811 1462Q1040 1462 1173 1334T1307 993Q1307 782 1174 653T811 524H463V0H141V1462H811ZM722 774Q860 774 927 826T995 993Q995 1105 930 1158T723 1212H463V774H722Z"  />
<glyph unicode="Q" horiz-adv-x="1593" d="M797 1497Q1123 1497 1319 1279T1516 725Q1516 568 1468 432T1325 186L1507 20L1358 -137L1151 51Q1080 10 992 -12T797 -35Q467 -35 273 184T78 725Q78 1063 275 1280T797 1497ZM399 725Q399 511 502 370T834 235Q869 235 893 240T926 256L788 381L938 541L1104 389Q1150 451 1172 537T1194 725Q1194 957 1089 1092T795 1227Q608 1227 504 1090T399 725Z"  />
<glyph unicode="R" horiz-adv-x="1479" d="M938 1462Q1115 1462 1236 1348T1358 1058Q1358 920 1301 830T1126 692V688Q1229 661 1284 565T1344 271Q1348 73 1401 0H1079Q1051 71 1041 230Q1026 446 969 508T792 571H463V0H141V1462H938ZM822 801Q923 801 979 850T1036 1010Q1036 1114 982 1163T822 1212H463V801H822Z"  />
<glyph unicode="S" horiz-adv-x="1329" d="M645 1497Q910 1497 1070 1374T1230 1026H919Q912 1136 844 1191T632 1247Q534 1247 472 1204T409 1081Q409 1026 435 999T541 943T893 849Q1075 805 1177 700T1279 434Q1279 222 1120 94T672 -35Q396 -35 222 101T48 477V485H359Q361 349 450 282T683 215Q813 215 890 262T968 397Q968 468 909 513T718 592Q550 630 413 672T187 810T97 1055Q97 1252 254 1374T645 1497Z"  />
<glyph unicode="T" horiz-adv-x="1251" d="M1225 1462V1192H786V0H465V1192H27V1462H1225Z"  />
<glyph unicode="U" horiz-adv-x="1518" d="M457 1462V544Q457 386 529 311T758 236Q926 236 993 309T1061 543V1462H1382V543Q1382 271 1224 118T758 -35Q449 -35 292 115T135 543V1462H457Z"  />
<glyph unicode="V" horiz-adv-x="1290" d="M315 1462L641 434H645L975 1462H1307L821 0H459L-16 1462H315Z"  />
<glyph unicode="W" horiz-adv-x="1933" d="M328 1462L559 467H563L817 1462H1118L1368 455H1372L1612 1462H1927L1534 0H1214L967 995H963L719 0H393L6 1462H328Z"  />
<glyph unicode="X" horiz-adv-x="1366" d="M401 1462L688 995L985 1462H1337L868 764L1378 0H995L676 506L350 0H-12L500 766L29 1462H401Z"  />
<glyph unicode="Y" horiz-adv-x="1366" d="M344 1462L686 885L1026 1462H1384L842 561V0H520V569L-18 1462H344Z"  />
<glyph unicode="Z" horiz-adv-x="1327" d="M1260 1462V1208L475 270H1280V0H47V254L831 1192H109V1462H1260Z"  />
<glyph unicode="[" horiz-adv-x="682" d="M680 1497V1268H430V-143H680V-373H139V1497H680Z"  />
<glyph unicode="\" horiz-adv-x="760" d="M211 1497L782 -35H548L-24 1497H211Z"  />
<glyph unicode="]" horiz-adv-x="682" d="M543 1497V-373H2V-143H252V1268H2V1497H543Z"  />
<glyph unicode="^" horiz-adv-x="1229" d="M752 1434L1104 646H864L614 1208L365 645H125L477 1434H752Z"  />
<glyph unicode="_" horiz-adv-x="1024" d="M1024 -154V-256H0V-154H1024Z"  />
<glyph unicode="`" horiz-adv-x="530" d="M222 1497L419 1206H216L-99 1497H222Z"  />
<glyph unicode="a" horiz-adv-x="1176" d="M597 1087Q832 1087 946 1010T1061 793V225Q1061 161 1069 97T1098 0H803Q795 24 790 49T782 101Q721 38 631 5T426 -29Q262 -29 164 53T66 289Q66 437 158 515T493 621Q662 637 716 662T770 751Q770 822 729 857T583 893Q493 893 445 855T389 733H98Q110 907 241 997T597 1087ZM356 301Q356 238 399 202T535 166Q651 166 710 227T770 405V518Q744 497 702 487T548 460Q449 447 403 409T356 301Z"  />
<glyph unicode="b" horiz-adv-x="1251" d="M401 1462V930H406Q453 1002 541 1044T739 1087Q925 1087 1051 937T1178 530Q1178 276 1052 124T738 -29Q610 -29 522 13T391 135H387V0H111V1462H401ZM391 528Q391 376 458 283T639 190Q753 190 820 283T887 528Q887 681 822 774T637 868Q526 868 459 777T391 528Z"  />
<glyph unicode="c" horiz-adv-x="1176" d="M618 1087Q823 1087 963 981T1116 686H831Q818 777 764 822T616 868Q499 868 434 772T369 524Q369 372 433 281T610 190Q707 190 767 245T842 406H1122Q1093 196 958 84T612 -29Q376 -29 227 122T78 514Q78 771 224 929T618 1087Z"  />
<glyph unicode="d" horiz-adv-x="1251" d="M1143 1462V0H866V135H862Q815 54 733 13T541 -29Q324 -29 195 130T66 539Q66 775 193 931T535 1087Q634 1087 716 1047T848 930H852V1462H1143ZM356 531Q356 383 425 287T612 190Q733 190 797 279T862 532Q862 687 799 777T611 868Q490 868 423 778T356 531Z"  />
<glyph unicode="e" horiz-adv-x="1176" d="M600 1087Q835 1087 975 926T1116 513L1114 459H350Q356 322 421 256T609 190Q688 190 755 230T840 328H1096Q1037 148 914 60T600 -29Q355 -29 207 126T59 528Q59 765 210 926T600 1087ZM350 643H823Q802 760 748 814T590 868Q484 868 422 808T350 643Z"  />
<glyph unicode="f" horiz-adv-x="682" d="M528 1462Q558 1462 608 1459T682 1454V1237Q653 1240 627 1241T577 1243Q516 1243 491 1217T465 1108V1059H666V864H465V0H174V864H0V1059H174V1132Q174 1297 269 1379T528 1462Z"  />
<glyph unicode="g" horiz-adv-x="1251" d="M532 1087Q648 1087 724 1044T848 918H852V1059H1128V59Q1128 -154 993 -277T581 -401Q394 -401 260 -312T113 -61H401Q421 -138 477 -172T618 -207Q730 -207 791 -140T852 48V195H848Q805 117 722 74T530 31Q316 31 197 173T78 563Q78 787 202 937T532 1087ZM369 567Q369 418 430 334T604 250Q719 250 785 334T852 544Q852 699 789 783T603 868Q495 868 432 786T369 567Z"  />
<glyph unicode="h" horiz-adv-x="1214" d="M401 1462V911H408Q454 990 538 1038T719 1087Q921 1087 1012 984T1104 662V0H813V607Q813 731 771 794T627 858Q506 858 454 786T401 565V0H111V1462H401Z"  />
<glyph unicode="i" horiz-adv-x="528" d="M410 1462V1223H119V1462H410ZM410 1059V0H119V1059H410Z"  />
<glyph unicode="j" horiz-adv-x="569" d="M428 1462V1223H137V1462H428ZM428 1059V-62Q428 -228 345 -300T57 -373Q32 -373 9 -371T-39 -365V-125Q-26 -130 -10 -131T24 -133Q88 -133 112 -109T137 -43V1059H428Z"  />
<glyph unicode="k" horiz-adv-x="1176" d="M428 1462V678L795 1059H1139L739 670L1184 0H831L541 473L428 365V0H137V1462H428Z"  />
<glyph unicode="l" horiz-adv-x="528" d="M410 1462V0H119V1462H410Z"  />
<glyph unicode="m" horiz-adv-x="1855" d="M721 1087Q839 1087 916 1042T1030 911Q1090 996 1172 1041T1351 1087Q1543 1087 1640 989T1737 718V0H1446V612Q1446 757 1404 807T1268 858Q1170 858 1122 792T1073 599V0H782V652Q782 757 742 807T607 858Q524 858 467 794T410 621V0H119V1059H393V915H397Q459 1002 540 1044T721 1087Z"  />
<glyph unicode="n" horiz-adv-x="1214" d="M718 1087Q921 1087 1012 985T1104 662V0H813V607Q813 731 771 794T627 858Q506 858 454 786T401 565V0H111V1059H387V911H393Q446 996 531 1041T718 1087Z"  />
<glyph unicode="o" horiz-adv-x="1251" d="M625 1087Q874 1087 1024 934T1174 528Q1174 275 1023 123T625 -29Q379 -29 229 124T78 528Q78 779 226 933T625 1087ZM369 528Q369 361 437 276T625 190Q749 190 816 278T883 528Q883 686 818 777T623 868Q506 868 438 784T369 528Z"  />
<glyph unicode="p" horiz-adv-x="1251" d="M707 1087Q932 1087 1060 930T1188 518Q1188 283 1062 127T723 -29Q626 -29 542 12T406 131H401V-373H111V1059H387V924H391Q443 1007 523 1047T707 1087ZM391 526Q391 374 456 282T645 190Q766 190 831 278T897 526Q897 678 832 773T641 868Q521 868 456 778T391 526Z"  />
<glyph unicode="q" horiz-adv-x="1251" d="M541 1087Q649 1087 733 1046T862 924H866V1059H1143V-373H852V133H848Q800 53 711 12T514 -29Q329 -29 198 115T66 521Q66 769 194 928T541 1087ZM356 528Q356 367 423 279T608 190Q730 190 796 278T862 524Q862 674 798 771T612 868Q489 868 423 775T356 528Z"  />
<glyph unicode="r" horiz-adv-x="797" d="M728 1087Q747 1087 763 1085T793 1077V807Q768 812 745 814T689 817Q542 817 472 727T401 486V0H111V1059H387V862H391Q437 966 528 1026T728 1087Z"  />
<glyph unicode="s" horiz-adv-x="1100" d="M545 1087Q761 1087 878 1002T1012 750H735Q729 825 679 859T536 893Q452 893 414 868T375 795Q375 746 425 715T629 654Q873 607 956 533T1040 339Q1040 159 909 65T557 -29Q337 -29 203 64T59 344H336Q336 260 399 213T559 166Q644 166 697 202T750 301Q750 356 681 391T428 464Q246 500 165 567T84 748Q84 916 203 1001T545 1087Z"  />
<glyph unicode="t" horiz-adv-x="721" d="M479 1376V1059H692V864H479V333Q479 268 503 243T602 217Q627 217 650 219T692 225V-2Q656 -8 612 -10T524 -12Q335 -12 262 52T188 233V864H12V1059H188V1376H479Z"  />
<glyph unicode="u" horiz-adv-x="1214" d="M401 1059V452Q401 332 443 267T588 201Q708 201 760 273T813 494V1059H1104V0H827V147H821Q766 59 679 15T496 -29Q299 -29 205 71T111 396V1059H401Z"  />
<glyph unicode="v" horiz-adv-x="1065" d="M315 1059L539 336H543L766 1059H1055L696 0H373L10 1059H315Z"  />
<glyph unicode="w" horiz-adv-x="1667" d="M319 1059L514 340H518L694 1059H977L1157 342H1161L1356 1059H1655L1320 0H1022L834 711H829L649 0H348L12 1059H319Z"  />
<glyph unicode="x" horiz-adv-x="1100" d="M365 1059L551 782L735 1059H1057L709 563L1100 0H768L547 334L326 0H0L381 557L33 1059H365Z"  />
<glyph unicode="y" horiz-adv-x="1063" d="M299 1059L539 334H543L774 1059H1075L625 -153Q585 -259 502 -316T287 -373Q224 -373 181 -370T91 -362V-123Q144 -129 178 -131T243 -133Q305 -133 339 -95T373 0Q373 15 371 29T360 66L-13 1059H299Z"  />
<glyph unicode="z" horiz-adv-x="1063" d="M979 1059V840L428 219H1018V0H45V219L596 840H86V1059H979Z"  />
<glyph unicode="{" horiz-adv-x="682" d="M682 1497V1268H571Q515 1268 488 1231T461 1124V817Q461 593 259 565V559Q343 550 402 489T461 340V-4Q461 -143 574 -143H682V-373H418Q372 -373 309 -339T208 -240T170 -102V307Q170 373 118 421T-18 473V651Q71 657 120 709T170 831V1227Q170 1340 251 1418T418 1497H682Z"  />
<glyph unicode="|" horiz-adv-x="457" d="M338 1610V-438H119V1610H338Z"  />
<glyph unicode="}" horiz-adv-x="682" d="M264 1497Q349 1497 430 1419T512 1227V831Q512 761 561 709T700 651V473Q616 469 564 421T512 307V-102Q512 -176 474 -240T373 -338T264 -373H0V-143H108Q168 -143 194 -106T221 0V327Q221 434 282 493T423 559V565Q318 580 270 645T221 800V1123Q221 1268 111 1268H0V1497H264Z"  />
<glyph unicode="~" horiz-adv-x="1229" d="M1010 705L1092 514Q1018 409 961 374T836 338Q743 338 610 408Q477 477 392 477Q339 477 297 443T219 330L137 520Q187 614 250 655T393 696Q436 696 491 681T625 628Q650 617 716 587T829 557Q871 557 911 586T1010 705Z"  />
<glyph unicode="&#xA0;" horiz-adv-x="569" />
<glyph unicode="&#xA1;" horiz-adv-x="569" d="M446 1087V772H125V1087H446ZM358 649L436 18V-375H133V18L213 649H358Z"  />
<glyph unicode="&#xA2;" horiz-adv-x="1139" d="M531 1262H653V1087Q837 1085 969 973T1112 684H827V686Q821 756 772 808T653 868V190Q731 207 781 272T831 416H1116Q1098 222 975 107T653 -29V-236H532V-29Q309 -13 176 141T43 512Q43 748 169 906T531 1087V1262ZM334 541Q334 403 384 314T532 190V866Q435 839 385 754T334 541Z"  />
<glyph unicode="&#xA3;" horiz-adv-x="1139" d="M605 1497Q840 1497 971 1366T1104 985H827Q821 1124 766 1190T604 1257Q513 1257 458 1206T403 1068Q403 1005 420 952T486 808H760V633H545Q555 600 558 575T561 509Q561 420 517 351T393 219L397 215Q439 240 468 251T537 262Q575 262 633 252T730 232Q759 224 793 220T858 215Q923 215 962 240T1038 303L1161 96Q1102 36 1019 1T840 -35Q705 -35 613 4Q521 43 416 43Q334 43 276 20T180 -35L53 156Q166 226 225 316T285 496Q285 524 277 553T246 633H43V807H174Q135 856 109 934T82 1090Q82 1267 224 1382T605 1497Z"  />
<glyph unicode="&#xA4;" horiz-adv-x="1139" d="M973 1249L1098 1124L983 1012Q1030 958 1052 881T1075 719Q1075 622 1049 545T981 420L1094 305L981 193L864 311Q817 266 741 238T571 209Q484 209 405 233T271 309L156 190L41 305L158 424Q108 483 84 557T59 715Q59 799 83 878T158 1010L41 1128L158 1245L274 1130Q325 1174 408 1199T573 1225Q648 1225 724 1201T854 1133L973 1249ZM313 715Q313 590 384 509T571 428Q686 428 753 509T821 719Q821 842 753 924T571 1006Q457 1006 385 924T313 715Z"  />
<glyph unicode="&#xA5;" horiz-adv-x="1139" d="M315 1462L586 825L850 1462H1182L864 825H1059V631H766L735 571V477H1059V283H735V0H424V283H102V477H424V571L395 631H102V825H297L-18 1462H315Z"  />
<glyph unicode="&#xA6;" horiz-adv-x="457" d="M338 1354V842H119V1354H338ZM338 330V-182H119V330H338Z"  />
<glyph unicode="&#xA7;" horiz-adv-x="1139" d="M580 1497Q765 1497 887 1394T1012 1102H758Q758 1180 710 1229T584 1278Q522 1278 475 1240T428 1148Q428 1093 485 1044T701 924Q952 812 1035 720T1118 512Q1118 407 1059 327T905 213Q962 171 990 110T1018 -29Q1018 -182 888 -277T581 -373Q363 -373 243 -270T122 25H375Q379 -63 430 -108T574 -154Q640 -154 683 -120T727 -11Q727 45 669 95T416 231Q194 329 107 424T20 639Q20 743 76 821T240 936Q192 988 172 1035T152 1143Q152 1300 278 1398T580 1497ZM274 662Q274 636 288 609T341 560L692 369Q718 355 737 351T770 346Q806 346 835 383T864 459Q864 495 844 527T771 589L413 791Q398 799 380 799Q345 799 310 755T274 662Z"  />
<glyph unicode="&#xA8;" horiz-adv-x="530" d="M193 1464V1225H-84V1464H193ZM614 1464V1225H338V1464H614Z"  />
<glyph unicode="&#xA9;" horiz-adv-x="1638" d="M819 1497Q1149 1497 1377 1279T1606 731Q1606 401 1378 183T819 -35Q495 -35 264 181T33 731Q33 1064 263 1280T819 1497ZM242 731Q242 475 409 302T819 129Q1063 129 1230 302T1397 731Q1397 983 1232 1158T817 1333Q576 1333 409 1161T242 731ZM844 1194Q994 1194 1094 1109T1214 877H1055Q1036 951 979 990T844 1030Q732 1030 668 952T604 740Q604 615 674 530T848 444Q929 444 985 485T1055 604H1221Q1193 449 1090 365T848 281Q654 281 531 409T408 735Q408 943 529 1068T844 1194Z"  />
<glyph unicode="&#xAA;" horiz-adv-x="705" d="M360 1462Q521 1462 594 1414T668 1285V931Q668 894 673 853T692 786H485Q480 804 477 818T471 849Q430 808 375 788T250 768Q138 768 79 823T20 973Q20 1067 83 1116T324 1180Q415 1187 444 1202T473 1249Q473 1290 449 1309T352 1329Q307 1329 280 1305T250 1239H41Q57 1349 135 1405T360 1462ZM229 977Q229 942 254 922T323 901Q395 901 433 936T471 1061V1096Q447 1077 408 1071Q294 1053 262 1033T229 977Z"  />
<glyph unicode="&#xAB;" horiz-adv-x="909" d="M408 948V702L223 557L408 410V164L86 420V696L408 948ZM823 948V702L639 557L823 410V164L502 420V696L823 948Z"  />
<glyph unicode="&#xAC;" horiz-adv-x="1229" d="M1114 831V203H895V612H82V831H1114Z"  />
<glyph unicode="&#xAD;" horiz-adv-x="834" d="M725 684V434H109V684H725Z"  />
<glyph unicode="&#xAE;" horiz-adv-x="1638" d="M819 1497Q1150 1497 1378 1280T1606 733Q1606 402 1376 184T819 -35Q494 -35 264 182T33 733Q33 1066 263 1281T819 1497ZM242 733Q242 476 408 303T819 129Q1062 129 1229 303T1397 733Q1397 985 1232 1159T817 1333Q575 1333 409 1161T242 733ZM848 1163Q1010 1163 1092 1102T1174 909Q1174 809 1119 750T949 680L1178 305H999L791 672H684V305H514V1163H848ZM845 805Q936 805 970 834T1004 924Q1004 975 959 1002T834 1030H684V805H845Z"  />
<glyph unicode="&#xAF;" horiz-adv-x="530" d="M627 1421V1268H-96V1421H627Z"  />
<glyph unicode="&#xB0;" horiz-adv-x="819" d="M410 1462Q535 1462 624 1374T713 1159Q713 1033 625 945T410 856Q280 856 193 947T106 1159Q106 1282 194 1372T410 1462ZM240 1159Q240 1089 291 1034T410 979Q476 979 528 1033T580 1159Q580 1232 529 1285T409 1339Q342 1339 291 1285T240 1159Z"  />
<glyph unicode="&#xB1;" horiz-adv-x="1229" d="M725 1036V768H1133V549H725V281H506V549H98V768H506V1036H725ZM1133 219V0H98V219H1133Z"  />
<glyph unicode="&#xB2;" horiz-adv-x="799" d="M420 1698Q565 1698 648 1629T731 1438Q731 1356 689 1297T565 1185T398 1082Q313 1030 303 977H725V813H68V819Q68 957 112 1041T264 1192L422 1290Q475 1323 499 1356T524 1437Q524 1482 496 1511T418 1540Q354 1540 323 1502T287 1384H82Q82 1530 173 1614T420 1698Z"  />
<glyph unicode="&#xB3;" horiz-adv-x="799" d="M406 1698Q542 1698 623 1635T705 1466Q705 1404 670 1357T570 1286Q649 1271 694 1216T739 1069Q739 950 641 873T391 795Q236 795 146 870T55 1079H252Q260 1020 295 988T397 956Q464 956 505 989T547 1078Q547 1140 511 1170T377 1200H332V1341H387Q445 1341 480 1368T516 1442Q516 1490 484 1516T397 1542Q333 1542 302 1509T270 1407H76Q83 1548 171 1623T406 1698Z"  />
<glyph unicode="&#xB4;" horiz-adv-x="530" d="M629 1497L313 1206H111L307 1497H629Z"  />
<glyph unicode="&#xB5;" horiz-adv-x="1214" d="M401 1059V452Q401 332 443 267T588 201Q708 201 760 273T813 494V1059H1104V0H827V147H821Q757 52 692 12T555 -29Q514 -29 476 -18T401 20V-373H111V1059H401Z"  />
<glyph unicode="&#xB6;" horiz-adv-x="1270" d="M1096 1462V-340H887V1298H662V-340H453V731Q235 733 120 829T4 1090Q4 1280 130 1371T491 1462H1096Z"  />
<glyph unicode="&#xB7;" horiz-adv-x="569" d="M287 762Q355 762 407 710T459 588Q459 523 408 470T289 416Q219 416 166 465T113 588Q113 659 164 710T287 762Z"  />
<glyph unicode="&#xB8;" horiz-adv-x="530" d="M236 0H336L256 -106L260 -111Q280 -102 304 -99T343 -96Q421 -96 469 -137T518 -254Q518 -343 451 -393T260 -444Q185 -444 126 -431T25 -399L68 -301Q105 -317 148 -327T229 -338Q274 -338 298 -319T322 -268Q322 -237 298 -219T236 -201Q217 -201 199 -204T158 -217L115 -168L236 0Z"  />
<glyph unicode="&#xB9;" horiz-adv-x="799" d="M551 1679V813H342V1362H117V1509H137Q264 1509 315 1552T379 1679H551Z"  />
<glyph unicode="&#xBA;" horiz-adv-x="752" d="M375 1462Q538 1462 632 1367T727 1114Q727 955 632 862T375 768Q214 768 120 861T25 1114Q25 1275 119 1368T375 1462ZM244 1114Q244 1032 279 977T375 922Q437 922 472 978T508 1114Q508 1194 473 1251T374 1309Q315 1309 280 1254T244 1114Z"  />
<glyph unicode="&#xBB;" horiz-adv-x="909" d="M408 696V420L86 164V410L270 557L86 702V948L408 696ZM502 948L823 696V420L502 164V410L686 557L502 702V948Z"  />
<glyph unicode="&#xBC;" horiz-adv-x="1708" d="M1329 1479L485 -45H307L1155 1479H1329ZM506 1440V573H297V1122H72V1270H99Q187 1270 228 1288T296 1341T334 1440H506ZM1501 866V326H1618V170H1501V0H1305V170H920V342L1315 866H1501ZM1305 641L1073 326H1305V641Z"  />
<glyph unicode="&#xBD;" horiz-adv-x="1708" d="M1288 1479L444 -45H266L1114 1479H1288ZM506 1440V573H297V1122H72V1270H99Q187 1270 228 1288T296 1341T334 1440H506ZM1315 885Q1460 885 1543 816T1626 625Q1626 539 1580 478T1431 353L1301 273Q1251 243 1227 217T1198 164H1620V0H963V6Q963 150 1010 233T1173 388L1318 478Q1370 510 1394 542T1419 624Q1419 667 1391 697T1313 727Q1250 727 1218 689T1182 571H977Q977 715 1069 800T1315 885Z"  />
<glyph unicode="&#xBE;" horiz-adv-x="1708" d="M1474 1479L630 -45H452L1299 1479H1474ZM426 1458Q562 1458 643 1395T725 1227Q725 1163 689 1116T590 1047Q674 1030 717 975T760 829Q760 709 662 632T412 555Q254 555 165 631T76 840H272Q281 777 317 747T418 717Q486 717 526 749T567 838Q567 901 531 931T398 961H352V1102H407Q471 1102 504 1130T537 1202Q537 1247 506 1275T418 1303Q356 1303 324 1270T291 1167H96Q103 1306 190 1382T426 1458ZM1563 866V326H1679V170H1563V0H1366V170H981V342L1376 866H1563ZM1135 326H1366V641L1135 326Z"  />
<glyph unicode="&#xBF;" horiz-adv-x="1139" d="M743 1087V772H422V1087H743ZM715 657V565Q705 460 663 383T529 237Q436 167 412 123T387 28Q387 -70 433 -116T561 -162Q657 -162 711 -92T768 104H1069Q1060 -129 924 -265T574 -401Q334 -401 200 -284T66 -5Q66 111 107 193T249 348Q377 439 407 488T438 599V657H715Z"  />
<glyph unicode="&#xC0;" horiz-adv-x="1403" d="M870 1462L1417 1H1083L973 326H426L311 0H-14L541 1462H870ZM700 1102L510 565H889L705 1102H700ZM644 1886L841 1595H638L323 1886H644Z"  />
<glyph unicode="&#xC1;" horiz-adv-x="1403" d="M870 1462L1417 1H1083L973 326H426L311 0H-14L541 1462H870ZM700 1102L510 565H889L705 1102H700ZM1082 1886L766 1595H564L760 1886H1082Z"  />
<glyph unicode="&#xC2;" horiz-adv-x="1403" d="M870 1462L1417 1H1083L973 326H426L311 0H-14L541 1462H870ZM700 1102L510 565H889L705 1102H700ZM839 1886L1065 1595H829L703 1760H701L571 1595H346L573 1886H839Z"  />
<glyph unicode="&#xC3;" horiz-adv-x="1403" d="M870 1462L1417 1H1083L973 326H426L311 0H-14L541 1462H870ZM700 1102L510 565H889L705 1102H700ZM567 1866Q630 1866 723 1830Q815 1794 860 1794Q895 1794 916 1810T948 1866H1079Q1055 1745 998 1689T850 1632Q779 1632 688 1667Q597 1702 549 1702Q516 1702 493 1682T456 1616H327Q344 1731 411 1798T567 1866Z"  />
<glyph unicode="&#xC4;" horiz-adv-x="1403" d="M870 1462L1417 1H1083L973 326H426L311 0H-14L541 1462H870ZM700 1102L510 565H889L705 1102H700ZM631 1853V1614H354V1853H631ZM1052 1853V1614H776V1853H1052Z"  />
<glyph unicode="&#xC5;" horiz-adv-x="1403" d="M870 1462L1417 1H1083L973 326H426L311 0H-14L541 1462H870ZM700 1102L510 565H889L705 1102H700ZM704 1993Q806 1993 875 1925T944 1759Q944 1663 875 1595T704 1526Q604 1526 535 1592T465 1759Q465 1857 535 1925T704 1993ZM579 1759Q579 1702 615 1666T704 1630Q762 1630 795 1666T829 1759Q829 1816 794 1852T703 1888Q650 1888 615 1853T579 1759Z"  />
<glyph unicode="&#xC6;" horiz-adv-x="2009" d="M1917 1462V1192H1237V879H1876V629H1237V270H1933V0H926V326H467L319 0H-23L676 1462H1917ZM856 1192L573 565H926V1192H856Z"  />
<glyph unicode="&#xC7;" horiz-adv-x="1518" d="M797 1497Q1046 1497 1221 1357T1427 971H1116Q1095 1086 1002 1156T796 1227Q608 1227 504 1090T399 725Q399 508 502 372T797 236Q936 236 1022 321T1128 563H1440Q1413 287 1242 128T799 -35L745 -106L750 -111Q770 -102 793 -99T832 -96Q912 -96 960 -138T1008 -254Q1008 -344 940 -394T751 -444Q691 -444 637 -435T514 -399L557 -301Q593 -316 636 -327T719 -338Q762 -338 786 -320T811 -268Q811 -237 787 -219T725 -201Q705 -201 687 -205T647 -217L604 -168L701 -29Q409 7 244 216T78 725Q78 1063 275 1280T797 1497Z"  />
<glyph unicode="&#xC8;" horiz-adv-x="1327" d="M1235 1462V1192H463V879H1171V629H463V270H1251V0H141V1462H1235ZM601 1886L798 1595H595L280 1886H601Z"  />
<glyph unicode="&#xC9;" horiz-adv-x="1327" d="M1235 1462V1192H463V879H1171V629H463V270H1251V0H141V1462H1235ZM1077 1886L761 1595H559L755 1886H1077Z"  />
<glyph unicode="&#xCA;" horiz-adv-x="1327" d="M1235 1462V1192H463V879H1171V629H463V270H1251V0H141V1462H1235ZM815 1886L1041 1595H805L679 1760H677L547 1595H322L549 1886H815Z"  />
<glyph unicode="&#xCB;" horiz-adv-x="1327" d="M1235 1462V1192H463V879H1171V629H463V270H1251V0H141V1462H1235ZM607 1853V1614H330V1853H607ZM1028 1853V1614H752V1853H1028Z"  />
<glyph unicode="&#xCC;" horiz-adv-x="604" d="M463 1462V0H141V1462H463ZM247 1886L444 1595H241L-74 1886H247Z"  />
<glyph unicode="&#xCD;" horiz-adv-x="604" d="M463 1462V0H141V1462H463ZM672 1886L356 1595H154L350 1886H672Z"  />
<glyph unicode="&#xCE;" horiz-adv-x="604" d="M463 1462V0H141V1462H463ZM436 1886L662 1595H426L300 1760H298L168 1595H-57L170 1886H436Z"  />
<glyph unicode="&#xCF;" horiz-adv-x="604" d="M463 1462V0H141V1462H463ZM228 1853V1614H-49V1853H228ZM649 1853V1614H373V1853H649Z"  />
<glyph unicode="&#xD0;" horiz-adv-x="1518" d="M784 1462Q1074 1462 1255 1272T1436 739Q1436 397 1261 199T776 0H141V655H-8V856H141V1462H784ZM791 856V653H463V270H760Q914 270 1014 380T1114 710Q1114 963 1008 1077T701 1192H463V856H791Z"  />
<glyph unicode="&#xD1;" horiz-adv-x="1518" d="M461 1462L1071 481H1075V1462H1376V0H1055L446 979H442V0H141V1462H461ZM612 1866Q675 1866 768 1830Q860 1794 905 1794Q940 1794 961 1810T993 1866H1124Q1100 1745 1043 1689T895 1632Q824 1632 733 1667Q642 1702 594 1702Q561 1702 538 1682T501 1616H372Q389 1731 456 1798T612 1866Z"  />
<glyph unicode="&#xD2;" horiz-adv-x="1593" d="M797 1497Q1123 1497 1319 1279T1516 725Q1516 398 1319 182T797 -35Q586 -35 422 62T168 334T78 725Q78 1063 275 1280T797 1497ZM399 725Q399 509 502 373T797 236Q986 236 1090 370T1194 725Q1194 956 1089 1091T795 1227Q608 1227 504 1090T399 725ZM718 1886L915 1595H712L397 1886H718Z"  />
<glyph unicode="&#xD3;" horiz-adv-x="1593" d="M797 1497Q1123 1497 1319 1279T1516 725Q1516 398 1319 182T797 -35Q586 -35 422 62T168 334T78 725Q78 1063 275 1280T797 1497ZM399 725Q399 509 502 373T797 236Q986 236 1090 370T1194 725Q1194 956 1089 1091T795 1227Q608 1227 504 1090T399 725ZM1196 1886L880 1595H678L874 1886H1196Z"  />
<glyph unicode="&#xD4;" horiz-adv-x="1593" d="M797 1497Q1123 1497 1319 1279T1516 725Q1516 398 1319 182T797 -35Q586 -35 422 62T168 334T78 725Q78 1063 275 1280T797 1497ZM399 725Q399 509 502 373T797 236Q986 236 1090 370T1194 725Q1194 956 1089 1091T795 1227Q608 1227 504 1090T399 725ZM934 1886L1160 1595H924L798 1760H796L666 1595H441L668 1886H934Z"  />
<glyph unicode="&#xD5;" horiz-adv-x="1593" d="M797 1497Q1123 1497 1319 1279T1516 725Q1516 398 1319 182T797 -35Q586 -35 422 62T168 334T78 725Q78 1063 275 1280T797 1497ZM399 725Q399 509 502 373T797 236Q986 236 1090 370T1194 725Q1194 956 1089 1091T795 1227Q608 1227 504 1090T399 725ZM661 1866Q724 1866 817 1830Q909 1794 954 1794Q989 1794 1010 1810T1042 1866H1173Q1149 1745 1092 1689T944 1632Q873 1632 782 1667Q691 1702 643 1702Q610 1702 587 1682T550 1616H421Q438 1731 505 1798T661 1866Z"  />
<glyph unicode="&#xD6;" horiz-adv-x="1593" d="M797 1497Q1123 1497 1319 1279T1516 725Q1516 398 1319 182T797 -35Q586 -35 422 62T168 334T78 725Q78 1063 275 1280T797 1497ZM399 725Q399 509 502 373T797 236Q986 236 1090 370T1194 725Q1194 956 1089 1091T795 1227Q608 1227 504 1090T399 725ZM725 1853V1614H448V1853H725ZM1146 1853V1614H870V1853H1146Z"  />
<glyph unicode="&#xD7;" horiz-adv-x="1229" d="M290 1001L615 674L943 1001L1099 846L769 518L1099 190L943 35L615 365L286 35L130 190L460 518L134 846L290 1001Z"  />
<glyph unicode="&#xD8;" horiz-adv-x="1593" d="M1524 1432L1353 1242H1351Q1434 1136 1475 1003T1516 725Q1516 398 1319 182T797 -35Q669 -35 553 3T341 121L170 -68L70 20L246 215Q162 314 120 445T78 725Q78 1063 275 1280T797 1497Q932 1497 1049 1458T1257 1339L1421 1522L1524 1432ZM399 725Q399 648 415 574T457 449L1062 1121Q1009 1176 942 1201T795 1227Q608 1227 504 1090T399 725ZM535 336Q581 288 646 262T797 236Q986 236 1090 370T1194 725Q1194 807 1180 874T1139 1004L535 336Z"  />
<glyph unicode="&#xD9;" horiz-adv-x="1518" d="M457 1462V544Q457 386 529 311T758 236Q926 236 993 309T1061 543V1462H1382V543Q1382 271 1224 118T758 -35Q449 -35 292 115T135 543V1462H457ZM679 1886L876 1595H673L358 1886H679Z"  />
<glyph unicode="&#xDA;" horiz-adv-x="1518" d="M457 1462V544Q457 386 529 311T758 236Q926 236 993 309T1061 543V1462H1382V543Q1382 271 1224 118T758 -35Q449 -35 292 115T135 543V1462H457ZM1157 1886L841 1595H639L835 1886H1157Z"  />
<glyph unicode="&#xDB;" horiz-adv-x="1518" d="M457 1462V544Q457 386 529 311T758 236Q926 236 993 309T1061 543V1462H1382V543Q1382 271 1224 118T758 -35Q449 -35 292 115T135 543V1462H457ZM895 1886L1121 1595H885L759 1760H757L627 1595H402L629 1886H895Z"  />
<glyph unicode="&#xDC;" horiz-adv-x="1518" d="M457 1462V544Q457 386 529 311T758 236Q926 236 993 309T1061 543V1462H1382V543Q1382 271 1224 118T758 -35Q449 -35 292 115T135 543V1462H457ZM687 1853V1614H410V1853H687ZM1108 1853V1614H832V1853H1108Z"  />
<glyph unicode="&#xDD;" horiz-adv-x="1366" d="M344 1462L686 885L1026 1462H1384L842 561V0H520V569L-18 1462H344ZM1088 1886L772 1595H570L766 1886H1088Z"  />
<glyph unicode="&#xDE;" horiz-adv-x="1366" d="M463 1462V1264H811Q1040 1264 1173 1135T1307 795Q1307 584 1175 455T811 326H463V0H141V1462H463ZM722 575Q860 575 927 627T995 795Q995 910 927 962T722 1014H463V575H722Z"  />
<glyph unicode="&#xDF;" horiz-adv-x="1251" d="M595 1497Q809 1497 935 1390T1061 1105Q1061 1007 1009 927T870 819V815Q997 789 1067 687T1137 449Q1137 254 1009 113T690 -29Q650 -29 609 -26T524 -16V221Q544 215 564 213T607 211Q709 211 777 282T846 460Q846 579 781 644T596 709Q544 708 524 705V897Q536 895 547 894T570 893Q661 893 722 940T784 1075Q784 1164 736 1210T589 1257Q500 1257 453 1203T406 1063V0H115V1016Q115 1253 234 1375T595 1497Z"  />
<glyph unicode="&#xE0;" horiz-adv-x="1176" d="M597 1087Q832 1087 946 1010T1061 793V225Q1061 161 1069 97T1098 0H803Q795 24 790 49T782 101Q721 38 631 5T426 -29Q262 -29 164 53T66 289Q66 437 158 515T493 621Q662 637 716 662T770 751Q770 822 729 857T583 893Q493 893 445 855T389 733H98Q110 907 241 997T597 1087ZM356 301Q356 238 399 202T535 166Q651 166 710 227T770 405V518Q744 497 702 487T548 460Q449 447 403 409T356 301ZM531 1497L728 1206H525L210 1497H531Z"  />
<glyph unicode="&#xE1;" horiz-adv-x="1176" d="M597 1087Q832 1087 946 1010T1061 793V225Q1061 161 1069 97T1098 0H803Q795 24 790 49T782 101Q721 38 631 5T426 -29Q262 -29 164 53T66 289Q66 437 158 515T493 621Q662 637 716 662T770 751Q770 822 729 857T583 893Q493 893 445 855T389 733H98Q110 907 241 997T597 1087ZM356 301Q356 238 399 202T535 166Q651 166 710 227T770 405V518Q744 497 702 487T548 460Q449 447 403 409T356 301ZM994 1497L678 1206H476L672 1497H994Z"  />
<glyph unicode="&#xE2;" horiz-adv-x="1176" d="M597 1087Q832 1087 946 1010T1061 793V225Q1061 161 1069 97T1098 0H803Q795 24 790 49T782 101Q721 38 631 5T426 -29Q262 -29 164 53T66 289Q66 437 158 515T493 621Q662 637 716 662T770 751Q770 822 729 857T583 893Q493 893 445 855T389 733H98Q110 907 241 997T597 1087ZM356 301Q356 238 399 202T535 166Q651 166 710 227T770 405V518Q744 497 702 487T548 460Q449 447 403 409T356 301ZM739 1497L965 1206H729L603 1371H601L471 1206H246L473 1497H739Z"  />
<glyph unicode="&#xE3;" horiz-adv-x="1176" d="M597 1087Q832 1087 946 1010T1061 793V225Q1061 161 1069 97T1098 0H803Q795 24 790 49T782 101Q721 38 631 5T426 -29Q262 -29 164 53T66 289Q66 437 158 515T493 621Q662 637 716 662T770 751Q770 822 729 857T583 893Q493 893 445 855T389 733H98Q110 907 241 997T597 1087ZM356 301Q356 238 399 202T535 166Q651 166 710 227T770 405V518Q744 497 702 487T548 460Q449 447 403 409T356 301ZM467 1477Q531 1477 621 1441Q711 1405 760 1405Q796 1405 817 1422T848 1477H979Q956 1357 899 1300T750 1243Q678 1243 587 1278Q496 1313 449 1313Q416 1313 393 1293T356 1227H227Q246 1346 313 1411T467 1477Z"  />
<glyph unicode="&#xE4;" horiz-adv-x="1176" d="M597 1087Q832 1087 946 1010T1061 793V225Q1061 161 1069 97T1098 0H803Q795 24 790 49T782 101Q721 38 631 5T426 -29Q262 -29 164 53T66 289Q66 437 158 515T493 621Q662 637 716 662T770 751Q770 822 729 857T583 893Q493 893 445 855T389 733H98Q110 907 241 997T597 1087ZM356 301Q356 238 399 202T535 166Q651 166 710 227T770 405V518Q744 497 702 487T548 460Q449 447 403 409T356 301ZM531 1464V1225H254V1464H531ZM952 1464V1225H676V1464H952Z"  />
<glyph unicode="&#xE5;" horiz-adv-x="1176" d="M597 1087Q832 1087 946 1010T1061 793V225Q1061 161 1069 97T1098 0H803Q795 24 790 49T782 101Q721 38 631 5T426 -29Q262 -29 164 53T66 289Q66 437 158 515T493 621Q662 637 716 662T770 751Q770 822 729 857T583 893Q493 893 445 855T389 733H98Q110 907 241 997T597 1087ZM356 301Q356 238 399 202T535 166Q651 166 710 227T770 405V518Q744 497 702 487T548 460Q449 447 403 409T356 301ZM606 1647Q715 1647 785 1577T856 1401Q856 1294 782 1225T604 1155Q495 1155 425 1226T354 1401Q354 1504 426 1575T606 1647ZM475 1401Q475 1342 509 1303T604 1264Q663 1264 699 1301T735 1401Q735 1460 701 1499T605 1538Q546 1538 511 1499T475 1401Z"  />
<glyph unicode="&#xE6;" horiz-adv-x="1858" d="M605 1087Q724 1087 816 1051T956 944Q1020 1018 1102 1052T1310 1087Q1540 1087 1668 922T1798 459H1042V448Q1042 333 1114 250T1295 166Q1387 166 1438 206T1505 332H1788Q1741 165 1609 68T1300 -29Q1176 -29 1073 16T905 152Q838 64 722 18T473 -29Q293 -29 186 52T78 287Q78 393 122 458T245 561T495 620Q665 641 726 666T788 758Q788 825 742 859T600 893Q502 893 452 852T397 729H106Q114 904 246 995T605 1087ZM1507 643Q1505 756 1442 824T1278 893Q1182 893 1114 825T1042 643H1507ZM369 303Q369 237 415 202T548 166Q647 166 717 225T788 380V516Q783 508 743 491T607 463Q468 446 419 409T369 303Z"  />
<glyph unicode="&#xE7;" horiz-adv-x="1176" d="M618 1087Q823 1087 963 981T1116 686H831Q818 777 764 822T616 868Q499 868 434 772T369 524Q369 372 433 281T610 190Q707 190 767 245T842 406H1122Q1096 214 973 98T639 -29L582 -106L586 -111Q606 -103 629 -100T669 -96Q749 -96 796 -138T844 -254Q844 -344 777 -394T587 -444Q527 -444 473 -435T350 -399L393 -301Q429 -316 472 -327T555 -338Q598 -338 622 -320T647 -268Q647 -238 624 -220T561 -201Q541 -201 523 -205T483 -217L440 -169L542 -25Q326 1 202 149T78 514Q78 773 225 930T618 1087Z"  />
<glyph unicode="&#xE8;" horiz-adv-x="1176" d="M600 1087Q835 1087 975 926T1116 513L1114 459H350Q356 322 421 256T609 190Q688 190 755 230T840 328H1096Q1037 148 914 60T600 -29Q355 -29 207 126T59 528Q59 765 210 926T600 1087ZM350 643H823Q802 760 748 814T590 868Q484 868 422 808T350 643ZM529 1497L726 1206H523L208 1497H529Z"  />
<glyph unicode="&#xE9;" horiz-adv-x="1176" d="M600 1087Q835 1087 975 926T1116 513L1114 459H350Q356 322 421 256T609 190Q688 190 755 230T840 328H1096Q1037 148 914 60T600 -29Q355 -29 207 126T59 528Q59 765 210 926T600 1087ZM350 643H823Q802 760 748 814T590 868Q484 868 422 808T350 643ZM991 1497L675 1206H473L669 1497H991Z"  />
<glyph unicode="&#xEA;" horiz-adv-x="1176" d="M600 1087Q835 1087 975 926T1116 513L1114 459H350Q356 322 421 256T609 190Q688 190 755 230T840 328H1096Q1037 148 914 60T600 -29Q355 -29 207 126T59 528Q59 765 210 926T600 1087ZM350 643H823Q802 760 748 814T590 868Q484 868 422 808T350 643ZM737 1497L963 1206H727L601 1371H599L469 1206H244L471 1497H737Z"  />
<glyph unicode="&#xEB;" horiz-adv-x="1176" d="M600 1087Q835 1087 975 926T1116 513L1114 459H350Q356 322 421 256T609 190Q688 190 755 230T840 328H1096Q1037 148 914 60T600 -29Q355 -29 207 126T59 528Q59 765 210 926T600 1087ZM350 643H823Q802 760 748 814T590 868Q484 868 422 808T350 643ZM529 1464V1225H252V1464H529ZM950 1464V1225H674V1464H950Z"  />
<glyph unicode="&#xEC;" horiz-adv-x="528" d="M410 1059V0H119V1059H410ZM216 1497L413 1206H210L-105 1497H216Z"  />
<glyph unicode="&#xED;" horiz-adv-x="528" d="M410 1059V0H119V1059H410ZM635 1497L319 1206H117L313 1497H635Z"  />
<glyph unicode="&#xEE;" horiz-adv-x="528" d="M410 1059V0H119V1059H410ZM401 1497L627 1206H391L265 1371H263L133 1206H-92L135 1497H401Z"  />
<glyph unicode="&#xEF;" horiz-adv-x="528" d="M410 1059V0H119V1059H410ZM193 1464V1225H-84V1464H193ZM614 1464V1225H338V1464H614Z"  />
<glyph unicode="&#xF0;" horiz-adv-x="1251" d="M506 1522Q585 1494 637 1470T731 1419L948 1522L1042 1401L860 1317Q1021 1171 1097 986T1174 557Q1174 298 1021 135T625 -29Q382 -29 230 123T78 512Q78 738 206 887T559 1036Q652 1036 722 1009T846 934H850Q811 1032 759 1103T651 1214L414 1101H411L317 1221L507 1309Q474 1326 427 1347T354 1378L506 1522ZM369 527Q369 361 437 276T625 190Q749 190 816 278T883 527Q883 665 814 753T621 842Q505 842 437 757T369 527Z"  />
<glyph unicode="&#xF1;" horiz-adv-x="1214" d="M718 1087Q921 1087 1012 985T1104 662V0H813V607Q813 731 771 794T627 858Q506 858 454 786T401 565V0H111V1059H387V911H393Q446 996 531 1041T718 1087ZM469 1477Q533 1477 623 1441Q713 1405 762 1405Q798 1405 819 1422T850 1477H981Q958 1357 901 1300T752 1243Q680 1243 589 1278Q498 1313 451 1313Q418 1313 395 1293T358 1227H229Q248 1346 315 1411T469 1477Z"  />
<glyph unicode="&#xF2;" horiz-adv-x="1251" d="M625 1087Q874 1087 1024 934T1174 528Q1174 275 1023 123T625 -29Q379 -29 229 124T78 528Q78 779 226 933T625 1087ZM369 528Q369 361 437 276T625 190Q749 190 816 278T883 528Q883 686 818 777T623 868Q506 868 438 784T369 528ZM556 1497L753 1206H550L235 1497H556Z"  />
<glyph unicode="&#xF3;" horiz-adv-x="1251" d="M625 1087Q874 1087 1024 934T1174 528Q1174 275 1023 123T625 -29Q379 -29 229 124T78 528Q78 779 226 933T625 1087ZM369 528Q369 361 437 276T625 190Q749 190 816 278T883 528Q883 686 818 777T623 868Q506 868 438 784T369 528ZM1018 1497L702 1206H500L696 1497H1018Z"  />
<glyph unicode="&#xF4;" horiz-adv-x="1251" d="M625 1087Q874 1087 1024 934T1174 528Q1174 275 1023 123T625 -29Q379 -29 229 124T78 528Q78 779 226 933T625 1087ZM369 528Q369 361 437 276T625 190Q749 190 816 278T883 528Q883 686 818 777T623 868Q506 868 438 784T369 528ZM764 1497L990 1206H754L628 1371H626L496 1206H271L498 1497H764Z"  />
<glyph unicode="&#xF5;" horiz-adv-x="1251" d="M625 1087Q874 1087 1024 934T1174 528Q1174 275 1023 123T625 -29Q379 -29 229 124T78 528Q78 779 226 933T625 1087ZM369 528Q369 361 437 276T625 190Q749 190 816 278T883 528Q883 686 818 777T623 868Q506 868 438 784T369 528ZM491 1477Q555 1477 645 1441Q735 1405 784 1405Q820 1405 841 1422T872 1477H1003Q980 1357 923 1300T774 1243Q702 1243 611 1278Q520 1313 473 1313Q440 1313 417 1293T380 1227H251Q270 1346 337 1411T491 1477Z"  />
<glyph unicode="&#xF6;" horiz-adv-x="1251" d="M625 1087Q874 1087 1024 934T1174 528Q1174 275 1023 123T625 -29Q379 -29 229 124T78 528Q78 779 226 933T625 1087ZM369 528Q369 361 437 276T625 190Q749 190 816 278T883 528Q883 686 818 777T623 868Q506 868 438 784T369 528ZM555 1464V1225H278V1464H555ZM976 1464V1225H700V1464H976Z"  />
<glyph unicode="&#xF7;" horiz-adv-x="1229" d="M616 1116Q686 1116 737 1065T788 942Q788 874 736 822T618 770Q546 770 494 821T442 942Q442 1012 493 1064T616 1116ZM1133 627V408H98V627H1133ZM616 264Q686 264 737 214T788 92Q788 25 736 -28T618 -82Q548 -82 495 -30T442 92Q442 161 494 212T616 264Z"  />
<glyph unicode="&#xF8;" horiz-adv-x="1251" d="M1067 1114L1143 1049L1032 924Q1102 850 1138 749T1174 528Q1174 275 1023 123T625 -29Q525 -29 441 -3T287 74L166 -63L90 2L213 141Q145 215 112 311T78 528Q78 780 226 933T625 1087Q721 1087 805 1063T958 989L1067 1114ZM369 528Q369 476 376 434T399 352L795 803Q764 835 722 851T623 868Q506 868 438 784T369 528ZM451 260Q482 225 526 208T625 190Q749 190 816 278T883 528Q883 575 876 620T850 715L451 260Z"  />
<glyph unicode="&#xF9;" horiz-adv-x="1214" d="M401 1059V452Q401 332 443 267T588 201Q708 201 760 273T813 494V1059H1104V0H827V147H821Q766 59 679 15T496 -29Q299 -29 205 71T111 396V1059H401ZM539 1497L736 1206H533L218 1497H539Z"  />
<glyph unicode="&#xFA;" horiz-adv-x="1214" d="M401 1059V452Q401 332 443 267T588 201Q708 201 760 273T813 494V1059H1104V0H827V147H821Q766 59 679 15T496 -29Q299 -29 205 71T111 396V1059H401ZM1002 1497L686 1206H484L680 1497H1002Z"  />
<glyph unicode="&#xFB;" horiz-adv-x="1214" d="M401 1059V452Q401 332 443 267T588 201Q708 201 760 273T813 494V1059H1104V0H827V147H821Q766 59 679 15T496 -29Q299 -29 205 71T111 396V1059H401ZM747 1497L973 1206H737L611 1371H609L479 1206H254L481 1497H747Z"  />
<glyph unicode="&#xFC;" horiz-adv-x="1214" d="M401 1059V452Q401 332 443 267T588 201Q708 201 760 273T813 494V1059H1104V0H827V147H821Q766 59 679 15T496 -29Q299 -29 205 71T111 396V1059H401ZM539 1464V1225H262V1464H539ZM960 1464V1225H684V1464H960Z"  />
<glyph unicode="&#xFD;" horiz-adv-x="1063" d="M299 1059L539 334H543L774 1059H1075L625 -153Q585 -259 502 -316T287 -373Q224 -373 181 -370T91 -362V-123Q144 -129 178 -131T243 -133Q305 -133 339 -95T373 0Q373 15 371 29T360 66L-13 1059H299ZM932 1497L616 1206H414L610 1497H932Z"  />
<glyph unicode="&#xFE;" horiz-adv-x="1251" d="M401 1462V924H406Q455 1004 533 1045T708 1087Q932 1087 1060 930T1188 518Q1188 283 1062 127T723 -29Q626 -29 542 12T406 131H401V-373H111V1462H401ZM391 526Q391 374 456 282T645 190Q766 190 831 278T897 526Q897 678 832 773T641 868Q521 868 456 778T391 526Z"  />
<glyph unicode="&#xFF;" horiz-adv-x="1063" d="M299 1059L539 334H543L774 1059H1075L625 -153Q585 -259 502 -316T287 -373Q224 -373 181 -370T91 -362V-123Q144 -129 178 -131T243 -133Q305 -133 339 -95T373 0Q373 15 371 29T360 66L-13 1059H299ZM469 1464V1225H192V1464H469ZM890 1464V1225H614V1464H890Z"  />
<glyph unicode="&#x100;" horiz-adv-x="1403" d="M870 1462L1417 1H1083L973 326H426L311 0H-14L541 1462H870ZM700 1102L510 565H889L705 1102H700ZM1065 1810V1657H342V1810H1065Z"  />
<glyph unicode="&#x101;" horiz-adv-x="1176" d="M597 1087Q832 1087 946 1010T1061 793V225Q1061 161 1069 97T1098 0H803Q795 24 790 49T782 101Q721 38 631 5T426 -29Q262 -29 164 53T66 289Q66 437 158 515T493 621Q662 637 716 662T770 751Q770 822 729 857T583 893Q493 893 445 855T389 733H98Q110 907 241 997T597 1087ZM356 301Q356 238 399 202T535 166Q651 166 710 227T770 405V518Q744 497 702 487T548 460Q449 447 403 409T356 301ZM965 1421V1268H242V1421H965Z"  />
<glyph unicode="&#x102;" horiz-adv-x="1403" d="M870 1462L1417 1H1083L973 326H426L311 0H-14L541 1462H870ZM700 1102L510 565H889L705 1102H700ZM495 1886Q506 1819 564 1784T699 1749Q793 1749 849 1782T923 1886H1052Q1035 1745 944 1670T688 1595Q538 1595 456 1670T362 1886H495Z"  />
<glyph unicode="&#x103;" horiz-adv-x="1176" d="M597 1087Q832 1087 946 1010T1061 793V225Q1061 161 1069 97T1098 0H803Q795 24 790 49T782 101Q721 38 631 5T426 -29Q262 -29 164 53T66 289Q66 437 158 515T493 621Q662 637 716 662T770 751Q770 822 729 857T583 893Q493 893 445 855T389 733H98Q110 907 241 997T597 1087ZM356 301Q356 238 399 202T535 166Q651 166 710 227T770 405V518Q744 497 702 487T548 460Q449 447 403 409T356 301ZM395 1497Q406 1432 462 1396T599 1360Q692 1360 748 1393T823 1497H952Q935 1356 843 1281T588 1206Q441 1206 358 1280T262 1497H395Z"  />
<glyph unicode="&#x104;" horiz-adv-x="1403" d="M870 1462L1417 1H1247Q1170 -82 1134 -134T1098 -243Q1098 -279 1120 -300T1174 -322Q1202 -322 1230 -306T1286 -256L1378 -309Q1334 -379 1273 -411T1124 -444Q1024 -444 963 -398T901 -274Q901 -206 952 -141T1116 0H1083L973 326H426L311 0H-14L541 1462H870ZM700 1102L510 565H889L705 1102H700Z"  />
<glyph unicode="&#x105;" horiz-adv-x="1176" d="M597 1087Q832 1087 946 1010T1061 793V225Q1061 161 1069 97T1098 0H963Q894 -67 859 -124T823 -241Q823 -277 845 -299T901 -322Q928 -322 955 -307T1013 -257L1106 -309Q1059 -380 1000 -412T852 -444Q751 -444 690 -397T629 -272Q629 -203 674 -140T819 0Q800 38 793 59T782 102Q721 38 631 5T426 -29Q262 -29 164 53T66 289Q66 437 158 515T497 620Q662 637 716 662T770 751Q770 822 729 857T583 893Q493 893 445 855T389 734H98Q110 907 241 997T597 1087ZM356 301Q356 238 399 202T535 166Q651 166 710 227T770 405V518Q744 497 702 487T548 461Q449 447 403 409T356 301Z"  />
<glyph unicode="&#x106;" horiz-adv-x="1518" d="M797 1497Q1046 1497 1221 1357T1427 971H1116Q1095 1086 1002 1156T796 1227Q608 1227 504 1090T399 725Q399 508 502 372T797 236Q936 236 1022 321T1128 563H1440Q1412 284 1238 125T797 -35Q586 -35 422 61T168 334T78 725Q78 1062 275 1279T797 1497ZM1186 1886L870 1595H668L864 1886H1186Z"  />
<glyph unicode="&#x107;" horiz-adv-x="1176" d="M618 1087Q823 1087 963 981T1116 686H831Q818 777 764 822T616 868Q499 868 434 772T369 524Q369 372 433 281T610 190Q707 190 767 245T842 406H1122Q1093 196 958 84T612 -29Q376 -29 227 122T78 514Q78 771 224 929T618 1087ZM1014 1497L698 1206H496L692 1497H1014Z"  />
<glyph unicode="&#x108;" horiz-adv-x="1518" d="M797 1497Q1046 1497 1221 1357T1427 971H1116Q1095 1086 1002 1156T796 1227Q608 1227 504 1090T399 725Q399 508 502 372T797 236Q936 236 1022 321T1128 563H1440Q1412 284 1238 125T797 -35Q586 -35 422 61T168 334T78 725Q78 1062 275 1279T797 1497ZM923 1886L1149 1595H913L787 1760H785L655 1595H430L657 1886H923Z"  />
<glyph unicode="&#x109;" horiz-adv-x="1176" d="M618 1087Q823 1087 963 981T1116 686H831Q818 777 764 822T616 868Q499 868 434 772T369 524Q369 372 433 281T610 190Q707 190 767 245T842 406H1122Q1093 196 958 84T612 -29Q376 -29 227 122T78 514Q78 771 224 929T618 1087ZM759 1497L985 1206H749L623 1371H621L491 1206H266L493 1497H759Z"  />
<glyph unicode="&#x10A;" horiz-adv-x="1518" d="M797 1497Q1046 1497 1221 1357T1427 971H1116Q1095 1086 1002 1156T796 1227Q608 1227 504 1090T399 725Q399 508 502 372T797 236Q936 236 1022 321T1128 563H1440Q1412 284 1238 125T797 -35Q586 -35 422 61T168 334T78 725Q78 1062 275 1279T797 1497ZM923 1853V1614H647V1853H923Z"  />
<glyph unicode="&#x10B;" horiz-adv-x="1176" d="M618 1087Q823 1087 963 981T1116 686H831Q818 777 764 822T616 868Q499 868 434 772T369 524Q369 372 433 281T610 190Q707 190 767 245T842 406H1122Q1093 196 958 84T612 -29Q376 -29 227 122T78 514Q78 771 224 929T618 1087ZM761 1464V1225H485V1464H761Z"  />
<glyph unicode="&#x10C;" horiz-adv-x="1518" d="M797 1497Q1046 1497 1221 1357T1427 971H1116Q1095 1086 1002 1156T796 1227Q608 1227 504 1090T399 725Q399 508 502 372T797 236Q936 236 1022 321T1128 563H1440Q1412 284 1238 125T797 -35Q586 -35 422 61T168 334T78 725Q78 1062 275 1279T797 1497ZM661 1886L787 1721H789L919 1886H1145L917 1595H651L426 1886H661Z"  />
<glyph unicode="&#x10D;" horiz-adv-x="1176" d="M618 1087Q823 1087 963 981T1116 686H831Q818 777 764 822T616 868Q499 868 434 772T369 524Q369 372 433 281T610 190Q707 190 767 245T842 406H1122Q1093 196 958 84T612 -29Q376 -29 227 122T78 514Q78 771 224 929T618 1087ZM501 1497L627 1332H629L759 1497H985L757 1206H491L266 1497H501Z"  />
<glyph unicode="&#x10E;" horiz-adv-x="1518" d="M782 1462Q1074 1462 1255 1272T1436 739Q1436 397 1259 199T782 0H141V1462H782ZM757 270Q911 270 1012 380T1114 710Q1114 963 1008 1077T701 1192H463V270H757ZM557 1886L683 1721H685L815 1886H1041L813 1595H547L322 1886H557Z"  />
<glyph unicode="&#x10F;" horiz-adv-x="1251" d="M1143 1462V0H866V135H862Q815 54 733 13T541 -29Q324 -29 195 130T66 539Q66 775 193 931T535 1087Q634 1087 716 1047T848 930H852V1462H1143ZM356 531Q356 383 425 287T612 190Q733 190 797 279T862 532Q862 687 799 777T611 868Q490 868 423 778T356 531ZM1606 1462L1440 1171H1239L1303 1462H1606Z"  />
<glyph unicode="&#x110;" horiz-adv-x="1518" d="M784 1462Q1074 1462 1255 1272T1436 739Q1436 397 1261 199T776 0H141V655H-8V856H141V1462H784ZM791 856V653H463V270H760Q914 270 1014 380T1114 710Q1114 963 1008 1077T701 1192H463V856H791Z"  />
<glyph unicode="&#x111;" horiz-adv-x="1272" d="M1143 1462V1319H1309V1163H1143V0H866V135H862Q815 54 733 13T541 -29Q324 -29 195 130T66 539Q66 775 193 931T535 1087Q634 1087 716 1047T848 930H852V1163H528V1319H852V1462H1143ZM356 531Q356 383 425 287T612 190Q733 190 797 279T862 532Q862 687 799 777T611 868Q490 868 423 778T356 531Z"  />
<glyph unicode="&#x112;" horiz-adv-x="1327" d="M1235 1462V1192H463V879H1171V629H463V270H1251V0H141V1462H1235ZM1041 1810V1657H318V1810H1041Z"  />
<glyph unicode="&#x113;" horiz-adv-x="1176" d="M600 1087Q835 1087 975 926T1116 513L1114 459H350Q356 322 421 256T609 190Q688 190 755 230T840 328H1096Q1037 148 914 60T600 -29Q355 -29 207 126T59 528Q59 765 210 926T600 1087ZM350 643H823Q802 760 748 814T590 868Q484 868 422 808T350 643ZM963 1421V1268H240V1421H963Z"  />
<glyph unicode="&#x114;" horiz-adv-x="1327" d="M1235 1462V1192H463V879H1171V629H463V270H1251V0H141V1462H1235ZM471 1886Q482 1819 540 1784T675 1749Q769 1749 825 1782T899 1886H1028Q1011 1745 920 1670T664 1595Q514 1595 432 1670T338 1886H471Z"  />
<glyph unicode="&#x115;" horiz-adv-x="1176" d="M600 1087Q835 1087 975 926T1116 513L1114 459H350Q356 322 421 256T609 190Q688 190 755 230T840 328H1096Q1037 148 914 60T600 -29Q355 -29 207 126T59 528Q59 765 210 926T600 1087ZM350 643H823Q802 760 748 814T590 868Q484 868 422 808T350 643ZM393 1497Q404 1432 460 1396T597 1360Q690 1360 746 1393T821 1497H950Q933 1356 841 1281T586 1206Q439 1206 356 1280T260 1497H393Z"  />
<glyph unicode="&#x116;" horiz-adv-x="1327" d="M1235 1462V1192H463V879H1171V629H463V270H1251V0H141V1462H1235ZM815 1853V1614H539V1853H815Z"  />
<glyph unicode="&#x117;" horiz-adv-x="1176" d="M600 1087Q835 1087 975 926T1116 513L1114 459H350Q356 322 421 256T609 190Q688 190 755 230T840 328H1096Q1037 148 914 60T600 -29Q355 -29 207 126T59 528Q59 765 210 926T600 1087ZM350 643H823Q802 760 748 814T590 868Q484 868 422 808T350 643ZM737 1464V1225H461V1464H737Z"  />
<glyph unicode="&#x118;" horiz-adv-x="1327" d="M1235 1462V1192H463V879H1171V629H463V270H1251V0H1106Q1027 -82 992 -136T956 -244Q956 -277 978 -299T1032 -322Q1061 -322 1090 -306T1145 -256L1237 -309Q1190 -380 1131 -412T983 -444Q880 -444 820 -398T760 -274Q760 -208 809 -144T975 0H141V1462H1235Z"  />
<glyph unicode="&#x119;" horiz-adv-x="1176" d="M600 1087Q835 1087 975 926T1116 513L1114 459H350Q356 322 421 256T609 190Q688 190 755 230T840 328H1096Q1045 174 945 85T681 -25Q612 -96 583 -143T553 -243Q553 -279 575 -300T629 -322Q659 -322 687 -305T741 -256L834 -309Q787 -382 726 -413T580 -444Q476 -444 416 -396T356 -274Q356 -211 399 -151T535 -25Q310 -2 185 150T59 528Q59 765 210 926T600 1087ZM350 643H823Q802 760 748 814T590 868Q484 868 422 808T350 643Z"  />
<glyph unicode="&#x11A;" horiz-adv-x="1327" d="M1235 1462V1192H463V879H1171V629H463V270H1251V0H141V1462H1235ZM557 1886L683 1721H685L815 1886H1041L813 1595H547L322 1886H557Z"  />
<glyph unicode="&#x11B;" horiz-adv-x="1176" d="M600 1087Q835 1087 975 926T1116 513L1114 459H350Q356 322 421 256T609 190Q688 190 755 230T840 328H1096Q1037 148 914 60T600 -29Q355 -29 207 126T59 528Q59 765 210 926T600 1087ZM350 643H823Q802 760 748 814T590 868Q484 868 422 808T350 643ZM479 1497L605 1332H607L737 1497H963L735 1206H469L244 1497H479Z"  />
<glyph unicode="&#x11C;" horiz-adv-x="1554" d="M796 1497Q1034 1497 1210 1360T1413 981H1106Q1075 1104 994 1165T797 1227Q606 1227 503 1089T399 725Q399 512 501 374T797 236Q951 236 1040 314T1145 551H821V791H1436V0H1231L1198 165Q1119 66 1019 16T796 -35Q587 -35 422 61T168 334T78 725Q78 1063 275 1280T796 1497ZM923 1886L1149 1595H913L787 1760H785L655 1595H430L657 1886H923Z"  />
<glyph unicode="&#x11D;" horiz-adv-x="1251" d="M532 1087Q648 1087 724 1044T848 918H852V1059H1128V59Q1128 -154 993 -277T581 -401Q394 -401 260 -312T113 -61H401Q421 -138 477 -172T618 -207Q730 -207 791 -140T852 48V195H848Q805 117 722 74T530 31Q316 31 197 173T78 563Q78 787 202 937T532 1087ZM369 567Q369 418 430 334T604 250Q719 250 785 334T852 544Q852 699 789 783T603 868Q495 868 432 786T369 567ZM770 1497L996 1206H760L634 1371H632L502 1206H277L504 1497H770Z"  />
<glyph unicode="&#x11E;" horiz-adv-x="1554" d="M796 1497Q1034 1497 1210 1360T1413 981H1106Q1075 1104 994 1165T797 1227Q606 1227 503 1089T399 725Q399 512 501 374T797 236Q951 236 1040 314T1145 551H821V791H1436V0H1231L1198 165Q1119 66 1019 16T796 -35Q587 -35 422 61T168 334T78 725Q78 1063 275 1280T796 1497ZM579 1886Q590 1819 648 1784T783 1749Q877 1749 933 1782T1007 1886H1136Q1119 1745 1028 1670T772 1595Q622 1595 540 1670T446 1886H579Z"  />
<glyph unicode="&#x11F;" horiz-adv-x="1251" d="M532 1087Q648 1087 724 1044T848 918H852V1059H1128V59Q1128 -154 993 -277T581 -401Q394 -401 260 -312T113 -61H401Q421 -138 477 -172T618 -207Q730 -207 791 -140T852 48V195H848Q805 117 722 74T530 31Q316 31 197 173T78 563Q78 787 202 937T532 1087ZM369 567Q369 418 430 334T604 250Q719 250 785 334T852 544Q852 699 789 783T603 868Q495 868 432 786T369 567ZM426 1497Q437 1432 493 1396T630 1360Q723 1360 779 1393T854 1497H983Q966 1356 874 1281T619 1206Q472 1206 389 1280T293 1497H426Z"  />
<glyph unicode="&#x120;" horiz-adv-x="1554" d="M796 1497Q1034 1497 1210 1360T1413 981H1106Q1075 1104 994 1165T797 1227Q606 1227 503 1089T399 725Q399 512 501 374T797 236Q951 236 1040 314T1145 551H821V791H1436V0H1231L1198 165Q1119 66 1019 16T796 -35Q587 -35 422 61T168 334T78 725Q78 1063 275 1280T796 1497ZM923 1853V1614H647V1853H923Z"  />
<glyph unicode="&#x121;" horiz-adv-x="1251" d="M532 1087Q648 1087 724 1044T848 918H852V1059H1128V59Q1128 -154 993 -277T581 -401Q394 -401 260 -312T113 -61H401Q421 -138 477 -172T618 -207Q730 -207 791 -140T852 48V195H848Q805 117 722 74T530 31Q316 31 197 173T78 563Q78 787 202 937T532 1087ZM369 567Q369 418 430 334T604 250Q719 250 785 334T852 544Q852 699 789 783T603 868Q495 868 432 786T369 567ZM770 1464V1225H494V1464H770Z"  />
<glyph unicode="&#x122;" horiz-adv-x="1554" d="M796 1497Q1034 1497 1210 1360T1413 981H1106Q1075 1104 994 1165T797 1227Q606 1227 503 1089T399 725Q399 512 501 374T797 236Q951 236 1040 314T1145 551H821V791H1436V0H1231L1198 165Q1119 66 1019 16T796 -35Q587 -35 422 61T168 334T78 725Q78 1063 275 1280T796 1497ZM926 -102V-258Q926 -349 871 -396T667 -444H649V-369Q701 -363 727 -347T766 -293H629V-102H926Z"  />
<glyph unicode="&#x123;" horiz-adv-x="1251" d="M532 1087Q648 1087 724 1044T848 918H852V1059H1128V59Q1128 -154 993 -277T581 -401Q394 -401 260 -312T113 -61H401Q421 -138 477 -172T618 -207Q730 -207 791 -140T852 48V195H848Q805 117 722 74T530 31Q316 31 197 173T78 563Q78 787 202 937T532 1087ZM369 567Q369 418 430 334T604 250Q719 250 785 334T852 544Q852 699 789 783T603 868Q495 868 432 786T369 567ZM758 1538Q705 1534 678 1515T641 1462H778V1272H481V1427Q481 1521 539 1567T751 1614H758V1538Z"  />
<glyph unicode="&#x124;" horiz-adv-x="1518" d="M463 1462V901H1055V1462H1376V0H1055V631H463V0H141V1462H463ZM893 1886L1119 1595H883L757 1760H755L625 1595H400L627 1886H893Z"  />
<glyph unicode="&#x125;" horiz-adv-x="1214" d="M401 1462V911H408Q454 990 538 1038T719 1087Q921 1087 1012 984T1104 662V0H813V607Q813 731 771 794T627 858Q506 858 454 786T401 565V0H111V1462H401ZM718 1886L944 1595H708L582 1760H580L450 1595H225L452 1886H718Z"  />
<glyph unicode="&#x126;" horiz-adv-x="1518" d="M463 1462V1239H1055V1462H1376V0H1055V575H463V0H141V1462H463ZM1055 825V1057H463V825H1055Z"  />
<glyph unicode="&#x127;" horiz-adv-x="1235" d="M422 1462V1319H745V1163H422V911H428Q475 990 558 1038T739 1087Q939 1087 1031 986T1124 662V0H834V607Q834 731 792 794T647 858Q527 858 475 786T422 565V0H131V1163H-35V1319H131V1462H422Z"  />
<glyph unicode="&#x128;" horiz-adv-x="604" d="M463 1462V0H141V1462H463ZM166 1866Q229 1866 322 1830Q414 1794 459 1794Q494 1794 515 1810T547 1866H678Q654 1745 597 1689T449 1632Q378 1632 287 1667Q196 1702 148 1702Q115 1702 92 1682T55 1616H-74Q-57 1731 10 1798T166 1866Z"  />
<glyph unicode="&#x129;" horiz-adv-x="528" d="M410 1059V0H119V1059H410ZM129 1477Q193 1477 283 1441Q373 1405 422 1405Q458 1405 479 1422T510 1477H641Q618 1357 561 1300T412 1243Q340 1243 249 1278Q158 1313 111 1313Q78 1313 55 1293T18 1227H-111Q-92 1346 -25 1411T129 1477Z"  />
<glyph unicode="&#x12A;" horiz-adv-x="604" d="M463 1462V0H141V1462H463ZM662 1810V1657H-61V1810H662Z"  />
<glyph unicode="&#x12B;" horiz-adv-x="528" d="M410 1059V0H119V1059H410ZM627 1421V1268H-96V1421H627Z"  />
<glyph unicode="&#x12C;" horiz-adv-x="604" d="M463 1462V0H141V1462H463ZM92 1886Q103 1819 161 1784T296 1749Q390 1749 446 1782T520 1886H649Q632 1745 541 1670T285 1595Q135 1595 53 1670T-41 1886H92Z"  />
<glyph unicode="&#x12D;" horiz-adv-x="528" d="M410 1059V0H119V1059H410ZM57 1497Q68 1432 124 1396T261 1360Q354 1360 410 1393T485 1497H614Q597 1356 505 1281T250 1206Q103 1206 20 1280T-76 1497H57Z"  />
<glyph unicode="&#x12E;" horiz-adv-x="604" d="M463 1462V0Q386 -64 337 -123T287 -247Q287 -284 306 -303T352 -322Q377 -322 400 -308T446 -264L530 -317Q486 -380 435 -412T307 -444Q211 -444 155 -398T98 -274Q98 -202 152 -136T324 0H141V1462H463Z"  />
<glyph unicode="&#x12F;" horiz-adv-x="528" d="M410 1462V1223H119V1462H410ZM410 1059V0Q348 -55 300 -118T252 -248Q252 -284 271 -303T317 -322Q342 -322 365 -309T412 -264L496 -317Q454 -378 402 -411T272 -444Q177 -444 120 -398T63 -274Q63 -201 118 -135T283 0H119V1059H410Z"  />
<glyph unicode="&#x130;" horiz-adv-x="604" d="M463 1462V0H141V1462H463ZM440 1853V1614H164V1853H440Z"  />
<glyph unicode="&#x131;" horiz-adv-x="528" d="M410 1059V0H119V1059H410Z"  />
<glyph unicode="&#x132;" horiz-adv-x="1731" d="M463 1462V0H141V1462H463ZM1589 1462V451Q1589 216 1467 91T1103 -35Q890 -35 756 85T621 410V545H911V490Q911 344 958 290T1098 236Q1182 236 1225 281T1268 463V1462H1589Z"  />
<glyph unicode="&#x133;" horiz-adv-x="1073" d="M410 1462V1223H119V1462H410ZM410 1059V0H119V1059H410ZM932 1462V1223H641V1462H932ZM932 1059V-62Q932 -228 849 -300T561 -373Q536 -373 513 -371T465 -365V-125Q478 -130 494 -131T528 -133Q592 -133 616 -109T641 -43V1059H932Z"  />
<glyph unicode="&#x134;" horiz-adv-x="1139" d="M997 1462V451Q997 216 875 91T511 -35Q298 -35 164 85T29 410V545H319V490Q319 344 366 290T506 236Q590 236 633 281T676 463V1462H997ZM960 1886L1186 1595H950L824 1760H822L692 1595H467L694 1886H960Z"  />
<glyph unicode="&#x135;" horiz-adv-x="569" d="M428 1059V-62Q428 -228 348 -300T57 -373Q32 -373 9 -371T-39 -365V-125Q-26 -130 -10 -131T24 -133Q88 -133 112 -109T137 -43V1059H428ZM411 1497L637 1206H401L275 1371H273L143 1206H-82L145 1497H411Z"  />
<glyph unicode="&#x136;" horiz-adv-x="1479" d="M463 1462V856L1034 1462H1436L864 885L1491 0H1087L647 657L463 471V0H141V1462H463ZM908 -102V-258Q908 -349 853 -396T649 -444H631V-369Q683 -363 709 -347T748 -293H611V-102H908Z"  />
<glyph unicode="&#x137;" horiz-adv-x="1176" d="M428 1462V678L795 1059H1139L739 670L1184 0H831L541 473L428 365V0H137V1462H428ZM779 -102V-258Q779 -349 724 -396T520 -444H502V-369Q554 -363 580 -347T619 -293H482V-102H779Z"  />
<glyph unicode="&#x138;" horiz-adv-x="1157" d="M401 1059V641L768 1059H1112L715 645L1159 0H807L520 442L401 328V0H111V1059H401Z"  />
<glyph unicode="&#x139;" horiz-adv-x="1214" d="M463 1462V270H1176V0H141V1462H463ZM713 1886L397 1595H195L391 1886H713Z"  />
<glyph unicode="&#x13A;" horiz-adv-x="528" d="M410 1462V0H119V1462H410ZM641 1886L325 1595H123L319 1886H641Z"  />
<glyph unicode="&#x13B;" horiz-adv-x="1214" d="M463 1462V270H1176V0H141V1462H463ZM801 -102V-258Q801 -349 746 -396T542 -444H524V-369Q576 -363 602 -347T641 -293H504V-102H801Z"  />
<glyph unicode="&#x13C;" horiz-adv-x="528" d="M410 1462V0H119V1462H410ZM414 -102V-258Q414 -349 359 -396T155 -444H137V-369Q189 -363 215 -347T254 -293H117V-102H414Z"  />
<glyph unicode="&#x13D;" horiz-adv-x="1214" d="M463 1462V270H1176V0H141V1462H463ZM989 1462L823 1171H622L686 1462H989Z"  />
<glyph unicode="&#x13E;" horiz-adv-x="528" d="M410 1462V0H119V1462H410ZM873 1462L707 1171H506L570 1462H873Z"  />
<glyph unicode="&#x13F;" horiz-adv-x="1214" d="M463 1462V270H1176V0H141V1462H463ZM972 923V684H696V923H972Z"  />
<glyph unicode="&#x140;" horiz-adv-x="840" d="M410 1462V0H119V1462H410ZM811 923V684H535V923H811Z"  />
<glyph unicode="&#x141;" horiz-adv-x="1214" d="M463 1462V893L895 1196V967L463 664V270H1176V0H141V438L-23 324V553L141 668V1462H463Z"  />
<glyph unicode="&#x142;" horiz-adv-x="528" d="M410 1462V1024L547 1133V924L410 815V0H119V586L-18 477V686L119 795V1462H410Z"  />
<glyph unicode="&#x143;" horiz-adv-x="1518" d="M461 1462L1071 481H1075V1462H1376V0H1055L446 979H442V0H141V1462H461ZM1147 1886L831 1595H629L825 1886H1147Z"  />
<glyph unicode="&#x144;" horiz-adv-x="1214" d="M718 1087Q921 1087 1012 985T1104 662V0H813V607Q813 731 771 794T627 858Q506 858 454 786T401 565V0H111V1059H387V911H393Q446 996 531 1041T718 1087ZM996 1497L680 1206H478L674 1497H996Z"  />
<glyph unicode="&#x145;" horiz-adv-x="1518" d="M461 1462L1071 481H1075V1462H1376V0H1055L446 979H442V0H141V1462H461ZM912 -102V-258Q912 -349 857 -396T653 -444H635V-369Q687 -363 713 -347T752 -293H615V-102H912Z"  />
<glyph unicode="&#x146;" horiz-adv-x="1214" d="M718 1087Q921 1087 1012 985T1104 662V0H813V607Q813 731 771 794T627 858Q506 858 454 786T401 565V0H111V1059H387V911H393Q446 996 531 1041T718 1087ZM750 -102V-258Q750 -349 695 -396T491 -444H473V-369Q525 -363 551 -347T590 -293H453V-102H750Z"  />
<glyph unicode="&#x147;" horiz-adv-x="1518" d="M461 1462L1071 481H1075V1462H1376V0H1055L446 979H442V0H141V1462H461ZM626 1886L752 1721H754L884 1886H1110L882 1595H616L391 1886H626Z"  />
<glyph unicode="&#x148;" horiz-adv-x="1214" d="M718 1087Q921 1087 1012 985T1104 662V0H813V607Q813 731 771 794T627 858Q506 858 454 786T401 565V0H111V1059H387V911H393Q446 996 531 1041T718 1087ZM483 1497L609 1332H611L741 1497H967L739 1206H473L248 1497H483Z"  />
<glyph unicode="&#x149;" horiz-adv-x="1509" d="M1013 1087Q1216 1087 1307 985T1399 662V0H1108V607Q1108 731 1066 794T922 858Q801 858 749 786T696 565V0H406V1059H682V911H688Q741 996 826 1041T1013 1087ZM334 1462V1140Q334 1009 252 916T43 805V940Q117 965 147 1014T178 1142V1147H43V1462H334Z"  />
<glyph unicode="&#x14A;" horiz-adv-x="1518" d="M461 1462L1071 498H1075V1462H1376V-11Q1376 -197 1281 -285T970 -373Q933 -373 894 -370T813 -360V-113Q837 -117 874 -121T932 -125Q1001 -125 1040 -91T1079 0L446 979H442V0H141V1462H461Z"  />
<glyph unicode="&#x14B;" horiz-adv-x="1214" d="M718 1087Q921 1087 1012 984T1104 660V-28Q1104 -210 1012 -291T712 -373Q685 -373 655 -371T592 -365V-125Q619 -130 642 -131T683 -133Q748 -133 780 -98T813 -9V607Q813 731 771 794T627 858Q506 858 454 786T401 565V0H111V1059H387V911H393Q446 996 531 1041T718 1087Z"  />
<glyph unicode="&#x14C;" horiz-adv-x="1593" d="M797 1497Q1123 1497 1319 1279T1516 725Q1516 398 1319 182T797 -35Q586 -35 422 62T168 334T78 725Q78 1063 275 1280T797 1497ZM399 725Q399 509 502 373T797 236Q986 236 1090 370T1194 725Q1194 956 1089 1091T795 1227Q608 1227 504 1090T399 725ZM1159 1810V1657H436V1810H1159Z"  />
<glyph unicode="&#x14D;" horiz-adv-x="1251" d="M625 1087Q874 1087 1024 934T1174 528Q1174 275 1023 123T625 -29Q379 -29 229 124T78 528Q78 779 226 933T625 1087ZM369 528Q369 361 437 276T625 190Q749 190 816 278T883 528Q883 686 818 777T623 868Q506 868 438 784T369 528ZM989 1421V1268H266V1421H989Z"  />
<glyph unicode="&#x14E;" horiz-adv-x="1593" d="M797 1497Q1123 1497 1319 1279T1516 725Q1516 398 1319 182T797 -35Q586 -35 422 62T168 334T78 725Q78 1063 275 1280T797 1497ZM399 725Q399 509 502 373T797 236Q986 236 1090 370T1194 725Q1194 956 1089 1091T795 1227Q608 1227 504 1090T399 725ZM590 1886Q601 1819 659 1784T794 1749Q888 1749 944 1782T1018 1886H1147Q1130 1745 1039 1670T783 1595Q633 1595 551 1670T457 1886H590Z"  />
<glyph unicode="&#x14F;" horiz-adv-x="1251" d="M625 1087Q874 1087 1024 934T1174 528Q1174 275 1023 123T625 -29Q379 -29 229 124T78 528Q78 779 226 933T625 1087ZM369 528Q369 361 437 276T625 190Q749 190 816 278T883 528Q883 686 818 777T623 868Q506 868 438 784T369 528ZM420 1497Q431 1432 487 1396T624 1360Q717 1360 773 1393T848 1497H977Q960 1356 868 1281T613 1206Q466 1206 383 1280T287 1497H420Z"  />
<glyph unicode="&#x150;" horiz-adv-x="1593" d="M797 1497Q1123 1497 1319 1279T1516 725Q1516 398 1319 182T797 -35Q586 -35 422 62T168 334T78 725Q78 1063 275 1280T797 1497ZM399 725Q399 509 502 373T797 236Q986 236 1090 370T1194 725Q1194 956 1089 1091T795 1227Q608 1227 504 1090T399 725ZM966 1886L661 1595H458L645 1886H966ZM1390 1886L1085 1595H882L1069 1886H1390Z"  />
<glyph unicode="&#x151;" horiz-adv-x="1251" d="M625 1087Q874 1087 1024 934T1174 528Q1174 275 1023 123T625 -29Q379 -29 229 124T78 528Q78 779 226 933T625 1087ZM369 528Q369 361 437 276T625 190Q749 190 816 278T883 528Q883 686 818 777T623 868Q506 868 438 784T369 528ZM796 1497L491 1206H288L475 1497H796ZM1220 1497L915 1206H712L899 1497H1220Z"  />
<glyph unicode="&#x152;" horiz-adv-x="2238" d="M764 1497Q875 1497 965 1462T1110 1358H1114V1462H2138V1192H1413V879H2077V629H1413V270H2152V0H1114V111H1110Q1046 40 952 3T757 -35Q453 -35 266 182T78 723Q78 1048 269 1272T764 1497ZM399 727Q399 515 499 376T780 236Q932 236 1017 330T1102 562V924Q1102 1048 1016 1137T784 1227Q604 1227 502 1090T399 727Z"  />
<glyph unicode="&#x153;" horiz-adv-x="1896" d="M598 1087Q724 1087 817 1044T963 920Q1014 996 1114 1041T1318 1087Q1563 1087 1699 924T1837 459H1081Q1081 332 1149 261T1333 190Q1411 190 1464 226T1546 336H1829Q1778 163 1646 67T1333 -29Q1209 -29 1109 16T950 152Q896 62 795 17T575 -29Q349 -29 214 129T78 535Q78 773 222 930T598 1087ZM369 524Q369 375 428 283T594 190Q708 190 767 277T827 532Q827 698 770 783T599 868Q489 868 429 777T369 524ZM1546 643Q1542 749 1483 808T1310 868Q1213 868 1152 811T1081 643H1546Z"  />
<glyph unicode="&#x154;" horiz-adv-x="1479" d="M938 1462Q1115 1462 1236 1348T1358 1058Q1358 920 1301 830T1126 692V688Q1229 661 1284 565T1344 271Q1348 73 1401 0H1079Q1051 71 1041 230Q1026 446 969 508T792 571H463V0H141V1462H938ZM822 801Q923 801 979 850T1036 1010Q1036 1114 982 1163T822 1212H463V801H822ZM1090 1886L774 1595H572L768 1886H1090Z"  />
<glyph unicode="&#x155;" horiz-adv-x="797" d="M728 1087Q747 1087 763 1085T793 1077V807Q768 812 745 814T689 817Q542 817 472 727T401 486V0H111V1059H387V862H391Q437 966 528 1026T728 1087ZM840 1497L524 1206H322L518 1497H840Z"  />
<glyph unicode="&#x156;" horiz-adv-x="1479" d="M938 1462Q1115 1462 1236 1348T1358 1058Q1358 920 1301 830T1126 692V688Q1229 661 1284 565T1344 271Q1348 73 1401 0H1079Q1051 71 1041 230Q1026 446 969 508T792 571H463V0H141V1462H938ZM822 801Q923 801 979 850T1036 1010Q1036 1114 982 1163T822 1212H463V801H822ZM902 -102V-258Q902 -349 847 -396T643 -444H625V-369Q677 -363 703 -347T742 -293H605V-102H902Z"  />
<glyph unicode="&#x157;" horiz-adv-x="797" d="M728 1087Q747 1087 763 1085T793 1077V807Q768 812 745 814T689 817Q542 817 472 727T401 486V0H111V1059H387V862H391Q437 966 528 1026T728 1087ZM408 -102V-258Q408 -349 353 -396T149 -444H131V-369Q183 -363 209 -347T248 -293H111V-102H408Z"  />
<glyph unicode="&#x158;" horiz-adv-x="1479" d="M938 1462Q1115 1462 1236 1348T1358 1058Q1358 920 1301 830T1126 692V688Q1229 661 1284 565T1344 271Q1348 73 1401 0H1079Q1051 71 1041 230Q1026 446 969 508T792 571H463V0H141V1462H938ZM822 801Q923 801 979 850T1036 1010Q1036 1114 982 1163T822 1212H463V801H822ZM569 1886L695 1721H697L827 1886H1053L825 1595H559L334 1886H569Z"  />
<glyph unicode="&#x159;" horiz-adv-x="797" d="M728 1087Q747 1087 763 1085T793 1077V807Q768 812 745 814T689 817Q542 817 472 727T401 486V0H111V1059H387V862H391Q437 966 528 1026T728 1087ZM327 1497L453 1332H455L585 1497H811L583 1206H317L92 1497H327Z"  />
<glyph unicode="&#x15A;" horiz-adv-x="1329" d="M645 1497Q910 1497 1070 1374T1230 1026H919Q912 1136 844 1191T632 1247Q534 1247 472 1204T409 1081Q409 1026 435 999T541 943T893 849Q1075 805 1177 700T1279 434Q1279 222 1120 94T672 -35Q396 -35 222 101T48 477V485H359Q361 349 450 282T683 215Q813 215 890 262T968 397Q968 468 909 513T718 592Q550 630 413 672T187 810T97 1055Q97 1252 254 1374T645 1497ZM1069 1886L753 1595H551L747 1886H1069Z"  />
<glyph unicode="&#x15B;" horiz-adv-x="1100" d="M545 1087Q761 1087 878 1002T1012 750H735Q729 825 679 859T536 893Q452 893 414 868T375 795Q375 746 425 715T629 654Q873 607 956 533T1040 339Q1040 159 909 65T557 -29Q337 -29 203 64T59 344H336Q336 260 399 213T559 166Q644 166 697 202T750 301Q750 356 681 391T428 464Q246 500 165 567T84 748Q84 916 203 1001T545 1087ZM944 1497L628 1206H426L622 1497H944Z"  />
<glyph unicode="&#x15C;" horiz-adv-x="1329" d="M645 1497Q910 1497 1070 1374T1230 1026H919Q912 1136 844 1191T632 1247Q534 1247 472 1204T409 1081Q409 1026 435 999T541 943T893 849Q1075 805 1177 700T1279 434Q1279 222 1120 94T672 -35Q396 -35 222 101T48 477V485H359Q361 349 450 282T683 215Q813 215 890 262T968 397Q968 468 909 513T718 592Q550 630 413 672T187 810T97 1055Q97 1252 254 1374T645 1497ZM807 1886L1033 1595H797L671 1760H669L539 1595H314L541 1886H807Z"  />
<glyph unicode="&#x15D;" horiz-adv-x="1100" d="M545 1087Q761 1087 878 1002T1012 750H735Q729 825 679 859T536 893Q452 893 414 868T375 795Q375 746 425 715T629 654Q873 607 956 533T1040 339Q1040 159 909 65T557 -29Q337 -29 203 64T59 344H336Q336 260 399 213T559 166Q644 166 697 202T750 301Q750 356 681 391T428 464Q246 500 165 567T84 748Q84 916 203 1001T545 1087ZM690 1497L916 1206H680L554 1371H552L422 1206H197L424 1497H690Z"  />
<glyph unicode="&#x15E;" horiz-adv-x="1329" d="M645 1497Q911 1497 1070 1374T1230 1026H919Q912 1136 844 1191T632 1247Q534 1247 472 1204T409 1081Q409 1026 435 999T541 943T893 849Q1075 805 1177 700T1279 434Q1279 227 1124 99T681 -35L628 -106L632 -111Q651 -103 675 -100T715 -96Q792 -96 841 -137T890 -254Q890 -344 823 -394T632 -444Q566 -444 512 -434T396 -399L439 -301Q475 -316 518 -327T601 -338Q644 -338 668 -320T693 -268Q693 -238 670 -220T607 -201Q588 -201 570 -204T529 -217L486 -169L584 -31Q332 -4 190 128T48 479V485H359Q361 349 450 282T683 215Q813 215 890 262T968 397Q968 468 909 513T718 592Q562 630 419 672T187 810T97 1055Q97 1252 254 1374T645 1497Z"  />
<glyph unicode="&#x15F;" horiz-adv-x="1100" d="M545 1087Q761 1087 878 1002T1012 750H735Q729 825 679 859T536 893Q452 893 414 868T375 795Q375 746 425 715T629 654Q873 606 956 533T1040 340Q1040 168 918 72T571 -29L514 -106L518 -111Q538 -102 562 -99T601 -96Q679 -96 727 -137T776 -254Q776 -343 709 -393T519 -444Q461 -444 406 -435T283 -399L326 -301Q363 -317 406 -327T487 -338Q532 -338 556 -319T580 -268Q580 -237 556 -219T494 -201Q475 -201 457 -204T416 -217L373 -168L474 -25Q274 -4 170 89T59 344H336Q336 260 399 213T559 166Q644 166 697 202T750 301Q750 356 681 391T428 464Q246 500 165 567T84 748Q84 916 203 1001T545 1087Z"  />
<glyph unicode="&#x160;" horiz-adv-x="1329" d="M645 1497Q910 1497 1070 1374T1230 1026H919Q912 1136 844 1191T632 1247Q534 1247 472 1204T409 1081Q409 1026 435 999T541 943T893 849Q1075 805 1177 700T1279 434Q1279 222 1120 94T672 -35Q396 -35 222 101T48 477V485H359Q361 349 450 282T683 215Q813 215 890 262T968 397Q968 468 909 513T718 592Q550 630 413 672T187 810T97 1055Q97 1252 254 1374T645 1497ZM549 1886L675 1721H677L807 1886H1033L805 1595H539L314 1886H549Z"  />
<glyph unicode="&#x161;" horiz-adv-x="1100" d="M545 1087Q761 1087 878 1002T1012 750H735Q729 825 679 859T536 893Q452 893 414 868T375 795Q375 746 425 715T629 654Q873 607 956 533T1040 339Q1040 159 909 65T557 -29Q337 -29 203 64T59 344H336Q336 260 399 213T559 166Q644 166 697 202T750 301Q750 356 681 391T428 464Q246 500 165 567T84 748Q84 916 203 1001T545 1087ZM432 1497L558 1332H560L690 1497H916L688 1206H422L197 1497H432Z"  />
<glyph unicode="&#x162;" horiz-adv-x="1251" d="M1225 1462V1192H786V0H465V1192H27V1462H1225ZM775 -102V-258Q775 -349 720 -396T516 -444H498V-369Q550 -363 576 -347T615 -293H478V-102H775Z"  />
<glyph unicode="&#x163;" horiz-adv-x="721" d="M479 1376V1059H692V864H479V333Q479 268 503 243T602 217Q627 217 650 219T692 225V-2Q656 -8 612 -10T524 -12Q335 -12 262 52T188 233V864H12V1059H188V1376H479ZM586 -102V-258Q586 -349 531 -396T327 -444H309V-369Q361 -363 387 -347T426 -293H289V-102H586Z"  />
<glyph unicode="&#x164;" horiz-adv-x="1251" d="M1225 1462V1192H786V0H465V1192H27V1462H1225ZM501 1886L627 1721H629L759 1886H985L757 1595H491L266 1886H501Z"  />
<glyph unicode="&#x165;" horiz-adv-x="721" d="M479 1376V1059H692V864H479V333Q479 268 503 243T602 217Q627 217 650 219T692 225V-2Q656 -8 612 -10T524 -12Q335 -12 262 52T188 233V864H12V1059H188V1376H479ZM955 1462L789 1171H588L652 1462H955Z"  />
<glyph unicode="&#x166;" horiz-adv-x="1251" d="M1225 1462V1192H786V946H1087V750H786V0H465V750H164V946H465V1192H27V1462H1225Z"  />
<glyph unicode="&#x167;" horiz-adv-x="721" d="M479 1376V1059H692V864H479V698H668V543H479V333Q479 268 503 243T602 217Q627 217 650 219T692 225V-2Q656 -8 612 -10T524 -12Q335 -12 262 52T188 233V543H29V698H188V864H12V1059H188V1376H479Z"  />
<glyph unicode="&#x168;" horiz-adv-x="1518" d="M457 1462V544Q457 386 529 311T758 236Q926 236 993 309T1061 543V1462H1382V543Q1382 271 1224 118T758 -35Q449 -35 292 115T135 543V1462H457ZM623 1866Q686 1866 779 1830Q871 1794 916 1794Q951 1794 972 1810T1004 1866H1135Q1111 1745 1054 1689T906 1632Q835 1632 744 1667Q653 1702 605 1702Q572 1702 549 1682T512 1616H383Q400 1731 467 1798T623 1866Z"  />
<glyph unicode="&#x169;" horiz-adv-x="1214" d="M401 1059V452Q401 332 443 267T588 201Q708 201 760 273T813 494V1059H1104V0H827V147H821Q766 59 679 15T496 -29Q299 -29 205 71T111 396V1059H401ZM475 1477Q539 1477 629 1441Q719 1405 768 1405Q804 1405 825 1422T856 1477H987Q964 1357 907 1300T758 1243Q686 1243 595 1278Q504 1313 457 1313Q424 1313 401 1293T364 1227H235Q254 1346 321 1411T475 1477Z"  />
<glyph unicode="&#x16A;" horiz-adv-x="1518" d="M457 1462V544Q457 386 529 311T758 236Q926 236 993 309T1061 543V1462H1382V543Q1382 271 1224 118T758 -35Q449 -35 292 115T135 543V1462H457ZM1121 1810V1657H398V1810H1121Z"  />
<glyph unicode="&#x16B;" horiz-adv-x="1214" d="M401 1059V452Q401 332 443 267T588 201Q708 201 760 273T813 494V1059H1104V0H827V147H821Q766 59 679 15T496 -29Q299 -29 205 71T111 396V1059H401ZM975 1421V1268H252V1421H975Z"  />
<glyph unicode="&#x16C;" horiz-adv-x="1518" d="M457 1462V544Q457 386 529 311T758 236Q926 236 993 309T1061 543V1462H1382V543Q1382 271 1224 118T758 -35Q449 -35 292 115T135 543V1462H457ZM551 1886Q562 1819 620 1784T755 1749Q849 1749 905 1782T979 1886H1108Q1091 1745 1000 1670T744 1595Q594 1595 512 1670T418 1886H551Z"  />
<glyph unicode="&#x16D;" horiz-adv-x="1214" d="M401 1059V452Q401 332 443 267T588 201Q708 201 760 273T813 494V1059H1104V0H827V147H821Q766 59 679 15T496 -29Q299 -29 205 71T111 396V1059H401ZM403 1497Q414 1432 470 1396T607 1360Q700 1360 756 1393T831 1497H960Q943 1356 851 1281T596 1206Q449 1206 366 1280T270 1497H403Z"  />
<glyph unicode="&#x16E;" horiz-adv-x="1518" d="M457 1462V544Q457 386 529 311T758 236Q926 236 993 309T1061 543V1462H1382V543Q1382 271 1224 118T758 -35Q449 -35 292 115T135 543V1462H457ZM758 1993Q860 1993 929 1925T998 1759Q998 1663 929 1595T758 1526Q658 1526 589 1592T519 1759Q519 1857 589 1925T758 1993ZM633 1759Q633 1702 669 1666T758 1630Q816 1630 849 1666T883 1759Q883 1816 848 1852T757 1888Q704 1888 669 1853T633 1759Z"  />
<glyph unicode="&#x16F;" horiz-adv-x="1214" d="M401 1059V452Q401 332 443 267T588 201Q708 201 760 273T813 494V1059H1104V0H827V147H821Q766 59 679 15T496 -29Q299 -29 205 71T111 396V1059H401ZM612 1647Q721 1647 791 1577T862 1401Q862 1294 788 1225T610 1155Q501 1155 431 1226T360 1401Q360 1504 432 1575T612 1647ZM481 1401Q481 1342 515 1303T610 1264Q669 1264 705 1301T741 1401Q741 1460 707 1499T611 1538Q552 1538 517 1499T481 1401Z"  />
<glyph unicode="&#x170;" horiz-adv-x="1518" d="M457 1462V544Q457 386 529 311T758 236Q926 236 993 309T1061 543V1462H1382V543Q1382 271 1224 118T758 -35Q449 -35 292 115T135 543V1462H457ZM928 1886L623 1595H420L607 1886H928ZM1352 1886L1047 1595H844L1031 1886H1352Z"  />
<glyph unicode="&#x171;" horiz-adv-x="1214" d="M401 1059V452Q401 332 443 267T588 201Q708 201 760 273T813 494V1059H1104V0H827V147H821Q766 59 679 15T496 -29Q299 -29 205 71T111 396V1059H401ZM780 1497L475 1206H272L459 1497H780ZM1204 1497L899 1206H696L883 1497H1204Z"  />
<glyph unicode="&#x172;" horiz-adv-x="1518" d="M457 1462V544Q457 386 529 311T758 236Q926 236 993 309T1061 543V1462H1382V529Q1382 290 1247 140T836 -33Q790 -80 754 -133T717 -243Q717 -279 739 -300T793 -322Q821 -322 849 -306T905 -256L997 -309Q953 -379 892 -411T743 -444Q642 -444 581 -398T520 -274Q520 -214 559 -156T688 -33Q408 -14 272 134T135 540V1462H457Z"  />
<glyph unicode="&#x173;" horiz-adv-x="1214" d="M401 1059V452Q401 332 443 267T588 201Q708 201 760 273T813 494V1059H1104V0H971Q918 -52 877 -112T836 -241Q836 -279 858 -300T913 -322Q942 -322 971 -306T1026 -256L1118 -309Q1074 -379 1013 -411T864 -444Q763 -444 702 -397T641 -272Q641 -203 685 -141T827 0V147H821Q766 59 679 15T496 -29Q299 -29 205 71T111 396V1059H401Z"  />
<glyph unicode="&#x174;" horiz-adv-x="1933" d="M328 1462L559 467H563L817 1462H1118L1368 455H1372L1612 1462H1927L1534 0H1214L967 995H963L719 0H393L6 1462H328ZM1106 1886L1332 1595H1096L970 1760H968L838 1595H613L840 1886H1106Z"  />
<glyph unicode="&#x175;" horiz-adv-x="1667" d="M319 1059L514 340H518L694 1059H977L1157 342H1161L1356 1059H1655L1320 0H1022L834 711H829L649 0H348L12 1059H319ZM972 1497L1198 1206H962L836 1371H834L704 1206H479L706 1497H972Z"  />
<glyph unicode="&#x176;" horiz-adv-x="1366" d="M344 1462L686 885L1026 1462H1384L842 561V0H520V569L-18 1462H344ZM825 1886L1051 1595H815L689 1760H687L557 1595H332L559 1886H825Z"  />
<glyph unicode="&#x177;" horiz-adv-x="1063" d="M299 1059L539 334H543L774 1059H1075L625 -153Q585 -259 502 -316T287 -373Q224 -373 181 -370T91 -362V-123Q144 -129 178 -131T243 -133Q305 -133 339 -95T373 0Q373 15 371 29T360 66L-13 1059H299ZM680 1497L906 1206H670L544 1371H542L412 1206H187L414 1497H680Z"  />
<glyph unicode="&#x178;" horiz-adv-x="1366" d="M344 1462L686 885L1026 1462H1384L842 561V0H520V569L-18 1462H344ZM617 1853V1614H340V1853H617ZM1038 1853V1614H762V1853H1038Z"  />
<glyph unicode="&#x179;" horiz-adv-x="1327" d="M1260 1462V1208L475 270H1280V0H47V254L831 1192H109V1462H1260ZM1080 1886L764 1595H562L758 1886H1080Z"  />
<glyph unicode="&#x17A;" horiz-adv-x="1063" d="M979 1059V840L428 219H1018V0H45V219L596 840H86V1059H979ZM924 1497L608 1206H406L602 1497H924Z"  />
<glyph unicode="&#x17B;" horiz-adv-x="1327" d="M1260 1462V1208L475 270H1280V0H47V254L831 1192H109V1462H1260ZM817 1853V1614H541V1853H817Z"  />
<glyph unicode="&#x17C;" horiz-adv-x="1063" d="M979 1059V840L428 219H1018V0H45V219L596 840H86V1059H979ZM669 1464V1225H393V1464H669Z"  />
<glyph unicode="&#x17D;" horiz-adv-x="1327" d="M1260 1462V1208L475 270H1280V0H47V254L831 1192H109V1462H1260ZM559 1886L685 1721H687L817 1886H1043L815 1595H549L324 1886H559Z"  />
<glyph unicode="&#x17E;" horiz-adv-x="1063" d="M979 1059V840L428 219H1018V0H45V219L596 840H86V1059H979ZM411 1497L537 1332H539L669 1497H895L667 1206H401L176 1497H411Z"  />
<glyph unicode="&#x192;" horiz-adv-x="1139" d="M892 1497Q935 1497 973 1494T1047 1483L1010 1264Q992 1272 977 1275T935 1278Q856 1278 821 1251T771 1146L721 885H921L889 697L887 690H683L571 72Q537 -115 491 -193T365 -310T121 -348Q84 -348 54 -347T-10 -342L28 -123Q54 -127 72 -128T122 -129Q175 -129 207 -103T257 10L386 690H199L236 885H422L470 1140Q509 1345 603 1421T892 1497Z"  />
<glyph unicode="&#x1FA;" horiz-adv-x="1403" d="M1038 1993L782 1757H580L737 1993H1038ZM705 1714Q797 1714 856 1658T915 1513Q915 1481 907 1454T883 1403L1417 0H1083L973 326H426L311 0H-14L527 1399Q509 1422 501 1450T492 1513Q492 1602 552 1658T705 1714ZM600 1513Q600 1466 629 1436T705 1405Q750 1405 778 1436T807 1513Q807 1559 778 1590T704 1622Q659 1622 630 1592T600 1513ZM700 1122L510 565H889L705 1122H700Z"  />
<glyph unicode="&#x1FB;" horiz-adv-x="1176" d="M948 1886L686 1642H485L647 1886H948ZM604 1585Q702 1585 763 1524T825 1370Q825 1275 760 1215T604 1155Q509 1155 446 1215T383 1370Q383 1461 446 1523T604 1585ZM489 1370Q489 1318 521 1285T604 1251Q655 1251 687 1284T719 1370Q719 1424 687 1456T603 1489Q552 1489 521 1454T489 1370ZM597 1087Q832 1087 946 1010T1061 793V225Q1061 161 1069 97T1098 0H803Q795 24 790 49T782 101Q721 38 631 5T426 -29Q262 -29 164 53T66 289Q66 437 158 515T497 620Q662 637 716 662T770 751Q770 822 729 857T583 893Q493 893 445 855T389 734H98Q110 907 241 997T597 1087ZM356 301Q356 238 399 202T535 166Q651 166 710 227T770 405V518Q744 497 702 487T548 461Q449 447 403 409T356 301Z"  />
<glyph unicode="&#x1FC;" horiz-adv-x="2009" d="M1917 1462V1192H1237V879H1876V629H1237V270H1933V0H926V326H467L319 0H-23L676 1462H1917ZM856 1192L573 565H926V1192H856ZM1592 1886L1276 1595H1074L1270 1886H1592Z"  />
<glyph unicode="&#x1FD;" horiz-adv-x="1858" d="M605 1087Q724 1087 816 1051T956 944Q1020 1018 1102 1052T1310 1087Q1540 1087 1668 922T1798 459H1042V448Q1042 333 1114 250T1295 166Q1387 166 1438 206T1505 332H1788Q1741 165 1609 68T1300 -29Q1176 -29 1073 16T905 152Q838 64 722 18T473 -29Q293 -29 186 52T78 287Q78 393 122 458T245 561T495 620Q665 641 726 666T788 758Q788 825 742 859T600 893Q502 893 452 852T397 729H106Q114 904 246 995T605 1087ZM1507 643Q1505 756 1442 824T1278 893Q1182 893 1114 825T1042 643H1507ZM369 303Q369 237 415 202T548 166Q647 166 717 225T788 380V516Q783 508 743 491T607 463Q468 446 419 409T369 303ZM1352 1497L1036 1206H834L1030 1497H1352Z"  />
<glyph unicode="&#x1FE;" horiz-adv-x="1593" d="M1524 1432L1353 1242H1351Q1434 1136 1475 1003T1516 725Q1516 398 1319 182T797 -35Q669 -35 553 3T341 121L170 -68L70 20L246 215Q162 314 120 445T78 725Q78 1063 275 1280T797 1497Q932 1497 1049 1458T1257 1339L1421 1522L1524 1432ZM399 725Q399 648 415 574T457 449L1062 1121Q1009 1176 942 1201T795 1227Q608 1227 504 1090T399 725ZM535 336Q581 288 646 262T797 236Q986 236 1090 370T1194 725Q1194 807 1180 874T1139 1004L535 336ZM1198 1886L882 1595H680L876 1886H1198Z"  />
<glyph unicode="&#x1FF;" horiz-adv-x="1251" d="M1067 1114L1143 1049L1032 924Q1102 850 1138 749T1174 528Q1174 275 1023 123T625 -29Q525 -29 441 -3T287 74L166 -63L90 2L213 141Q145 215 112 311T78 528Q78 780 226 933T625 1087Q721 1087 805 1063T958 989L1067 1114ZM369 528Q369 476 376 434T399 352L795 803Q764 835 722 851T623 868Q506 868 438 784T369 528ZM451 260Q482 225 526 208T625 190Q749 190 816 278T883 528Q883 575 876 620T850 715L451 260ZM1018 1497L702 1206H500L696 1497H1018Z"  />
<glyph unicode="&#x218;" horiz-adv-x="1329" d="M645 1497Q910 1497 1070 1374T1230 1026H919Q912 1136 844 1191T632 1247Q534 1247 472 1204T409 1081Q409 1026 435 999T541 943T893 849Q1075 805 1177 700T1279 434Q1279 222 1120 94T672 -35Q396 -35 222 101T48 477V485H359Q361 349 450 282T683 215Q813 215 890 262T968 397Q968 468 909 513T718 592Q550 630 413 672T187 810T97 1055Q97 1252 254 1374T645 1497ZM802 -102V-258Q802 -349 747 -396T543 -444H525V-369Q577 -363 603 -347T642 -293H505V-102H802Z"  />
<glyph unicode="&#x219;" horiz-adv-x="1100" d="M545 1087Q761 1087 878 1002T1012 750H735Q729 825 679 859T536 893Q452 893 414 868T375 795Q375 746 425 715T629 654Q873 607 956 533T1040 339Q1040 159 909 65T557 -29Q337 -29 203 64T59 344H336Q336 260 399 213T559 166Q644 166 697 202T750 301Q750 356 681 391T428 464Q246 500 165 567T84 748Q84 916 203 1001T545 1087ZM691 -102V-258Q691 -349 636 -396T432 -444H414V-369Q466 -363 492 -347T531 -293H394V-102H691Z"  />
<glyph unicode="&#x21A;" horiz-adv-x="1251" d="M1225 1462V1192H786V0H465V1192H27V1462H1225ZM775 -102V-258Q775 -349 720 -396T516 -444H498V-369Q550 -363 576 -347T615 -293H478V-102H775Z"  />
<glyph unicode="&#x21B;" horiz-adv-x="721" d="M479 1376V1059H692V864H479V333Q479 268 503 243T602 217Q627 217 650 219T692 225V-2Q656 -8 612 -10T524 -12Q335 -12 262 52T188 233V864H12V1059H188V1376H479ZM586 -102V-258Q586 -349 531 -396T327 -444H309V-369Q361 -363 387 -347T426 -293H289V-102H586Z"  />
<glyph unicode="&#x237;" horiz-adv-x="569" d="M428 1059V-62Q428 -228 348 -300T57 -373Q32 -373 9 -371T-39 -365V-125Q-26 -130 -10 -131T24 -133Q88 -133 112 -109T137 -43V1059H428Z"  />
<glyph unicode="&#x2C6;" horiz-adv-x="530" d="M399 1497L625 1206H389L263 1371H261L131 1206H-94L133 1497H399Z"  />
<glyph unicode="&#x2C7;" horiz-adv-x="530" d="M141 1497L267 1332H269L399 1497H625L397 1206H131L-94 1497H141Z"  />
<glyph unicode="&#x2C9;" horiz-adv-x="530" d="M627 1421V1268H-96V1421H627Z"  />
<glyph unicode="&#x2D8;" horiz-adv-x="530" d="M53 1497Q64 1432 120 1396T257 1360Q350 1360 406 1393T481 1497H610Q593 1356 501 1281T246 1206Q99 1206 16 1280T-80 1497H53Z"  />
<glyph unicode="&#x2D9;" horiz-adv-x="530" d="M403 1464V1225H127V1464H403Z"  />
<glyph unicode="&#x2DA;" horiz-adv-x="530" d="M266 1647Q375 1647 445 1577T516 1401Q516 1294 442 1225T264 1155Q155 1155 85 1226T14 1401Q14 1504 86 1575T266 1647ZM135 1401Q135 1342 169 1303T264 1264Q323 1264 359 1301T395 1401Q395 1460 361 1499T265 1538Q206 1538 171 1499T135 1401Z"  />
<glyph unicode="&#x2DB;" horiz-adv-x="530" d="M369 0Q313 -58 266 -120T219 -243Q219 -280 241 -301T295 -322Q322 -322 349 -307T408 -256L500 -309Q453 -381 393 -412T246 -444Q144 -444 84 -398T23 -274Q23 -206 74 -140T238 0H369Z"  />
<glyph unicode="&#x2DC;" horiz-adv-x="530" d="M129 1477Q193 1477 283 1441Q373 1405 422 1405Q458 1405 479 1422T510 1477H641Q618 1357 561 1300T412 1243Q340 1243 249 1278Q158 1313 111 1313Q78 1313 55 1293T18 1227H-111Q-92 1346 -25 1411T129 1477Z"  />
<glyph unicode="&#x2DD;" horiz-adv-x="530" d="M393 1497L88 1206H-115L72 1497H393ZM817 1497L512 1206H309L496 1497H817Z"  />
<glyph unicode="&#x374;" horiz-adv-x="569" d="M510 1499L317 1149H109L197 1499H510Z"  />
<glyph unicode="&#x375;" horiz-adv-x="569" d="M444 -66L367 -416H53L236 -66H444Z"  />
<glyph unicode="&#x37E;" horiz-adv-x="569" d="M446 1040V725H125V1040H446ZM446 315V-6Q446 -124 364 -218T127 -340V-193Q194 -177 233 -125T273 -14V0H125V315H446Z"  />
<glyph unicode="&#x384;" horiz-adv-x="494" d="M522 1497L371 1206H129L190 1497H522Z"  />
<glyph unicode="&#x385;" horiz-adv-x="1049" d="M723 1497L586 1206H358L412 1497H723ZM313 1464V1225H57V1464H313ZM991 1464V1225H735V1464H991Z"  />
<glyph unicode="&#x386;" horiz-adv-x="1479" d="M946 1462L1493 1H1159L1049 326H502L387 0H62L617 1462H946ZM776 1102L586 565H965L781 1102H776ZM424 1463L273 1172H31L92 1463H424Z"  />
<glyph unicode="&#x387;" horiz-adv-x="569" d="M446 1040V725H125V1040H446Z"  />
<glyph unicode="&#x388;" horiz-adv-x="1729" d="M1636 1462V1192H864V879H1572V629H864V270H1652V0H542V1462H1636ZM424 1462L273 1171H31L92 1462H424Z"  />
<glyph unicode="&#x389;" horiz-adv-x="1919" d="M864 1462V901H1456V1462H1777V0H1456V631H864V0H542V1462H864ZM424 1462L273 1171H31L92 1462H424Z"  />
<glyph unicode="&#x38A;" horiz-adv-x="1006" d="M864 1462V0H542V1462H864ZM424 1462L273 1171H31L92 1462H424Z"  />
<glyph unicode="&#x38C;" horiz-adv-x="1901" d="M1104 1497Q1430 1497 1626 1279T1823 725Q1823 398 1626 182T1104 -35Q893 -35 729 62T475 334T385 725Q385 1063 582 1280T1104 1497ZM706 725Q706 509 809 373T1104 236Q1293 236 1397 370T1501 725Q1501 956 1396 1091T1102 1227Q915 1227 811 1090T706 725ZM424 1462L273 1171H31L92 1462H424Z"  />
<glyph unicode="&#x38E;" horiz-adv-x="1892" d="M870 1462L1212 885L1552 1462H1910L1368 561V0H1046V569L508 1462H870ZM424 1462L273 1171H31L92 1462H424Z"  />
<glyph unicode="&#x38F;" horiz-adv-x="1903" d="M1110 1497Q1427 1497 1625 1305T1824 805Q1824 639 1751 502T1538 272V262H1826V0H1202V242Q1363 352 1433 479T1503 786Q1503 997 1397 1112T1110 1227Q929 1227 823 1111T716 786Q716 620 781 494T1015 242V0H389V262H669V272Q539 354 467 491T395 805Q395 1100 598 1298T1110 1497ZM424 1463L273 1172H31L92 1463H424Z"  />
<glyph unicode="&#x390;" horiz-adv-x="573" d="M415 1059V274Q415 233 431 212T483 190Q497 190 519 194T549 201V14Q499 -9 454 -19T360 -29Q242 -29 184 30T125 196V1059H415ZM518 1497L381 1206H153L207 1497H518ZM108 1464V1225H-148V1464H108ZM786 1464V1225H530V1464H786Z"  />
<glyph unicode="&#x391;" horiz-adv-x="1403" d="M870 1462L1417 1H1083L973 326H426L311 0H-14L541 1462H870ZM700 1102L510 565H889L705 1102H700Z"  />
<glyph unicode="&#x392;" horiz-adv-x="1442" d="M840 1462Q1064 1462 1180 1374T1296 1101Q1296 988 1244 914T1098 795Q1231 755 1298 660T1366 424Q1366 222 1220 111T859 0H141V1462H840ZM794 870Q880 870 932 914T985 1044Q985 1130 931 1171T772 1212H463V870H794ZM815 250Q922 250 983 297T1044 442Q1044 545 987 598T820 651H463V250H815Z"  />
<glyph unicode="&#x393;" horiz-adv-x="1169" d="M1143 1462V1192H463V0H141V1462H1143Z"  />
<glyph unicode="&#x394;" horiz-adv-x="1395" d="M866 1462L1409 0H-14L537 1462H866ZM696 1102L406 270H983L700 1102H696Z"  />
<glyph unicode="&#x395;" horiz-adv-x="1327" d="M1235 1462V1192H463V879H1171V629H463V270H1251V0H141V1462H1235Z"  />
<glyph unicode="&#x396;" horiz-adv-x="1327" d="M1260 1462V1208L475 270H1280V0H47V254L831 1192H109V1462H1260Z"  />
<glyph unicode="&#x397;" horiz-adv-x="1518" d="M463 1462V901H1055V1462H1376V0H1055V631H463V0H141V1462H463Z"  />
<glyph unicode="&#x398;" horiz-adv-x="1593" d="M797 1497Q1125 1497 1320 1279T1516 725Q1516 398 1319 182T797 -35Q586 -35 422 62T168 334T78 725Q78 1063 274 1280T797 1497ZM399 725Q399 509 502 373T797 236Q986 236 1090 370T1194 725Q1194 956 1089 1091T795 1227Q608 1227 504 1090T399 725ZM1036 872V623H563V872H1036Z"  />
<glyph unicode="&#x399;" horiz-adv-x="604" d="M463 1462V0H141V1462H463Z"  />
<glyph unicode="&#x39A;" horiz-adv-x="1479" d="M463 1462V856L1034 1462H1436L864 885L1491 0H1087L647 657L463 471V0H141V1462H463Z"  />
<glyph unicode="&#x39B;" horiz-adv-x="1362" d="M850 1462L1376 0H1042L684 1102H680L311 0H-14L520 1462H850Z"  />
<glyph unicode="&#x39C;" horiz-adv-x="1858" d="M594 1462L936 457H940L1263 1458L1265 1462H1716V0H1415V1036H1411L1053 0H805L446 1026H442V0H141V1462H594Z"  />
<glyph unicode="&#x39D;" horiz-adv-x="1518" d="M461 1462L1071 481H1075V1462H1376V0H1055L446 979H442V0H141V1462H461Z"  />
<glyph unicode="&#x39E;" horiz-adv-x="1276" d="M1174 1462V1192H102V1462H1174ZM1073 897V627H203V897H1073ZM1192 270V0H84V270H1192Z"  />
<glyph unicode="&#x39F;" horiz-adv-x="1593" d="M797 1497Q1123 1497 1319 1279T1516 725Q1516 398 1319 182T797 -35Q586 -35 422 62T168 334T78 725Q78 1063 275 1280T797 1497ZM399 725Q399 509 502 373T797 236Q986 236 1090 370T1194 725Q1194 956 1089 1091T795 1227Q608 1227 504 1090T399 725Z"  />
<glyph unicode="&#x3A0;" horiz-adv-x="1542" d="M1401 1462V0H1079V1192H463V0H141V1462H1401Z"  />
<glyph unicode="&#x3A1;" horiz-adv-x="1366" d="M811 1462Q1040 1462 1173 1334T1307 993Q1307 782 1174 653T811 524H463V0H141V1462H811ZM722 774Q860 774 927 826T995 993Q995 1105 930 1158T723 1212H463V774H722Z"  />
<glyph unicode="&#x3A3;" horiz-adv-x="1327" d="M1227 1462V1194H516L934 766V762L479 270H1260V0H76V266L537 758L100 1196V1462H1227Z"  />
<glyph unicode="&#x3A4;" horiz-adv-x="1251" d="M1225 1462V1192H786V0H465V1192H27V1462H1225Z"  />
<glyph unicode="&#x3A5;" horiz-adv-x="1366" d="M344 1462L686 885L1026 1462H1384L842 561V0H520V569L-18 1462H344Z"  />
<glyph unicode="&#x3A6;" horiz-adv-x="1669" d="M997 1534V1391Q1290 1374 1442 1212T1595 768Q1595 489 1438 329T997 154V0H676V154Q381 167 229 323T76 760Q76 1047 230 1210T676 1391V1534H997ZM395 760Q395 573 460 484T676 391V1153Q539 1150 467 1056T395 760ZM997 393Q1146 399 1210 491T1274 768Q1274 956 1211 1051T997 1153V393Z"  />
<glyph unicode="&#x3A7;" horiz-adv-x="1366" d="M401 1462L688 995L985 1462H1337L868 764L1378 0H995L676 506L350 0H-12L500 766L29 1462H401Z"  />
<glyph unicode="&#x3A8;" horiz-adv-x="1722" d="M428 1462V888Q428 717 489 638T700 555V1462H1022V557Q1168 557 1231 634T1294 888V1462H1618V885Q1618 628 1470 481T1022 315V0H700V315Q383 330 244 474T104 884V1462H428Z"  />
<glyph unicode="&#x3A9;" horiz-adv-x="1585" d="M793 1497Q1110 1497 1308 1305T1507 805Q1507 639 1434 502T1221 272V262H1509V0H885V242Q1046 352 1116 479T1186 786Q1186 997 1080 1112T793 1227Q612 1227 506 1111T399 786Q399 620 464 494T698 242V0H72V262H352V272Q222 354 150 491T78 805Q78 1100 281 1298T793 1497Z"  />
<glyph unicode="&#x3AA;" horiz-adv-x="604" d="M463 1462V0H141V1462H463ZM228 1853V1614H-49V1853H228ZM649 1853V1614H373V1853H649Z"  />
<glyph unicode="&#x3AB;" horiz-adv-x="1346" d="M344 1462L686 885L1026 1462H1384L842 561V0H520V569L-18 1462H344ZM617 1853V1614H340V1853H617ZM1038 1853V1614H762V1853H1038Z"  />
<glyph unicode="&#x3AC;" horiz-adv-x="1266" d="M534 1087Q619 1087 694 1047T817 932H821V1059H1112V275Q1112 238 1129 214T1179 190Q1193 190 1209 193T1241 201V14Q1200 -7 1156 -18T1066 -29Q986 -29 920 12T829 135H825Q779 52 703 12T518 -29Q317 -29 192 135T66 535Q66 773 192 930T534 1087ZM356 526Q356 387 422 289T600 190Q709 190 770 282T831 530Q831 675 770 771T604 868Q485 868 421 776T356 526ZM893 1497L742 1206H500L561 1497H893Z"  />
<glyph unicode="&#x3AD;" horiz-adv-x="1055" d="M543 1087Q746 1087 859 1000T995 745H713Q701 811 655 842T537 874Q457 874 415 842T373 745Q373 698 407 671T497 643H635V459H491Q424 459 385 427T346 328Q346 260 396 222T537 184Q641 184 692 225T754 360H1034Q1005 162 876 67T514 -29Q304 -29 179 59T53 299Q53 384 102 445T246 537V545Q168 571 130 627T92 762Q92 906 217 996T543 1087ZM813 1497L662 1206H420L481 1497H813Z"  />
<glyph unicode="&#x3AE;" horiz-adv-x="1214" d="M718 1087Q921 1087 1012 985T1104 662V-371H813V607Q813 731 771 794T627 858Q506 858 454 786T401 565V0H111V1059H387V911H393Q446 996 531 1041T718 1087ZM897 1497L746 1206H504L565 1497H897Z"  />
<glyph unicode="&#x3AF;" horiz-adv-x="559" d="M401 1059V274Q401 233 417 212T469 190Q483 190 505 194T535 201V14Q485 -9 440 -19T346 -29Q228 -29 170 30T111 196V1059H401ZM522 1497L371 1206H129L190 1497H522Z"  />
<glyph unicode="&#x3B0;" horiz-adv-x="1163" d="M401 1059V388Q401 297 444 244T573 190Q687 190 743 279T799 557Q799 673 765 811T668 1059H969Q1031 949 1060 814T1090 562Q1090 288 953 130T572 -29Q341 -29 226 70T111 357V1059H401ZM766 1497L629 1206H401L455 1497H766ZM356 1464V1225H100V1464H356ZM1034 1464V1225H778V1464H1034Z"  />
<glyph unicode="&#x3B1;" horiz-adv-x="1266" d="M534 1087Q619 1087 694 1047T817 932H821V1059H1112V275Q1112 238 1129 214T1179 190Q1193 190 1209 193T1241 201V14Q1200 -7 1156 -18T1066 -29Q986 -29 920 12T829 135H825Q779 52 703 12T518 -29Q317 -29 192 135T66 535Q66 773 192 930T534 1087ZM356 526Q356 387 422 289T600 190Q709 190 770 282T831 530Q831 675 770 771T604 868Q485 868 421 776T356 526Z"  />
<glyph unicode="&#x3B2;" horiz-adv-x="1204" d="M582 1479Q799 1479 918 1385T1038 1122Q1038 1023 986 951T834 860V854Q980 830 1060 718T1141 452Q1141 226 1026 99T717 -29Q614 -29 532 12T403 127H401V-373H111V1014Q111 1245 227 1362T582 1479ZM387 551Q387 379 449 284T625 188Q723 188 786 253T850 444Q850 587 804 653T652 719H541V903H567Q645 903 677 921T729 978T750 1091Q750 1168 707 1211T580 1255Q477 1255 432 1190T387 989V551Z"  />
<glyph unicode="&#x3B3;" horiz-adv-x="1040" d="M319 1059Q385 945 446 724T526 327H537Q597 446 645 634T723 1059H1020Q977 774 881 509T627 -6L629 -373H336V-75Q336 127 236 475T10 1059H319Z"  />
<glyph unicode="&#x3B4;" horiz-adv-x="1212" d="M644 1479Q734 1479 833 1462T1006 1411V1194Q919 1233 823 1249T645 1266Q590 1266 564 1254T537 1219Q537 1181 631 1125Q962 928 1050 792T1139 506Q1139 283 999 127T621 -29Q373 -29 224 121T74 510Q74 686 167 807T436 981Q332 1043 285 1103T238 1237Q238 1357 341 1418T644 1479ZM367 510Q367 349 435 270T621 190Q726 190 787 273T848 505Q848 629 787 717T608 872Q493 847 430 759T367 510Z"  />
<glyph unicode="&#x3B5;" horiz-adv-x="1055" d="M543 1087Q746 1087 859 1000T995 745H713Q701 811 655 842T537 874Q457 874 415 842T373 745Q373 698 407 671T497 643H635V459H491Q424 459 385 427T346 328Q346 260 396 222T537 184Q641 184 692 225T754 360H1034Q1005 162 876 67T514 -29Q304 -29 179 59T53 299Q53 384 102 445T246 537V545Q168 571 130 627T92 762Q92 906 217 996T543 1087Z"  />
<glyph unicode="&#x3B6;" horiz-adv-x="971" d="M971 1462V1272Q666 1150 518 976T369 537Q369 382 432 309T625 236H686Q836 229 899 147Q967 59 967 -82Q967 -128 960 -190T936 -315H682Q692 -276 699 -222T707 -134Q707 -63 685 -31Q667 -6 625 0H557Q408 0 311 56T146 231T78 537Q78 782 201 959T571 1241H166V1462H971Z"  />
<glyph unicode="&#x3B7;" horiz-adv-x="1214" d="M718 1087Q921 1087 1012 985T1104 662V-371H813V607Q813 731 771 794T627 858Q506 858 454 786T401 565V0H111V1059H387V911H393Q446 996 531 1041T718 1087Z"  />
<glyph unicode="&#x3B8;" horiz-adv-x="1178" d="M588 1479Q852 1479 978 1296T1104 727Q1104 342 976 157T588 -29Q330 -29 202 157T74 727Q74 1107 202 1293T588 1479ZM803 852V860Q803 1066 752 1163T586 1260Q475 1260 424 1167T373 868V852H803ZM588 193Q713 193 758 287T806 633H371Q371 397 416 295T588 193Z"  />
<glyph unicode="&#x3B9;" horiz-adv-x="559" d="M401 1059V274Q401 233 417 212T469 190Q483 190 505 194T535 201V14Q485 -9 440 -19T346 -29Q228 -29 170 30T111 196V1059H401Z"  />
<glyph unicode="&#x3BA;" horiz-adv-x="1161" d="M401 1059V635L778 1059H1122L717 635L1169 0H817L520 434L401 319V0H111V1059H401Z"  />
<glyph unicode="&#x3BB;" horiz-adv-x="1128" d="M300 1479Q431 1478 504 1424T643 1195L1003 250Q1017 213 1029 202T1064 190Q1083 190 1098 193T1128 201V14Q1079 -12 1037 -20T964 -29Q873 -29 819 9T740 123L567 674H561L322 0H10L434 979Q371 1129 345 1191T215 1253Q190 1253 165 1250T115 1239V1456Q152 1467 198 1473T300 1479Z"  />
<glyph unicode="&#x3BC;" horiz-adv-x="1214" d="M401 1059V452Q401 332 443 267T588 201Q708 201 760 273T813 494V1059H1104V0H827V147H821Q757 52 692 12T555 -29Q514 -29 476 -18T401 20V-373H111V1059H401Z"  />
<glyph unicode="&#x3BD;" horiz-adv-x="1085" d="M315 1059L547 313H553Q629 469 685 665T766 1059H1055Q1014 801 926 539T696 0H373L10 1059H315Z"  />
<glyph unicode="&#x3BE;" horiz-adv-x="952" d="M592 1479Q672 1479 759 1462T922 1411V1194Q823 1229 753 1243T625 1257Q523 1257 466 1208T408 1065Q408 953 475 912T664 870H854V662H657Q510 662 438 616T365 451Q365 343 425 289T616 236H673Q800 235 876 158T952 -82Q952 -140 946 -197T922 -315H668Q677 -280 684 -230T692 -134Q692 -53 667 -27T571 0H528Q366 5 281 49Q186 98 130 186T74 410Q74 555 148 649T369 778V782Q246 801 182 876T117 1066Q117 1254 247 1366T592 1479Z"  />
<glyph unicode="&#x3BF;" horiz-adv-x="1251" d="M625 1087Q874 1087 1024 934T1174 528Q1174 275 1023 123T625 -29Q379 -29 229 124T78 528Q78 779 226 933T625 1087ZM369 528Q369 361 437 276T625 190Q749 190 816 278T883 528Q883 686 818 777T623 868Q506 868 438 784T369 528Z"  />
<glyph unicode="&#x3C0;" horiz-adv-x="1417" d="M1376 1059V840H1151V278Q1151 237 1169 215T1235 193Q1253 193 1272 195T1303 201V12Q1258 -10 1211 -19T1112 -29Q982 -29 921 30T860 196V840H535V0H244V840H31V1059H1376Z"  />
<glyph unicode="&#x3C1;" horiz-adv-x="1223" d="M625 1087Q877 1087 1018 927T1159 526Q1159 285 1038 128T697 -29Q617 -29 535 11T406 129H401V-373H111V536Q111 792 243 939T625 1087ZM391 530Q391 375 456 283T631 190Q741 190 804 283T868 538Q868 688 803 778T624 868Q523 868 457 778T391 530Z"  />
<glyph unicode="&#x3C2;" horiz-adv-x="1120" d="M612 1087Q799 1087 923 994T1085 733H803Q782 800 734 834T612 868Q497 868 431 779T365 537Q365 391 429 313T624 236H687Q838 237 911 155T985 -83Q985 -144 978 -204T954 -315H700Q711 -272 718 -226T725 -135Q725 -66 704 -33T634 0H525Q389 7 301 59T143 225T74 536Q74 770 218 928T612 1087Z"  />
<glyph unicode="&#x3C3;" horiz-adv-x="1225" d="M1219 1059V840H954Q1033 798 1079 711T1126 527Q1126 287 986 129T604 -29Q366 -29 220 125T74 528Q74 769 231 914T649 1059H1219ZM365 528Q365 358 431 274T604 190Q716 190 776 280T836 529Q836 645 810 720T725 840H671Q561 840 501 807T403 709T365 528Z"  />
<glyph unicode="&#x3C4;" horiz-adv-x="1022" d="M1014 1059V840H637V279Q637 239 658 216T734 193Q755 193 776 195T815 203V16Q770 -6 722 -17T607 -29Q470 -29 408 30T346 196V840H10V1059H1014Z"  />
<glyph unicode="&#x3C5;" horiz-adv-x="1171" d="M401 1059V388Q401 297 444 244T573 190Q687 190 743 279T799 557Q799 673 765 811T668 1059H969Q1031 949 1060 814T1090 562Q1090 288 953 130T572 -29Q341 -29 226 70T111 357V1059H401Z"  />
<glyph unicode="&#x3C6;" horiz-adv-x="1544" d="M920 1352V1087Q1180 1077 1327 927T1475 539Q1475 292 1334 138T920 -29V-373H629V-29Q370 -23 222 127T74 534Q74 778 224 928T629 1087V1352H920ZM920 195Q1054 195 1119 280T1184 538Q1184 699 1118 785T920 872V195ZM365 534Q365 363 431 277T629 191V868Q505 868 435 784T365 534Z"  />
<glyph unicode="&#x3C7;" horiz-adv-x="1100" d="M367 1059L553 649L735 1059H1059L698 406L1100 -371H768L543 141L329 -369L327 -371H0L399 395L35 1059H367Z"  />
<glyph unicode="&#x3C8;" horiz-adv-x="1487" d="M883 1350V188Q998 194 1058 291T1118 559Q1118 666 1092 801T1008 1059H1307Q1353 967 1381 830T1409 564Q1409 304 1271 143T883 -29V-373H592V-31Q344 -22 228 111T111 486V1059H401V500Q401 360 443 280T592 188V1350H883Z"  />
<glyph unicode="&#x3C9;" horiz-adv-x="1556" d="M557 1059Q460 930 413 789T365 497Q365 334 405 261T522 188Q580 188 604 241T629 400V762H922V398Q922 291 947 240T1030 188Q1111 188 1151 264T1192 499Q1192 656 1145 792T999 1059H1305Q1401 928 1442 791T1483 488Q1483 256 1371 114T1057 -29Q947 -29 876 18T770 152Q721 51 657 11T485 -29Q288 -29 181 103T74 486Q74 662 120 800T252 1059H557Z"  />
<glyph unicode="&#x3CA;" horiz-adv-x="573" d="M401 1059V274Q401 233 417 212T469 190Q483 190 505 194T535 201V14Q485 -9 440 -19T346 -29Q228 -29 170 30T111 196V1059H401ZM195 1464V1225H-82V1464H195ZM616 1464V1225H340V1464H616Z"  />
<glyph unicode="&#x3CB;" horiz-adv-x="1178" d="M401 1059V388Q401 297 444 244T573 190Q687 190 743 279T799 557Q799 673 765 811T668 1059H969Q1031 949 1060 814T1090 562Q1090 288 953 130T572 -29Q341 -29 226 70T111 357V1059H401ZM484 1464V1225H207V1464H484ZM905 1464V1225H629V1464H905Z"  />
<glyph unicode="&#x3CC;" horiz-adv-x="1251" d="M625 1087Q874 1087 1024 934T1174 528Q1174 275 1023 123T625 -29Q379 -29 229 124T78 528Q78 779 226 933T625 1087ZM369 528Q369 361 437 276T625 190Q749 190 816 278T883 528Q883 686 818 777T623 868Q506 868 438 784T369 528ZM893 1497L742 1206H500L561 1497H893Z"  />
<glyph unicode="&#x3CD;" horiz-adv-x="1178" d="M401 1059V388Q401 297 444 244T573 190Q687 190 743 279T799 557Q799 673 765 811T668 1059H969Q1031 949 1060 814T1090 562Q1090 288 953 130T572 -29Q341 -29 226 70T111 357V1059H401ZM827 1497L676 1206H434L495 1497H827Z"  />
<glyph unicode="&#x3CE;" horiz-adv-x="1556" d="M557 1059Q460 930 413 789T365 497Q365 334 405 261T522 188Q580 188 604 241T629 400V762H922V398Q922 291 947 240T1030 188Q1111 188 1151 264T1192 499Q1192 656 1145 792T999 1059H1305Q1401 928 1442 791T1483 488Q1483 256 1371 114T1057 -29Q947 -29 876 18T770 152Q721 51 657 11T485 -29Q288 -29 181 103T74 486Q74 662 120 800T252 1059H557ZM1046 1497L895 1206H653L714 1497H1046Z"  />
<glyph unicode="&#x400;" horiz-adv-x="1327" d="M1235 1462V1192H463V879H1171V629H463V270H1251V0H141V1462H1235ZM601 1886L798 1595H595L280 1886H601Z"  />
<glyph unicode="&#x401;" horiz-adv-x="1327" d="M1235 1462V1192H463V879H1171V629H463V270H1251V0H141V1462H1235ZM607 1853V1614H330V1853H607ZM1028 1853V1614H752V1853H1028Z"  />
<glyph unicode="&#x402;" horiz-adv-x="1606" d="M1204 1462V1192H725V748Q787 824 877 865T1081 907Q1301 907 1426 756T1552 340Q1552 55 1399 -120T981 -296H946V-37Q1089 -37 1159 55T1229 339Q1229 498 1167 578T981 659Q858 659 792 570T725 342V0H403V1192H27V1462H1204Z"  />
<glyph unicode="&#x403;" horiz-adv-x="1169" d="M1143 1462V1192H463V0H141V1462H1143ZM953 1886L637 1595H435L631 1886H953Z"  />
<glyph unicode="&#x404;" horiz-adv-x="1518" d="M795 1497Q1048 1497 1221 1367T1427 1010H1110Q1083 1115 997 1173T788 1231Q640 1231 541 1139T408 879H942V629H401Q424 435 528 333T785 231Q928 231 1013 302T1122 506H1442Q1402 245 1228 105T782 -35Q471 -35 275 176T78 731Q78 1069 274 1283T795 1497Z"  />
<glyph unicode="&#x405;" horiz-adv-x="1329" d="M645 1497Q910 1497 1070 1374T1230 1026H919Q912 1136 844 1191T632 1247Q534 1247 472 1204T409 1081Q409 1026 435 999T541 943T893 849Q1075 805 1177 700T1279 434Q1279 222 1120 94T672 -35Q396 -35 222 101T48 477V485H359Q361 349 450 282T683 215Q813 215 890 262T968 397Q968 468 909 513T718 592Q550 630 413 672T187 810T97 1055Q97 1252 254 1374T645 1497Z"  />
<glyph unicode="&#x406;" horiz-adv-x="604" d="M463 1462V0H141V1462H463Z"  />
<glyph unicode="&#x407;" horiz-adv-x="604" d="M463 1462V0H141V1462H463ZM228 1853V1614H-49V1853H228ZM649 1853V1614H373V1853H649Z"  />
<glyph unicode="&#x408;" horiz-adv-x="1139" d="M997 1462V451Q997 216 875 91T511 -35Q298 -35 164 85T29 410V545H319V490Q319 344 366 290T506 236Q590 236 633 281T676 463V1462H997Z"  />
<glyph unicode="&#x409;" horiz-adv-x="2165" d="M1300 1462V909H1591Q1824 909 1966 792T2109 455Q2109 233 1962 117T1573 0H979V1190H623L607 561Q607 247 499 106T186 -35Q143 -35 103 -29T20 -10V242Q75 231 97 228T139 225Q221 225 253 294T291 509L315 1462H1300ZM1562 274Q1673 274 1735 315T1798 455Q1798 550 1734 594T1559 639H1300V274H1562Z"  />
<glyph unicode="&#x40A;" horiz-adv-x="2165" d="M463 1462V909H979V1462H1300V909H1591Q1824 909 1966 792T2109 455Q2109 233 1962 117T1573 0H979V637H463V0H141V1462H463ZM1562 274Q1673 274 1735 315T1798 455Q1798 550 1734 594T1559 639H1300V274H1562Z"  />
<glyph unicode="&#x40B;" horiz-adv-x="1602" d="M1204 1462V1192H725V877Q820 900 896 909T1034 918Q1266 918 1388 799T1511 452V0H1190V440Q1190 546 1139 598T965 651Q906 651 842 641T725 618V0H403V1192H27V1462H1204Z"  />
<glyph unicode="&#x40C;" horiz-adv-x="1479" d="M463 1462V856L1034 1462H1436L864 885L1491 0H1087L647 657L463 471V0H141V1462H463ZM1071 1886L755 1595H553L749 1886H1071Z"  />
<glyph unicode="&#x40D;" horiz-adv-x="1518" d="M463 1462V477H469L1030 1462H1376V0H1055V987H1049L487 0H141V1462H463ZM677 1886L874 1595H671L356 1886H677Z"  />
<glyph unicode="&#x40E;" horiz-adv-x="1343" d="M362 1462L696 684L1016 1462H1358L856 370Q744 126 635 46T366 -35Q312 -35 263 -29T170 -8V250Q215 238 258 232T345 225Q420 225 466 264T512 370Q512 387 506 413T487 464L8 1462H362ZM483 1886Q494 1819 552 1784T687 1749Q781 1749 837 1782T911 1886H1040Q1023 1745 932 1670T676 1595Q526 1595 444 1670T350 1886H483Z"  />
<glyph unicode="&#x40F;" horiz-adv-x="1518" d="M463 1462V270H1055V1462H1376V0H915V-375H602V0H141V1462H463Z"  />
<glyph unicode="&#x410;" horiz-adv-x="1403" d="M870 1462L1417 1H1083L973 326H426L311 0H-14L541 1462H870ZM700 1102L510 565H889L705 1102H700Z"  />
<glyph unicode="&#x411;" horiz-adv-x="1442" d="M1227 1462V1192H463V938H856Q1084 938 1223 816T1362 469Q1362 242 1219 121T837 0H141V1462H1227ZM811 262Q930 262 990 313T1051 469Q1051 570 988 623T808 676H463V262H811Z"  />
<glyph unicode="&#x412;" horiz-adv-x="1442" d="M840 1462Q1064 1462 1180 1374T1296 1101Q1296 988 1244 914T1098 795Q1231 755 1298 660T1366 424Q1366 222 1220 111T859 0H141V1462H840ZM794 870Q880 870 932 914T985 1044Q985 1130 931 1171T772 1212H463V870H794ZM815 250Q922 250 983 297T1044 442Q1044 545 987 598T820 651H463V250H815Z"  />
<glyph unicode="&#x413;" horiz-adv-x="1169" d="M1143 1462V1192H463V0H141V1462H1143Z"  />
<glyph unicode="&#x414;" horiz-adv-x="1577" d="M1403 1462V270H1561V-375H1247V0H330V-375H16V270H127Q252 440 306 666T360 1220V1462H1403ZM483 270H1081V1192H678V1167Q678 856 630 646T483 270Z"  />
<glyph unicode="&#x415;" horiz-adv-x="1327" d="M1235 1462V1192H463V879H1171V629H463V270H1251V0H141V1462H1235Z"  />
<glyph unicode="&#x416;" horiz-adv-x="2169" d="M428 1462L926 870V1462H1243V862L1749 1462H2134L1606 864L2187 0H1790L1399 637L1243 461V0H926V453L768 633L369 0H-18L565 856L35 1462H428Z"  />
<glyph unicode="&#x417;" horiz-adv-x="1329" d="M670 1497Q905 1497 1049 1383T1194 1092Q1194 978 1135 902T974 795Q1109 759 1179 669T1249 449Q1249 231 1083 98T655 -35Q371 -35 209 98T43 479H360Q367 343 448 277T664 211Q783 211 855 274T928 446Q928 550 859 601T654 653H543V868H641Q765 868 829 915T893 1059Q893 1144 831 1196T664 1249Q545 1249 480 1194T403 1030H100Q108 1257 262 1377T670 1497Z"  />
<glyph unicode="&#x418;" horiz-adv-x="1518" d="M463 1462V477H469L1030 1462H1376V0H1055V987H1049L487 0H141V1462H463Z"  />
<glyph unicode="&#x419;" horiz-adv-x="1518" d="M463 1462V477H469L1030 1462H1376V0H1055V987H1049L487 0H141V1462H463ZM549 1886Q560 1819 618 1784T753 1749Q847 1749 903 1782T977 1886H1106Q1089 1745 998 1670T742 1595Q592 1595 510 1670T416 1886H549Z"  />
<glyph unicode="&#x41A;" horiz-adv-x="1479" d="M463 1462V856L1034 1462H1436L864 885L1491 0H1087L647 657L463 471V0H141V1462H463Z"  />
<glyph unicode="&#x41B;" horiz-adv-x="1479" d="M1337 1462V0H1016V1190H623L607 561Q607 247 499 106T186 -35Q143 -35 103 -29T20 -10V242Q75 231 97 228T139 225Q221 225 253 294T291 509L315 1462H1337Z"  />
<glyph unicode="&#x41C;" horiz-adv-x="1858" d="M594 1462L936 457H940L1263 1458L1265 1462H1716V0H1415V1036H1411L1053 0H805L446 1026H442V0H141V1462H594Z"  />
<glyph unicode="&#x41D;" horiz-adv-x="1518" d="M463 1462V901H1055V1462H1376V0H1055V631H463V0H141V1462H463Z"  />
<glyph unicode="&#x41E;" horiz-adv-x="1593" d="M797 1497Q1123 1497 1319 1279T1516 725Q1516 398 1319 182T797 -35Q586 -35 422 62T168 334T78 725Q78 1063 275 1280T797 1497ZM399 725Q399 509 502 373T797 236Q986 236 1090 370T1194 725Q1194 956 1089 1091T795 1227Q608 1227 504 1090T399 725Z"  />
<glyph unicode="&#x41F;" horiz-adv-x="1518" d="M1376 1462V0H1055V1192H463V0H141V1462H1376Z"  />
<glyph unicode="&#x420;" horiz-adv-x="1366" d="M811 1462Q1040 1462 1173 1334T1307 993Q1307 782 1174 653T811 524H463V0H141V1462H811ZM722 774Q860 774 927 826T995 993Q995 1105 930 1158T723 1212H463V774H722Z"  />
<glyph unicode="&#x421;" horiz-adv-x="1518" d="M797 1497Q1046 1497 1221 1357T1427 971H1116Q1095 1086 1002 1156T796 1227Q608 1227 504 1090T399 725Q399 508 502 372T797 236Q936 236 1022 321T1128 563H1440Q1412 284 1238 125T797 -35Q586 -35 422 61T168 334T78 725Q78 1062 275 1279T797 1497Z"  />
<glyph unicode="&#x422;" horiz-adv-x="1251" d="M1225 1462V1192H786V0H465V1192H27V1462H1225Z"  />
<glyph unicode="&#x423;" horiz-adv-x="1343" d="M362 1462L696 684L1016 1462H1358L856 370Q744 126 635 46T366 -35Q312 -35 263 -29T170 -8V250Q215 238 258 232T345 225Q420 225 466 264T512 370Q512 387 506 413T487 464L8 1462H362Z"  />
<glyph unicode="&#x424;" horiz-adv-x="1737" d="M1026 1462V1315Q1333 1299 1496 1148T1659 745Q1659 488 1493 332T1026 160V0H711V160Q406 177 242 330T78 745Q78 994 241 1147T711 1315V1462H1026ZM387 746Q387 597 473 502T711 399V1083Q553 1077 470 991T387 746ZM1026 399Q1180 406 1265 501T1350 745Q1350 902 1267 989T1026 1083V399Z"  />
<glyph unicode="&#x425;" horiz-adv-x="1366" d="M401 1462L688 995L985 1462H1337L868 764L1378 0H995L676 506L350 0H-12L500 766L29 1462H401Z"  />
<glyph unicode="&#x426;" horiz-adv-x="1550" d="M463 1462V270H1055V1462H1376V270H1534V-375H1221V0H141V1462H463Z"  />
<glyph unicode="&#x427;" horiz-adv-x="1372" d="M397 1462V1040Q397 932 450 881T633 829Q673 829 737 835T909 862V1462H1231V0H909V602Q799 580 724 571T584 561Q336 561 206 682T76 1020V1462H397Z"  />
<glyph unicode="&#x428;" horiz-adv-x="2206" d="M463 1462V270H942V1462H1264V270H1743V1462H2064V0H141V1462H463Z"  />
<glyph unicode="&#x429;" horiz-adv-x="2236" d="M463 1462V270H942V1462H1264V270H1743V1462H2064V270H2222V-375H1909V0H141V1462H463Z"  />
<glyph unicode="&#x42A;" horiz-adv-x="1657" d="M739 1462V938H1088Q1314 938 1455 818T1597 469Q1597 239 1452 120T1073 0H418V1192H27V1462H739ZM1046 262Q1162 262 1224 311T1286 469Q1286 573 1222 624T1043 676H739V262H1046Z"  />
<glyph unicode="&#x42B;" horiz-adv-x="1872" d="M463 1462V938H735Q967 938 1106 815T1245 469Q1245 244 1103 122T721 0H141V1462H463ZM1731 1462V0H1409V1462H1731ZM694 262Q810 262 872 311T934 469Q934 574 869 625T691 676H463V262H694Z"  />
<glyph unicode="&#x42C;" horiz-adv-x="1380" d="M463 1462V938H810Q1041 938 1181 816T1321 469Q1321 242 1178 121T796 0H141V1462H463ZM770 262Q888 262 949 313T1010 469Q1010 574 945 625T767 676H463V262H770Z"  />
<glyph unicode="&#x42D;" horiz-adv-x="1518" d="M745 1497Q1068 1497 1254 1283T1440 731Q1440 398 1246 182T741 -35Q463 -35 284 108T76 506H395Q417 368 512 300T743 231Q901 231 1004 340T1118 629H569V879H1108Q1082 1046 984 1138T741 1231Q620 1231 537 1177T410 1010H92Q141 1241 317 1369T745 1497Z"  />
<glyph unicode="&#x42E;" horiz-adv-x="2085" d="M1350 1497Q1649 1497 1828 1287T2007 727Q2007 506 1926 331T1692 61T1348 -35Q1077 -35 897 144T690 638H463V0H141V1462H463V889H696Q744 1180 918 1338T1350 1497ZM1004 729Q1004 487 1097 357T1350 227Q1507 227 1596 360T1686 733Q1686 963 1596 1099T1344 1235Q1190 1235 1097 1106T1004 729Z"  />
<glyph unicode="&#x42F;" horiz-adv-x="1466" d="M1325 1462V0H1004V573H803L406 0H8L455 590Q292 628 201 735T109 1012Q109 1221 251 1341T606 1462H1325ZM422 1010Q422 906 486 856T657 805H1004V1210H658Q545 1210 484 1160T422 1010Z"  />
<glyph unicode="&#x430;" horiz-adv-x="1176" d="M597 1087Q832 1087 946 1010T1061 793V225Q1061 161 1069 97T1098 0H803Q795 24 790 49T782 101Q721 38 631 5T426 -29Q262 -29 164 53T66 289Q66 437 158 515T493 621Q662 637 716 662T770 751Q770 822 729 857T583 893Q493 893 445 855T389 733H98Q110 907 241 997T597 1087ZM356 301Q356 238 399 202T535 166Q651 166 710 227T770 405V518Q744 497 702 487T548 460Q449 447 403 409T356 301Z"  />
<glyph unicode="&#x431;" horiz-adv-x="1251" d="M1118 1462Q1099 1333 1025 1272T839 1193L672 1166Q503 1140 429 1065T317 831H324Q391 938 486 992T713 1047Q928 1047 1051 904T1174 517Q1174 279 1025 125T633 -29Q383 -29 239 143T94 634Q94 977 213 1153T562 1368L706 1392Q782 1405 808 1420T844 1462H1118ZM383 516Q383 365 448 278T633 190Q754 190 818 276T883 516Q883 667 825 753T651 840Q525 840 454 753T383 516Z"  />
<glyph unicode="&#x432;" horiz-adv-x="1167" d="M727 1059Q874 1059 960 989T1047 791Q1047 719 1011 663T907 575V571Q1002 539 1051 472T1100 315Q1100 170 1000 85T749 0H115V1059H727ZM617 633Q690 633 728 662T766 754Q766 816 726 845T607 874H401V633H617ZM624 188Q715 188 762 220T809 328Q809 401 759 435T619 469H401V188H624Z"  />
<glyph unicode="&#x433;" horiz-adv-x="932" d="M913 1059V840H406V0H115V1059H913Z"  />
<glyph unicode="&#x434;" horiz-adv-x="1274" d="M1124 1059V219H1257V-311H979V0H295V-311H16V219H143Q209 363 242 531T276 861V1059H1124ZM430 219H834V840H551V819Q551 646 519 497T430 219Z"  />
<glyph unicode="&#x435;" horiz-adv-x="1176" d="M600 1087Q835 1087 975 926T1116 513L1114 459H350Q356 322 421 256T609 190Q688 190 755 230T840 328H1096Q1037 148 914 60T600 -29Q355 -29 207 126T59 528Q59 765 210 926T600 1087ZM350 643H823Q802 760 748 814T590 868Q484 868 422 808T350 643Z"  />
<glyph unicode="&#x436;" horiz-adv-x="1683" d="M373 1059L698 641V1059H985V637L1317 1059H1649L1282 649L1696 0H1354L1098 444L985 317V0H698V313L586 444L326 0H-12L395 639L33 1059H373Z"  />
<glyph unicode="&#x437;" horiz-adv-x="1094" d="M553 1087Q763 1087 877 1007T991 788Q991 707 943 651T801 571V567Q911 546 967 482T1024 313Q1024 155 891 63T522 -29Q292 -29 170 63T41 344H317Q324 254 376 212T535 170Q628 170 680 210T733 319Q733 384 684 421T537 459H436V643H526Q621 643 667 673T713 766Q713 824 668 857T541 891Q451 891 402 854T346 752V750H76Q81 911 203 999T553 1087Z"  />
<glyph unicode="&#x438;" horiz-adv-x="1214" d="M393 1059V358L776 1059H1100V0H821V700L438 0H115V1059H393Z"  />
<glyph unicode="&#x439;" horiz-adv-x="1214" d="M393 1059V358L776 1059H1100V0H821V700L438 0H115V1059H393ZM399 1497Q410 1432 466 1396T603 1360Q696 1360 752 1393T827 1497H956Q939 1356 847 1281T592 1206Q445 1206 362 1280T266 1497H399Z"  />
<glyph unicode="&#x43A;" horiz-adv-x="1161" d="M401 1059V635L778 1059H1122L717 635L1169 0H817L520 434L401 319V0H111V1059H401Z"  />
<glyph unicode="&#x43B;" horiz-adv-x="1214" d="M1100 1059V0H809V840H526L508 345Q501 178 417 75T155 -29Q122 -29 88 -24T16 -8V219Q31 216 53 213T98 209Q168 209 197 258T229 390L248 1059H1100Z"  />
<glyph unicode="&#x43C;" horiz-adv-x="1479" d="M541 1059L737 287H745L942 1059H1364V0H1090V788H1083L877 0H602L395 788H389V0H115V1059H541Z"  />
<glyph unicode="&#x43D;" horiz-adv-x="1214" d="M406 1059V674H809V1059H1100V0H809V444H406V0H115V1059H406Z"  />
<glyph unicode="&#x43E;" horiz-adv-x="1251" d="M625 1087Q874 1087 1024 934T1174 528Q1174 275 1023 123T625 -29Q379 -29 229 124T78 528Q78 779 226 933T625 1087ZM369 528Q369 361 437 276T625 190Q749 190 816 278T883 528Q883 686 818 777T623 868Q506 868 438 784T369 528Z"  />
<glyph unicode="&#x43F;" horiz-adv-x="1214" d="M1100 1059V0H809V840H406V0H115V1059H1100Z"  />
<glyph unicode="&#x440;" horiz-adv-x="1251" d="M707 1087Q932 1087 1060 930T1188 518Q1188 283 1062 127T723 -29Q626 -29 542 12T406 131H401V-373H111V1059H387V924H391Q443 1007 523 1047T707 1087ZM391 526Q391 374 456 282T645 190Q766 190 831 278T897 526Q897 678 832 773T641 868Q521 868 456 778T391 526Z"  />
<glyph unicode="&#x441;" horiz-adv-x="1176" d="M618 1087Q823 1087 963 981T1116 686H831Q818 777 764 822T616 868Q499 868 434 772T369 524Q369 372 433 281T610 190Q707 190 767 245T842 406H1122Q1093 196 958 84T612 -29Q376 -29 227 122T78 514Q78 771 224 929T618 1087Z"  />
<glyph unicode="&#x442;" horiz-adv-x="1024" d="M1006 1059V840H657V0H369V840H20V1059H1006Z"  />
<glyph unicode="&#x443;" horiz-adv-x="1063" d="M299 1059L539 334H543L774 1059H1075L625 -153Q585 -259 502 -316T287 -373Q224 -373 181 -370T91 -362V-123Q144 -129 178 -131T243 -133Q305 -133 339 -95T373 0Q373 15 371 29T360 66L-13 1059H299Z"  />
<glyph unicode="&#x444;" horiz-adv-x="1733" d="M1010 1462V979H1016Q1070 1036 1130 1061T1264 1087Q1444 1087 1551 941T1659 545Q1659 283 1550 127T1236 -29Q1171 -29 1113 -3T1016 70H1010V-373H723V70H717Q676 26 617 -1T482 -29Q289 -29 182 120T74 544Q74 794 186 940T483 1087Q562 1087 620 1062T717 979H723V1462H1010ZM365 539Q365 362 416 276T565 190Q619 190 665 219T723 297V752Q699 807 653 837T555 868Q458 868 412 784T365 539ZM1010 297Q1010 268 1055 229T1167 190Q1265 190 1316 276T1368 539Q1368 705 1320 786T1175 868Q1122 868 1077 837T1010 752V297Z"  />
<glyph unicode="&#x445;" horiz-adv-x="1100" d="M365 1059L551 782L735 1059H1057L709 563L1100 0H768L547 334L326 0H0L381 557L33 1059H365Z"  />
<glyph unicode="&#x446;" horiz-adv-x="1237" d="M406 1059V219H797V1059H1087V219H1221V-311H942V0H115V1059H406Z"  />
<glyph unicode="&#x447;" horiz-adv-x="1176" d="M367 1059V747Q367 669 404 629T529 588Q574 588 626 594T770 616V1059H1061V0H770V408Q700 392 626 381T474 369Q271 369 174 465T76 723V1059H367Z"  />
<glyph unicode="&#x448;" horiz-adv-x="1729" d="M406 1059V219H719V1059H1010V219H1323V1059H1614V0H115V1059H406Z"  />
<glyph unicode="&#x449;" horiz-adv-x="1763" d="M406 1059V219H719V1059H1010V219H1323V1059H1614V219H1747V-311H1468V0H115V1059H406Z"  />
<glyph unicode="&#x44A;" horiz-adv-x="1331" d="M618 1059V694H898Q1071 694 1178 604T1286 348Q1286 181 1178 91T897 0H328V840H20V1059H618ZM833 201Q912 201 953 236T995 348Q995 425 951 461T831 498H618V201H833Z"  />
<glyph unicode="&#x44B;" horiz-adv-x="1559" d="M406 1059V694H632Q805 694 912 604T1020 348Q1020 181 911 91T631 0H115V1059H406ZM1444 1059V0H1153V1059H1444ZM567 201Q644 201 686 236T729 348Q729 423 684 460T565 498H406V201H567Z"  />
<glyph unicode="&#x44C;" horiz-adv-x="1118" d="M406 1059V694H685Q858 694 965 604T1073 348Q1073 181 965 91T684 0H115V1059H406ZM620 201Q699 201 740 236T782 348Q782 425 736 461T618 498H406V201H620Z"  />
<glyph unicode="&#x44D;" horiz-adv-x="1176" d="M565 1087Q814 1087 956 935T1098 521Q1098 274 946 123T549 -29Q347 -29 211 73T49 362H332Q345 276 405 233T555 190Q658 190 726 258T807 459H457V643H799Q789 747 727 807T565 868Q483 868 426 829T346 713H57Q97 894 227 990T565 1087Z"  />
<glyph unicode="&#x44E;" horiz-adv-x="1712" d="M1120 1087Q1355 1087 1494 935T1634 528Q1634 271 1493 121T1120 -29Q909 -29 772 96T612 451H410V0H119V1059H410V651H618Q653 857 784 972T1120 1087ZM895 528Q895 363 954 275T1120 186Q1225 186 1284 273T1343 530Q1343 693 1285 782T1118 872Q1013 872 954 787T895 528Z"  />
<glyph unicode="&#x44F;" horiz-adv-x="1169" d="M1055 1059V0H764V391H633L330 0H-16L334 416Q208 444 137 525T66 725Q66 868 172 963T445 1059H1055ZM350 723Q350 661 395 631T509 600H764V850H508Q441 850 396 820T350 723Z"  />
<glyph unicode="&#x450;" horiz-adv-x="1176" d="M600 1087Q835 1087 975 926T1116 513L1114 459H350Q356 322 421 256T609 190Q688 190 755 230T840 328H1096Q1037 148 914 60T600 -29Q355 -29 207 126T59 528Q59 765 210 926T600 1087ZM350 643H823Q802 760 748 814T590 868Q484 868 422 808T350 643ZM529 1497L726 1206H523L208 1497H529Z"  />
<glyph unicode="&#x451;" horiz-adv-x="1176" d="M600 1087Q835 1087 975 926T1116 513L1114 459H350Q356 322 421 256T609 190Q688 190 755 230T840 328H1096Q1037 148 914 60T600 -29Q355 -29 207 126T59 528Q59 765 210 926T600 1087ZM350 643H823Q802 760 748 814T590 868Q484 868 422 808T350 643ZM529 1464V1225H252V1464H529ZM950 1464V1225H674V1464H950Z"  />
<glyph unicode="&#x452;" horiz-adv-x="1214" d="M401 1462V1343H764V1145H401V860H408Q461 947 545 991T738 1036Q925 1036 1014 929T1104 610V215Q1104 -56 955 -221T506 -389V-147Q665 -139 739 -40T813 227V569Q811 807 634 807Q502 807 452 732T401 514V0H111V1145H-70V1343H111V1462H401Z"  />
<glyph unicode="&#x453;" horiz-adv-x="932" d="M913 1059V840H406V0H115V1059H913ZM858 1497L542 1206H340L536 1497H858Z"  />
<glyph unicode="&#x454;" horiz-adv-x="1176" d="M623 1087Q830 1087 963 987T1122 713H834Q813 791 759 829T623 868Q524 868 460 810T377 643H719V459H369Q380 326 446 258T616 190Q702 190 758 232T840 362H1122Q1083 170 950 71T618 -29Q377 -29 228 121T78 520Q78 773 225 930T623 1087Z"  />
<glyph unicode="&#x455;" horiz-adv-x="1100" d="M545 1087Q761 1087 878 1002T1012 750H735Q729 825 679 859T536 893Q452 893 414 868T375 795Q375 746 425 715T629 654Q873 607 956 533T1040 339Q1040 159 909 65T557 -29Q337 -29 203 64T59 344H336Q336 260 399 213T559 166Q644 166 697 202T750 301Q750 356 681 391T428 464Q246 500 165 567T84 748Q84 916 203 1001T545 1087Z"  />
<glyph unicode="&#x456;" horiz-adv-x="528" d="M410 1462V1223H119V1462H410ZM410 1059V0H119V1059H410Z"  />
<glyph unicode="&#x457;" horiz-adv-x="528" d="M410 1059V0H119V1059H410ZM193 1464V1225H-84V1464H193ZM614 1464V1225H338V1464H614Z"  />
<glyph unicode="&#x458;" horiz-adv-x="569" d="M428 1462V1223H137V1462H428ZM428 1059V-62Q428 -228 345 -300T57 -373Q32 -373 9 -371T-39 -365V-125Q-26 -130 -10 -131T24 -133Q88 -133 112 -109T137 -43V1059H428Z"  />
<glyph unicode="&#x459;" horiz-adv-x="1692" d="M1044 1059V674H1258Q1434 674 1540 585T1647 338Q1647 176 1539 88T1258 0H754V840H514L500 433L495 329Q492 266 469 192T402 68T295 -5T151 -29Q122 -29 81 -23T16 -8V219Q40 213 56 211T93 209Q158 209 187 255T217 419L236 1059H1044ZM1205 207Q1279 207 1318 237T1358 336Q1358 404 1317 436T1202 469H1044V207H1205Z"  />
<glyph unicode="&#x45A;" horiz-adv-x="1692" d="M406 1059V674H754V1059H1044V674H1258Q1434 674 1540 585T1647 338Q1647 175 1538 88T1258 0H754V469H406V0H115V1059H406ZM1205 207Q1279 207 1318 237T1358 336Q1358 404 1317 436T1202 469H1044V207H1205Z"  />
<glyph unicode="&#x45B;" horiz-adv-x="1214" d="M401 1462V1343H764V1145H401V860H408Q461 947 545 991T738 1036Q925 1036 1014 929T1104 610V0H813V556Q813 678 771 742T627 807Q503 807 452 732T401 514V0H111V1145H-70V1343H111V1462H401Z"  />
<glyph unicode="&#x45C;" horiz-adv-x="1161" d="M401 1059V635L778 1059H1122L717 635L1169 0H817L520 434L401 319V0H111V1059H401ZM936 1497L620 1206H418L614 1497H936Z"  />
<glyph unicode="&#x45D;" horiz-adv-x="1214" d="M393 1059V358L776 1059H1100V0H821V700L438 0H115V1059H393ZM535 1497L732 1206H529L214 1497H535Z"  />
<glyph unicode="&#x45E;" horiz-adv-x="1063" d="M299 1059L539 334H543L774 1059H1075L625 -153Q585 -259 502 -316T287 -373Q224 -373 181 -370T91 -362V-123Q144 -129 178 -131T243 -133Q305 -133 339 -95T373 0Q373 15 371 29T360 66L-13 1059H299ZM334 1497Q345 1432 401 1396T538 1360Q631 1360 687 1393T762 1497H891Q874 1356 782 1281T527 1206Q380 1206 297 1280T201 1497H334Z"  />
<glyph unicode="&#x45F;" horiz-adv-x="1214" d="M406 1059V219H809V1059H1100V0H750V-311H467V0H115V1059H406Z"  />
<glyph unicode="&#x462;" horiz-adv-x="1528" d="M618 1462V1311H997V1085H618V893H950Q1180 893 1324 781T1468 446Q1468 227 1322 114T932 0H297V1085H27V1311H297V1462H618ZM922 270Q1036 270 1096 310T1157 446Q1157 540 1094 583T919 627H618V270H922Z"  />
<glyph unicode="&#x463;" horiz-adv-x="1257" d="M545 1462V1059H944V840H545V674H824Q998 674 1105 587T1212 338Q1212 179 1105 90T823 0H254V840H20V1059H254V1462H545ZM771 207Q844 207 884 236T924 336Q924 404 882 436T768 469H545V207H771Z"  />
<glyph unicode="&#x472;" horiz-adv-x="1593" d="M797 1497Q1125 1497 1320 1279T1516 725Q1516 398 1319 182T797 -35Q476 -35 277 179T78 725Q78 1063 274 1280T797 1497ZM1182 879Q1150 1050 1051 1138T795 1227Q639 1227 538 1134T412 879H1182ZM797 236Q966 236 1068 340T1190 629H403Q422 444 525 340T797 236Z"  />
<glyph unicode="&#x473;" horiz-adv-x="1251" d="M625 1087Q874 1087 1024 934T1174 528Q1174 275 1023 123T625 -29Q379 -29 229 124T78 528Q78 779 226 933T625 1087ZM877 637Q861 745 796 806T623 868Q521 868 455 806T373 637H877ZM625 190Q733 190 801 258T883 453H369Q378 332 445 261T625 190Z"  />
<glyph unicode="&#x474;" horiz-adv-x="1339" d="M1211 1497Q1243 1497 1277 1494T1358 1481V1214Q1343 1219 1314 1223T1270 1227Q1231 1227 1207 1207T1167 1137L821 0H459L-16 1462H315L641 434H645L879 1241Q922 1386 1000 1441T1211 1497Z"  />
<glyph unicode="&#x475;" horiz-adv-x="1114" d="M987 1087Q1033 1087 1061 1082T1110 1071V858Q1089 863 1071 865T1035 868Q1003 868 980 850T942 787L696 0H373L10 1059H315L539 336H543L698 882Q725 973 793 1030T987 1087Z"  />
<glyph unicode="&#x490;" horiz-adv-x="1169" d="M1126 1784V1192H463V0H141V1462H817V1784H1126Z"  />
<glyph unicode="&#x491;" horiz-adv-x="932" d="M905 1348V840H406V0H115V1059H631V1348H905Z"  />
<glyph unicode="&#x1E80;" horiz-adv-x="1933" d="M328 1462L559 467H563L817 1462H1118L1368 455H1372L1612 1462H1927L1534 0H1214L967 995H963L719 0H393L6 1462H328ZM910 1886L1107 1595H904L589 1886H910Z"  />
<glyph unicode="&#x1E81;" horiz-adv-x="1667" d="M319 1059L514 340H518L694 1059H977L1157 342H1161L1356 1059H1655L1320 0H1022L834 711H829L649 0H348L12 1059H319ZM775 1497L972 1206H769L454 1497H775Z"  />
<glyph unicode="&#x1E82;" horiz-adv-x="1933" d="M328 1462L559 467H563L817 1462H1118L1368 455H1372L1612 1462H1927L1534 0H1214L967 995H963L719 0H393L6 1462H328ZM1348 1886L1032 1595H830L1026 1886H1348Z"  />
<glyph unicode="&#x1E83;" horiz-adv-x="1667" d="M319 1059L514 340H518L694 1059H977L1157 342H1161L1356 1059H1655L1320 0H1022L834 711H829L649 0H348L12 1059H319ZM1217 1497L901 1206H699L895 1497H1217Z"  />
<glyph unicode="&#x1E84;" horiz-adv-x="1933" d="M328 1462L559 467H563L817 1462H1118L1368 455H1372L1612 1462H1927L1534 0H1214L967 995H963L719 0H393L6 1462H328ZM898 1853V1614H621V1853H898ZM1319 1853V1614H1043V1853H1319Z"  />
<glyph unicode="&#x1E85;" horiz-adv-x="1667" d="M319 1059L514 340H518L694 1059H977L1157 342H1161L1356 1059H1655L1320 0H1022L834 711H829L649 0H348L12 1059H319ZM764 1464V1225H487V1464H764ZM1185 1464V1225H909V1464H1185Z"  />
<glyph unicode="&#x1EF2;" horiz-adv-x="1366" d="M344 1462L686 885L1026 1462H1384L842 561V0H520V569L-18 1462H344ZM609 1886L806 1595H603L288 1886H609Z"  />
<glyph unicode="&#x1EF3;" horiz-adv-x="1063" d="M299 1059L539 334H543L774 1059H1075L625 -153Q585 -259 502 -316T287 -373Q224 -373 181 -370T91 -362V-123Q144 -129 178 -131T243 -133Q305 -133 339 -95T373 0Q373 15 371 29T360 66L-13 1059H299ZM470 1497L667 1206H464L149 1497H470Z"  />
<glyph unicode="&#x2010;" horiz-adv-x="834" d="M725 684V434H109V684H725Z"  />
<glyph unicode="&#x2013;" horiz-adv-x="1024" d="M1024 684V434H0V684H1024Z"  />
<glyph unicode="&#x2014;" horiz-adv-x="2048" d="M1782 684V434H266V684H1782Z"  />
<glyph unicode="&#x2015;" horiz-adv-x="2048" d="M1905 684V434H143V684H1905Z"  />
<glyph unicode="&#x2018;" horiz-adv-x="569" d="M429 1327Q358 1302 326 1254T294 1125V1120H429V805H138V1127Q138 1258 220 1352T429 1462V1327Z"  />
<glyph unicode="&#x2019;" horiz-adv-x="569" d="M430 1462V1140Q430 1009 348 916T139 805V940Q213 965 243 1014T274 1142V1147H139V1462H430Z"  />
<glyph unicode="&#x201A;" horiz-adv-x="569" d="M430 315V-7Q430 -136 350 -229T139 -342V-207Q210 -183 242 -135T274 -5V0H139V315H430Z"  />
<glyph unicode="&#x201C;" horiz-adv-x="948" d="M399 1327Q329 1303 297 1255T264 1120H399V805H109V1133Q109 1257 189 1350T399 1462V1327ZM836 1327Q762 1303 731 1252T700 1120H836V805H545V1132Q545 1256 625 1350T836 1462V1327Z"  />
<glyph unicode="&#x201D;" horiz-adv-x="948" d="M401 1462V1130Q401 1012 322 918T111 805V940Q181 964 213 1012T246 1147H111V1462H401ZM838 1462V1140Q838 1012 758 918T547 805V940Q617 964 649 1012T682 1147H547V1462H838Z"  />
<glyph unicode="&#x201E;" horiz-adv-x="948" d="M401 315V-17Q401 -134 323 -227T111 -342V-207Q177 -185 211 -138T246 0H111V315H401ZM838 315V-7Q838 -133 760 -227T547 -342V-207Q613 -185 647 -138T682 0H547V315H838Z"  />
<glyph unicode="&#x2020;" horiz-adv-x="1139" d="M707 1462V1059H1090V819H707V-340H430V819H49V1059H430V1462H707Z"  />
<glyph unicode="&#x2021;" horiz-adv-x="1139" d="M707 1462V1059H1090V819H707V295H1090V55H707V-340H430V55H49V295H430V819H49V1059H430V1462H707Z"  />
<glyph unicode="&#x2022;" horiz-adv-x="1026" d="M512 1096Q663 1096 771 988T879 731Q879 583 773 474T512 365Q358 365 253 474T147 731Q147 879 253 987T512 1096Z"  />
<glyph unicode="&#x2026;" horiz-adv-x="2048" d="M502 315V0H180V315H502ZM1184 315V0H862V315H1184ZM1866 315V0H1544V315H1866Z"  />
<glyph unicode="&#x2030;" horiz-adv-x="2349" d="M1329 1479L485 -45H307L1155 1479H1329ZM1202 676Q1350 676 1424 584T1499 317Q1499 154 1422 63T1200 -29Q1062 -29 982 65T901 317Q901 480 979 578T1202 676ZM1085 317Q1085 214 1113 159T1200 104Q1256 104 1285 142T1315 317Q1315 407 1307 449T1275 517T1203 543Q1143 543 1114 501T1085 317ZM1911 676Q2059 676 2133 584T2208 317Q2208 154 2131 63T1909 -29Q1771 -29 1691 65T1610 317Q1610 480 1688 578T1911 676ZM1794 317Q1794 214 1822 159T1909 104Q1965 104 1994 142T2024 317Q2024 407 2016 449T1984 517T1912 543Q1852 543 1823 501T1794 317ZM442 1462Q590 1462 664 1370T739 1103Q739 940 662 849T440 757Q302 757 222 851T141 1103Q141 1266 219 1364T442 1462ZM325 1103Q325 1000 353 945T440 890Q496 890 525 928T555 1103Q555 1193 547 1235T515 1303T443 1329Q383 1329 354 1287T325 1103Z"  />
<glyph unicode="&#x2039;" horiz-adv-x="494" d="M408 948V702L223 557L408 410V164L86 420V696L408 948Z"  />
<glyph unicode="&#x203A;" horiz-adv-x="494" d="M408 696V420L86 164V410L270 557L86 702V948L408 696Z"  />
<glyph unicode="&#x203D;" horiz-adv-x="1139" d="M688 1462V1341Q875 1321 974 1229T1073 993Q1073 905 1033 830T864 649Q788 586 758 538T725 438H471L424 1056V1118Q376 1098 352 1057T328 956H68Q72 1114 164 1209T424 1333V1462H688ZM688 1069L639 735Q747 830 765 881T784 977Q784 1033 761 1069T688 1124V1069ZM764 315V0H442V315H764Z"  />
<glyph unicode="&#x2044;" horiz-adv-x="342" d="M682 1479L-162 -45H-340L508 1479H682Z"  />
<glyph unicode="&#x2070;" horiz-adv-x="799" d="M399 1698Q568 1698 653 1587T739 1251Q739 1024 653 910T399 795Q227 795 143 908T59 1243Q59 1467 145 1582T399 1698ZM264 1243Q264 1086 293 1019T399 952Q476 952 505 1025T535 1251Q535 1404 506 1472T398 1540Q319 1540 292 1464T264 1243Z"  />
<glyph unicode="&#x2074;" horiz-adv-x="799" d="M629 1679V1139H745V983H629V813H432V983H47V1155L442 1679H629ZM201 1139H432V1454L201 1139Z"  />
<glyph unicode="&#x2075;" horiz-adv-x="799" d="M686 1679V1522H315L283 1346Q312 1372 354 1386T451 1401Q576 1401 651 1323T727 1116Q727 975 634 885T385 795Q248 795 161 863T66 1051H258Q269 1006 304 981T391 956Q454 956 493 997T532 1112Q532 1185 498 1223T397 1262Q361 1262 330 1246T276 1198H86L162 1679H686Z"  />
<glyph unicode="&#x2076;" horiz-adv-x="799" d="M424 1698Q551 1698 624 1643T715 1479H520Q512 1514 486 1531T420 1548Q347 1548 307 1489T262 1309Q301 1354 351 1373T467 1393Q585 1393 660 1317T735 1108Q735 970 645 883T416 795Q245 795 156 902T66 1223Q66 1452 159 1575T424 1698ZM266 1098Q266 1031 304 991T406 950Q470 950 506 989T543 1096Q543 1169 508 1210T406 1251Q340 1251 303 1210T266 1098Z"  />
<glyph unicode="&#x2077;" horiz-adv-x="799" d="M705 1679V1522Q587 1417 514 1228T434 813H209Q222 1005 291 1177T498 1513H90V1679H705Z"  />
<glyph unicode="&#x2078;" horiz-adv-x="799" d="M399 1698Q544 1698 624 1634T705 1466Q705 1403 667 1353T562 1282Q650 1259 695 1204T741 1065Q741 944 645 870T400 795Q239 795 148 866T57 1063Q57 1140 104 1198T238 1276Q170 1297 132 1344T94 1458Q94 1563 179 1630T399 1698ZM279 1446Q279 1397 313 1369T399 1341Q455 1341 486 1369T518 1446Q518 1495 488 1524T398 1554Q344 1554 312 1527T279 1446ZM252 1073Q252 1012 292 978T401 944Q469 944 507 977T545 1073Q545 1128 507 1166T398 1204Q333 1204 293 1171T252 1073Z"  />
<glyph unicode="&#x2079;" horiz-adv-x="799" d="M383 1698Q554 1698 643 1591T733 1270Q733 1035 643 915T379 795Q245 795 172 851T84 1014H279Q287 981 314 963T383 944Q459 944 497 1003T536 1186Q501 1147 454 1127T336 1106Q213 1106 138 1183T63 1386Q63 1525 154 1611T383 1698ZM256 1399Q256 1329 291 1287T391 1245Q455 1245 493 1284T532 1397Q532 1463 494 1503T392 1544Q331 1544 294 1506T256 1399Z"  />
<glyph unicode="&#x207A;" horiz-adv-x="819" d="M498 1452V1212H735V1055H498V813H322V1055H84V1212H322V1452H498Z"  />
<glyph unicode="&#x207B;" horiz-adv-x="553" d="M473 1237V1065H80V1237H473Z"  />
<glyph unicode="&#x207C;" horiz-adv-x="819" d="M735 1346V1188H84V1346H735ZM735 1073V915H84V1073H735Z"  />
<glyph unicode="&#x207D;" horiz-adv-x="461" d="M420 1794Q361 1687 325 1543T289 1227Q289 1075 321 931T420 651H250Q165 773 121 916T76 1214Q76 1373 123 1529T250 1794H420Z"  />
<glyph unicode="&#x207E;" horiz-adv-x="461" d="M211 1794Q295 1673 340 1530T385 1231Q385 1074 339 919T211 651H41Q104 769 138 910T172 1219Q172 1371 140 1514T41 1794H211Z"  />
<glyph unicode="&#x207F;" horiz-adv-x="799" d="M496 1485Q606 1485 661 1417T717 1232V813H508V1191Q508 1253 486 1289T412 1325Q354 1325 323 1282T291 1175V813H82V1466H281V1370Q312 1423 365 1454T496 1485Z"  />
<glyph unicode="&#x2080;" horiz-adv-x="799" d="M399 539Q568 539 653 428T739 92Q739 -135 653 -249T399 -364Q227 -364 143 -251T59 84Q59 308 145 423T399 539ZM264 84Q264 -73 293 -140T399 -207Q476 -207 505 -134T535 92Q535 245 506 313T398 381Q319 381 292 305T264 84Z"  />
<glyph unicode="&#x2081;" horiz-adv-x="799" d="M551 521V-345H342V204H117V351H137Q264 351 315 394T379 521H551Z"  />
<glyph unicode="&#x2082;" horiz-adv-x="799" d="M420 540Q565 540 648 471T731 280Q731 198 689 139T565 27T398 -76Q313 -128 303 -181H725V-345H68V-339Q68 -201 112 -117T264 34L422 132Q475 165 499 198T524 279Q524 324 496 353T418 382Q354 382 323 344T287 226H82Q82 372 173 456T420 540Z"  />
<glyph unicode="&#x2083;" horiz-adv-x="799" d="M407 539Q543 539 624 476T706 307Q706 245 671 198T571 127Q650 112 695 57T740 -90Q740 -209 642 -286T392 -364Q237 -364 147 -289T56 -80H253Q261 -139 296 -171T398 -203Q465 -203 506 -170T548 -81Q548 -19 512 11T378 41H333V182H388Q446 182 481 209T517 283Q517 331 485 357T398 383Q334 383 303 350T271 248H77Q84 389 172 464T407 539Z"  />
<glyph unicode="&#x2084;" horiz-adv-x="799" d="M629 521V-19H745V-175H629V-345H432V-175H47V-3L442 521H629ZM201 -19H432V296L201 -19Z"  />
<glyph unicode="&#x2085;" horiz-adv-x="799" d="M686 520V363H315L283 187Q312 213 354 227T451 242Q576 242 651 164T727 -43Q727 -184 634 -274T385 -364Q248 -364 161 -296T66 -108H258Q269 -153 304 -178T391 -203Q454 -203 493 -162T532 -47Q532 26 498 64T397 103Q361 103 330 87T276 39H86L162 520H686Z"  />
<glyph unicode="&#x2086;" horiz-adv-x="799" d="M424 539Q551 539 624 484T715 320H520Q512 355 486 372T420 389Q347 389 307 330T262 150Q301 195 351 214T467 234Q585 234 660 158T735 -51Q735 -189 645 -276T416 -364Q245 -364 156 -257T66 64Q66 293 159 416T424 539ZM266 -61Q266 -128 304 -168T406 -209Q470 -209 506 -170T543 -63Q543 10 508 51T406 92Q340 92 303 51T266 -61Z"  />
<glyph unicode="&#x2087;" horiz-adv-x="799" d="M705 521V364Q587 259 514 70T434 -345H209Q222 -153 291 19T498 355H90V521H705Z"  />
<glyph unicode="&#x2088;" horiz-adv-x="799" d="M399 539Q544 539 624 475T705 307Q705 244 667 194T562 123Q650 100 695 45T741 -94Q741 -215 645 -289T400 -364Q239 -364 148 -293T57 -96Q57 -19 104 39T238 117Q170 138 132 185T94 299Q94 404 179 471T399 539ZM279 287Q279 238 313 210T399 182Q455 182 486 210T518 287Q518 336 488 365T398 395Q344 395 312 368T279 287ZM252 -86Q252 -147 292 -181T401 -215Q469 -215 507 -182T545 -86Q545 -31 507 7T398 45Q333 45 293 12T252 -86Z"  />
<glyph unicode="&#x2089;" horiz-adv-x="799" d="M383 539Q554 539 643 432T733 111Q733 -124 643 -244T379 -364Q245 -364 172 -308T84 -145H279Q287 -178 314 -196T383 -215Q459 -215 497 -156T536 27Q501 -12 454 -32T336 -53Q213 -53 138 24T63 227Q63 366 154 452T383 539ZM256 240Q256 170 291 128T391 86Q455 86 493 125T532 238Q532 304 494 344T392 385Q331 385 294 347T256 240Z"  />
<glyph unicode="&#x208A;" horiz-adv-x="819" d="M498 294V54H735V-103H498V-345H322V-103H84V54H322V294H498Z"  />
<glyph unicode="&#x208B;" horiz-adv-x="553" d="M473 79V-93H80V79H473Z"  />
<glyph unicode="&#x208C;" horiz-adv-x="819" d="M735 188V30H84V188H735ZM735 -85V-243H84V-85H735Z"  />
<glyph unicode="&#x208D;" horiz-adv-x="461" d="M420 636Q361 529 325 385T289 69Q289 -83 321 -227T420 -507H250Q165 -385 121 -242T76 56Q76 215 123 371T250 636H420Z"  />
<glyph unicode="&#x208E;" horiz-adv-x="461" d="M211 636Q295 515 340 372T385 73Q385 -84 339 -239T211 -507H41Q104 -389 138 -248T172 61Q172 213 140 356T41 636H211Z"  />
<glyph unicode="&#x20AC;" horiz-adv-x="1139" d="M807 1479Q894 1479 987 1453T1180 1376L1055 1120Q981 1166 915 1189T786 1212Q679 1212 607 1142T500 932H999L936 784H476V698H911L848 551H492Q524 390 600 309T795 227Q870 227 949 259T1110 356L1108 47Q1040 6 960 -14T793 -35Q544 -35 390 120T190 551H33L96 698H178V755Q178 775 180 784H31L94 932H199Q248 1183 409 1331T807 1479Z"  />
<glyph unicode="&#x2105;" horiz-adv-x="1708" d="M1364 1479L520 -45H342L1190 1479H1364ZM424 1462Q565 1462 642 1390T727 1180H522Q514 1245 488 1274T416 1303Q347 1303 319 1235T291 1007Q291 860 321 790T416 719Q464 719 493 754T528 862H729Q712 716 631 638T418 559Q251 559 166 670T80 1004Q80 1234 166 1348T424 1462ZM1307 874Q1480 874 1563 760T1647 428Q1647 199 1559 85T1307 -29Q1137 -29 1052 83T967 420Q967 645 1053 759T1307 874ZM1171 420Q1171 268 1199 199T1307 129Q1384 129 1413 203T1442 428Q1442 582 1414 649T1306 717Q1228 717 1200 642T1171 420Z"  />
<glyph unicode="&#x2113;" horiz-adv-x="1024" d="M612 1477Q752 1477 837 1393T922 1169Q922 1018 828 867T528 543V311Q529 251 562 215T653 178Q692 178 737 197T834 256H838L934 109Q848 37 762 4T582 -29Q472 -29 395 13T282 122T246 282V356L133 258H129L29 412L244 588V1072Q244 1247 351 1362T612 1477ZM528 782Q610 870 650 962T690 1153Q690 1212 668 1250T610 1288Q576 1288 552 1243T528 1134V782Z"  />
<glyph unicode="&#x2116;" horiz-adv-x="2142" d="M457 1434L981 481V1434H1272V0H963L434 954V0H141V1434H457ZM1729 926Q1875 926 1967 837T2060 596Q2060 445 1969 355T1726 264Q1575 264 1483 355T1391 596Q1391 747 1485 836T1729 926ZM1593 596Q1593 510 1627 463T1726 416Q1789 416 1824 464T1860 596Q1860 679 1824 726T1723 774Q1667 774 1630 729T1593 596ZM2046 201V0H1430V201H2046Z"  />
<glyph unicode="&#x2117;" horiz-adv-x="1638" d="M819 1497Q1148 1497 1377 1281T1606 733Q1606 402 1376 184T819 -35Q494 -35 264 182T33 733Q33 1066 263 1281T819 1497ZM242 733Q242 476 408 303T819 129Q1062 129 1229 303T1397 733Q1397 987 1232 1160T817 1333Q575 1333 409 1161T242 733ZM873 1163Q1024 1163 1108 1098T1192 897Q1192 773 1111 702T902 631H707V305H532V1163H873ZM879 764Q941 764 981 798T1022 897Q1022 959 983 994T877 1030H707V764H879Z"  />
<glyph unicode="&#x2122;" horiz-adv-x="2048" d="M815 1462V1298H575V618H367V1298H127V1462H815ZM1202 1462L1413 907L1624 1462H1901V618H1704V1217H1700L1483 618H1341L1124 1217H1120V618H924V1462H1202Z"  />
<glyph unicode="&#x2126;" horiz-adv-x="1585" d="M793 1497Q1110 1497 1308 1305T1507 805Q1507 639 1434 502T1221 272V262H1509V0H885V242Q1046 352 1116 479T1186 786Q1186 997 1080 1112T793 1227Q612 1227 506 1111T399 786Q399 620 464 494T698 242V0H72V262H352V272Q222 354 150 491T78 805Q78 1100 281 1298T793 1497Z"  />
<glyph unicode="&#x212E;" horiz-adv-x="1577" d="M786 1462Q1092 1462 1287 1257T1487 715H395V227Q477 147 573 108T786 68Q961 68 1086 148T1309 393L1403 336Q1273 135 1133 53T787 -29Q481 -29 286 183T90 715Q90 1039 285 1250T786 1462ZM395 815H1182V1206Q1099 1284 1000 1326T782 1368Q675 1368 578 1329T395 1206V815Z"  />
<glyph unicode="&#x2153;" horiz-adv-x="1708" d="M1288 1479L444 -45H266L1114 1479H1288ZM506 1440V573H297V1122H72V1270H99Q187 1270 228 1288T296 1341T334 1440H506ZM1323 885Q1458 885 1540 823T1622 653Q1622 591 1586 543T1488 473Q1567 458 1612 403T1657 256Q1657 137 1559 60T1309 -18Q1151 -18 1063 58T973 266H1169Q1179 201 1215 172T1315 143Q1380 143 1422 175T1464 265Q1464 330 1427 358T1294 387H1249V528H1278Q1342 528 1366 537T1412 569T1434 629Q1434 674 1402 701T1315 729Q1249 729 1219 695T1188 594H993Q1001 734 1088 809T1323 885Z"  />
<glyph unicode="&#x2154;" horiz-adv-x="1708" d="M1391 1479L547 -45H369L1217 1479H1391ZM391 1458Q540 1458 621 1388T702 1198Q702 1119 664 1062T542 950T372 843Q285 790 274 737H682V573H39Q41 676 55 729T105 837T238 953L391 1050Q462 1094 479 1128T496 1198Q496 1240 467 1270T389 1300Q323 1300 292 1260T258 1145H53Q55 1292 146 1375T391 1458ZM1352 885Q1489 885 1570 822T1651 653Q1651 592 1616 545T1517 473Q1597 457 1641 401T1686 256Q1686 139 1590 61T1337 -18Q1179 -18 1090 59T1001 266H1198Q1208 201 1244 172T1343 143Q1410 143 1451 176T1493 265Q1493 327 1457 357T1323 387H1278V528H1306Q1370 528 1395 537T1441 569T1462 629Q1462 676 1430 702T1343 729Q1278 729 1248 695T1217 594H1022Q1031 737 1119 811T1352 885Z"  />
<glyph unicode="&#x215B;" horiz-adv-x="1708" d="M1288 1479L444 -45H266L1114 1479H1288ZM506 1440V573H297V1122H72V1270H99Q187 1270 228 1288T296 1341T334 1440H506ZM1315 885Q1455 885 1537 823T1620 653Q1620 588 1583 540T1478 469Q1569 445 1613 388T1657 252Q1657 133 1562 58T1316 -18Q1154 -18 1064 52T973 250Q973 328 1020 385T1153 463Q1081 486 1046 533T1010 645Q1010 750 1095 817T1315 885ZM1194 633Q1194 586 1227 557T1315 528Q1369 528 1401 556T1434 633Q1434 679 1405 710T1314 741Q1259 741 1227 713T1194 633ZM1167 260Q1167 203 1206 167T1317 131Q1386 131 1423 164T1460 260Q1460 320 1420 355T1313 391Q1246 391 1207 355T1167 260Z"  />
<glyph unicode="&#x215C;" horiz-adv-x="1708" d="M1372 1479L528 -45H350L1198 1479H1372ZM395 1458Q532 1458 613 1396T694 1227Q694 1165 660 1118T559 1047Q643 1030 686 975T729 829Q729 709 631 632T381 555Q222 555 135 630T45 840H242Q251 775 287 746T387 717Q457 717 497 750T537 839Q537 899 502 930T366 961H322V1102H376Q440 1102 473 1130T506 1202Q506 1249 475 1276T387 1303Q326 1303 293 1271T260 1167H66Q73 1307 160 1382T395 1458ZM1325 885Q1465 885 1547 823T1630 653Q1630 587 1592 538T1488 469Q1576 447 1621 391T1667 252Q1667 131 1571 57T1326 -18Q1164 -18 1074 52T983 250Q983 327 1030 384T1163 463Q1091 486 1056 533T1020 645Q1020 750 1105 817T1325 885ZM1204 633Q1204 586 1237 557T1325 528Q1380 528 1412 556T1444 633Q1444 679 1415 710T1324 741Q1269 741 1237 713T1204 633ZM1178 260Q1178 199 1218 165T1327 131Q1394 131 1432 163T1470 260Q1470 317 1431 354T1324 391Q1257 391 1218 356T1178 260Z"  />
<glyph unicode="&#x215D;" horiz-adv-x="1708" d="M1368 1479L524 -45H346L1194 1479H1368ZM686 1440V1282H315L283 1106Q306 1129 350 1145T451 1161Q578 1161 652 1083T727 877Q727 735 635 645T385 555Q250 555 162 623T66 811H258Q269 768 302 743T391 717Q454 717 493 757T532 872Q532 945 498 983T397 1022Q363 1022 332 1008T276 958H86L162 1440H686ZM1325 885Q1465 885 1547 823T1630 653Q1630 587 1592 538T1488 469Q1576 447 1621 391T1667 252Q1667 131 1571 57T1326 -18Q1164 -18 1074 52T983 250Q983 327 1030 384T1163 463Q1091 486 1056 533T1020 645Q1020 750 1105 817T1325 885ZM1204 633Q1204 586 1237 557T1325 528Q1380 528 1412 556T1444 633Q1444 679 1415 710T1324 741Q1269 741 1237 713T1204 633ZM1178 260Q1178 199 1218 165T1327 131Q1394 131 1432 163T1470 260Q1470 317 1431 354T1324 391Q1257 391 1218 356T1178 260Z"  />
<glyph unicode="&#x215E;" horiz-adv-x="1708" d="M1268 1479L424 -45H246L1094 1479H1268ZM723 1440V1282Q596 1167 526 969T453 573H227Q241 770 310 939T516 1274H109V1440H723ZM1294 885Q1433 885 1516 824T1599 653Q1599 587 1561 538T1457 469Q1545 447 1590 391T1636 252Q1636 131 1540 57T1295 -18Q1134 -18 1043 53T952 250Q952 328 999 385T1133 463Q1065 484 1027 531T989 645Q989 750 1074 817T1294 885ZM1174 633Q1174 584 1207 556T1294 528Q1350 528 1381 556T1413 633Q1413 682 1383 711T1293 741Q1239 741 1207 714T1174 633ZM1147 260Q1147 199 1187 165T1296 131Q1364 131 1402 164T1440 260Q1440 316 1401 353T1293 391Q1226 391 1187 356T1147 260Z"  />
<glyph unicode="&#x2202;" horiz-adv-x="1171" d="M518 1477Q789 1477 936 1278T1083 734Q1083 356 947 165T555 -27Q349 -27 218 106T86 449Q86 647 213 777T537 907Q612 907 679 883T811 809V825Q811 1031 738 1150T530 1270Q466 1270 407 1244T283 1161L139 1325Q245 1413 333 1445T518 1477ZM346 434Q346 319 404 246T559 172Q666 172 735 270T809 523V596Q762 649 702 679T578 709Q475 709 411 633T346 434Z"  />
<glyph unicode="&#x2206;" horiz-adv-x="1395" d="M866 1462L1409 0H-14L537 1462H866ZM696 1102L406 270H983L700 1102H696Z"  />
<glyph unicode="&#x220F;" horiz-adv-x="1534" d="M1419 1610V-438H1149V1352H385V-438H113V1610H1419Z"  />
<glyph unicode="&#x2211;" horiz-adv-x="1378" d="M1298 1610V1352H442L981 600L406 -180H1323V-438H55V-213L659 598L80 1384V1610H1298Z"  />
<glyph unicode="&#x2212;" horiz-adv-x="1229" d="M1133 627V408H98V627H1133Z"  />
<glyph unicode="&#x2215;" horiz-adv-x="342" d="M682 1479L-162 -45H-340L508 1479H682Z"  />
<glyph unicode="&#x2219;" horiz-adv-x="569" d="M287 762Q355 762 407 710T459 588Q459 523 408 470T289 416Q219 416 166 465T113 588Q113 659 164 710T287 762Z"  />
<glyph unicode="&#x221A;" horiz-adv-x="1167" d="M1188 1610L742 -432L740 -438H492L190 182L82 129L-18 344L332 504L571 -18L903 1610H1188Z"  />
<glyph unicode="&#x221E;" horiz-adv-x="1737" d="M467 948Q579 948 671 892T868 698Q966 830 1061 889T1270 948Q1438 948 1541 837T1645 551Q1645 370 1541 256T1268 141Q1166 141 1071 195T868 379Q758 247 670 196T475 145Q304 145 198 257T92 549Q92 724 193 836T467 948ZM1006 541Q1071 461 1135 419T1268 377Q1336 377 1378 424T1421 545Q1421 622 1377 668T1261 715Q1208 715 1149 676T1006 541ZM315 545Q315 473 358 426T473 379Q537 379 602 421T729 541Q657 625 592 669T468 713Q401 713 358 664T315 545Z"  />
<glyph unicode="&#x222B;" horiz-adv-x="1286" d="M820 1606Q910 1606 986 1559T1063 1438Q1063 1381 1028 1344T938 1307Q892 1307 864 1335T821 1424Q805 1485 776 1485Q758 1485 748 1467T737 1411L750 1079V79Q750 -189 667 -312T409 -436Q310 -436 234 -385T158 -254Q158 -200 197 -169T287 -137Q332 -137 358 -164T399 -253Q412 -315 440 -315Q458 -315 468 -302T479 -253L467 51V1029Q467 1385 558 1495T820 1606Z"  />
<glyph unicode="&#x2248;" horiz-adv-x="1229" d="M400 891Q441 891 491 878T622 829Q704 793 755 778T844 762Q895 762 926 792T969 889H1141Q1125 720 1045 637T828 553Q735 553 601 618Q467 682 385 682Q334 682 302 654T260 559H88Q102 721 181 806T400 891ZM400 453Q482 453 628 389Q774 324 844 324Q896 324 927 353T969 451H1141Q1126 285 1047 200T828 115Q782 115 731 129T599 180Q518 217 472 230T385 244Q334 244 302 215T260 121H88Q101 280 180 366T400 453Z"  />
<glyph unicode="&#x2260;" horiz-adv-x="1229" d="M1008 1032L905 844H1133V631H780L668 403H1133V190H549L403 -84L225 4L326 190H98V403H453L563 631H98V844H682L829 1120L1008 1032Z"  />
<glyph unicode="&#x2264;" horiz-adv-x="1229" d="M1133 821L404 651L1133 481V250L98 541V762L1133 1053V821ZM1133 219V0H98V219H1133Z"  />
<glyph unicode="&#x2265;" horiz-adv-x="1229" d="M98 1053L1133 762V541L98 250V479L827 649L98 819V1053ZM1133 219V0H98V219H1133Z"  />
<glyph unicode="&#x25CA;" horiz-adv-x="1214" d="M727 1530L1108 729L727 -72H483L106 729L485 1530H727ZM377 729L606 193L836 729L606 1264L377 729Z"  />
<glyph unicode="&#xF001;" horiz-adv-x="1210" d="M528 1462Q558 1462 608 1459T682 1454V1237Q653 1240 627 1241T577 1243Q516 1243 491 1217T465 1108V1059H666V864H465V0H174V864H0V1059H174V1132Q174 1297 269 1379T528 1462ZM1092 1462V1223H801V1462H1092ZM1092 1059V0H801V1059H1092Z"  />
<glyph unicode="&#xF002;" horiz-adv-x="1210" d="M528 1462Q558 1462 608 1459T682 1454V1237Q653 1240 627 1241T577 1243Q516 1243 491 1217T465 1108V1059H666V864H465V0H174V864H0V1059H174V1132Q174 1297 269 1379T528 1462ZM1092 1462V0H801V1462H1092Z"  />
<glyph unicode="&#xF8FF;" horiz-adv-x="1049" d="M1049 1470V0H0V1470H1049ZM946 102V1366H102V102H946ZM530 1247Q640 1247 712 1173T784 979Q784 897 751 844T653 731Q586 671 571 637T555 479H461L457 519Q457 637 490 694T585 808Q619 839 649 878T680 971Q680 1043 634 1094T524 1145Q457 1145 413 1097T356 951L254 967Q268 1104 339 1175T530 1247ZM455 377H569V240H455V377Z"  />
<glyph unicode="&#xFB00;" horiz-adv-x="1303" d="M528 1462Q558 1462 608 1459T682 1454V1237Q653 1240 627 1241T577 1243Q516 1243 491 1216T465 1132V1059H795V1132Q795 1303 891 1382T1149 1462Q1180 1462 1235 1459T1303 1455V1237Q1275 1240 1249 1241T1198 1243Q1134 1243 1110 1214T1085 1132V1059H1286V864H1085V0H795V864H465V0H174V864H0V1059H174V1132Q174 1297 269 1379T528 1462Z"  />
<glyph unicode="&#xFB01;" horiz-adv-x="1210" d="M528 1462Q558 1462 608 1459T682 1454V1237Q653 1240 627 1241T577 1243Q516 1243 491 1217T465 1108V1059H666V864H465V0H174V864H0V1059H174V1132Q174 1297 269 1379T528 1462ZM1092 1462V1223H801V1462H1092ZM1092 1059V0H801V1059H1092Z"  />
<glyph unicode="&#xFB02;" horiz-adv-x="1210" d="M528 1462Q558 1462 608 1459T682 1454V1237Q653 1240 627 1241T577 1243Q516 1243 491 1217T465 1108V1059H666V864H465V0H174V864H0V1059H174V1132Q174 1297 269 1379T528 1462ZM1092 1462V0H801V1462H1092Z"  />
<glyph unicode="&#xFB03;" horiz-adv-x="1831" d="M528 1462Q558 1462 608 1459T682 1454V1237Q653 1240 627 1241T577 1243Q516 1243 491 1216T465 1132V1059H795V1132Q795 1303 891 1382T1149 1462Q1180 1462 1235 1459T1303 1455V1237Q1275 1240 1249 1241T1198 1243Q1134 1243 1110 1214T1085 1132V1059H1286V864H1085V0H795V864H465V0H174V864H0V1059H174V1132Q174 1297 269 1379T528 1462ZM1713 1462V1223H1422V1462H1713ZM1713 1059V0H1422V1059H1713Z"  />
<glyph unicode="&#xFB04;" horiz-adv-x="1831" d="M528 1462Q558 1462 608 1459T682 1454V1237Q653 1240 627 1241T577 1243Q516 1243 491 1216T465 1132V1059H795V1132Q795 1303 891 1382T1149 1462Q1180 1462 1235 1459T1303 1455V1237Q1275 1240 1249 1241T1198 1243Q1134 1243 1110 1214T1085 1132V1059H1286V864H1085V0H795V864H465V0H174V864H0V1059H174V1132Q174 1297 269 1379T528 1462ZM1713 1462V0H1422V1462H1713Z"  />

</font>
</defs>
</svg>
