<?xml  version="1.0" encoding="UTF-8"?>
<!DOCTYPE svg PUBLIC "-//W3C//DTD SVG 1.0//EN" "http://www.w3.org/TR/2001/REC-SVG-20010904/DTD/svg10.dtd" >
<svg xmlns="http://www.w3.org/2000/svg" >
<metadata>
<version>1.0</version>
<id><![CDATA[Helvetica Neue LT W1G 65 Medium]]></id>
<vendor>Monotype Imaging Inc.</vendor>
<credits>
<name>Fonts.com WebFonts</name>
<URL>http://webfonts.fonts.com</URL>
<role>Home of the Web fonts</role>
</credits>
<license>
<URL>http://webfonts.fonts.com/Legal</URL>
</license>
<copyright><![CDATA[Copyright © 2011 Linotype Corp. All rights reserved. This font software may not be reproduced, modified, disclosed or transferred without the express written approval of Linotype Corp.]]></copyright>
<trademark><![CDATA[Helvetica is a trademark of Linotype Corp. registered in the U.S. Patent and Trademark Office and may be registered in certain other jurisdictions in the name of Linotype Corp. or its licensee Linotype GmbH.]]></trademark>
<licensee>
<name></name>
</licensee>
</metadata>
<defs >
<font horiz-adv-x="1155" id="14ec397c-30b0-47a6-8430-1ae5bdccb0c2">
<font-face font-family="" panose-1="2 11 6 4 2 2 2 2 2 4" ascent="1993" descent="-588" units-per-em="2048" alphabetic="0">
</font-face>
<missing-glyph horiz-adv-x="1049" d="M1049 1470V0H0V1470H1049ZM946 102V1366H102V102H946ZM784 979Q784 897 751 844T653 731Q586 671 571 637T555 479H461L457 519Q457 637 490 694T585 808Q619 839 649 878T680 971Q680 1043 634 1094T524 1145Q457 1145 413 1097T356 951L254 967Q268 1104 339 1175T530 1247Q640 1247 712 1173T784 979ZM455 377H569V240H455V377Z"  />

<glyph unicode="&#xA;" />
<glyph unicode="&#xD;" horiz-adv-x="569" />
<glyph unicode=" " horiz-adv-x="569" />
<glyph unicode="!" horiz-adv-x="569" d="M414 1462V1040L346 408H225L158 1040V1462H414ZM422 256V0H147V256H422Z"  />
<glyph unicode="&quot;" horiz-adv-x="909" d="M379 1462V885H170V1462H379ZM739 1462V885H530V1462H739Z"  />
<glyph unicode="#" horiz-adv-x="1139" d="M567 1434L506 1004H733L794 1434H958L897 1004H1073V850H877L840 584H1014V430H819L758 1H594L653 430H428L367 1H203L262 430H70V584H285L322 850H129V1004H342L401 1434H567ZM485 850L449 584H676L713 850H485Z"  />
<glyph unicode="$" horiz-adv-x="1139" d="M528 1657H616V1497Q826 1495 945 1388T1065 1098H832Q826 1209 774 1261T620 1313H616V881Q888 811 995 703T1102 426Q1102 219 975 98T616 -35V-195H528V-35Q289 -26 161 101T33 428V444H266V440Q266 300 331 227T527 150V645Q280 708 172 815T64 1096Q64 1274 193 1384T528 1497V1657ZM297 1113Q297 1033 353 982T528 903V1313H523Q418 1313 358 1265T297 1113ZM616 150Q736 157 802 216T868 392Q868 485 808 540T616 627V150Z"  />
<glyph unicode="%" horiz-adv-x="2048" d="M1485 1483L692 -49H532L1329 1483H1485ZM510 1462Q673 1462 762 1352T852 1055Q852 863 763 755T510 647Q345 647 257 753T168 1055Q168 1242 259 1352T510 1462ZM352 1055Q352 921 392 851T508 780Q585 780 626 852T668 1055Q668 1184 628 1256T507 1329Q431 1329 392 1262T352 1055ZM1538 786Q1702 786 1791 675T1880 379Q1880 187 1792 79T1538 -29Q1374 -29 1285 79T1196 379Q1196 564 1285 675T1538 786ZM1380 379Q1380 245 1420 175T1536 104Q1613 104 1654 176T1696 379Q1696 508 1656 580T1535 653Q1461 653 1421 588T1380 379Z"  />
<glyph unicode="&amp;" horiz-adv-x="1327" d="M612 1497Q770 1497 873 1403T977 1147Q977 1037 911 943T714 776L940 502Q960 558 969 601T985 698H1190Q1174 573 1145 488T1075 340L1356 0H1069L937 162H935Q854 64 755 18T526 -29Q319 -29 193 89T66 405Q66 535 150 638T401 829Q307 950 281 1015T254 1149Q254 1298 354 1397T612 1497ZM463 1161Q463 1118 485 1071T596 918Q688 976 728 1031T768 1155Q768 1229 727 1276T617 1323Q551 1323 507 1278T463 1161ZM299 401Q299 289 362 223T535 156Q625 156 689 194T811 319L524 676Q372 594 336 537T299 401Z"  />
<glyph unicode="&apos;" horiz-adv-x="569" d="M389 1462V885H180V1462H389Z"  />
<glyph unicode="(" horiz-adv-x="569" d="M586 1497Q461 1275 398 1042T334 553Q334 290 396 57T586 -391H395Q231 -124 166 95T100 552Q100 787 173 1026T395 1497H586Z"  />
<glyph unicode=")" horiz-adv-x="569" d="M174 1497Q325 1259 397 1030T469 552Q469 309 394 69T174 -391H-16Q112 -161 174 71T236 551Q236 807 174 1042T-16 1497H174Z"  />
<glyph unicode="*" horiz-adv-x="758" d="M449 1462V1217L672 1305L721 1171L487 1094L631 901L522 821L377 1022L238 821L123 901L266 1094L39 1171L84 1305L309 1217V1462H449Z"  />
<glyph unicode="+" horiz-adv-x="1229" d="M719 1036V623H1130V414H719V0H510V414H98V623H510V1036H719Z"  />
<glyph unicode="&#x2c;" horiz-adv-x="569" d="M426 276V9Q426 -116 357 -204T150 -324V-199Q210 -182 246 -131T283 0H141V276H426Z"  />
<glyph unicode="-" horiz-adv-x="797" d="M696 668V446H100V668H696Z"  />
<glyph unicode="." horiz-adv-x="569" d="M426 276V0H141V276H426Z"  />
<glyph unicode="/" horiz-adv-x="721" d="M766 1497L178 -35H-45L543 1497H766Z"  />
<glyph unicode="0" horiz-adv-x="1139" d="M569 1462Q816 1462 940 1268T1065 717Q1065 360 939 166T569 -29Q327 -29 201 165T74 717Q74 1072 199 1267T569 1462ZM307 717Q307 435 373 301T569 166Q700 166 765 300T831 717Q831 998 764 1133T568 1268Q439 1268 373 1129T307 717Z"  />
<glyph unicode="1" horiz-adv-x="1139" d="M717 1434V0H461V1012H109V1196Q290 1196 398 1259T526 1434H717Z"  />
<glyph unicode="2" horiz-adv-x="1139" d="M600 1462Q821 1462 941 1333T1061 1022Q1061 874 972 750T649 479Q496 383 437 324T360 209H1059V0H80Q80 166 160 302T407 551Q519 627 624 703T778 856T827 1016Q827 1135 764 1201T586 1268Q468 1268 408 1183T340 909H106Q110 1170 243 1316T600 1462Z"  />
<glyph unicode="3" horiz-adv-x="1139" d="M565 1462Q754 1462 886 1357T1018 1079Q1018 966 968 888T815 772V768Q940 741 1007 645T1075 410Q1075 217 928 94T567 -29Q338 -29 205 96T63 471H297V452Q297 327 368 247T567 166Q688 166 765 235T842 422Q842 547 763 606T502 666H467V840H490Q626 840 705 897T784 1065Q784 1159 721 1213T561 1268Q455 1268 390 1189T324 993V975H90Q101 1200 232 1331T565 1462Z"  />
<glyph unicode="4" horiz-adv-x="1139" d="M885 1434V524H1069V340H885V0H664V340H49V571L664 1434H885ZM659 1155L229 524H664V1155H659Z"  />
<glyph unicode="5" horiz-adv-x="1139" d="M993 1434V1225H426L352 860L356 856Q405 910 477 937T622 965Q825 965 947 833T1069 486Q1069 274 935 123T573 -29Q355 -29 217 87T72 408H305Q316 290 386 228T569 166Q700 166 768 247T836 480Q836 611 765 695T563 780Q471 780 413 745T332 649H98L252 1434H993Z"  />
<glyph unicode="6" horiz-adv-x="1139" d="M610 1462Q782 1462 907 1354T1042 1071H809Q799 1167 743 1217T600 1268Q472 1268 398 1162T303 776L307 772Q351 852 432 897T617 942Q821 942 945 808T1069 461Q1069 246 934 109T591 -29Q331 -29 201 147T70 719Q70 1048 212 1255T610 1462ZM326 465Q326 332 398 249T584 166Q700 166 768 251T836 465Q836 590 769 674T582 758Q470 758 398 678T326 465Z"  />
<glyph unicode="7" horiz-adv-x="1139" d="M1053 1434V1239Q812 970 679 667T518 2V0H262Q286 324 432 640T815 1225H72V1434H1053Z"  />
<glyph unicode="8" horiz-adv-x="1139" d="M569 1462Q779 1462 897 1360T1016 1072Q1016 970 966 893T813 776V772Q936 740 1005 648T1075 422Q1075 215 933 93T569 -29Q345 -29 204 95T63 422Q63 553 132 646T326 772V776Q228 813 176 888T123 1072Q123 1258 241 1360T569 1462ZM344 1059Q344 962 405 905T569 848Q676 848 735 907T795 1059Q795 1158 732 1218T568 1278Q471 1278 408 1219T344 1059ZM297 422Q297 301 371 229T569 156Q692 156 767 229T842 422Q842 536 766 605T567 674Q450 674 374 605T297 422Z"  />
<glyph unicode="9" horiz-adv-x="1139" d="M563 1462Q820 1462 944 1282T1069 715Q1069 387 927 179T529 -29Q359 -29 232 80T96 362H330Q337 273 393 220T539 166Q668 166 740 270T836 657L831 662Q786 579 703 534T522 489Q326 489 198 619T70 973Q70 1192 204 1327T563 1462ZM303 975Q303 846 370 760T553 674Q671 674 742 758T813 975Q813 1103 743 1185T551 1268Q436 1268 370 1185T303 975Z"  />
<glyph unicode=":" horiz-adv-x="569" d="M426 1036V760H141V1036H426ZM426 276V0H141V276H426Z"  />
<glyph unicode=";" horiz-adv-x="569" d="M426 1036V760H141V1036H426ZM426 276V-1Q426 -115 357 -204T150 -324V-199Q210 -182 246 -131T283 0H141V276H426Z"  />
<glyph unicode="&lt;" horiz-adv-x="1229" d="M1135 844L369 518L1135 193V-16L94 444V592L1135 1053V844Z"  />
<glyph unicode="=" horiz-adv-x="1229" d="M1130 829V621H98V829H1130ZM1130 416V207H98V416H1130Z"  />
<glyph unicode="&gt;" horiz-adv-x="1229" d="M94 1053L1135 592V444L94 -16V193L860 518L94 844V1053Z"  />
<glyph unicode="?" horiz-adv-x="1139" d="M592 1497Q789 1497 913 1384T1038 1083Q1038 974 999 900T851 738Q745 652 712 579T678 397H457V405Q457 573 497 662T631 826Q725 901 753 953T782 1075Q782 1181 718 1242T581 1303Q464 1303 400 1226T335 997H100Q102 1227 235 1362T592 1497ZM700 256V0H426V256H700Z"  />
<glyph unicode="@" horiz-adv-x="1638" d="M852 1497Q1133 1497 1335 1324T1538 896Q1538 726 1467 588T1276 369T1055 287Q1001 287 970 320T934 406H930Q881 351 821 320T700 289Q572 289 487 384T401 611Q401 814 532 977T850 1141Q927 1141 985 1104T1079 993L1116 1110H1260L1112 571Q1106 550 1100 529T1094 478Q1094 453 1104 442T1133 430Q1233 430 1316 562T1399 872Q1399 1089 1244 1226T852 1364Q599 1364 432 1187T264 749Q264 461 434 280T870 98Q1005 98 1125 151T1331 301H1475Q1375 141 1215 53T862 -35Q542 -35 321 191T100 757Q100 1062 322 1279T852 1497ZM575 629Q575 547 620 495T739 442Q850 442 935 561T1020 806Q1020 879 972 933T856 987Q741 987 658 871T575 629Z"  />
<glyph unicode="A" horiz-adv-x="1366" d="M819 1462L1382 0H1108L971 387H387L250 0H-14L547 1462H819ZM678 1210L457 582H903L684 1210H678Z"  />
<glyph unicode="B" horiz-adv-x="1442" d="M875 1462Q1065 1462 1182 1371T1300 1100Q1300 989 1248 912T1092 788V784Q1224 756 1295 657T1366 408Q1366 213 1224 107T838 0H156V1462H875ZM834 850Q922 850 983 902T1044 1054Q1044 1156 993 1204T837 1253H412V850H834ZM871 209Q979 209 1044 269T1110 440Q1110 551 1044 608T871 666H412V209H871Z"  />
<glyph unicode="C" horiz-adv-x="1479" d="M778 1497Q1034 1497 1203 1363T1399 997H1143Q1105 1143 1014 1215T778 1288Q571 1288 453 1133T334 731Q334 485 452 330T778 174Q934 174 1032 275T1151 557H1401Q1382 288 1210 127T778 -35Q469 -35 274 183T78 731Q78 1061 273 1279T778 1497Z"  />
<glyph unicode="D" horiz-adv-x="1479" d="M772 1462Q1065 1462 1236 1268T1407 731Q1407 386 1235 193T769 0H156V1462H772ZM681 209Q908 209 1029 325T1151 731Q1151 1017 1030 1135T675 1253H412V209H681Z"  />
<glyph unicode="E" horiz-adv-x="1290" d="M1208 1462V1241H412V858H1149V649H412V221H1223V0H156V1462H1208Z"  />
<glyph unicode="F" horiz-adv-x="1214" d="M1165 1462V1241H412V858H1073V649H412V0H156V1462H1165Z"  />
<glyph unicode="G" horiz-adv-x="1554" d="M788 1497Q1041 1497 1213 1365T1415 997H1165Q1146 1131 1042 1209T788 1288Q586 1288 465 1134T344 731Q344 488 461 331T796 174Q993 174 1093 283T1198 575H809V770H1432V0H1268L1229 172Q1138 67 1037 16T788 -35Q481 -35 285 183T88 731Q88 1062 284 1279T788 1497Z"  />
<glyph unicode="H" horiz-adv-x="1479" d="M406 1462V881H1071V1462H1327V0H1071V659H406V0H150V1462H406Z"  />
<glyph unicode="I" horiz-adv-x="569" d="M412 1462V0H156V1462H412Z"  />
<glyph unicode="J" horiz-adv-x="1100" d="M944 1462V459Q944 193 824 79T464 -35Q258 -35 143 82T27 440V512H283V412Q288 279 337 227T483 174Q592 174 640 235T688 446V1462H944Z"  />
<glyph unicode="K" horiz-adv-x="1403" d="M412 1462V797L1063 1462H1378L795 879L1419 0H1100L621 698L412 492V0H156V1462H412Z"  />
<glyph unicode="L" horiz-adv-x="1176" d="M412 1462V221H1155V0H156V1462H412Z"  />
<glyph unicode="M" horiz-adv-x="1821" d="M512 1462L915 317H920L1313 1462H1669V0H1425V1128H1421L1016 0H805L399 1128H395V0H152V1462H512Z"  />
<glyph unicode="N" horiz-adv-x="1479" d="M416 1462L1083 385H1087V1462H1331V0H1061L395 1075H389V0H145V1462H416Z"  />
<glyph unicode="O" horiz-adv-x="1556" d="M778 1497Q1087 1497 1283 1279T1479 731Q1479 403 1284 184T778 -35Q469 -35 274 183T78 731Q78 1060 273 1278T778 1497ZM334 731Q334 485 452 330T778 174Q989 174 1106 331T1223 731Q1223 973 1106 1130T776 1288Q572 1288 453 1134T334 731Z"  />
<glyph unicode="P" horiz-adv-x="1366" d="M811 1462Q1045 1462 1171 1342T1298 1010Q1298 796 1171 679T811 561H412V0H156V1462H811ZM792 770Q896 770 969 832T1042 1012Q1042 1135 979 1194T798 1253H412V770H792Z"  />
<glyph unicode="Q" horiz-adv-x="1556" d="M778 1497Q1086 1497 1282 1278T1479 731Q1479 568 1427 417T1273 170L1460 6L1335 -133L1122 53Q1054 12 964 -11T778 -35Q468 -35 273 183T78 731Q78 1060 275 1278T778 1497ZM334 731Q334 487 452 331T778 174Q819 174 859 181T942 209L795 338L918 479L1094 326H1097Q1161 405 1192 508T1223 731Q1223 973 1106 1130T776 1288Q572 1288 453 1134T334 731Z"  />
<glyph unicode="R" horiz-adv-x="1442" d="M865 1462Q1086 1462 1211 1362T1337 1067Q1337 928 1276 834T1096 698V694Q1201 680 1257 596T1314 378Q1314 233 1334 139T1393 0H1118Q1076 60 1079 218Q1079 455 1009 528T796 602H412V0H156V1462H865ZM838 797Q953 797 1017 854T1081 1030Q1081 1144 1023 1198T836 1253H412V797H838Z"  />
<glyph unicode="S" horiz-adv-x="1327" d="M657 1497Q899 1497 1057 1374T1219 1030H963V1032Q951 1161 873 1224T648 1288Q529 1288 454 1239T379 1098Q379 954 566 906T786 849Q991 797 1064 759T1198 630T1260 423Q1260 211 1099 88T678 -35Q402 -35 238 100T68 487H324Q326 331 426 253T694 174Q841 174 922 236T1004 396Q1004 540 859 583T667 639L464 690Q291 734 207 828T123 1067Q123 1264 276 1380T657 1497Z"  />
<glyph unicode="T" horiz-adv-x="1214" d="M1200 1462V1241H735V0H479V1241H16V1462H1200Z"  />
<glyph unicode="U" horiz-adv-x="1479" d="M395 1462V597Q395 354 483 270T739 186Q851 186 928 223T1044 339T1083 592V1462H1339V516Q1339 262 1183 114T739 -35Q450 -35 295 115T139 517V1462H395Z"  />
<glyph unicode="V" horiz-adv-x="1251" d="M256 1462L623 305H627L1001 1462H1262L762 0H477L-10 1462H256Z"  />
<glyph unicode="W" horiz-adv-x="1933" d="M272 1462L537 344H541L836 1462H1098L1384 344H1389L1661 1462H1921L1518 0H1257L964 1118H961L662 0H397L12 1462H272Z"  />
<glyph unicode="X" horiz-adv-x="1327" d="M334 1462L666 946L1012 1462H1298L815 758L1333 0H1022L657 559L287 0H-6L512 758L29 1462H334Z"  />
<glyph unicode="Y" horiz-adv-x="1327" d="M285 1462L672 807L1053 1462H1339L793 573V0H537V573L-12 1462H285Z"  />
<glyph unicode="Z" horiz-adv-x="1290" d="M1225 1462V1268L373 221H1245V0H47V209L899 1241H113V1462H1225Z"  />
<glyph unicode="[" horiz-adv-x="606" d="M604 1497V1313H369V-207H604V-391H147V1497H604Z"  />
<glyph unicode="\" horiz-adv-x="721" d="M178 1496L766 -35H543L-45 1496H178Z"  />
<glyph unicode="]" horiz-adv-x="606" d="M459 1497V-391H2V-207H238V1313H2V1497H459Z"  />
<glyph unicode="^" horiz-adv-x="1229" d="M688 1434L1057 686H848L614 1192L381 686H172L541 1434H688Z"  />
<glyph unicode="_" horiz-adv-x="1024" d="M1024 -154V-256H0V-154H1024Z"  />
<glyph unicode="`" horiz-adv-x="494" d="M215 1499L401 1206H231L-59 1499H215Z"  />
<glyph unicode="a" horiz-adv-x="1139" d="M585 1087Q778 1087 894 1004T1010 786V230Q1010 188 1022 172T1073 156Q1082 156 1096 156T1122 160V-2Q1078 -15 1037 -22T974 -29Q898 -29 852 2T795 100Q730 37 629 4T428 -29Q270 -29 168 53T66 281Q66 421 143 494T339 589T607 629Q710 642 750 669T791 760Q791 829 736 866T572 903Q465 903 406 859T338 735H104Q116 909 239 998T585 1087ZM299 301Q299 234 352 195T500 156Q620 156 698 210T776 351V530Q732 503 684 494T521 472Q405 458 352 416T299 301Z"  />
<glyph unicode="b" horiz-adv-x="1251" d="M362 1462V922H367Q418 1000 504 1043T683 1087Q916 1087 1047 931T1178 524Q1178 286 1056 129T721 -29Q589 -29 497 12T354 145H350V0H129V1462H362ZM354 528Q354 363 434 260T651 156Q792 156 868 260T944 528Q944 685 865 794T649 903Q510 903 432 805T354 528Z"  />
<glyph unicode="c" horiz-adv-x="1139" d="M594 1087Q796 1087 925 987T1071 705H838Q824 800 761 851T596 903Q461 903 383 805T305 519Q305 361 378 259T586 156Q686 156 752 217T838 397H1071Q1038 188 913 80T586 -29Q353 -29 213 122T72 518Q72 774 210 930T594 1087Z"  />
<glyph unicode="d" horiz-adv-x="1251" d="M1120 1462V0H899V143H895Q848 56 762 14T567 -29Q340 -29 206 122T72 537Q72 794 201 940T530 1087Q646 1087 740 1043T883 922H887V1462H1120ZM305 518Q305 364 383 260T598 156Q737 156 816 263T895 531Q895 704 818 803T600 903Q460 903 383 796T305 518Z"  />
<glyph unicode="e" horiz-adv-x="1139" d="M584 1087Q806 1087 947 929T1088 548Q1088 524 1087 505T1083 469H305Q305 327 382 242T590 156Q687 156 750 197T848 332H1069Q1033 163 900 67T589 -29Q349 -29 211 122T72 527Q72 764 216 925T584 1087ZM305 623H850Q838 751 765 827T582 903Q472 903 394 829T305 623Z"  />
<glyph unicode="f" horiz-adv-x="645" d="M488 1462Q540 1462 581 1459T649 1448V1266Q630 1271 600 1274T542 1278Q480 1278 454 1251T426 1177V1059H625V885H426V0H193V885H18V1059H193V1179Q199 1316 264 1389T488 1462Z"  />
<glyph unicode="g" horiz-adv-x="1214" d="M551 1087Q659 1087 740 1043T864 913H868V1059H1102V46Q1102 -175 973 -297T583 -420Q381 -420 252 -335T109 -90H342Q358 -167 415 -206T596 -246Q733 -246 800 -178T868 18V186H864Q812 97 729 49T546 0Q322 0 197 148T72 556Q72 787 206 937T551 1087ZM305 535Q305 382 380 283T584 184Q715 184 791 283T868 553Q868 714 793 808T583 903Q451 903 378 802T305 535Z"  />
<glyph unicode="h" horiz-adv-x="1176" d="M356 1462V920H360Q412 1000 495 1043T679 1087Q862 1087 957 991T1053 735V0H819V667Q819 767 776 835T612 903Q493 903 425 820T356 631V0H123V1462H356Z"  />
<glyph unicode="i" horiz-adv-x="494" d="M362 1462V1241H129V1462H362ZM362 1059V0H129V1059H362Z"  />
<glyph unicode="j" horiz-adv-x="494" d="M362 1462V1241H129V1462H362ZM362 1059V-99Q362 -261 289 -340T58 -420Q29 -420 6 -419T-45 -412V-227Q-21 -232 -1 -234T34 -236Q85 -236 107 -207T129 -92V1059H362Z"  />
<glyph unicode="k" horiz-adv-x="1100" d="M362 1462V631L784 1059H1071L666 670L1110 0H825L502 514L362 379V0H129V1462H362Z"  />
<glyph unicode="l" horiz-adv-x="494" d="M362 1462V0H129V1462H362Z"  />
<glyph unicode="m" horiz-adv-x="1782" d="M675 1087Q785 1087 863 1040T973 911Q1036 1000 1117 1043T1306 1087Q1489 1087 1574 996T1659 740V0H1425V639Q1425 798 1382 850T1233 903Q1117 903 1063 831T1008 629V0H774V688Q774 795 733 849T589 903Q487 903 422 825T356 635V0H123V1059H344V911H350Q410 1001 485 1044T675 1087Z"  />
<glyph unicode="n" horiz-adv-x="1176" d="M679 1087Q862 1087 957 992T1053 735V0H819V667Q819 769 774 836T612 903Q492 903 424 820T356 631V0H123V1059H344V903L348 899Q405 991 491 1039T679 1087Z"  />
<glyph unicode="o" horiz-adv-x="1214" d="M608 1087Q853 1087 998 933T1143 530Q1143 278 998 125T608 -29Q369 -29 222 122T74 530Q74 781 219 934T608 1087ZM307 530Q307 370 388 263T608 156Q745 156 827 260T909 530Q909 693 828 798T606 903Q469 903 388 796T307 530Z"  />
<glyph unicode="p" horiz-adv-x="1251" d="M682 1087Q918 1087 1048 931T1178 524Q1178 286 1057 129T721 -29Q609 -29 513 13T367 137H362V-391H129V1059H350V915H354Q402 1003 486 1045T682 1087ZM354 528Q354 363 434 260T651 156Q792 156 868 260T944 528Q944 685 864 794T649 903Q510 903 432 805T354 528Z"  />
<glyph unicode="q" horiz-adv-x="1251" d="M567 1087Q685 1087 768 1042T895 915H899V1059H1120V-391H887V137H883Q825 54 733 13T528 -29Q319 -29 196 125T72 524Q72 779 203 933T567 1087ZM305 528Q305 364 381 260T598 156Q742 156 818 254T895 528Q895 706 819 804T597 903Q467 903 386 795T305 528Z"  />
<glyph unicode="r" horiz-adv-x="721" d="M668 1087Q699 1087 709 1086T743 1081V856Q717 861 692 863T644 866Q514 866 435 766T356 512V0H123V1059H342V854H346Q366 938 457 1012T668 1087Z"  />
<glyph unicode="s" horiz-adv-x="1063" d="M530 1087Q721 1087 837 1004T973 762H729Q715 834 663 868T515 903Q428 903 375 875T322 795Q322 737 379 703T590 640Q832 595 920 519T1008 315Q1008 154 874 63T535 -29Q324 -29 198 65T66 340H299Q310 247 370 202T539 156Q647 156 710 188T774 288Q774 349 719 386T498 456Q243 505 166 583T88 784Q88 929 212 1008T530 1087Z"  />
<glyph unicode="t" horiz-adv-x="682" d="M426 1376V1059H637V885H426V308Q426 226 450 200T542 174Q575 174 602 177T637 182V2Q569 -6 538 -8T485 -10Q318 -10 256 52T193 271V885H16V1059H193V1376H426Z"  />
<glyph unicode="u" horiz-adv-x="1176" d="M356 1059V402Q356 283 404 220T559 156Q690 156 754 230T819 436V1059H1053V0H823V147H819Q772 65 688 18T516 -29Q313 -29 218 73T123 377V1059H356Z"  />
<glyph unicode="v" horiz-adv-x="1063" d="M272 1059L541 246H545L803 1059H1044L666 0H403L18 1059H272Z"  />
<glyph unicode="w" horiz-adv-x="1593" d="M274 1059L481 268H485L684 1059H920L1110 268H1114L1329 1059H1567L1235 0H995L799 786H795L600 0H354L27 1059H274Z"  />
<glyph unicode="x" horiz-adv-x="1100" d="M324 1059L545 733L776 1059H1047L686 569L1092 0H811L543 391L283 0H8L408 557L41 1059H324Z"  />
<glyph unicode="y" horiz-adv-x="1063" d="M262 1059L539 268H543L811 1059H1055L646 -48Q580 -226 532 -293T419 -390T266 -420Q229 -420 189 -417T106 -408V-211Q132 -214 158 -219Q183 -225 217 -225Q330 -225 362 -130T408 4L6 1059H262Z"  />
<glyph unicode="z" horiz-adv-x="1024" d="M946 1059V895L341 184H977V0H45V164L631 874H86V1059H946Z"  />
<glyph unicode="{" horiz-adv-x="606" d="M633 1497V1313H517Q467 1313 437 1282T406 1176V765Q406 688 352 629T194 555V551Q297 543 351 484T406 330V-70Q406 -145 436 -176T520 -207H633V-391H442Q358 -391 271 -311T184 -117V299Q184 368 129 413T-8 461V645Q78 649 131 689T184 791V1223Q184 1336 270 1416T443 1497H633Z"  />
<glyph unicode="|" horiz-adv-x="455" d="M332 1610V-438H123V1610H332Z"  />
<glyph unicode="}" horiz-adv-x="606" d="M154 1497Q246 1497 334 1418T422 1223V807Q422 741 473 695T614 645V461Q545 459 484 422T422 301V-117Q422 -234 335 -312T158 -391H-27V-207H85Q145 -207 173 -173T201 -68V342Q201 419 251 475T414 551V555Q305 566 253 624T201 776V1174Q201 1247 171 1280T82 1313H-27V1497H154Z"  />
<glyph unicode="~" horiz-adv-x="1229" d="M397 692Q447 692 503 676T638 620Q716 581 756 567T829 553Q891 553 935 589T1014 692L1087 520Q1048 437 983 391T831 344Q773 344 713 363T555 433Q457 483 399 483Q341 483 297 450T215 344L141 516Q186 604 250 648T397 692Z"  />
<glyph unicode="&#xA0;" horiz-adv-x="569" />
<glyph unicode="&#xA1;" horiz-adv-x="569" d="M422 1087V831H147V1087H422ZM225 680H346L414 43V-375H158V43L225 680Z"  />
<glyph unicode="&#xA2;" horiz-adv-x="1139" d="M549 1272H637V1087Q818 1085 939 980T1073 705H840Q826 796 772 849T637 902V156Q731 173 783 233T848 397H1081Q1046 195 933 83T637 -29V-213H549V-29Q332 -26 204 131T76 519Q76 770 206 928T549 1087V1272ZM309 518Q309 375 371 275T549 156V903Q437 894 373 788T309 518Z"  />
<glyph unicode="&#xA3;" horiz-adv-x="1139" d="M1090 991H856Q846 1153 777 1228T581 1303Q478 1303 415 1237T352 1063Q352 1018 369 958T446 786H748V653H496Q512 623 520 589T528 516Q528 425 481 346T322 180L326 176Q421 216 453 223T515 231Q566 231 614 218T717 183Q771 160 831 160Q888 160 938 180T1030 238L1135 80Q1055 14 981 -10T809 -35Q774 -35 711 -26T570 7Q531 19 482 28T390 37Q332 37 274 17T182 -33L74 133Q173 203 234 295T295 466Q295 514 285 561T252 653H63V786H193Q146 842 121 922T96 1075Q96 1253 239 1375T576 1497Q817 1497 951 1369T1090 991Z"  />
<glyph unicode="&#xA4;" horiz-adv-x="1139" d="M973 1255L1098 1130L983 1012Q1030 963 1054 886T1079 719Q1079 630 1052 551T981 420L1094 299L981 186L864 305Q811 255 736 229T571 203Q484 203 407 227T271 303L267 300L156 184L41 299L158 424Q107 482 81 557T55 715Q55 812 82 888T158 1010L41 1135L158 1251L274 1137Q331 1183 412 1207T573 1231Q655 1231 729 1206T854 1139L973 1255ZM276 715Q276 589 361 501T571 412Q692 412 775 501T858 719Q858 843 776 932T571 1022Q449 1022 363 932T276 715Z"  />
<glyph unicode="&#xA5;" horiz-adv-x="1139" d="M250 1462L569 807L895 1462H1149L764 743H967V610H686V471H967V338H686V0H453V338H172V471H453V610H172V743H373L-10 1462H250Z"  />
<glyph unicode="&#xA6;" horiz-adv-x="455" d="M332 1354V842H123V1354H332ZM332 330V-182H123V330H332Z"  />
<glyph unicode="&#xA7;" horiz-adv-x="1139" d="M582 1497Q759 1497 875 1393T992 1110H772Q767 1202 715 1257T580 1313Q513 1313 463 1269T412 1159Q412 1092 474 1036T686 908Q940 787 1018 692T1096 487Q1096 397 1036 312T879 193Q938 140 964 80T991 -69Q991 -229 875 -324T586 -420Q395 -420 273 -311T143 0H365Q373 -118 427 -177T580 -236Q666 -236 712 -194T758 -70Q758 -2 710 53T568 159T365 267Q199 351 122 440T45 639Q45 746 100 822T266 944Q217 997 198 1044T178 1151Q178 1303 300 1400T582 1497ZM266 666Q266 616 297 576T379 506L752 297Q818 327 846 369T874 465Q874 514 846 550T710 647L390 829Q334 812 300 767T266 666Z"  />
<glyph unicode="&#xA8;" horiz-adv-x="494" d="M186 1454V1233H-47V1454H186ZM539 1454V1233H305V1454H539Z"  />
<glyph unicode="&#xA9;" horiz-adv-x="1638" d="M821 1497Q1133 1497 1352 1279T1571 731Q1571 402 1353 184T821 -35Q497 -35 283 183T68 731Q68 1063 288 1280T821 1497ZM231 731Q231 460 395 279T821 98Q1068 98 1237 276T1407 731Q1407 1005 1238 1184T819 1364Q569 1364 400 1184T231 731ZM842 1171Q993 1171 1090 1088T1206 862H1067Q1048 944 988 991T842 1038Q722 1038 649 953T575 731Q575 590 652 496T846 401Q931 401 992 449T1067 584H1208Q1182 436 1081 352T845 268Q657 268 535 398T412 731Q412 922 529 1046T842 1171Z"  />
<glyph unicode="&#xAA;" horiz-adv-x="778" d="M387 1462Q517 1462 597 1410T678 1271Q678 982 678 951T703 919H745V780Q740 777 707 771T648 764Q594 764 564 785T522 864Q499 826 426 795T282 764Q172 764 103 816T33 954Q33 1041 94 1089T329 1162Q428 1175 464 1191T500 1238Q500 1281 476 1305T378 1329Q305 1329 271 1308T233 1243H59Q69 1349 154 1405T387 1462ZM211 965Q211 928 238 913T326 897Q407 897 453 923T500 1005V1096Q455 1077 389 1070Q285 1055 248 1030T211 965Z"  />
<glyph unicode="&#xAB;" horiz-adv-x="948" d="M420 924V713L225 557L420 401V190L102 442V672L420 924ZM825 924V713L631 557L825 401V190L508 442V672L825 924Z"  />
<glyph unicode="&#xAC;" horiz-adv-x="1229" d="M1130 829V221H922V621H98V829H1130Z"  />
<glyph unicode="&#xAD;" horiz-adv-x="797" d="M696 668V446H100V668H696Z"  />
<glyph unicode="&#xAE;" horiz-adv-x="1638" d="M821 1497Q1133 1497 1352 1279T1571 731Q1571 402 1353 184T821 -35Q497 -35 283 183T68 731Q68 1063 288 1280T821 1497ZM231 731Q231 460 395 279T821 98Q1068 98 1237 276T1407 731Q1407 1005 1238 1184T819 1364Q569 1364 400 1184T231 731ZM861 1141Q1010 1141 1085 1082T1161 897Q1161 791 1104 735T941 666L1178 293H1020L801 655H670V293H530V1141H861ZM834 774Q943 774 982 807T1022 907Q1022 966 979 994T848 1022H670V774H834Z"  />
<glyph unicode="&#xAF;" horiz-adv-x="494" d="M543 1411V1278H-47V1411H543Z"  />
<glyph unicode="&#xB0;" horiz-adv-x="819" d="M410 1462Q540 1462 628 1371T717 1155Q717 1031 628 940T410 848Q281 848 192 939T102 1155Q102 1282 193 1372T410 1462ZM217 1155Q217 1077 273 1020T410 963Q490 963 546 1020T602 1155Q602 1234 546 1291T409 1348Q333 1348 275 1292T217 1155Z"  />
<glyph unicode="&#xB1;" horiz-adv-x="1229" d="M719 1036V780H1130V571H719V315H510V571H98V780H510V1036H719ZM1130 209V0H98V209H1130Z"  />
<glyph unicode="&#xB2;" horiz-adv-x="799" d="M422 1698Q567 1698 648 1628T729 1438Q729 1357 683 1291T519 1154Q402 1084 349 1048T276 956H723V813H70Q70 926 111 1011T278 1175L416 1260Q503 1314 527 1355T551 1438Q551 1492 515 1523T420 1554Q347 1554 309 1514T264 1385H86Q88 1531 179 1614T422 1698Z"  />
<glyph unicode="&#xB3;" horiz-adv-x="799" d="M401 1698Q535 1698 616 1636T698 1466Q698 1407 665 1362T567 1290Q651 1263 692 1208T733 1070Q733 950 637 873T396 795Q239 795 151 872T62 1079H225Q232 1008 273 973T397 938Q476 938 522 974T569 1077Q569 1142 525 1178T362 1214H328V1337H384Q449 1337 492 1366T535 1448Q535 1499 498 1529T393 1559Q327 1559 286 1521T244 1407H80Q86 1544 172 1621T401 1698Z"  />
<glyph unicode="&#xB4;" horiz-adv-x="494" d="M553 1499L262 1206H92L276 1499H553Z"  />
<glyph unicode="&#xB5;" horiz-adv-x="1176" d="M356 1059V402Q356 283 404 220T559 156Q690 156 754 230T819 436V1059H1053V0H823V147H819Q764 57 689 14T529 -29Q470 -29 426 -14T356 25V-391H123V1059H356Z"  />
<glyph unicode="&#xB6;" horiz-adv-x="1229" d="M1071 1462V-328H907V1329H668V-328H504V705Q298 707 181 813T63 1078Q63 1267 185 1364T531 1462H1071Z"  />
<glyph unicode="&#xB7;" horiz-adv-x="569" d="M285 770Q345 770 391 724T438 618Q438 556 393 510T285 463Q223 463 177 510T131 618Q131 675 177 722T285 770Z"  />
<glyph unicode="&#xB8;" horiz-adv-x="494" d="M229 0H328L233 -121L236 -123Q258 -117 274 -117Q289 -115 302 -115Q375 -115 426 -157T477 -268Q477 -360 406 -408T228 -457Q167 -457 114 -446T18 -410L55 -328Q97 -345 126 -352T195 -360Q255 -360 284 -338T313 -276Q313 -241 286 -220T219 -199Q197 -199 177 -203T139 -219L94 -180L229 0Z"  />
<glyph unicode="&#xB9;" horiz-adv-x="799" d="M545 1679V813H367V1417H119V1536Q236 1536 310 1573T401 1679H545Z"  />
<glyph unicode="&#xBA;" horiz-adv-x="778" d="M395 1462Q571 1462 665 1368T760 1112Q760 950 666 857T395 764Q223 764 127 855T31 1112Q31 1278 127 1370T395 1462ZM209 1112Q209 1024 259 961T395 897Q489 897 535 966T582 1114Q582 1200 531 1264T394 1329Q311 1329 260 1267T209 1112Z"  />
<glyph unicode="&#xBB;" horiz-adv-x="948" d="M123 924L440 672V442L123 190V401L317 557L123 713V924ZM846 672V442L528 190V401L723 557L528 713V924L846 672Z"  />
<glyph unicode="&#xBC;" horiz-adv-x="1708" d="M1327 1483L471 -49H309L1167 1483H1327ZM500 1444V578H322V1182H74V1300Q192 1300 266 1338T356 1444H500ZM1464 866V328H1583V188H1464V0H1294V188H899V344L1305 866H1464ZM1294 653L1040 328H1294V653Z"  />
<glyph unicode="&#xBD;" horiz-adv-x="1708" d="M1286 1483L430 -49H268L1126 1483H1286ZM500 1444V578H322V1182H74V1300Q192 1300 266 1338T356 1444H500ZM1319 885Q1464 885 1545 815T1626 625Q1626 545 1582 481T1444 359Q1351 302 1270 252T1174 143H1620V0H967Q967 113 1008 198T1175 362L1313 447Q1397 499 1422 539T1448 625Q1448 679 1412 710T1317 741Q1244 741 1206 701T1161 572H983Q983 715 1075 800T1319 885Z"  />
<glyph unicode="&#xBE;" horiz-adv-x="1708" d="M1429 1483L572 -49H411L1269 1483H1429ZM416 1458Q548 1458 630 1396T713 1227Q713 1171 682 1126T582 1051Q666 1024 707 969T748 829Q748 713 652 634T411 555Q254 555 166 631T76 840H240Q245 767 289 733T412 698Q491 698 537 736T584 838Q584 904 538 940T374 975H342V1098H383Q469 1098 509 1128T549 1208Q549 1261 513 1290T408 1319Q339 1319 299 1280T259 1167H94Q102 1308 188 1383T416 1458ZM1484 866V328H1603V188H1484V0H1314V188H919V344L1324 866H1484ZM1314 653L1060 328H1314V653Z"  />
<glyph unicode="&#xBF;" horiz-adv-x="1139" d="M705 1087V831H430V1087H705ZM682 680Q682 513 645 421T510 253Q413 177 385 124T356 3Q356 -95 418 -155T558 -215Q672 -215 738 -141T804 80H1038Q1038 -144 903 -277T547 -410Q351 -410 226 -298T100 -6Q100 96 135 172T280 333Q388 417 424 491T461 680H682Z"  />
<glyph unicode="&#xC0;" horiz-adv-x="1366" d="M819 1462L1382 0H1108L971 387H387L250 0H-14L547 1462H819ZM678 1210L457 582H903L684 1210H678ZM616 1896L802 1604H632L341 1896H616Z"  />
<glyph unicode="&#xC1;" horiz-adv-x="1366" d="M819 1462L1382 0H1108L971 387H387L250 0H-14L547 1462H819ZM678 1210L457 582H903L684 1210H678ZM1026 1896L735 1604H565L749 1896H1026Z"  />
<glyph unicode="&#xC2;" horiz-adv-x="1366" d="M819 1462L1382 0H1108L971 387H387L250 0H-14L547 1462H819ZM678 1210L457 582H903L684 1210H678ZM798 1896L1020 1604H829L684 1788L540 1604H352L571 1896H798Z"  />
<glyph unicode="&#xC3;" horiz-adv-x="1366" d="M819 1462L1382 0H1108L971 387H387L250 0H-14L547 1462H819ZM678 1210L457 582H903L684 1210H678ZM932 1872H1046Q1031 1762 974 1699T820 1636Q779 1636 732 1651T633 1690Q582 1712 529 1712Q491 1712 470 1691T440 1628H323Q342 1732 400 1796T537 1860Q590 1860 640 1842T739 1803Q788 1782 829 1782Q869 1782 894 1802T932 1872Z"  />
<glyph unicode="&#xC4;" horiz-adv-x="1366" d="M819 1462L1382 0H1108L971 387H387L250 0H-14L547 1462H819ZM678 1210L457 582H903L684 1210H678ZM624 1851V1630H391V1851H624ZM977 1851V1630H743V1851H977Z"  />
<glyph unicode="&#xC5;" horiz-adv-x="1366" d="M819 1462L1382 0H1108L971 387H387L250 0H-14L547 1462H819ZM678 1210L457 582H903L684 1210H678ZM684 1960Q773 1960 835 1901T897 1749Q897 1660 835 1599T684 1538Q595 1538 533 1597T471 1749Q471 1841 534 1900T684 1960ZM561 1749Q561 1697 596 1661T684 1624Q738 1624 772 1660T807 1749Q807 1801 774 1837T683 1874Q632 1874 597 1838T561 1749Z"  />
<glyph unicode="&#xC6;" horiz-adv-x="1972" d="M1892 1462V1241H1180V858H1847V649H1180V221H1905V0H936V375H446L270 0H-14L713 1462H1892ZM541 569H936V1241H862L541 569Z"  />
<glyph unicode="&#xC7;" horiz-adv-x="1479" d="M778 1497Q1034 1497 1203 1363T1399 997H1143Q1105 1143 1014 1215T778 1288Q571 1288 453 1133T334 731Q334 485 452 330T778 174Q934 174 1032 275T1151 557H1401Q1382 293 1216 133T791 -35L725 -121L727 -123Q750 -117 766 -117Q782 -115 794 -115Q867 -115 918 -158T969 -268Q969 -358 899 -407T720 -457Q658 -457 606 -446T510 -410L547 -328Q584 -344 614 -352T686 -360Q748 -360 776 -338T805 -276Q805 -244 779 -222T710 -199Q689 -199 669 -203T631 -219L586 -180L692 -37L697 -29Q414 3 246 214T78 731Q78 1061 275 1279T778 1497Z"  />
<glyph unicode="&#xC8;" horiz-adv-x="1290" d="M1208 1462V1241H412V858H1149V649H412V221H1223V0H156V1462H1208ZM588 1896L774 1604H604L313 1896H588Z"  />
<glyph unicode="&#xC9;" horiz-adv-x="1290" d="M1208 1462V1241H412V858H1149V649H412V221H1223V0H156V1462H1208ZM1038 1896L747 1604H577L761 1896H1038Z"  />
<glyph unicode="&#xCA;" horiz-adv-x="1290" d="M1208 1462V1241H412V858H1149V649H412V221H1223V0H156V1462H1208ZM790 1896L1012 1604H821L676 1788L532 1604H344L563 1896H790Z"  />
<glyph unicode="&#xCB;" horiz-adv-x="1290" d="M1208 1462V1241H412V858H1149V649H412V221H1223V0H156V1462H1208ZM616 1851V1630H383V1851H616ZM969 1851V1630H735V1851H969Z"  />
<glyph unicode="&#xCC;" horiz-adv-x="569" d="M412 1462V0H156V1462H412ZM217 1896L403 1604H233L-58 1896H217Z"  />
<glyph unicode="&#xCD;" horiz-adv-x="569" d="M412 1462V0H156V1462H412ZM627 1896L336 1604H166L350 1896H627Z"  />
<glyph unicode="&#xCE;" horiz-adv-x="569" d="M412 1462V0H156V1462H412ZM399 1896L621 1604H430L285 1788L141 1604H-47L172 1896H399Z"  />
<glyph unicode="&#xCF;" horiz-adv-x="569" d="M412 1462V0H156V1462H412ZM225 1851V1630H-8V1851H225ZM578 1851V1630H344V1851H578Z"  />
<glyph unicode="&#xD0;" horiz-adv-x="1479" d="M772 1462Q1065 1462 1236 1268T1407 731Q1407 386 1234 193T772 0H156V676H6V836H156V1462H772ZM811 836V676H412V209H675Q908 209 1029 324T1151 731Q1151 1018 1030 1135T675 1253H412V836H811Z"  />
<glyph unicode="&#xD1;" horiz-adv-x="1479" d="M416 1462L1083 385H1087V1462H1331V0H1061L395 1075H389V0H145V1462H416ZM983 1872H1097Q1082 1762 1025 1699T871 1636Q830 1636 783 1651T684 1690Q633 1712 580 1712Q542 1712 521 1691T491 1628H374Q393 1732 451 1796T588 1860Q641 1860 691 1842T790 1803Q839 1782 880 1782Q920 1782 945 1802T983 1872Z"  />
<glyph unicode="&#xD2;" horiz-adv-x="1556" d="M778 1497Q1087 1497 1283 1279T1479 731Q1479 403 1284 184T778 -35Q469 -35 274 183T78 731Q78 1060 273 1278T778 1497ZM334 731Q334 485 452 330T778 174Q989 174 1106 331T1223 731Q1223 973 1106 1130T776 1288Q572 1288 453 1134T334 731ZM692 1896L878 1604H708L417 1896H692Z"  />
<glyph unicode="&#xD3;" horiz-adv-x="1556" d="M778 1497Q1087 1497 1283 1279T1479 731Q1479 403 1284 184T778 -35Q469 -35 274 183T78 731Q78 1060 273 1278T778 1497ZM334 731Q334 485 452 330T778 174Q989 174 1106 331T1223 731Q1223 973 1106 1130T776 1288Q572 1288 453 1134T334 731ZM1143 1896L852 1604H682L866 1896H1143Z"  />
<glyph unicode="&#xD4;" horiz-adv-x="1556" d="M778 1497Q1087 1497 1283 1279T1479 731Q1479 403 1284 184T778 -35Q469 -35 274 183T78 731Q78 1060 273 1278T778 1497ZM334 731Q334 485 452 330T778 174Q989 174 1106 331T1223 731Q1223 973 1106 1130T776 1288Q572 1288 453 1134T334 731ZM895 1896L1117 1604H926L781 1788L637 1604H449L668 1896H895Z"  />
<glyph unicode="&#xD5;" horiz-adv-x="1556" d="M778 1497Q1087 1497 1283 1279T1479 731Q1479 403 1284 184T778 -35Q469 -35 274 183T78 731Q78 1060 273 1278T778 1497ZM334 731Q334 485 452 330T778 174Q989 174 1106 331T1223 731Q1223 973 1106 1130T776 1288Q572 1288 453 1134T334 731ZM1029 1872H1143Q1128 1762 1071 1699T917 1636Q876 1636 829 1651T730 1690Q679 1712 626 1712Q588 1712 567 1691T537 1628H420Q439 1732 497 1796T634 1860Q687 1860 737 1842T836 1803Q885 1782 926 1782Q966 1782 991 1802T1029 1872Z"  />
<glyph unicode="&#xD6;" horiz-adv-x="1556" d="M778 1497Q1087 1497 1283 1279T1479 731Q1479 403 1284 184T778 -35Q469 -35 274 183T78 731Q78 1060 273 1278T778 1497ZM334 731Q334 485 452 330T778 174Q989 174 1106 331T1223 731Q1223 973 1106 1130T776 1288Q572 1288 453 1134T334 731ZM721 1851V1630H488V1851H721ZM1074 1851V1630H840V1851H1074Z"  />
<glyph unicode="&#xD7;" horiz-adv-x="1229" d="M275 1020L611 664L951 1020L1115 874L757 518L1113 162L949 16L613 373L274 16L111 162L468 518L112 874L275 1020Z"  />
<glyph unicode="&#xD8;" horiz-adv-x="1556" d="M1386 1503L1475 1430L1313 1247Q1396 1139 1437 1007T1479 731Q1479 516 1390 338T1140 62T778 -35Q645 -35 532 7T325 132L168 -41L82 33L244 217Q160 327 119 458T78 731Q78 945 166 1122T414 1398T778 1497Q915 1497 1028 1456T1233 1331L1386 1503ZM334 731Q334 630 353 549T408 401L1080 1158H1082Q1028 1223 952 1255T776 1288Q573 1288 454 1133T334 731ZM1147 1061L475 303Q537 236 613 205T778 174Q988 174 1105 331T1223 732Q1223 837 1202 922T1147 1061Z"  />
<glyph unicode="&#xD9;" horiz-adv-x="1479" d="M395 1462V597Q395 354 483 270T739 186Q851 186 928 223T1044 339T1083 592V1462H1339V516Q1339 262 1183 114T739 -35Q450 -35 295 115T139 517V1462H395ZM651 1896L837 1604H667L376 1896H651Z"  />
<glyph unicode="&#xDA;" horiz-adv-x="1479" d="M395 1462V597Q395 354 483 270T739 186Q851 186 928 223T1044 339T1083 592V1462H1339V516Q1339 262 1183 114T739 -35Q450 -35 295 115T139 517V1462H395ZM1102 1896L811 1604H641L825 1896H1102Z"  />
<glyph unicode="&#xDB;" horiz-adv-x="1479" d="M395 1462V597Q395 354 483 270T739 186Q851 186 928 223T1044 339T1083 592V1462H1339V516Q1339 262 1183 114T739 -35Q450 -35 295 115T139 517V1462H395ZM854 1896L1076 1604H885L740 1788L596 1604H408L627 1896H854Z"  />
<glyph unicode="&#xDC;" horiz-adv-x="1479" d="M395 1462V597Q395 354 483 270T739 186Q851 186 928 223T1044 339T1083 592V1462H1339V516Q1339 262 1183 114T739 -35Q450 -35 295 115T139 517V1462H395ZM680 1851V1630H447V1851H680ZM1033 1851V1630H799V1851H1033Z"  />
<glyph unicode="&#xDD;" horiz-adv-x="1327" d="M285 1462L672 807L1053 1462H1339L793 573V0H537V573L-12 1462H285ZM1038 1896L747 1604H577L761 1896H1038Z"  />
<glyph unicode="&#xDE;" horiz-adv-x="1366" d="M412 1462V1241H811Q1040 1241 1169 1122T1298 788Q1298 577 1171 459T811 340H412V0H156V1462H412ZM792 549Q896 549 969 610T1042 791Q1042 914 979 973T798 1032H412V549H792Z"  />
<glyph unicode="&#xDF;" horiz-adv-x="1176" d="M578 1497Q763 1497 888 1393T1014 1128Q1014 1021 963 938T805 819V815Q931 798 1005 697T1079 464Q1079 245 950 108T609 -29Q583 -29 556 -28T497 -23V162Q515 158 525 158Q534 156 563 156Q717 156 781 235T846 474Q846 597 755 662T508 727H498V881Q651 881 715 946T780 1106Q780 1209 728 1261T574 1313Q472 1313 417 1243T362 1055V0H129V1079Q129 1262 252 1379T578 1497Z"  />
<glyph unicode="&#xE0;" horiz-adv-x="1139" d="M585 1087Q778 1087 894 1004T1010 786V230Q1010 188 1022 172T1073 156Q1082 156 1096 156T1122 160V-2Q1078 -15 1037 -22T974 -29Q898 -29 852 2T795 100Q730 37 629 4T428 -29Q270 -29 168 53T66 281Q66 421 143 494T339 589T607 629Q710 642 750 669T791 760Q791 829 736 866T572 903Q465 903 406 859T338 735H104Q116 909 239 998T585 1087ZM299 301Q299 234 352 195T500 156Q620 156 698 210T776 351V530Q732 503 684 494T521 472Q405 458 352 416T299 301ZM504 1499L690 1206H520L230 1499H504Z"  />
<glyph unicode="&#xE1;" horiz-adv-x="1139" d="M585 1087Q778 1087 894 1004T1010 786V230Q1010 188 1022 172T1073 156Q1082 156 1096 156T1122 160V-2Q1078 -15 1037 -22T974 -29Q898 -29 852 2T795 100Q730 37 629 4T428 -29Q270 -29 168 53T66 281Q66 421 143 494T339 589T607 629Q710 642 750 669T791 760Q791 829 736 866T572 903Q465 903 406 859T338 735H104Q116 909 239 998T585 1087ZM299 301Q299 234 352 195T500 156Q620 156 698 210T776 351V530Q732 503 684 494T521 472Q405 458 352 416T299 301ZM934 1499L643 1206H473L657 1499H934Z"  />
<glyph unicode="&#xE2;" horiz-adv-x="1139" d="M585 1087Q778 1087 894 1004T1010 786V230Q1010 188 1022 172T1073 156Q1082 156 1096 156T1122 160V-2Q1078 -15 1037 -22T974 -29Q898 -29 852 2T795 100Q730 37 629 4T428 -29Q270 -29 168 53T66 281Q66 421 143 494T339 589T607 629Q710 642 750 669T791 760Q791 829 736 866T572 903Q465 903 406 859T338 735H104Q116 909 239 998T585 1087ZM299 301Q299 234 352 195T500 156Q620 156 698 210T776 351V530Q732 503 684 494T521 472Q405 458 352 416T299 301ZM696 1499L918 1206H727L582 1391L438 1206H250L469 1499H696Z"  />
<glyph unicode="&#xE3;" horiz-adv-x="1139" d="M585 1087Q778 1087 894 1004T1010 786V230Q1010 188 1022 172T1073 156Q1082 156 1096 156T1122 160V-2Q1078 -15 1037 -22T974 -29Q898 -29 852 2T795 100Q730 37 629 4T428 -29Q270 -29 168 53T66 281Q66 421 143 494T339 589T607 629Q710 642 750 669T791 760Q791 829 736 866T572 903Q465 903 406 859T338 735H104Q116 909 239 998T585 1087ZM299 301Q299 234 352 195T500 156Q620 156 698 210T776 351V530Q732 503 684 494T521 472Q405 458 352 416T299 301ZM830 1475H944Q929 1362 871 1301T718 1239Q654 1239 569 1277Q483 1315 427 1315Q389 1315 368 1294T338 1231H221Q239 1331 296 1396T436 1462Q486 1462 524 1450T625 1411Q686 1384 727 1384Q764 1384 790 1403T830 1475Z"  />
<glyph unicode="&#xE4;" horiz-adv-x="1139" d="M585 1087Q778 1087 894 1004T1010 786V230Q1010 188 1022 172T1073 156Q1082 156 1096 156T1122 160V-2Q1078 -15 1037 -22T974 -29Q898 -29 852 2T795 100Q730 37 629 4T428 -29Q270 -29 168 53T66 281Q66 421 143 494T339 589T607 629Q710 642 750 669T791 760Q791 829 736 866T572 903Q465 903 406 859T338 735H104Q116 909 239 998T585 1087ZM299 301Q299 234 352 195T500 156Q620 156 698 210T776 351V530Q732 503 684 494T521 472Q405 458 352 416T299 301ZM522 1454V1233H289V1454H522ZM875 1454V1233H641V1454H875Z"  />
<glyph unicode="&#xE5;" horiz-adv-x="1139" d="M585 1087Q778 1087 894 1004T1010 786V230Q1010 188 1022 172T1073 156Q1082 156 1096 156T1122 160V-2Q1078 -15 1037 -22T974 -29Q898 -29 852 2T795 100Q730 37 629 4T428 -29Q270 -29 168 53T66 281Q66 421 143 494T339 589T607 629Q710 642 750 669T791 760Q791 829 736 866T572 903Q465 903 406 859T338 735H104Q116 909 239 998T585 1087ZM299 301Q299 234 352 195T500 156Q620 156 698 210T776 351V530Q732 503 684 494T521 472Q405 458 352 416T299 301ZM580 1591Q671 1591 732 1531T793 1380Q793 1291 731 1230T580 1169Q490 1169 429 1229T367 1380Q367 1470 428 1530T580 1591ZM457 1380Q457 1327 493 1291T580 1255Q632 1255 667 1291T703 1380Q703 1433 670 1469T579 1505Q527 1505 492 1469T457 1380Z"  />
<glyph unicode="&#xE6;" horiz-adv-x="1821" d="M580 1087Q723 1087 806 1050T938 944Q991 1014 1076 1050T1274 1087Q1510 1087 1639 941T1768 541V498Q1766 477 1766 469H997Q997 326 1071 241T1274 156Q1362 156 1426 199T1524 334H1757Q1711 161 1582 66T1278 -29Q1144 -29 1044 19T889 166Q824 68 709 20T450 -29Q274 -29 170 54T66 282Q66 429 148 497T313 582T538 621L622 633Q721 650 747 675T778 751Q777 841 721 872T572 903Q465 903 406 859T338 735H104Q116 909 239 998T580 1087ZM997 623H1532Q1532 757 1460 830T1263 903Q1151 903 1080 828T997 623ZM299 292Q299 225 356 191T512 156Q623 156 699 216T776 364V526Q765 512 730 500T620 482Q404 463 352 417T299 292Z"  />
<glyph unicode="&#xE7;" horiz-adv-x="1139" d="M594 1087Q796 1087 925 987T1071 705H838Q824 800 761 851T596 903Q461 903 383 805T305 519Q305 361 378 259T586 156Q686 156 752 217T838 397H1071Q1040 205 930 97T639 -27H637L565 -121L567 -123Q590 -117 607 -117Q623 -115 634 -115Q707 -115 758 -158T809 -268Q809 -359 738 -408T560 -457Q499 -457 446 -446T350 -410L387 -328Q428 -345 457 -352T526 -360Q587 -360 616 -338T645 -276Q645 -241 617 -220T551 -199Q529 -199 509 -203T471 -219L426 -180L541 -27H539Q317 -8 195 140T72 518Q72 774 210 930T594 1087Z"  />
<glyph unicode="&#xE8;" horiz-adv-x="1139" d="M584 1087Q806 1087 947 929T1088 548Q1088 524 1087 505T1083 469H305Q305 327 382 242T590 156Q687 156 750 197T848 332H1069Q1033 163 900 67T589 -29Q349 -29 211 122T72 527Q72 764 216 925T584 1087ZM305 623H850Q838 751 765 827T582 903Q472 903 394 829T305 623ZM514 1499L700 1206H530L240 1499H514Z"  />
<glyph unicode="&#xE9;" horiz-adv-x="1139" d="M584 1087Q806 1087 947 929T1088 548Q1088 524 1087 505T1083 469H305Q305 327 382 242T590 156Q687 156 750 197T848 332H1069Q1033 163 900 67T589 -29Q349 -29 211 122T72 527Q72 764 216 925T584 1087ZM305 623H850Q838 751 765 827T582 903Q472 903 394 829T305 623ZM944 1499L653 1206H483L667 1499H944Z"  />
<glyph unicode="&#xEA;" horiz-adv-x="1139" d="M584 1087Q806 1087 947 929T1088 548Q1088 524 1087 505T1083 469H305Q305 327 382 242T590 156Q687 156 750 197T848 332H1069Q1033 163 900 67T589 -29Q349 -29 211 122T72 527Q72 764 216 925T584 1087ZM305 623H850Q838 751 765 827T582 903Q472 903 394 829T305 623ZM706 1499L928 1206H737L592 1391L448 1206H260L479 1499H706Z"  />
<glyph unicode="&#xEB;" horiz-adv-x="1139" d="M584 1087Q806 1087 947 929T1088 548Q1088 524 1087 505T1083 469H305Q305 327 382 242T590 156Q687 156 750 197T848 332H1069Q1033 163 900 67T589 -29Q349 -29 211 122T72 527Q72 764 216 925T584 1087ZM305 623H850Q838 751 765 827T582 903Q472 903 394 829T305 623ZM532 1454V1233H299V1454H532ZM885 1454V1233H651V1454H885Z"  />
<glyph unicode="&#xEC;" horiz-adv-x="494" d="M362 1059V0H129V1059H362ZM192 1499L378 1206H208L-82 1499H192Z"  />
<glyph unicode="&#xED;" horiz-adv-x="494" d="M362 1059V0H129V1059H362ZM580 1499L289 1206H119L303 1499H580Z"  />
<glyph unicode="&#xEE;" horiz-adv-x="494" d="M362 1059V0H129V1059H362ZM362 1499L584 1206H393L248 1391L104 1206H-84L135 1499H362Z"  />
<glyph unicode="&#xEF;" horiz-adv-x="494" d="M362 1059V0H129V1059H362ZM188 1454V1233H-45V1454H188ZM541 1454V1233H307V1454H541Z"  />
<glyph unicode="&#xF0;" horiz-adv-x="1214" d="M490 1489Q545 1470 600 1445T707 1386L922 1489L1001 1397L811 1305Q964 1176 1044 1001T1124 626Q1124 312 984 142T582 -29Q358 -29 222 119T86 516Q86 737 221 886T563 1036Q655 1036 723 1007T852 911H856Q824 990 771 1061T622 1214L397 1108L315 1200L508 1291H511Q478 1314 428 1335T349 1364L490 1489ZM319 502Q319 348 392 252T596 156Q727 156 810 258T893 502Q893 652 819 752T610 852Q470 852 395 760T319 502Z"  />
<glyph unicode="&#xF1;" horiz-adv-x="1176" d="M679 1087Q862 1087 957 992T1053 735V0H819V667Q819 769 774 836T612 903Q492 903 424 820T356 631V0H123V1059H344V903L348 899Q405 991 491 1039T679 1087ZM838 1475H952Q937 1362 879 1301T726 1239Q662 1239 577 1277Q491 1315 435 1315Q397 1315 376 1294T346 1231H229Q247 1331 304 1396T444 1462Q494 1462 532 1450T633 1411Q694 1384 735 1384Q772 1384 798 1403T838 1475Z"  />
<glyph unicode="&#xF2;" horiz-adv-x="1214" d="M608 1087Q853 1087 998 933T1143 530Q1143 278 998 125T608 -29Q369 -29 222 122T74 530Q74 781 219 934T608 1087ZM307 530Q307 370 388 263T608 156Q745 156 827 260T909 530Q909 693 828 798T606 903Q469 903 388 796T307 530ZM534 1499L720 1206H550L260 1499H534Z"  />
<glyph unicode="&#xF3;" horiz-adv-x="1214" d="M608 1087Q853 1087 998 933T1143 530Q1143 278 998 125T608 -29Q369 -29 222 122T74 530Q74 781 219 934T608 1087ZM307 530Q307 370 388 263T608 156Q745 156 827 260T909 530Q909 693 828 798T606 903Q469 903 388 796T307 530ZM965 1499L674 1206H504L688 1499H965Z"  />
<glyph unicode="&#xF4;" horiz-adv-x="1214" d="M608 1087Q853 1087 998 933T1143 530Q1143 278 998 125T608 -29Q369 -29 222 122T74 530Q74 781 219 934T608 1087ZM307 530Q307 370 388 263T608 156Q745 156 827 260T909 530Q909 693 828 798T606 903Q469 903 388 796T307 530ZM727 1499L949 1206H758L613 1391L469 1206H281L500 1499H727Z"  />
<glyph unicode="&#xF5;" horiz-adv-x="1214" d="M608 1087Q853 1087 998 933T1143 530Q1143 278 998 125T608 -29Q369 -29 222 122T74 530Q74 781 219 934T608 1087ZM307 530Q307 370 388 263T608 156Q745 156 827 260T909 530Q909 693 828 798T606 903Q469 903 388 796T307 530ZM861 1475H975Q960 1362 902 1301T749 1239Q685 1239 600 1277Q514 1315 458 1315Q420 1315 399 1294T369 1231H252Q270 1331 327 1396T467 1462Q517 1462 555 1450T656 1411Q717 1384 758 1384Q795 1384 821 1403T861 1475Z"  />
<glyph unicode="&#xF6;" horiz-adv-x="1214" d="M608 1087Q853 1087 998 933T1143 530Q1143 278 998 125T608 -29Q369 -29 222 122T74 530Q74 781 219 934T608 1087ZM307 530Q307 370 388 263T608 156Q745 156 827 260T909 530Q909 693 828 798T606 903Q469 903 388 796T307 530ZM553 1454V1233H320V1454H553ZM906 1454V1233H672V1454H906Z"  />
<glyph unicode="&#xF7;" horiz-adv-x="1229" d="M614 1087Q676 1087 719 1043T762 940Q762 886 719 840T616 793Q556 793 512 837T467 940Q467 999 509 1043T614 1087ZM1130 623V414H98V623H1130ZM614 244Q674 244 718 200T762 96Q762 43 718 -4T616 -51Q558 -51 513 -8T467 96Q467 157 511 200T614 244Z"  />
<glyph unicode="&#xF8;" horiz-adv-x="1214" d="M1085 1116L1151 1059L1018 913Q1081 837 1112 742T1143 530Q1143 278 997 125T608 -29Q500 -29 412 2T262 86L131 -57L66 0L198 146H200Q136 223 105 318T74 530Q74 781 219 934T608 1087Q710 1087 797 1060T956 975L1085 1116ZM307 530Q307 479 317 424T354 317L811 817Q777 857 727 880T606 903Q470 903 389 797T307 530ZM406 242Q442 200 492 178T608 156Q745 156 827 260T909 530Q909 597 896 649T862 741L406 242Z"  />
<glyph unicode="&#xF9;" horiz-adv-x="1176" d="M356 1059V402Q356 283 404 220T559 156Q690 156 754 230T819 436V1059H1053V0H823V147H819Q772 65 688 18T516 -29Q313 -29 218 73T123 377V1059H356ZM516 1499L702 1206H532L242 1499H516Z"  />
<glyph unicode="&#xFA;" horiz-adv-x="1176" d="M356 1059V402Q356 283 404 220T559 156Q690 156 754 230T819 436V1059H1053V0H823V147H819Q772 65 688 18T516 -29Q313 -29 218 73T123 377V1059H356ZM946 1499L655 1206H485L669 1499H946Z"  />
<glyph unicode="&#xFB;" horiz-adv-x="1176" d="M356 1059V402Q356 283 404 220T559 156Q690 156 754 230T819 436V1059H1053V0H823V147H819Q772 65 688 18T516 -29Q313 -29 218 73T123 377V1059H356ZM708 1499L930 1206H739L594 1391L450 1206H262L481 1499H708Z"  />
<glyph unicode="&#xFC;" horiz-adv-x="1176" d="M356 1059V402Q356 283 404 220T559 156Q690 156 754 230T819 436V1059H1053V0H823V147H819Q772 65 688 18T516 -29Q313 -29 218 73T123 377V1059H356ZM534 1454V1233H301V1454H534ZM887 1454V1233H653V1454H887Z"  />
<glyph unicode="&#xFD;" horiz-adv-x="1063" d="M262 1059L539 268H543L811 1059H1055L646 -48Q580 -226 532 -293T419 -390T266 -420Q229 -420 189 -417T106 -408V-211Q132 -214 158 -219Q183 -225 217 -225Q330 -225 362 -130T408 4L6 1059H262ZM897 1499L606 1206H436L620 1499H897Z"  />
<glyph unicode="&#xFE;" horiz-adv-x="1251" d="M362 1462V922H367Q418 1000 504 1043T683 1087Q918 1087 1048 931T1178 524Q1178 286 1056 129T721 -29Q608 -29 511 14T367 137H362V-391H129V1462H362ZM354 528Q354 363 434 260T651 156Q792 156 868 260T944 528Q944 685 864 794T649 903Q510 903 432 805T354 528Z"  />
<glyph unicode="&#xFF;" horiz-adv-x="1063" d="M262 1059L539 268H543L811 1059H1055L646 -48Q580 -226 532 -293T419 -390T266 -420Q229 -420 189 -417T106 -408V-211Q132 -214 158 -219Q183 -225 217 -225Q330 -225 362 -130T408 4L6 1059H262ZM485 1454V1233H252V1454H485ZM838 1454V1233H604V1454H838Z"  />
<glyph unicode="&#x100;" horiz-adv-x="1366" d="M819 1462L1382 0H1108L971 387H387L250 0H-14L547 1462H819ZM678 1210L457 582H903L684 1210H678ZM979 1808V1675H389V1808H979Z"  />
<glyph unicode="&#x101;" horiz-adv-x="1139" d="M585 1087Q778 1087 894 1004T1010 786V230Q1010 188 1022 172T1073 156Q1082 156 1096 156T1122 160V-2Q1078 -15 1037 -22T974 -29Q898 -29 852 2T795 100Q730 37 629 4T428 -29Q270 -29 168 53T66 281Q66 421 143 494T339 589T607 629Q710 642 750 669T791 760Q791 829 736 866T572 903Q465 903 406 859T338 735H104Q116 909 239 998T585 1087ZM299 301Q299 234 352 195T500 156Q620 156 698 210T776 351V530Q732 503 684 494T521 472Q405 458 352 416T299 301ZM877 1411V1278H287V1411H877Z"  />
<glyph unicode="&#x102;" horiz-adv-x="1366" d="M819 1462L1382 0H1108L971 387H387L250 0H-14L547 1462H819ZM678 1210L457 582H903L684 1210H678ZM354 1894H473Q486 1822 540 1781T691 1739Q774 1739 827 1779T899 1894H1016Q998 1755 913 1681T676 1606Q532 1606 449 1680T354 1894Z"  />
<glyph unicode="&#x103;" horiz-adv-x="1139" d="M585 1087Q778 1087 894 1004T1010 786V230Q1010 188 1022 172T1073 156Q1082 156 1096 156T1122 160V-2Q1078 -15 1037 -22T974 -29Q898 -29 852 2T795 100Q730 37 629 4T428 -29Q270 -29 168 53T66 281Q66 421 143 494T339 589T607 629Q710 642 750 669T791 760Q791 829 736 866T572 903Q465 903 406 859T338 735H104Q116 909 239 998T585 1087ZM299 301Q299 234 352 195T500 156Q620 156 698 210T776 351V530Q732 503 684 494T521 472Q405 458 352 416T299 301ZM252 1497H371Q386 1419 442 1380T590 1341Q667 1341 722 1379T797 1497H914Q896 1355 808 1282T574 1208Q432 1208 348 1282T252 1497Z"  />
<glyph unicode="&#x104;" horiz-adv-x="1366" d="M819 1462L1382 0H1219Q1106 -91 1066 -145T1026 -263Q1026 -302 1048 -328T1108 -354Q1141 -354 1165 -338T1212 -285L1296 -303Q1275 -380 1218 -418T1081 -457Q991 -457 933 -409T874 -281Q874 -204 935 -135T1108 0L971 387H387L250 0H-14L547 1462H819ZM678 1210L457 582H903L684 1210H678Z"  />
<glyph unicode="&#x105;" horiz-adv-x="1139" d="M585 1087Q778 1087 894 1004T1010 786V230Q1010 188 1022 172T1073 156Q1082 156 1096 156T1122 160V-2Q1092 -12 1054 -19T973 -29Q908 -80 863 -138T817 -263Q817 -301 840 -327T898 -354Q933 -354 955 -338T1004 -285L1087 -303Q1066 -380 1010 -418T873 -457Q784 -457 725 -411T666 -273Q666 -199 725 -134T879 -12Q842 3 821 33T795 100Q730 37 629 4T428 -29Q270 -29 168 53T66 281Q66 420 142 493T335 589T607 629Q710 642 750 669T791 760Q791 829 736 866T572 903Q465 903 406 859T338 735H104Q116 909 240 998T585 1087ZM299 301Q299 234 352 195T500 156Q620 156 698 210T776 351V530Q732 503 684 494T521 472Q405 458 352 416T299 301Z"  />
<glyph unicode="&#x106;" horiz-adv-x="1479" d="M778 1497Q1034 1497 1203 1363T1399 997H1143Q1105 1143 1014 1215T778 1288Q571 1288 453 1133T334 731Q334 485 452 330T778 174Q934 174 1032 275T1151 557H1401Q1382 288 1210 127T778 -35Q469 -35 274 183T78 731Q78 1061 273 1279T778 1497ZM1139 1896L848 1604H678L862 1896H1139Z"  />
<glyph unicode="&#x107;" horiz-adv-x="1139" d="M594 1087Q796 1087 925 987T1071 705H838Q824 800 761 851T596 903Q461 903 383 805T305 519Q305 361 378 259T586 156Q686 156 752 217T838 397H1071Q1038 188 913 80T586 -29Q353 -29 213 122T72 518Q72 774 210 930T594 1087ZM952 1499L661 1206H491L675 1499H952Z"  />
<glyph unicode="&#x108;" horiz-adv-x="1479" d="M778 1497Q1034 1497 1203 1363T1399 997H1143Q1105 1143 1014 1215T778 1288Q571 1288 453 1133T334 731Q334 485 452 330T778 174Q934 174 1032 275T1151 557H1401Q1382 288 1210 127T778 -35Q469 -35 274 183T78 731Q78 1061 273 1279T778 1497ZM890 1896L1112 1604H921L776 1788L632 1604H444L663 1896H890Z"  />
<glyph unicode="&#x109;" horiz-adv-x="1139" d="M594 1087Q796 1087 925 987T1071 705H838Q824 800 761 851T596 903Q461 903 383 805T305 519Q305 361 378 259T586 156Q686 156 752 217T838 397H1071Q1038 188 913 80T586 -29Q353 -29 213 122T72 518Q72 774 210 930T594 1087ZM714 1499L936 1206H745L600 1391L456 1206H268L487 1499H714Z"  />
<glyph unicode="&#x10A;" horiz-adv-x="1479" d="M778 1497Q1034 1497 1203 1363T1399 997H1143Q1105 1143 1014 1215T778 1288Q571 1288 453 1133T334 731Q334 485 452 330T778 174Q934 174 1032 275T1151 557H1401Q1382 288 1210 127T778 -35Q469 -35 274 183T78 731Q78 1061 273 1279T778 1497ZM893 1851V1630H659V1851H893Z"  />
<glyph unicode="&#x10B;" horiz-adv-x="1139" d="M594 1087Q796 1087 925 987T1071 705H838Q824 800 761 851T596 903Q461 903 383 805T305 519Q305 361 378 259T586 156Q686 156 752 217T838 397H1071Q1038 188 913 80T586 -29Q353 -29 213 122T72 518Q72 774 210 930T594 1087ZM717 1454V1233H483V1454H717Z"  />
<glyph unicode="&#x10C;" horiz-adv-x="1479" d="M778 1497Q1034 1497 1203 1363T1399 997H1143Q1105 1143 1014 1215T778 1288Q571 1288 453 1133T334 731Q334 485 452 330T778 174Q934 174 1032 275T1151 557H1401Q1382 288 1210 127T778 -35Q469 -35 274 183T78 731Q78 1061 273 1279T778 1497ZM630 1896L774 1714L919 1896H1110L888 1604H661L442 1896H630Z"  />
<glyph unicode="&#x10D;" horiz-adv-x="1139" d="M594 1087Q796 1087 925 987T1071 705H838Q824 800 761 851T596 903Q461 903 383 805T305 519Q305 361 378 259T586 156Q686 156 752 217T838 397H1071Q1038 188 913 80T586 -29Q353 -29 213 122T72 518Q72 774 210 930T594 1087ZM454 1499L598 1317L743 1499H934L712 1206H485L266 1499H454Z"  />
<glyph unicode="&#x10E;" horiz-adv-x="1479" d="M772 1462Q1065 1462 1236 1268T1407 731Q1407 386 1235 193T769 0H156V1462H772ZM681 209Q908 209 1029 325T1151 731Q1151 1017 1030 1135T675 1253H412V209H681ZM524 1896L668 1714L813 1896H1004L782 1604H555L336 1896H524Z"  />
<glyph unicode="&#x10F;" horiz-adv-x="1251" d="M1120 1462V0H899V143H895Q848 56 762 14T567 -29Q340 -29 206 122T72 537Q72 794 201 940T530 1087Q646 1087 740 1043T883 922H887V1462H1120ZM305 518Q305 364 383 260T598 156Q737 156 816 263T895 531Q895 704 818 803T600 903Q460 903 383 796T305 518ZM1542 1462L1376 1169H1220L1286 1462H1542Z"  />
<glyph unicode="&#x110;" horiz-adv-x="1479" d="M772 1462Q1065 1462 1236 1268T1407 731Q1407 386 1234 193T772 0H156V676H6V836H156V1462H772ZM811 836V676H412V209H675Q908 209 1029 324T1151 731Q1151 1018 1030 1135T675 1253H412V836H811Z"  />
<glyph unicode="&#x111;" horiz-adv-x="1260" d="M1120 1462V1327H1284V1198H1120V0H899V143H895Q848 56 762 14T567 -29Q340 -29 206 122T72 537Q72 794 202 940T530 1087Q646 1087 740 1043T883 922H887V1198H541V1327H887V1462H1120ZM305 518Q305 364 383 260T598 156Q737 156 816 263T895 531Q895 704 818 803T600 903Q460 903 383 796T305 518Z"  />
<glyph unicode="&#x112;" horiz-adv-x="1290" d="M1208 1462V1241H412V858H1149V649H412V221H1223V0H156V1462H1208ZM971 1808V1675H381V1808H971Z"  />
<glyph unicode="&#x113;" horiz-adv-x="1139" d="M584 1087Q806 1087 947 929T1088 548Q1088 524 1087 505T1083 469H305Q305 327 382 242T590 156Q687 156 750 197T848 332H1069Q1033 163 900 67T589 -29Q349 -29 211 122T72 527Q72 764 216 925T584 1087ZM305 623H850Q838 751 765 827T582 903Q472 903 394 829T305 623ZM887 1411V1278H297V1411H887Z"  />
<glyph unicode="&#x114;" horiz-adv-x="1290" d="M1208 1462V1241H412V858H1149V649H412V221H1223V0H156V1462H1208ZM346 1894H465Q478 1822 532 1781T683 1739Q766 1739 819 1779T891 1894H1008Q990 1755 905 1681T668 1606Q524 1606 441 1680T346 1894Z"  />
<glyph unicode="&#x115;" horiz-adv-x="1139" d="M584 1087Q806 1087 947 929T1088 548Q1088 524 1087 505T1083 469H305Q305 327 382 242T590 156Q687 156 750 197T848 332H1069Q1033 163 900 67T589 -29Q349 -29 211 122T72 527Q72 764 216 925T584 1087ZM305 623H850Q838 751 765 827T582 903Q472 903 394 829T305 623ZM262 1497H381Q396 1419 452 1380T600 1341Q677 1341 732 1379T807 1497H924Q906 1355 818 1282T584 1208Q442 1208 358 1282T262 1497Z"  />
<glyph unicode="&#x116;" horiz-adv-x="1290" d="M1208 1462V1241H412V858H1149V649H412V221H1223V0H156V1462H1208ZM795 1851V1630H561V1851H795Z"  />
<glyph unicode="&#x117;" horiz-adv-x="1139" d="M584 1087Q806 1087 947 929T1088 548Q1088 524 1087 505T1083 469H305Q305 327 382 242T590 156Q687 156 750 197T848 332H1069Q1033 163 900 67T589 -29Q349 -29 211 122T72 527Q72 764 216 925T584 1087ZM305 623H850Q838 751 765 827T582 903Q472 903 394 829T305 623ZM709 1454V1233H475V1454H709Z"  />
<glyph unicode="&#x118;" horiz-adv-x="1290" d="M1208 1462V1241H412V858H1149V649H412V221H1223V0H1145Q1047 -77 1000 -136T952 -264Q952 -302 974 -328T1034 -354Q1069 -354 1093 -336T1139 -285L1223 -303Q1203 -378 1146 -417T1008 -457Q919 -457 860 -410T801 -281Q801 -196 869 -126T1034 0H156V1462H1208Z"  />
<glyph unicode="&#x119;" horiz-adv-x="1139" d="M584 1087Q806 1087 947 928T1088 548Q1088 524 1087 505T1083 469H305Q305 327 382 242T590 156Q687 156 750 197T848 332H1069Q1037 187 936 96T684 -20Q591 -97 555 -150T518 -264Q518 -302 540 -328T600 -354Q632 -354 655 -339T705 -285L788 -303Q767 -379 711 -418T573 -457Q486 -457 427 -411T367 -281Q367 -212 413 -152T555 -27Q323 -13 198 136T72 527Q72 767 216 927T584 1087ZM305 623H850Q838 751 765 827T582 903Q472 903 394 829T305 623Z"  />
<glyph unicode="&#x11A;" horiz-adv-x="1290" d="M1208 1462V1241H412V858H1149V649H412V221H1223V0H156V1462H1208ZM532 1896L676 1714L821 1896H1012L790 1604H563L344 1896H532Z"  />
<glyph unicode="&#x11B;" horiz-adv-x="1139" d="M584 1087Q806 1087 947 929T1088 548Q1088 524 1087 505T1083 469H305Q305 327 382 242T590 156Q687 156 750 197T848 332H1069Q1033 163 900 67T589 -29Q349 -29 211 122T72 527Q72 764 216 925T584 1087ZM305 623H850Q838 751 765 827T582 903Q472 903 394 829T305 623ZM444 1499L588 1317L733 1499H924L702 1206H475L256 1499H444Z"  />
<glyph unicode="&#x11C;" horiz-adv-x="1554" d="M788 1497Q1041 1497 1213 1365T1415 997H1165Q1146 1131 1042 1209T788 1288Q586 1288 465 1134T344 731Q344 488 461 331T796 174Q993 174 1093 283T1198 575H809V770H1432V0H1268L1229 172Q1138 67 1037 16T788 -35Q481 -35 285 183T88 731Q88 1062 284 1279T788 1497ZM907 1896L1129 1604H938L793 1788L649 1604H461L680 1896H907Z"  />
<glyph unicode="&#x11D;" horiz-adv-x="1214" d="M551 1087Q659 1087 740 1043T864 913H868V1059H1102V46Q1102 -175 973 -297T583 -420Q381 -420 252 -335T109 -90H342Q358 -167 415 -206T596 -246Q733 -246 800 -178T868 18V186H864Q812 97 729 49T546 0Q322 0 197 148T72 556Q72 787 206 937T551 1087ZM305 535Q305 382 380 283T584 184Q715 184 791 283T868 553Q868 714 793 808T583 903Q451 903 378 802T305 535ZM729 1499L951 1206H760L615 1391L471 1206H283L502 1499H729Z"  />
<glyph unicode="&#x11E;" horiz-adv-x="1554" d="M788 1497Q1041 1497 1213 1365T1415 997H1165Q1146 1131 1042 1209T788 1288Q586 1288 465 1134T344 731Q344 488 461 331T796 174Q993 174 1093 283T1198 575H809V770H1432V0H1268L1229 172Q1138 67 1037 16T788 -35Q481 -35 285 183T88 731Q88 1062 284 1279T788 1497ZM463 1894H582Q595 1822 649 1781T800 1739Q883 1739 936 1779T1008 1894H1125Q1107 1755 1022 1681T785 1606Q641 1606 558 1680T463 1894Z"  />
<glyph unicode="&#x11F;" horiz-adv-x="1214" d="M551 1087Q659 1087 740 1043T864 913H868V1059H1102V46Q1102 -175 973 -297T583 -420Q381 -420 252 -335T109 -90H342Q358 -167 415 -206T596 -246Q733 -246 800 -178T868 18V186H864Q812 97 729 49T546 0Q322 0 197 148T72 556Q72 787 206 937T551 1087ZM305 535Q305 382 380 283T584 184Q715 184 791 283T868 553Q868 714 793 808T583 903Q451 903 378 802T305 535ZM283 1497H402Q417 1419 473 1380T621 1341Q698 1341 753 1379T828 1497H945Q927 1355 839 1282T605 1208Q463 1208 379 1282T283 1497Z"  />
<glyph unicode="&#x120;" horiz-adv-x="1554" d="M788 1497Q1041 1497 1213 1365T1415 997H1165Q1146 1131 1042 1209T788 1288Q586 1288 465 1134T344 731Q344 488 461 331T796 174Q993 174 1093 283T1198 575H809V770H1432V0H1268L1229 172Q1138 67 1037 16T788 -35Q481 -35 285 183T88 731Q88 1062 284 1279T788 1497ZM908 1851V1630H674V1851H908Z"  />
<glyph unicode="&#x121;" horiz-adv-x="1214" d="M551 1087Q659 1087 740 1043T864 913H868V1059H1102V46Q1102 -175 973 -297T583 -420Q381 -420 252 -335T109 -90H342Q358 -167 415 -206T596 -246Q733 -246 800 -178T868 18V186H864Q812 97 729 49T546 0Q322 0 197 148T72 556Q72 787 206 937T551 1087ZM305 535Q305 382 380 283T584 184Q715 184 791 283T868 553Q868 714 793 808T583 903Q451 903 378 802T305 535ZM730 1454V1233H496V1454H730Z"  />
<glyph unicode="&#x122;" horiz-adv-x="1554" d="M788 1497Q1041 1497 1213 1365T1415 997H1165Q1146 1131 1042 1209T788 1288Q586 1288 465 1134T344 731Q344 488 461 331T796 174Q993 174 1093 283T1198 575H809V770H1432V0H1268L1229 172Q1138 67 1037 16T788 -35Q481 -35 285 183T88 731Q88 1062 284 1279T788 1497ZM916 -102V-289Q916 -361 863 -405T678 -457V-379Q721 -373 743 -357T770 -305H648V-102H916Z"  />
<glyph unicode="&#x123;" horiz-adv-x="1214" d="M551 1087Q659 1087 740 1043T864 913H868V1059H1102V46Q1102 -175 973 -297T583 -420Q381 -420 252 -335T109 -90H342Q358 -167 415 -206T596 -246Q733 -246 800 -178T868 18V186H864Q812 97 729 49T546 0Q322 0 197 148T72 556Q72 787 206 937T551 1087ZM305 535Q305 382 380 283T584 184Q715 184 791 283T868 553Q868 714 793 808T583 903Q451 903 378 802T305 535ZM717 1536Q676 1530 654 1514T625 1462H748V1260H480V1447Q480 1522 535 1564T717 1614V1536Z"  />
<glyph unicode="&#x124;" horiz-adv-x="1479" d="M406 1462V881H1071V1462H1327V0H1071V659H406V0H150V1462H406ZM854 1896L1076 1604H885L740 1788L596 1604H408L627 1896H854Z"  />
<glyph unicode="&#x125;" horiz-adv-x="1176" d="M356 1462V920H360Q412 1000 495 1043T679 1087Q862 1087 957 991T1053 735V0H819V667Q819 767 776 835T612 903Q493 903 425 820T356 631V0H123V1462H356ZM682 1896L904 1604H713L568 1788L424 1604H236L455 1896H682Z"  />
<glyph unicode="&#x126;" horiz-adv-x="1479" d="M406 1462V1196H1071V1462H1327V0H1071V588H406V0H150V1462H406ZM1071 801V1055H406V801H1071Z"  />
<glyph unicode="&#x127;" horiz-adv-x="1184" d="M365 1462V1327H711V1198H365V920H369Q417 997 501 1042T687 1087Q871 1087 966 991T1061 735V0H827V667Q827 768 783 835T621 903Q505 903 435 823T365 631V0H131V1198H-33V1327H131V1462H365Z"  />
<glyph unicode="&#x128;" horiz-adv-x="569" d="M412 1462V0H156V1462H412ZM533 1872H647Q632 1762 575 1699T421 1636Q380 1636 333 1651T234 1690Q183 1712 130 1712Q92 1712 71 1691T41 1628H-76Q-57 1732 1 1796T138 1860Q191 1860 241 1842T340 1803Q389 1782 430 1782Q470 1782 495 1802T533 1872Z"  />
<glyph unicode="&#x129;" horiz-adv-x="494" d="M362 1059V0H129V1059H362ZM496 1475H610Q595 1362 537 1301T384 1239Q320 1239 235 1277Q149 1315 93 1315Q55 1315 34 1294T4 1231H-113Q-95 1331 -38 1396T102 1462Q152 1462 190 1450T291 1411Q352 1384 393 1384Q430 1384 456 1403T496 1475Z"  />
<glyph unicode="&#x12A;" horiz-adv-x="569" d="M412 1462V0H156V1462H412ZM578 1808V1675H-12V1808H578Z"  />
<glyph unicode="&#x12B;" horiz-adv-x="494" d="M362 1059V0H129V1059H362ZM543 1411V1278H-47V1411H543Z"  />
<glyph unicode="&#x12C;" horiz-adv-x="569" d="M412 1462V0H156V1462H412ZM-45 1894H74Q87 1822 141 1781T292 1739Q375 1739 428 1779T500 1894H617Q599 1755 514 1681T277 1606Q133 1606 50 1680T-45 1894Z"  />
<glyph unicode="&#x12D;" horiz-adv-x="494" d="M362 1059V0H129V1059H362ZM-82 1497H37Q52 1419 108 1380T256 1341Q333 1341 388 1379T463 1497H580Q562 1355 474 1282T240 1208Q98 1208 14 1282T-82 1497Z"  />
<glyph unicode="&#x12E;" horiz-adv-x="569" d="M412 1462V0Q334 -67 287 -129T240 -264Q240 -304 260 -329T311 -354Q341 -354 362 -339T408 -285L483 -303Q463 -379 412 -418T289 -457Q207 -457 155 -409T102 -283Q102 -204 155 -136T313 0H156V1462H412Z"  />
<glyph unicode="&#x12F;" horiz-adv-x="494" d="M362 1462V1241H129V1462H362ZM362 1059V0Q275 -76 233 -136T190 -264Q190 -302 210 -328T262 -354Q293 -354 315 -338T358 -285L434 -303Q413 -380 362 -418T240 -457Q158 -457 106 -409T53 -283Q53 -205 106 -137T264 0H129V1059H362Z"  />
<glyph unicode="&#x130;" horiz-adv-x="569" d="M412 1462V0H156V1462H412ZM402 1851V1630H168V1851H402Z"  />
<glyph unicode="&#x131;" horiz-adv-x="494" d="M362 1059V0H129V1059H362Z"  />
<glyph unicode="&#x132;" horiz-adv-x="1653" d="M412 1462V0H156V1462H412ZM1496 1462V459Q1496 193 1376 79T1016 -35Q810 -35 695 82T579 440V512H835V412Q840 279 889 227T1035 174Q1144 174 1192 235T1240 446V1462H1496Z"  />
<glyph unicode="&#x133;" horiz-adv-x="979" d="M362 1462V1241H129V1462H362ZM362 1059V0H129V1059H362ZM847 1462V1241H614V1462H847ZM847 1059V-99Q847 -261 774 -340T543 -420Q514 -420 491 -419T440 -412V-227Q464 -232 484 -234T519 -236Q570 -236 592 -207T614 -92V1059H847Z"  />
<glyph unicode="&#x134;" horiz-adv-x="1100" d="M944 1462V459Q944 193 824 79T464 -35Q258 -35 143 82T27 440V512H283V412Q288 279 337 227T483 174Q592 174 640 235T688 446V1462H944ZM919 1896L1141 1604H950L805 1788L661 1604H473L692 1896H919Z"  />
<glyph unicode="&#x135;" horiz-adv-x="494" d="M362 1059V-99Q362 -261 287 -340T58 -420Q29 -420 6 -419T-45 -412V-227Q-21 -232 -1 -234T34 -236Q85 -236 107 -207T129 -92V1059H362ZM360 1499L582 1206H391L246 1391L102 1206H-86L133 1499H360Z"  />
<glyph unicode="&#x136;" horiz-adv-x="1403" d="M412 1462V797L1063 1462H1378L795 879L1419 0H1100L621 698L412 492V0H156V1462H412ZM852 -102V-289Q852 -361 799 -405T614 -457V-379Q657 -373 679 -357T706 -305H584V-102H852Z"  />
<glyph unicode="&#x137;" horiz-adv-x="1100" d="M362 1462V631L784 1059H1071L666 670L1110 0H825L502 514L362 379V0H129V1462H362ZM707 -102V-289Q707 -361 654 -405T469 -457V-379Q512 -373 534 -357T561 -305H439V-102H707Z"  />
<glyph unicode="&#x138;" horiz-adv-x="1100" d="M362 1059V631L784 1059H1071L666 670L1110 0H825L502 514L362 379V0H129V1059H362Z"  />
<glyph unicode="&#x139;" horiz-adv-x="1176" d="M412 1462V221H1155V0H156V1462H412ZM657 1896L366 1604H196L380 1896H657Z"  />
<glyph unicode="&#x13A;" horiz-adv-x="494" d="M362 1462V0H129V1462H362ZM592 1896L301 1604H131L315 1896H592Z"  />
<glyph unicode="&#x13B;" horiz-adv-x="1176" d="M412 1462V221H1155V0H156V1462H412ZM793 -102V-289Q793 -361 740 -405T555 -457V-379Q598 -373 620 -357T647 -305H525V-102H793Z"  />
<glyph unicode="&#x13C;" horiz-adv-x="494" d="M362 1462V0H129V1462H362ZM381 -102V-289Q381 -361 328 -405T143 -457V-379Q186 -373 208 -357T235 -305H113V-102H381Z"  />
<glyph unicode="&#x13D;" horiz-adv-x="1176" d="M412 1462V221H1155V0H156V1462H412ZM907 1462L741 1169H585L651 1462H907Z"  />
<glyph unicode="&#x13E;" horiz-adv-x="494" d="M362 1462V0H129V1462H362ZM784 1462L618 1169H462L528 1462H784Z"  />
<glyph unicode="&#x13F;" horiz-adv-x="1176" d="M412 1462V221H1155V0H156V1462H412ZM895 911V690H661V911H895Z"  />
<glyph unicode="&#x140;" horiz-adv-x="756" d="M362 1462V0H129V1462H362ZM732 911V690H498V911H732Z"  />
<glyph unicode="&#x141;" horiz-adv-x="1176" d="M412 1462V836L821 1126V936L412 645V221H1155V0H156V465L0 354V539L154 648H156V1462H412Z"  />
<glyph unicode="&#x142;" horiz-adv-x="494" d="M362 1462V981L502 1092V944L362 834V0H129V653L-10 545V690L129 799V1462H362Z"  />
<glyph unicode="&#x143;" horiz-adv-x="1479" d="M416 1462L1083 385H1087V1462H1331V0H1061L395 1075H389V0H145V1462H416ZM1098 1896L807 1604H637L821 1896H1098Z"  />
<glyph unicode="&#x144;" horiz-adv-x="1176" d="M679 1087Q862 1087 957 992T1053 735V0H819V667Q819 769 774 836T612 903Q492 903 424 820T356 631V0H123V1059H344V903L348 899Q405 991 491 1039T679 1087ZM942 1499L651 1206H481L665 1499H942Z"  />
<glyph unicode="&#x145;" horiz-adv-x="1479" d="M416 1462L1083 385H1087V1462H1331V0H1061L395 1075H389V0H145V1462H416ZM871 -102V-289Q871 -361 818 -405T633 -457V-379Q676 -373 698 -357T725 -305H603V-102H871Z"  />
<glyph unicode="&#x146;" horiz-adv-x="1176" d="M679 1087Q862 1087 957 992T1053 735V0H819V667Q819 769 774 836T612 903Q492 903 424 820T356 631V0H123V1059H344V903L348 899Q405 991 491 1039T679 1087ZM719 -102V-289Q719 -361 666 -405T481 -457V-379Q524 -373 546 -357T573 -305H451V-102H719Z"  />
<glyph unicode="&#x147;" horiz-adv-x="1479" d="M416 1462L1083 385H1087V1462H1331V0H1061L395 1075H389V0H145V1462H416ZM592 1896L736 1714L881 1896H1072L850 1604H623L404 1896H592Z"  />
<glyph unicode="&#x148;" horiz-adv-x="1176" d="M679 1087Q862 1087 957 992T1053 735V0H819V667Q819 769 774 836T612 903Q492 903 424 820T356 631V0H123V1059H344V903L348 899Q405 991 491 1039T679 1087ZM446 1499L590 1317L735 1499H926L704 1206H477L258 1499H446Z"  />
<glyph unicode="&#x149;" horiz-adv-x="1419" d="M923 1087Q1106 1087 1201 992T1297 735V0H1063V667Q1063 769 1018 836T856 903Q736 903 668 820T600 631V0H367V1059H588V903L592 899Q649 991 735 1039T923 1087ZM287 1462V1180Q287 1070 220 987T31 885V1004Q97 1013 127 1060T156 1186H31V1462H287Z"  />
<glyph unicode="&#x14A;" horiz-adv-x="1479" d="M416 1462L1083 385H1087V1462H1331V-36Q1331 -218 1237 -319T949 -420Q899 -420 863 -415T793 -403V-207Q831 -216 863 -220T924 -225Q1009 -225 1046 -177T1083 -34V-29L395 1075H389V0H145V1462H416Z"  />
<glyph unicode="&#x14B;" horiz-adv-x="1176" d="M679 1087Q862 1087 957 991T1053 735V-58Q1053 -227 966 -323T698 -420Q658 -420 629 -417T565 -406V-221Q587 -226 618 -231T674 -236Q752 -236 785 -186T819 -47V667Q819 781 770 842T612 903Q492 903 424 820T356 631V0H123V1059H344V903L348 899Q405 991 491 1039T679 1087Z"  />
<glyph unicode="&#x14C;" horiz-adv-x="1556" d="M778 1497Q1087 1497 1283 1279T1479 731Q1479 403 1284 184T778 -35Q469 -35 274 183T78 731Q78 1060 273 1278T778 1497ZM334 731Q334 485 452 330T778 174Q989 174 1106 331T1223 731Q1223 973 1106 1130T776 1288Q572 1288 453 1134T334 731ZM1075 1808V1675H485V1808H1075Z"  />
<glyph unicode="&#x14D;" horiz-adv-x="1214" d="M608 1087Q853 1087 998 933T1143 530Q1143 278 998 125T608 -29Q369 -29 222 122T74 530Q74 781 219 934T608 1087ZM307 530Q307 370 388 263T608 156Q745 156 827 260T909 530Q909 693 828 798T606 903Q469 903 388 796T307 530ZM908 1411V1278H318V1411H908Z"  />
<glyph unicode="&#x14E;" horiz-adv-x="1556" d="M778 1497Q1087 1497 1283 1279T1479 731Q1479 403 1284 184T778 -35Q469 -35 274 183T78 731Q78 1060 273 1278T778 1497ZM334 731Q334 485 452 330T778 174Q989 174 1106 331T1223 731Q1223 973 1106 1130T776 1288Q572 1288 453 1134T334 731ZM451 1894H570Q583 1822 637 1781T788 1739Q871 1739 924 1779T996 1894H1113Q1095 1755 1010 1681T773 1606Q629 1606 546 1680T451 1894Z"  />
<glyph unicode="&#x14F;" horiz-adv-x="1214" d="M608 1087Q853 1087 998 933T1143 530Q1143 278 998 125T608 -29Q369 -29 222 122T74 530Q74 781 219 934T608 1087ZM307 530Q307 370 388 263T608 156Q745 156 827 260T909 530Q909 693 828 798T606 903Q469 903 388 796T307 530ZM283 1497H402Q417 1419 473 1380T621 1341Q698 1341 753 1379T828 1497H945Q927 1355 839 1282T605 1208Q463 1208 379 1282T283 1497Z"  />
<glyph unicode="&#x150;" horiz-adv-x="1556" d="M778 1497Q1087 1497 1283 1279T1479 731Q1479 403 1284 184T778 -35Q469 -35 274 183T78 731Q78 1060 273 1278T778 1497ZM334 731Q334 485 452 330T778 174Q989 174 1106 331T1223 731Q1223 973 1106 1130T776 1288Q572 1288 453 1134T334 731ZM938 1896L643 1604H475L660 1896H938ZM1346 1896L1051 1604H883L1067 1896H1346Z"  />
<glyph unicode="&#x151;" horiz-adv-x="1214" d="M608 1087Q853 1087 998 933T1143 530Q1143 278 998 125T608 -29Q369 -29 222 122T74 530Q74 781 219 934T608 1087ZM307 530Q307 370 388 263T608 156Q745 156 827 260T909 530Q909 693 828 798T606 903Q469 903 388 796T307 530ZM770 1499L475 1206H307L492 1499H770ZM1178 1499L883 1206H715L899 1499H1178Z"  />
<glyph unicode="&#x152;" horiz-adv-x="2238" d="M772 1497Q897 1497 985 1460T1141 1346V1462H2140V1241H1374V858H2077V649H1374V221H2154V0H1141V131Q1068 46 968 6T755 -35Q562 -35 410 58T171 329T84 725Q84 1053 274 1275T772 1497ZM340 729Q340 487 458 331T780 174Q932 174 1031 259T1130 445V999Q1130 1119 1037 1203T778 1288Q577 1288 459 1130T340 729Z"  />
<glyph unicode="&#x153;" horiz-adv-x="1858" d="M578 1087Q715 1087 808 1041T948 909Q1002 994 1098 1040T1320 1087Q1559 1087 1683 927T1808 469H1034Q1034 326 1108 241T1311 156Q1401 156 1472 201T1563 336H1796Q1753 159 1627 65T1315 -29Q1174 -29 1081 18T936 166Q880 64 789 18T560 -29Q334 -29 203 126T72 532Q72 773 210 930T578 1087ZM305 536Q305 358 373 257T575 156Q710 156 778 257T846 536Q846 690 777 796T573 903Q447 903 376 798T305 536ZM1034 623H1575Q1566 764 1496 833T1299 903Q1196 903 1121 829T1034 623Z"  />
<glyph unicode="&#x154;" horiz-adv-x="1442" d="M865 1462Q1086 1462 1211 1362T1337 1067Q1337 928 1276 834T1096 698V694Q1201 680 1257 596T1314 378Q1314 233 1334 139T1393 0H1118Q1076 60 1079 218Q1079 455 1009 528T796 602H412V0H156V1462H865ZM838 797Q953 797 1017 854T1081 1030Q1081 1144 1023 1198T836 1253H412V797H838ZM1061 1896L770 1604H600L784 1896H1061Z"  />
<glyph unicode="&#x155;" horiz-adv-x="721" d="M668 1087Q699 1087 709 1086T743 1081V856Q717 861 692 863T644 866Q514 866 435 766T356 512V0H123V1059H342V854H346Q366 938 457 1012T668 1087ZM782 1499L491 1206H321L505 1499H782Z"  />
<glyph unicode="&#x156;" horiz-adv-x="1442" d="M865 1462Q1086 1462 1211 1362T1337 1067Q1337 928 1276 834T1096 698V694Q1201 680 1257 596T1314 378Q1314 233 1334 139T1393 0H1118Q1076 60 1079 218Q1079 455 1009 528T796 602H412V0H156V1462H865ZM838 797Q953 797 1017 854T1081 1030Q1081 1144 1023 1198T836 1253H412V797H838ZM864 -102V-289Q864 -361 811 -405T626 -457V-379Q669 -373 691 -357T718 -305H596V-102H864Z"  />
<glyph unicode="&#x157;" horiz-adv-x="721" d="M668 1087Q699 1087 709 1086T743 1081V856Q717 861 692 863T644 866Q514 866 435 766T356 512V0H123V1059H342V854H346Q366 938 457 1012T668 1087ZM375 -102V-289Q375 -361 322 -405T137 -457V-379Q180 -373 202 -357T229 -305H107V-102H375Z"  />
<glyph unicode="&#x158;" horiz-adv-x="1442" d="M865 1462Q1086 1462 1211 1362T1337 1067Q1337 928 1276 834T1096 698V694Q1201 680 1257 596T1314 378Q1314 233 1334 139T1393 0H1118Q1076 60 1079 218Q1079 455 1009 528T796 602H412V0H156V1462H865ZM838 797Q953 797 1017 854T1081 1030Q1081 1144 1023 1198T836 1253H412V797H838ZM553 1896L697 1714L842 1896H1033L811 1604H584L365 1896H553Z"  />
<glyph unicode="&#x159;" horiz-adv-x="721" d="M668 1087Q699 1087 709 1086T743 1081V856Q717 861 692 863T644 866Q514 866 435 766T356 512V0H123V1059H342V854H346Q366 938 457 1012T668 1087ZM286 1499L430 1317L575 1499H766L544 1206H317L98 1499H286Z"  />
<glyph unicode="&#x15A;" horiz-adv-x="1327" d="M657 1497Q899 1497 1057 1374T1219 1030H963V1032Q951 1161 873 1224T648 1288Q529 1288 454 1239T379 1098Q379 954 566 906T786 849Q991 797 1064 759T1198 630T1260 423Q1260 211 1099 88T678 -35Q402 -35 238 100T68 487H324Q326 331 426 253T694 174Q841 174 922 236T1004 396Q1004 540 859 583T667 639L464 690Q291 734 207 828T123 1067Q123 1264 276 1380T657 1497ZM1038 1896L747 1604H577L761 1896H1038Z"  />
<glyph unicode="&#x15B;" horiz-adv-x="1063" d="M530 1087Q721 1087 837 1004T973 762H729Q715 834 663 868T515 903Q428 903 375 875T322 795Q322 737 379 703T590 640Q832 595 920 519T1008 315Q1008 154 874 63T535 -29Q324 -29 198 65T66 340H299Q310 247 370 202T539 156Q647 156 710 188T774 288Q774 349 719 386T498 456Q243 505 166 583T88 784Q88 929 212 1008T530 1087ZM893 1499L602 1206H432L616 1499H893Z"  />
<glyph unicode="&#x15C;" horiz-adv-x="1327" d="M657 1497Q899 1497 1057 1374T1219 1030H963V1032Q951 1161 873 1224T648 1288Q529 1288 454 1239T379 1098Q379 954 566 906T786 849Q991 797 1064 759T1198 630T1260 423Q1260 211 1099 88T678 -35Q402 -35 238 100T68 487H324Q326 331 426 253T694 174Q841 174 922 236T1004 396Q1004 540 859 583T667 639L464 690Q291 734 207 828T123 1067Q123 1264 276 1380T657 1497ZM790 1896L1012 1604H821L676 1788L532 1604H344L563 1896H790Z"  />
<glyph unicode="&#x15D;" horiz-adv-x="1063" d="M530 1087Q721 1087 837 1004T973 762H729Q715 834 663 868T515 903Q428 903 375 875T322 795Q322 737 379 703T590 640Q832 595 920 519T1008 315Q1008 154 874 63T535 -29Q324 -29 198 65T66 340H299Q310 247 370 202T539 156Q647 156 710 188T774 288Q774 349 719 386T498 456Q243 505 166 583T88 784Q88 929 212 1008T530 1087ZM655 1499L877 1206H686L541 1391L397 1206H209L428 1499H655Z"  />
<glyph unicode="&#x15E;" horiz-adv-x="1327" d="M657 1497Q899 1497 1057 1374T1219 1030H963V1032Q951 1161 873 1224T648 1288Q529 1288 454 1239T379 1098Q379 954 566 906T786 849Q889 823 977 796T1127 714T1224 584T1260 423Q1260 222 1113 99T690 -35L625 -121L627 -123Q648 -118 663 -117T693 -115Q764 -115 816 -156T868 -268Q868 -361 797 -409T620 -457Q556 -457 503 -445T410 -410L446 -328Q488 -345 517 -352T586 -360Q645 -360 675 -339T705 -276Q705 -243 678 -221T610 -199Q588 -199 568 -203T530 -219L485 -180L591 -37L595 -31Q349 -8 211 124T68 487H324Q326 331 426 253T694 174Q841 174 922 236T1004 396Q1004 536 870 580T665 641Q597 656 447 695T210 827T123 1067Q123 1261 279 1379T657 1497Z"  />
<glyph unicode="&#x15F;" horiz-adv-x="1063" d="M530 1087Q721 1087 837 1004T973 762H729Q715 834 663 868T515 903Q428 903 375 875T322 795Q322 737 379 703T590 640Q832 595 920 519T1008 315Q1008 167 892 76T571 -27L500 -121L502 -123Q523 -118 538 -117T568 -115Q639 -115 691 -156T743 -268Q743 -361 672 -409T495 -457Q431 -457 378 -445T285 -410L322 -328Q359 -344 389 -352T461 -360Q520 -360 550 -339T580 -276Q580 -244 554 -222T485 -199Q463 -199 443 -203T406 -219L360 -180L475 -27H473Q285 -12 178 81T66 340H299Q310 247 370 202T539 156Q647 156 710 188T774 288Q774 349 719 386T498 456Q243 505 166 583T88 784Q88 929 212 1008T530 1087Z"  />
<glyph unicode="&#x160;" horiz-adv-x="1327" d="M657 1497Q899 1497 1057 1374T1219 1030H963V1032Q951 1161 873 1224T648 1288Q529 1288 454 1239T379 1098Q379 954 566 906T786 849Q991 797 1064 759T1198 630T1260 423Q1260 211 1099 88T678 -35Q402 -35 238 100T68 487H324Q326 331 426 253T694 174Q841 174 922 236T1004 396Q1004 540 859 583T667 639L464 690Q291 734 207 828T123 1067Q123 1264 276 1380T657 1497ZM530 1896L674 1714L819 1896H1010L788 1604H561L342 1896H530Z"  />
<glyph unicode="&#x161;" horiz-adv-x="1063" d="M530 1087Q721 1087 837 1004T973 762H729Q715 834 663 868T515 903Q428 903 375 875T322 795Q322 737 379 703T590 640Q832 595 920 519T1008 315Q1008 154 874 63T535 -29Q324 -29 198 65T66 340H299Q310 247 370 202T539 156Q647 156 710 188T774 288Q774 349 719 386T498 456Q243 505 166 583T88 784Q88 929 212 1008T530 1087ZM397 1499L541 1317L686 1499H877L655 1206H428L209 1499H397Z"  />
<glyph unicode="&#x162;" horiz-adv-x="1214" d="M1200 1462V1241H735V0H479V1241H16V1462H1200ZM740 -102V-289Q740 -361 687 -405T502 -457V-379Q545 -373 567 -357T594 -305H472V-102H740Z"  />
<glyph unicode="&#x163;" horiz-adv-x="682" d="M426 1376V1059H637V885H426V308Q426 226 450 200T542 174Q575 174 602 177T637 182V2Q569 -6 538 -8T485 -10Q318 -10 256 52T193 271V885H16V1059H193V1376H426ZM553 -102V-289Q553 -361 500 -405T315 -457V-379Q358 -373 380 -357T407 -305H285V-102H553Z"  />
<glyph unicode="&#x164;" horiz-adv-x="1214" d="M1200 1462V1241H735V0H479V1241H16V1462H1200ZM465 1896L609 1714L754 1896H945L723 1604H496L277 1896H465Z"  />
<glyph unicode="&#x165;" horiz-adv-x="682" d="M426 1376V1059H637V885H426V308Q426 226 450 200T542 174Q575 174 602 177T637 182V2Q569 -6 538 -8T485 -10Q318 -10 256 52T193 271V885H16V1059H193V1376H426ZM862 1462L696 1169H540L606 1462H862Z"  />
<glyph unicode="&#x166;" horiz-adv-x="1214" d="M1200 1462V1241H735V965H1049V813H735V0H479V813H168V965H479V1241H16V1462H1200Z"  />
<glyph unicode="&#x167;" horiz-adv-x="682" d="M426 1376V1059H637V885H426V692H618V563H426V308Q426 226 450 200T551 174Q584 174 607 177T637 182V2Q570 -6 539 -8T484 -10Q324 -10 259 47T193 251V563H29V692H193V885H16V1059H193V1376H426Z"  />
<glyph unicode="&#x168;" horiz-adv-x="1479" d="M395 1462V597Q395 354 483 270T739 186Q851 186 928 223T1044 339T1083 592V1462H1339V516Q1339 262 1183 114T739 -35Q450 -35 295 115T139 517V1462H395ZM988 1872H1102Q1087 1762 1030 1699T876 1636Q835 1636 788 1651T689 1690Q638 1712 585 1712Q547 1712 526 1691T496 1628H379Q398 1732 456 1796T593 1860Q646 1860 696 1842T795 1803Q844 1782 885 1782Q925 1782 950 1802T988 1872Z"  />
<glyph unicode="&#x169;" horiz-adv-x="1176" d="M356 1059V402Q356 283 404 220T559 156Q690 156 754 230T819 436V1059H1053V0H823V147H819Q772 65 688 18T516 -29Q313 -29 218 73T123 377V1059H356ZM842 1475H956Q941 1362 883 1301T730 1239Q666 1239 581 1277Q495 1315 439 1315Q401 1315 380 1294T350 1231H233Q251 1331 308 1396T448 1462Q498 1462 536 1450T637 1411Q698 1384 739 1384Q776 1384 802 1403T842 1475Z"  />
<glyph unicode="&#x16A;" horiz-adv-x="1479" d="M395 1462V597Q395 354 483 270T739 186Q851 186 928 223T1044 339T1083 592V1462H1339V516Q1339 262 1183 114T739 -35Q450 -35 295 115T139 517V1462H395ZM1035 1808V1675H445V1808H1035Z"  />
<glyph unicode="&#x16B;" horiz-adv-x="1176" d="M356 1059V402Q356 283 404 220T559 156Q690 156 754 230T819 436V1059H1053V0H823V147H819Q772 65 688 18T516 -29Q313 -29 218 73T123 377V1059H356ZM889 1411V1278H299V1411H889Z"  />
<glyph unicode="&#x16C;" horiz-adv-x="1479" d="M395 1462V597Q395 354 483 270T739 186Q851 186 928 223T1044 339T1083 592V1462H1339V516Q1339 262 1183 114T739 -35Q450 -35 295 115T139 517V1462H395ZM410 1894H529Q542 1822 596 1781T747 1739Q830 1739 883 1779T955 1894H1072Q1054 1755 969 1681T732 1606Q588 1606 505 1680T410 1894Z"  />
<glyph unicode="&#x16D;" horiz-adv-x="1176" d="M356 1059V402Q356 283 404 220T559 156Q690 156 754 230T819 436V1059H1053V0H823V147H819Q772 65 688 18T516 -29Q313 -29 218 73T123 377V1059H356ZM264 1497H383Q398 1419 454 1380T602 1341Q679 1341 734 1379T809 1497H926Q908 1355 820 1282T586 1208Q444 1208 360 1282T264 1497Z"  />
<glyph unicode="&#x16E;" horiz-adv-x="1479" d="M395 1462V597Q395 354 483 270T739 186Q851 186 928 223T1044 339T1083 592V1462H1339V516Q1339 262 1183 114T739 -35Q450 -35 295 115T139 517V1462H395ZM742 1960Q831 1960 893 1901T955 1749Q955 1660 893 1599T742 1538Q653 1538 591 1597T529 1749Q529 1841 592 1900T742 1960ZM619 1749Q619 1697 654 1661T742 1624Q796 1624 830 1660T865 1749Q865 1801 832 1837T741 1874Q690 1874 655 1838T619 1749Z"  />
<glyph unicode="&#x16F;" horiz-adv-x="1176" d="M356 1059V402Q356 283 404 220T559 156Q690 156 754 230T819 436V1059H1053V0H823V147H819Q772 65 688 18T516 -29Q313 -29 218 73T123 377V1059H356ZM598 1591Q689 1591 750 1531T811 1380Q811 1291 749 1230T598 1169Q508 1169 447 1229T385 1380Q385 1470 446 1530T598 1591ZM475 1380Q475 1327 511 1291T598 1255Q650 1255 685 1291T721 1380Q721 1433 688 1469T597 1505Q545 1505 510 1469T475 1380Z"  />
<glyph unicode="&#x170;" horiz-adv-x="1479" d="M395 1462V597Q395 354 483 270T739 186Q851 186 928 223T1044 339T1083 592V1462H1339V516Q1339 262 1183 114T739 -35Q450 -35 295 115T139 517V1462H395ZM897 1896L602 1604H434L619 1896H897ZM1305 1896L1010 1604H842L1026 1896H1305Z"  />
<glyph unicode="&#x171;" horiz-adv-x="1176" d="M356 1059V402Q356 283 404 220T559 156Q690 156 754 230T819 436V1059H1053V0H823V147H819Q772 65 688 18T516 -29Q313 -29 218 73T123 377V1059H356ZM751 1499L456 1206H288L473 1499H751ZM1159 1499L864 1206H696L880 1499H1159Z"  />
<glyph unicode="&#x172;" horiz-adv-x="1479" d="M395 1462V597Q395 354 483 270T739 186Q851 186 928 223T1044 339T1083 592V1462H1339V517Q1339 285 1208 139T826 -31Q750 -94 711 -146T672 -263Q672 -302 694 -328T754 -354Q787 -354 811 -338T858 -285L942 -303Q921 -380 864 -418T727 -457Q638 -457 579 -410T520 -281Q520 -211 566 -151T698 -33Q428 -21 284 125T139 517V1462H395Z"  />
<glyph unicode="&#x173;" horiz-adv-x="1176" d="M356 1059V402Q356 283 404 220T559 156Q690 156 754 230T819 436V1059H1053V0H934Q848 -70 798 -130T748 -263Q748 -306 771 -330T830 -354Q865 -354 889 -335T934 -285L1018 -303Q997 -380 940 -418T803 -457Q714 -457 655 -410T596 -281Q596 -205 653 -138T823 0V147H819Q772 63 688 17T516 -29Q313 -29 218 73T123 377V1059H356Z"  />
<glyph unicode="&#x174;" horiz-adv-x="1933" d="M272 1462L537 344H541L836 1462H1098L1384 344H1389L1661 1462H1921L1518 0H1257L964 1118H961L662 0H397L12 1462H272ZM1081 1896L1303 1604H1112L967 1788L823 1604H635L854 1896H1081Z"  />
<glyph unicode="&#x175;" horiz-adv-x="1593" d="M274 1059L481 268H485L684 1059H920L1110 268H1114L1329 1059H1567L1235 0H995L799 786H795L600 0H354L27 1059H274ZM921 1499L1143 1206H952L807 1391L663 1206H475L694 1499H921Z"  />
<glyph unicode="&#x176;" horiz-adv-x="1327" d="M285 1462L672 807L1053 1462H1339L793 573V0H537V573L-12 1462H285ZM790 1896L1012 1604H821L676 1788L532 1604H344L563 1896H790Z"  />
<glyph unicode="&#x177;" horiz-adv-x="1063" d="M262 1059L539 268H543L811 1059H1055L646 -48Q580 -226 532 -293T419 -390T266 -420Q229 -420 189 -417T106 -408V-211Q132 -214 158 -219Q183 -225 217 -225Q330 -225 362 -130T408 4L6 1059H262ZM659 1499L881 1206H690L545 1391L401 1206H213L432 1499H659Z"  />
<glyph unicode="&#x178;" horiz-adv-x="1327" d="M285 1462L672 807L1053 1462H1339L793 573V0H537V573L-12 1462H285ZM616 1851V1630H383V1851H616ZM969 1851V1630H735V1851H969Z"  />
<glyph unicode="&#x179;" horiz-adv-x="1290" d="M1225 1462V1268L373 221H1245V0H47V209L899 1241H113V1462H1225ZM1024 1896L733 1604H563L747 1896H1024Z"  />
<glyph unicode="&#x17A;" horiz-adv-x="1024" d="M946 1059V895L341 184H977V0H45V164L631 874H86V1059H946ZM866 1499L575 1206H405L589 1499H866Z"  />
<glyph unicode="&#x17B;" horiz-adv-x="1290" d="M1225 1462V1268L373 221H1245V0H47V209L899 1241H113V1462H1225ZM779 1851V1630H545V1851H779Z"  />
<glyph unicode="&#x17C;" horiz-adv-x="1024" d="M946 1059V895L341 184H977V0H45V164L631 874H86V1059H946ZM631 1454V1233H397V1454H631Z"  />
<glyph unicode="&#x17D;" horiz-adv-x="1290" d="M1225 1462V1268L373 221H1245V0H47V209L899 1241H113V1462H1225ZM518 1896L662 1714L807 1896H998L776 1604H549L330 1896H518Z"  />
<glyph unicode="&#x17E;" horiz-adv-x="1024" d="M946 1059V895L341 184H977V0H45V164L631 874H86V1059H946ZM370 1499L514 1317L659 1499H850L628 1206H401L182 1499H370Z"  />
<glyph unicode="&#x192;" horiz-adv-x="1139" d="M884 1497Q914 1497 946 1495T1032 1487L997 1303Q968 1309 947 1311T913 1313Q834 1313 797 1282T741 1149L692 897H901L870 723H662L513 -54Q490 -172 391 -260T158 -348Q117 -348 88 -346T1 -338L31 -154Q65 -160 86 -162T129 -164Q196 -164 227 -136T270 -49L424 723H238L268 897H457L518 1222Q543 1350 633 1423T884 1497Z"  />
<glyph unicode="&#x1FA;" horiz-adv-x="1366" d="M954 1960L748 1757H584L707 1960H954ZM686 1714Q768 1714 824 1660T881 1524Q881 1491 869 1457T829 1393L1382 0H1108L971 387H387L250 0H-14L537 1397Q511 1425 500 1458T489 1524Q489 1606 545 1660T686 1714ZM573 1524Q573 1475 604 1444T684 1413Q734 1413 765 1444T797 1524Q797 1570 767 1603T685 1636Q636 1636 605 1604T573 1524ZM678 1190L457 583H903L684 1190H678Z"  />
<glyph unicode="&#x1FB;" horiz-adv-x="1139" d="M922 1896L653 1636H487L653 1896H922ZM580 1577Q668 1577 730 1518T793 1366Q793 1275 730 1215T580 1155Q491 1155 429 1214T367 1366Q367 1460 430 1518T580 1577ZM457 1366Q457 1314 492 1278T580 1241Q632 1241 667 1276T702 1366Q702 1421 668 1456T579 1491Q527 1491 492 1455T457 1366ZM585 1087Q778 1087 894 1004T1010 786V230Q1010 188 1022 172T1073 156Q1082 156 1096 156T1122 160V-2Q1078 -15 1037 -22T974 -29Q898 -29 852 2T795 100Q730 37 629 4T428 -29Q270 -29 168 53T66 281Q66 420 142 493T342 590T607 629Q710 642 750 669T791 760Q791 829 736 866T572 903Q465 903 406 859T338 735H104Q116 909 239 998T585 1087ZM299 301Q299 234 352 195T500 156Q620 156 698 209T776 351V530Q732 503 684 494T521 472Q405 458 352 416T299 301Z"  />
<glyph unicode="&#x1FC;" horiz-adv-x="1972" d="M1892 1462V1241H1180V858H1847V649H1180V221H1905V0H936V375H446L270 0H-14L713 1462H1892ZM541 569H936V1241H862L541 569ZM1565 1896L1274 1604H1104L1288 1896H1565Z"  />
<glyph unicode="&#x1FD;" horiz-adv-x="1821" d="M580 1087Q723 1087 806 1050T938 944Q991 1014 1076 1050T1274 1087Q1510 1087 1639 941T1768 541V498Q1766 477 1766 469H997Q997 326 1071 241T1274 156Q1362 156 1426 199T1524 334H1757Q1711 161 1582 66T1278 -29Q1144 -29 1044 19T889 166Q824 68 709 20T450 -29Q274 -29 170 54T66 282Q66 429 148 497T313 582T538 621L622 633Q721 650 747 675T778 751Q777 841 721 872T572 903Q465 903 406 859T338 735H104Q116 909 239 998T580 1087ZM997 623H1532Q1532 757 1460 830T1263 903Q1151 903 1080 828T997 623ZM299 292Q299 225 356 191T512 156Q623 156 699 216T776 364V526Q765 512 730 500T620 482Q404 463 352 417T299 292ZM1309 1499L1018 1206H848L1032 1499H1309Z"  />
<glyph unicode="&#x1FE;" horiz-adv-x="1556" d="M1386 1503L1475 1430L1313 1247Q1396 1139 1437 1007T1479 731Q1479 516 1390 338T1140 62T778 -35Q645 -35 532 7T325 132L168 -41L82 33L244 217Q160 327 119 458T78 731Q78 945 166 1122T414 1398T778 1497Q915 1497 1028 1456T1233 1331L1386 1503ZM334 731Q334 630 353 549T408 401L1080 1158H1082Q1028 1223 952 1255T776 1288Q573 1288 454 1133T334 731ZM1147 1061L475 303Q537 236 613 205T778 174Q988 174 1105 331T1223 732Q1223 837 1202 922T1147 1061ZM1143 1896L852 1604H682L866 1896H1143Z"  />
<glyph unicode="&#x1FF;" horiz-adv-x="1214" d="M1085 1116L1151 1059L1018 913Q1081 837 1112 742T1143 530Q1143 278 997 125T608 -29Q500 -29 412 2T262 86L131 -57L66 0L198 146H200Q136 223 105 318T74 530Q74 781 219 934T608 1087Q710 1087 797 1060T956 975L1085 1116ZM307 530Q307 479 317 424T354 317L811 817Q777 857 727 880T606 903Q470 903 389 797T307 530ZM406 242Q442 200 492 178T608 156Q745 156 827 260T909 530Q909 597 896 649T862 741L406 242ZM965 1499L674 1206H504L688 1499H965Z"  />
<glyph unicode="&#x218;" horiz-adv-x="1327" d="M657 1497Q899 1497 1057 1374T1219 1030H963V1032Q951 1161 873 1224T648 1288Q529 1288 454 1239T379 1098Q379 954 566 906T786 849Q991 797 1064 759T1198 630T1260 423Q1260 211 1099 88T678 -35Q402 -35 238 100T68 487H324Q326 331 426 253T694 174Q841 174 922 236T1004 396Q1004 540 859 583T667 639L464 690Q291 734 207 828T123 1067Q123 1264 276 1380T657 1497ZM791 -102V-289Q791 -361 738 -405T553 -457V-379Q596 -373 618 -357T645 -305H523V-102H791Z"  />
<glyph unicode="&#x219;" horiz-adv-x="1063" d="M530 1087Q721 1087 837 1004T973 762H729Q715 834 663 868T515 903Q428 903 375 875T322 795Q322 737 379 703T590 640Q832 595 920 519T1008 315Q1008 154 874 63T535 -29Q324 -29 198 65T66 340H299Q310 247 370 202T539 156Q647 156 710 188T774 288Q774 349 719 386T498 456Q243 505 166 583T88 784Q88 929 212 1008T530 1087ZM666 -102V-289Q666 -361 613 -405T428 -457V-379Q471 -373 493 -357T520 -305H398V-102H666Z"  />
<glyph unicode="&#x21A;" horiz-adv-x="1214" d="M1200 1462V1241H735V0H479V1241H16V1462H1200ZM740 -102V-289Q740 -361 687 -405T502 -457V-379Q545 -373 567 -357T594 -305H472V-102H740Z"  />
<glyph unicode="&#x21B;" horiz-adv-x="682" d="M426 1376V1059H637V885H426V308Q426 226 450 200T542 174Q575 174 602 177T637 182V2Q569 -6 538 -8T485 -10Q318 -10 256 52T193 271V885H16V1059H193V1376H426ZM553 -102V-289Q553 -361 500 -405T315 -457V-379Q358 -373 380 -357T407 -305H285V-102H553Z"  />
<glyph unicode="&#x237;" horiz-adv-x="494" d="M362 1059V-99Q362 -261 287 -340T58 -420Q29 -420 6 -419T-45 -412V-227Q-21 -232 -1 -234T34 -236Q85 -236 107 -207T129 -92V1059H362Z"  />
<glyph unicode="&#x2C6;" horiz-adv-x="494" d="M360 1499L582 1206H391L246 1391L102 1206H-86L133 1499H360Z"  />
<glyph unicode="&#x2C7;" horiz-adv-x="494" d="M100 1499L244 1317L389 1499H580L358 1206H131L-88 1499H100Z"  />
<glyph unicode="&#x2C9;" horiz-adv-x="494" d="M543 1411V1278H-47V1411H543Z"  />
<glyph unicode="&#x2D8;" horiz-adv-x="494" d="M-84 1497H35Q50 1419 106 1380T254 1341Q331 1341 386 1379T461 1497H578Q560 1355 472 1282T238 1208Q96 1208 12 1282T-84 1497Z"  />
<glyph unicode="&#x2D9;" horiz-adv-x="494" d="M365 1454V1233H131V1454H365Z"  />
<glyph unicode="&#x2DA;" horiz-adv-x="494" d="M248 1591Q339 1591 400 1531T461 1380Q461 1291 399 1230T248 1169Q158 1169 97 1229T35 1380Q35 1470 96 1530T248 1591ZM125 1380Q125 1327 161 1291T248 1255Q300 1255 335 1291T371 1380Q371 1433 338 1469T247 1505Q195 1505 160 1469T125 1380Z"  />
<glyph unicode="&#x2DB;" horiz-adv-x="494" d="M332 0H442Q345 -77 298 -135T250 -263Q250 -302 272 -328T332 -354Q365 -354 389 -338T436 -285L520 -303Q499 -380 442 -418T305 -457Q213 -457 156 -409T98 -281Q98 -207 155 -139T332 0Z"  />
<glyph unicode="&#x2DC;" horiz-adv-x="494" d="M494 1475H608Q593 1362 535 1301T382 1239Q318 1239 233 1277Q147 1315 91 1315Q53 1315 32 1294T2 1231H-115Q-97 1331 -40 1396T100 1462Q150 1462 188 1450T289 1411Q350 1384 391 1384Q428 1384 454 1403T494 1475Z"  />
<glyph unicode="&#x2DD;" horiz-adv-x="494" d="M391 1499L96 1206H-72L113 1499H391ZM799 1499L504 1206H336L520 1499H799Z"  />
<glyph unicode="&#x374;" horiz-adv-x="569" d="M485 1499L317 1149H131L207 1499H485Z"  />
<glyph unicode="&#x375;" horiz-adv-x="569" d="M426 -66L350 -416H72L240 -66H426Z"  />
<glyph unicode="&#x37E;" horiz-adv-x="569" d="M426 1036V760H141V1036H426ZM426 276V-1Q426 -115 357 -204T150 -324V-199Q210 -182 246 -131T283 0H141V276H426Z"  />
<glyph unicode="&#x384;" horiz-adv-x="494" d="M498 1499L340 1196H150L219 1499H498Z"  />
<glyph unicode="&#x385;" horiz-adv-x="864" d="M608 1493L469 1196H289L365 1493H608ZM244 1454V1233H29V1454H244ZM850 1454V1233H633V1454H850Z"  />
<glyph unicode="&#x386;" horiz-adv-x="1380" d="M819 1462L1382 0H1108L971 387H387L250 0H-14L547 1462H819ZM678 1210L457 582H903L684 1210H678ZM357 1462L199 1159H9L78 1462H357Z"  />
<glyph unicode="&#x387;" horiz-adv-x="569" d="M426 1036V760H141V1036H426Z"  />
<glyph unicode="&#x388;" horiz-adv-x="1583" d="M1501 1462V1241H705V858H1442V649H705V221H1516V0H449V1462H1501ZM357 1463L199 1160H9L78 1463H357Z"  />
<glyph unicode="&#x389;" horiz-adv-x="1772" d="M699 1462V881H1364V1462H1620V0H1364V659H699V0H443V1462H699ZM357 1462L199 1159H9L78 1462H357Z"  />
<glyph unicode="&#x38A;" horiz-adv-x="862" d="M705 1462V0H449V1462H705ZM357 1462L199 1159H9L78 1462H357Z"  />
<glyph unicode="&#x38C;" horiz-adv-x="1806" d="M1028 1497Q1337 1497 1533 1279T1729 731Q1729 403 1534 184T1028 -35Q719 -35 524 183T328 731Q328 1060 523 1278T1028 1497ZM584 731Q584 485 702 330T1028 174Q1239 174 1356 331T1473 731Q1473 973 1356 1130T1026 1288Q822 1288 703 1134T584 731ZM357 1463L199 1160H9L78 1463H357Z"  />
<glyph unicode="&#x38E;" horiz-adv-x="1724" d="M682 1462L1069 807L1450 1462H1736L1190 573V0H934V573L385 1462H682ZM357 1462L199 1159H9L78 1462H357Z"  />
<glyph unicode="&#x38F;" horiz-adv-x="1821" d="M1041 1497Q1244 1497 1403 1407T1650 1159T1737 819Q1737 635 1662 487T1430 225V215H1759V0H1153V195Q1317 291 1399 449T1481 820Q1481 1024 1360 1156T1041 1288Q840 1288 715 1154T590 800Q590 591 675 441T926 195V0H318V215H625V225Q474 331 404 471T334 799Q334 1100 533 1298T1041 1497ZM357 1462L199 1159H9L78 1462H357Z"  />
<glyph unicode="&#x390;" horiz-adv-x="524" d="M362 1059V247Q362 203 378 180T433 156Q454 156 468 159T500 166V6Q461 -13 422 -21T338 -29Q230 -29 180 27T129 183V1059H362ZM444 1493L305 1196H125L201 1493H444ZM80 1454V1233H-135V1454H80ZM686 1454V1233H469V1454H686Z"  />
<glyph unicode="&#x391;" horiz-adv-x="1366" d="M819 1462L1382 0H1108L971 387H387L250 0H-14L547 1462H819ZM678 1210L457 582H903L684 1210H678Z"  />
<glyph unicode="&#x392;" horiz-adv-x="1442" d="M875 1462Q1065 1462 1182 1371T1300 1100Q1300 989 1248 912T1092 788V784Q1224 756 1295 657T1366 408Q1366 213 1224 107T838 0H156V1462H875ZM834 850Q922 850 983 902T1044 1054Q1044 1156 993 1204T837 1253H412V850H834ZM871 209Q979 209 1044 269T1110 440Q1110 551 1044 608T871 666H412V209H871Z"  />
<glyph unicode="&#x393;" horiz-adv-x="1182" d="M1167 1462V1241H412V0H156V1462H1167Z"  />
<glyph unicode="&#x394;" horiz-adv-x="1346" d="M809 1462L1362 0H-14L537 1462H809ZM328 215H1012L670 1202L328 215Z"  />
<glyph unicode="&#x395;" horiz-adv-x="1290" d="M1208 1462V1241H412V858H1149V649H412V221H1223V0H156V1462H1208Z"  />
<glyph unicode="&#x396;" horiz-adv-x="1290" d="M1225 1462V1268L373 221H1245V0H47V209L899 1241H113V1462H1225Z"  />
<glyph unicode="&#x397;" horiz-adv-x="1479" d="M406 1462V881H1071V1462H1327V0H1071V659H406V0H150V1462H406Z"  />
<glyph unicode="&#x398;" horiz-adv-x="1556" d="M778 1497Q1089 1497 1284 1278T1479 731Q1479 403 1284 184T778 -35Q469 -35 274 183T78 731Q78 1060 273 1278T778 1497ZM334 731Q334 485 452 330T778 174Q989 174 1106 331T1223 731Q1223 973 1106 1130T776 1288Q575 1288 455 1134T334 731ZM1051 856V635H506V856H1051Z"  />
<glyph unicode="&#x399;" horiz-adv-x="569" d="M412 1462V0H156V1462H412Z"  />
<glyph unicode="&#x39A;" horiz-adv-x="1403" d="M412 1462V797L1063 1462H1378L795 879L1419 0H1100L621 698L412 492V0H156V1462H412Z"  />
<glyph unicode="&#x39B;" horiz-adv-x="1309" d="M795 1462L1323 1H1051L657 1210H651L250 0H-14L520 1462H795Z"  />
<glyph unicode="&#x39C;" horiz-adv-x="1821" d="M512 1462L915 317H920L1313 1462H1669V0H1425V1128H1421L1016 0H805L399 1128H395V0H152V1462H512Z"  />
<glyph unicode="&#x39D;" horiz-adv-x="1479" d="M416 1462L1083 385H1087V1462H1331V0H1061L395 1075H389V0H145V1462H416Z"  />
<glyph unicode="&#x39E;" horiz-adv-x="1196" d="M1110 1462V1243H86V1462H1110ZM1024 864V647H172V864H1024ZM1128 219V0H68V219H1128Z"  />
<glyph unicode="&#x39F;" horiz-adv-x="1556" d="M778 1497Q1087 1497 1283 1279T1479 731Q1479 403 1284 184T778 -35Q469 -35 274 183T78 731Q78 1060 273 1278T778 1497ZM334 731Q334 485 452 330T778 174Q989 174 1106 331T1223 731Q1223 973 1106 1130T776 1288Q572 1288 453 1134T334 731Z"  />
<glyph unicode="&#x3A0;" horiz-adv-x="1479" d="M1327 1462V0H1071V1243H406V0H150V1462H1327Z"  />
<glyph unicode="&#x3A1;" horiz-adv-x="1366" d="M811 1462Q1045 1462 1171 1342T1298 1010Q1298 796 1171 679T811 561H412V0H156V1462H811ZM792 770Q896 770 969 832T1042 1012Q1042 1135 979 1194T798 1253H412V770H792Z"  />
<glyph unicode="&#x3A3;" horiz-adv-x="1288" d="M1186 1462V1243H440L911 768L408 219H1219V0H80V213L594 758L104 1247V1462H1186Z"  />
<glyph unicode="&#x3A4;" horiz-adv-x="1214" d="M1200 1462V1241H735V0H479V1241H16V1462H1200Z"  />
<glyph unicode="&#x3A5;" horiz-adv-x="1327" d="M285 1462L672 807L1053 1462H1339L793 573V0H537V573L-12 1462H285Z"  />
<glyph unicode="&#x3A6;" horiz-adv-x="1628" d="M946 1526V1382Q1241 1371 1395 1218T1550 782Q1550 504 1387 335T946 154V0H688V154Q398 166 238 330T78 774Q78 1052 238 1211T688 1382V1526H946ZM334 774Q334 570 421 466T690 354V1182Q515 1177 425 1076T334 774ZM946 354Q1121 363 1207 468T1294 782Q1294 991 1209 1084T946 1182V354Z"  />
<glyph unicode="&#x3A7;" horiz-adv-x="1327" d="M334 1462L666 946L1012 1462H1298L815 758L1333 0H1022L657 559L287 0H-6L512 758L29 1462H334Z"  />
<glyph unicode="&#x3A8;" horiz-adv-x="1708" d="M383 1462V891Q383 699 464 612T727 522V1462H983V524Q1168 526 1245 616T1323 891V1462H1581V887Q1581 625 1436 479T983 317V0H727V317Q418 326 272 466T125 886V1462H383Z"  />
<glyph unicode="&#x3A9;" horiz-adv-x="1571" d="M791 1497Q994 1497 1153 1407T1400 1159T1487 819Q1487 635 1412 487T1180 225V215H1509V0H903V195Q1067 291 1149 449T1231 820Q1231 1024 1110 1156T791 1288Q590 1288 465 1154T340 800Q340 591 425 441T676 195V0H68V215H375V225Q224 331 154 471T84 799Q84 1100 283 1298T791 1497Z"  />
<glyph unicode="&#x3AA;" horiz-adv-x="569" d="M412 1462V0H156V1462H412ZM225 1851V1630H-8V1851H225ZM578 1851V1630H344V1851H578Z"  />
<glyph unicode="&#x3AB;" horiz-adv-x="1327" d="M285 1462L672 807L1053 1462H1339L793 573V0H537V573L-12 1462H285ZM616 1851V1630H383V1851H616ZM969 1851V1630H735V1851H969Z"  />
<glyph unicode="&#x3AC;" horiz-adv-x="1225" d="M538 1087Q627 1087 706 1044T831 924H836V1059H1069V247Q1069 207 1086 182T1136 156Q1149 156 1161 157T1200 166V4Q1165 -13 1128 -21T1052 -29Q972 -29 919 15T848 145H844Q797 57 714 14T518 -29Q307 -29 184 130T61 532Q61 778 184 932T538 1087ZM295 522Q295 358 371 257T571 156Q696 156 770 264T844 528Q844 689 772 796T578 903Q448 903 372 796T295 522ZM836 1499L678 1196H488L557 1499H836Z"  />
<glyph unicode="&#x3AD;" horiz-adv-x="1030" d="M527 1087Q716 1087 825 1006T961 760H727Q716 832 667 867T526 903Q429 903 380 869T330 768Q330 702 366 668T469 633H625V467H467Q394 467 348 432T301 315Q301 237 357 197T529 156Q642 156 697 205T768 348H1001Q972 153 846 62T497 -29Q302 -29 180 59T57 303Q57 390 105 455T248 547V553Q168 579 130 634T92 766Q92 910 213 998T527 1087ZM770 1499L612 1196H422L491 1499H770Z"  />
<glyph unicode="&#x3AE;" horiz-adv-x="1186" d="M679 1087Q865 1087 959 991T1053 735V-391H819V667Q819 767 775 835T612 903Q494 903 425 820T356 631V0H123V1059H344V903L348 899Q405 991 491 1039T679 1087ZM858 1499L700 1196H510L579 1499H858Z"  />
<glyph unicode="&#x3AF;" horiz-adv-x="524" d="M362 1059V247Q362 203 378 180T433 156Q454 156 468 159T500 166V6Q461 -13 422 -21T338 -29Q230 -29 180 27T129 183V1059H362ZM498 1499L340 1196H150L219 1499H498Z"  />
<glyph unicode="&#x3B0;" horiz-adv-x="1122" d="M350 1059V385Q350 273 399 215T557 156Q684 156 749 255T815 558Q815 686 780 822T686 1059H932Q988 959 1018 825T1049 562Q1049 288 921 130T556 -29Q333 -29 226 68T119 368V1059H350ZM727 1493L588 1196H408L484 1493H727ZM363 1454V1233H148V1454H363ZM969 1454V1233H752V1454H969Z"  />
<glyph unicode="&#x3B1;" horiz-adv-x="1225" d="M538 1087Q627 1087 706 1044T831 924H836V1059H1069V247Q1069 207 1086 182T1136 156Q1149 156 1161 157T1200 166V4Q1165 -13 1128 -21T1052 -29Q972 -29 919 15T848 145H844Q797 57 714 14T518 -29Q307 -29 184 130T61 532Q61 778 184 932T538 1087ZM295 522Q295 358 371 257T571 156Q696 156 770 264T844 528Q844 689 772 796T578 903Q448 903 372 796T295 522Z"  />
<glyph unicode="&#x3B2;" horiz-adv-x="1186" d="M575 1487Q788 1487 900 1392T1012 1133Q1012 1031 960 958T821 862V858Q965 831 1039 722T1114 450Q1114 223 992 97T682 -29Q582 -29 498 15T367 137H362V-391H129V1040Q129 1249 240 1368T575 1487ZM354 535Q354 366 422 261T621 156Q745 156 812 229T879 435Q879 577 829 647T646 717H530V897H554Q643 897 684 919T751 989T778 1117Q778 1207 725 1255T573 1303Q457 1303 406 1230T354 1007V535Z"  />
<glyph unicode="&#x3B3;" horiz-adv-x="991" d="M270 1059Q339 943 409 707T506 270H514Q586 413 643 616T733 1059H975Q930 761 829 491T580 -16V-391H346V-87Q346 128 239 490T16 1059H270Z"  />
<glyph unicode="&#x3B4;" horiz-adv-x="1174" d="M624 1487Q713 1487 804 1471T963 1423V1241Q888 1275 793 1292T625 1309Q554 1309 513 1291T471 1235Q471 1192 575 1130Q710 1048 834 963T1028 761T1098 506Q1098 276 963 124T600 -29Q359 -29 217 120T74 510Q74 689 167 813T444 987Q339 1050 290 1111T241 1242V1247Q241 1362 342 1424T624 1487ZM307 510Q307 352 388 254T600 156Q721 156 791 249T862 505Q862 631 796 723T594 893Q455 865 381 772T307 510Z"  />
<glyph unicode="&#x3B5;" horiz-adv-x="1030" d="M527 1087Q716 1087 825 1006T961 760H727Q716 832 667 867T526 903Q429 903 380 869T330 768Q330 702 366 668T469 633H625V467H467Q394 467 348 432T301 315Q301 237 357 197T529 156Q642 156 697 205T768 348H1001Q972 153 846 62T497 -29Q302 -29 180 59T57 303Q57 390 105 455T248 547V553Q168 579 130 634T92 766Q92 910 213 998T527 1087Z"  />
<glyph unicode="&#x3B6;" horiz-adv-x="928" d="M928 1462V1298Q613 1173 462 991T311 557Q311 366 387 276T608 186H668Q752 180 795 159Q852 133 887 72T922 -95Q922 -150 916 -207T895 -315H684Q694 -273 701 -222T709 -135Q709 -62 686 -31T616 0H542Q465 0 402 18T276 79T171 185T103 335T78 537Q78 792 207 981T580 1276H170V1462H928Z"  />
<glyph unicode="&#x3B7;" horiz-adv-x="1186" d="M679 1087Q865 1087 959 991T1053 735V-391H819V667Q819 767 775 835T612 903Q494 903 425 820T356 631V0H123V1059H344V903L348 899Q405 991 491 1039T679 1087Z"  />
<glyph unicode="&#x3B8;" horiz-adv-x="1118" d="M559 1487Q810 1487 931 1304T1053 731Q1053 344 930 158T559 -29Q312 -29 189 157T66 731Q66 1116 189 1301T559 1487ZM307 836H809Q802 1084 743 1193T557 1303Q420 1303 364 1183T307 836ZM559 156Q703 156 753 268T811 657H307Q307 405 357 281T559 156Z"  />
<glyph unicode="&#x3B9;" horiz-adv-x="524" d="M362 1059V247Q362 203 378 180T433 156Q454 156 468 159T500 166V6Q461 -13 422 -21T338 -29Q230 -29 180 27T129 183V1059H362Z"  />
<glyph unicode="&#x3BA;" horiz-adv-x="1094" d="M356 1059V604L778 1059H1065L657 643L1104 0H819L496 479L356 346V0H123V1059H356Z"  />
<glyph unicode="&#x3BB;" horiz-adv-x="1108" d="M285 1487Q408 1487 476 1427T612 1183L970 207Q979 183 991 170T1031 156Q1045 156 1060 158T1096 166V6Q1069 -9 1036 -19T961 -29Q880 -29 834 3T769 94L557 737H553L281 0H25L449 986Q378 1163 350 1230T223 1298Q200 1298 176 1294T125 1282V1464Q164 1477 207 1482T285 1487Z"  />
<glyph unicode="&#x3BC;" horiz-adv-x="1176" d="M356 1059V402Q356 283 404 220T559 156Q690 156 754 230T819 436V1059H1053V0H823V147H819Q764 57 689 14T529 -29Q470 -29 426 -14T356 25V-391H123V1059H356Z"  />
<glyph unicode="&#x3BD;" horiz-adv-x="1040" d="M272 1059L532 246H537Q625 431 690 648T780 1059H1022Q984 815 894 552T653 0H391L18 1059H272Z"  />
<glyph unicode="&#x3BE;" horiz-adv-x="911" d="M877 1427V1241Q797 1273 721 1288T588 1303Q483 1303 419 1243T354 1075Q354 966 426 913T625 860H807V680H627Q461 680 385 622T309 434Q309 309 385 246T609 186Q755 189 825 120T895 -95Q895 -150 889 -207T868 -315H657Q669 -265 675 -222T682 -135Q682 -57 658 -28T583 0Q393 -6 287 49T127 196T74 408Q74 552 147 647T356 778V780Q242 807 181 887T119 1076Q119 1263 243 1375T571 1487Q653 1487 733 1471T877 1427Z"  />
<glyph unicode="&#x3BF;" horiz-adv-x="1214" d="M608 1087Q853 1087 998 933T1143 530Q1143 278 998 125T608 -29Q369 -29 222 122T74 530Q74 781 219 934T608 1087ZM307 530Q307 370 388 263T608 156Q745 156 827 260T909 530Q909 693 828 798T606 903Q469 903 388 796T307 530Z"  />
<glyph unicode="&#x3C0;" horiz-adv-x="1415" d="M1354 1059V874H1135V251Q1135 208 1155 183T1222 158Q1241 158 1259 160T1296 168V6Q1258 -11 1216 -20T1126 -29Q1010 -29 957 28T903 186V874H485V0H252V874H51V1059H1354Z"  />
<glyph unicode="&#x3C1;" horiz-adv-x="1198" d="M616 1087Q853 1087 988 930T1124 526Q1124 281 1001 126T663 -29Q575 -29 489 15T354 135H350V-391H119V536Q119 784 250 935T616 1087ZM344 530Q344 362 418 259T623 156Q747 156 819 265T891 539Q891 706 817 803T611 901Q491 901 418 803T344 530Z"  />
<glyph unicode="&#x3C2;" horiz-adv-x="1110" d="M1042 754H809Q783 825 731 864T594 903Q457 903 382 802T307 537Q307 365 390 273T632 186H699Q815 182 876 121Q946 51 946 -96Q946 -163 940 -212T920 -315H709Q723 -246 728 -210T733 -135Q733 -55 710 -28T644 0H537Q333 2 204 142T74 537Q74 781 213 934T594 1087Q772 1087 890 999T1042 754Z"  />
<glyph unicode="&#x3C3;" horiz-adv-x="1206" d="M1186 1059V874H930Q1005 827 1049 731T1094 527Q1094 296 958 134T590 -29Q356 -29 215 126T74 528Q74 770 228 914T636 1059H1186ZM590 158Q717 158 788 255T860 529Q860 659 827 744T733 874H657Q543 873 478 842Q404 807 356 731T307 528Q307 361 387 260T590 158Z"  />
<glyph unicode="&#x3C4;" horiz-adv-x="999" d="M979 1059V874H596V251Q596 208 618 183T697 158Q719 158 739 160T776 168V6Q735 -11 688 -20T598 -29Q477 -29 421 26T365 186V874H20V1059H979Z"  />
<glyph unicode="&#x3C5;" horiz-adv-x="1122" d="M350 1059V385Q350 273 399 215T557 156Q684 156 749 255T815 558Q815 686 780 822T686 1059H932Q988 959 1018 825T1049 562Q1049 288 921 130T556 -29Q333 -29 226 68T119 368V1059H350Z"  />
<glyph unicode="&#x3C6;" horiz-adv-x="1501" d="M866 1358V1087Q1133 1081 1281 930T1430 539Q1430 284 1287 135T870 -29V-391H633V-29Q363 -20 218 128T72 535Q72 775 220 927T633 1087V1358H866ZM305 535Q305 353 388 255T624 156H633V903H627Q479 903 392 805T305 535ZM866 158H882Q1027 158 1111 257T1196 539Q1196 707 1112 805T875 903H866V158Z"  />
<glyph unicode="&#x3C7;" horiz-adv-x="1010" d="M291 1059L508 600L723 1059H995L627 397L1032 -391H752L498 174L254 -391H-20L383 387L10 1059H291Z"  />
<glyph unicode="&#x3C8;" horiz-adv-x="1417" d="M827 1356V156Q968 165 1039 268T1110 559Q1110 681 1079 817T991 1059H1237Q1289 959 1316 827T1343 563Q1343 301 1209 144T827 -27V-389H592V-29Q351 -17 235 118T119 486V1059H352V500Q352 340 409 253T592 156V1356H827Z"  />
<glyph unicode="&#x3C9;" horiz-adv-x="1513" d="M502 1059Q408 937 360 793T311 497Q311 332 357 244T498 156Q569 156 603 213T637 378V793H868V379Q868 280 902 218T1012 156Q1105 156 1153 243T1202 500Q1202 658 1156 793T1012 1059H1268Q1361 934 1401 795T1442 487Q1442 261 1331 116T1030 -29Q928 -29 855 22T750 172Q698 65 638 18T469 -29Q283 -29 178 108T72 484Q72 665 118 805T248 1059H502Z"  />
<glyph unicode="&#x3CA;" horiz-adv-x="524" d="M362 1059V247Q362 203 378 180T433 156Q454 156 468 159T500 166V6Q461 -13 422 -21T338 -29Q230 -29 180 27T129 183V1059H362ZM192 1454V1233H-41V1454H192ZM545 1454V1233H311V1454H545Z"  />
<glyph unicode="&#x3CB;" horiz-adv-x="1122" d="M350 1059V385Q350 273 399 215T557 156Q684 156 749 255T815 558Q815 686 780 822T686 1059H932Q988 959 1018 825T1049 562Q1049 288 921 130T556 -29Q333 -29 226 68T119 368V1059H350ZM489 1454V1233H256V1454H489ZM842 1454V1233H608V1454H842Z"  />
<glyph unicode="&#x3CC;" horiz-adv-x="1214" d="M608 1087Q853 1087 998 933T1143 530Q1143 278 998 125T608 -29Q369 -29 222 122T74 530Q74 781 219 934T608 1087ZM307 530Q307 370 388 263T608 156Q745 156 827 260T909 530Q909 693 828 798T606 903Q469 903 388 796T307 530ZM846 1499L688 1196H498L567 1499H846Z"  />
<glyph unicode="&#x3CD;" horiz-adv-x="1122" d="M350 1059V385Q350 273 399 215T557 156Q684 156 749 255T815 558Q815 686 780 822T686 1059H932Q988 959 1018 825T1049 562Q1049 288 921 130T556 -29Q333 -29 226 68T119 368V1059H350ZM783 1499L625 1196H435L504 1499H783Z"  />
<glyph unicode="&#x3CE;" horiz-adv-x="1513" d="M502 1059Q408 937 360 793T311 497Q311 332 357 244T498 156Q569 156 603 213T637 378V793H868V379Q868 280 902 218T1012 156Q1105 156 1153 243T1202 500Q1202 658 1156 793T1012 1059H1268Q1361 934 1401 795T1442 487Q1442 261 1331 116T1030 -29Q928 -29 855 22T750 172Q698 65 638 18T469 -29Q283 -29 178 108T72 484Q72 665 118 805T248 1059H502ZM1002 1499L844 1196H654L723 1499H1002Z"  />
<glyph unicode="&#x400;" horiz-adv-x="1290" d="M1208 1462V1241H412V858H1149V649H412V221H1223V0H156V1462H1208ZM588 1896L774 1604H604L313 1896H588Z"  />
<glyph unicode="&#x401;" horiz-adv-x="1290" d="M1208 1462V1241H412V858H1149V649H412V221H1223V0H156V1462H1208ZM616 1851V1630H383V1851H616ZM969 1851V1630H735V1851H969Z"  />
<glyph unicode="&#x402;" horiz-adv-x="1610" d="M1200 1462V1241H694V733Q752 814 845 859T1057 905Q1285 905 1412 755T1540 344Q1540 80 1389 -83T989 -246H971V-49Q1119 -45 1201 52T1284 334Q1284 522 1216 613T1006 705Q865 705 780 602T694 342V0H438V1241H16V1462H1200Z"  />
<glyph unicode="&#x403;" horiz-adv-x="1182" d="M1167 1462V1241H412V0H156V1462H1167ZM944 1896L653 1604H483L667 1896H944Z"  />
<glyph unicode="&#x404;" horiz-adv-x="1479" d="M772 1497Q1027 1497 1191 1378T1399 1026H1143Q1109 1159 1014 1223T769 1288Q591 1288 479 1173T340 864H963V657H334Q349 433 466 304T767 174Q925 174 1020 252T1151 489H1399Q1359 239 1190 102T770 -35Q460 -35 269 175T78 729Q78 1067 268 1282T772 1497Z"  />
<glyph unicode="&#x405;" horiz-adv-x="1327" d="M657 1497Q899 1497 1057 1374T1219 1030H963V1032Q951 1161 873 1224T648 1288Q529 1288 454 1239T379 1098Q379 954 566 906T786 849Q991 797 1064 759T1198 630T1260 423Q1260 211 1099 88T678 -35Q402 -35 238 100T68 487H324Q326 331 426 253T694 174Q841 174 922 236T1004 396Q1004 540 859 583T667 639L464 690Q291 734 207 828T123 1067Q123 1264 276 1380T657 1497Z"  />
<glyph unicode="&#x406;" horiz-adv-x="569" d="M412 1462V0H156V1462H412Z"  />
<glyph unicode="&#x407;" horiz-adv-x="569" d="M412 1462V0H156V1462H412ZM225 1851V1630H-8V1851H225ZM578 1851V1630H344V1851H578Z"  />
<glyph unicode="&#x408;" horiz-adv-x="1100" d="M944 1462V459Q944 193 824 79T464 -35Q258 -35 143 82T27 440V512H283V412Q288 279 337 227T483 174Q592 174 640 235T688 446V1462H944Z"  />
<glyph unicode="&#x409;" horiz-adv-x="2165" d="M1251 1462V901H1605Q1835 901 1966 784T2097 453Q2097 236 1965 118T1608 0H995V1241H563L533 489Q525 280 474 176T344 18T156 -35Q120 -35 82 -29T8 -8V190L54 180Q77 174 102 174Q205 174 240 249T281 487L316 1425L318 1462H1251ZM1592 211Q1711 211 1776 270T1841 446Q1841 564 1770 628T1588 692H1251V211H1592Z"  />
<glyph unicode="&#x40A;" horiz-adv-x="2120" d="M406 1462V903H987V1462H1243V901H1560Q1792 901 1922 784T2052 453Q2052 236 1920 118T1560 0H987V692H406V0H150V1462H406ZM1547 211Q1666 211 1731 270T1796 446Q1796 564 1725 628T1543 692H1243V211H1547Z"  />
<glyph unicode="&#x40B;" horiz-adv-x="1610" d="M1200 1462V1241H694V866Q751 880 846 892T1024 905Q1274 905 1397 791T1520 479V0H1264V429Q1264 548 1198 614T981 680Q907 680 829 670T694 645V0H438V1241H16V1462H1200Z"  />
<glyph unicode="&#x40C;" horiz-adv-x="1403" d="M412 1462V797L1063 1462H1378L795 879L1419 0H1100L621 698L412 492V0H156V1462H412ZM1028 1896L737 1604H567L751 1896H1028Z"  />
<glyph unicode="&#x40D;" horiz-adv-x="1479" d="M406 1462V344L1030 1462H1327V0H1071V1118L446 0H150V1462H406ZM661 1896L847 1604H677L386 1896H661Z"  />
<glyph unicode="&#x40E;" horiz-adv-x="1251" d="M272 1462L627 668L983 1462H1262L697 302Q604 112 505 39T281 -35Q234 -35 188 -24T109 2V217Q153 196 189 188T258 180Q332 180 381 230T496 416L-10 1462H272ZM303 1894H422Q435 1822 489 1781T640 1739Q723 1739 776 1779T848 1894H965Q947 1755 862 1681T625 1606Q481 1606 398 1680T303 1894Z"  />
<glyph unicode="&#x40F;" horiz-adv-x="1479" d="M406 1462V221H1071V1462H1327V0H866V-362H610V0H150V1462H406Z"  />
<glyph unicode="&#x410;" horiz-adv-x="1366" d="M819 1462L1382 0H1108L971 387H387L250 0H-14L547 1462H819ZM678 1210L457 582H903L684 1210H678Z"  />
<glyph unicode="&#x411;" horiz-adv-x="1421" d="M1221 1462V1241H412V901H848Q1075 901 1207 784T1339 453Q1339 234 1206 117T848 0H156V1462H1221ZM834 211Q951 211 1017 268T1083 446Q1083 564 1012 628T830 692H412V211H834Z"  />
<glyph unicode="&#x412;" horiz-adv-x="1442" d="M875 1462Q1065 1462 1182 1371T1300 1100Q1300 989 1248 912T1092 788V784Q1224 756 1295 657T1366 408Q1366 213 1224 107T838 0H156V1462H875ZM834 850Q922 850 983 902T1044 1054Q1044 1156 993 1204T837 1253H412V850H834ZM871 209Q979 209 1044 269T1110 440Q1110 551 1044 608T871 666H412V209H871Z"  />
<glyph unicode="&#x413;" horiz-adv-x="1182" d="M1167 1462V1241H412V0H156V1462H1167Z"  />
<glyph unicode="&#x414;" horiz-adv-x="1466" d="M1290 1462V221H1450V-362H1198V0H260V-362H8V221H145Q241 405 288 642T336 1107V1462H1290ZM420 221H1034V1241H588V1093Q588 876 547 648T420 221Z"  />
<glyph unicode="&#x415;" horiz-adv-x="1290" d="M1208 1462V1241H412V858H1149V649H412V221H1223V0H156V1462H1208Z"  />
<glyph unicode="&#x416;" horiz-adv-x="2114" d="M360 1462L926 807V1462H1182V805L1751 1462H2066L1505 842L2136 0H1817L1339 657L1182 487V0H926V473L768 653L287 0H-25L604 823L37 1462H360Z"  />
<glyph unicode="&#x417;" horiz-adv-x="1327" d="M674 1497Q908 1497 1051 1389T1194 1093Q1194 990 1128 902T961 784V778Q1088 747 1162 654T1237 422Q1237 231 1080 98T659 -35Q384 -35 226 98T66 483H317Q317 329 407 249T666 168Q812 168 896 237T981 426Q981 542 905 600T666 659H530V858H694Q801 858 871 917T942 1079Q942 1178 870 1236T672 1294Q526 1294 452 1230T367 1040V1038H123Q134 1260 283 1378T674 1497Z"  />
<glyph unicode="&#x418;" horiz-adv-x="1479" d="M406 1462V344L1030 1462H1327V0H1071V1118L446 0H150V1462H406Z"  />
<glyph unicode="&#x419;" horiz-adv-x="1479" d="M406 1462V344L1030 1462H1327V0H1071V1118L446 0H150V1462H406ZM420 1894H539Q552 1822 606 1781T757 1739Q840 1739 893 1779T965 1894H1082Q1064 1755 979 1681T742 1606Q598 1606 515 1680T420 1894Z"  />
<glyph unicode="&#x41A;" horiz-adv-x="1403" d="M412 1462V797L1063 1462H1378L795 879L1419 0H1100L621 698L412 492V0H156V1462H412Z"  />
<glyph unicode="&#x41B;" horiz-adv-x="1434" d="M1282 1462V0H1026V1241H563L533 489Q525 280 474 176T344 18T156 -35Q120 -35 82 -29T8 -8V190L54 180Q77 174 102 174Q202 174 238 249T281 487L316 1425L318 1462H1282Z"  />
<glyph unicode="&#x41C;" horiz-adv-x="1821" d="M512 1462L915 317H920L1313 1462H1669V0H1425V1128H1421L1016 0H805L399 1128H395V0H152V1462H512Z"  />
<glyph unicode="&#x41D;" horiz-adv-x="1479" d="M406 1462V881H1071V1462H1327V0H1071V659H406V0H150V1462H406Z"  />
<glyph unicode="&#x41E;" horiz-adv-x="1556" d="M778 1497Q1087 1497 1283 1279T1479 731Q1479 403 1284 184T778 -35Q469 -35 274 183T78 731Q78 1060 273 1278T778 1497ZM334 731Q334 485 452 330T778 174Q989 174 1106 331T1223 731Q1223 973 1106 1130T776 1288Q572 1288 453 1134T334 731Z"  />
<glyph unicode="&#x41F;" horiz-adv-x="1479" d="M1327 1462V0H1071V1241H406V0H150V1462H1327Z"  />
<glyph unicode="&#x420;" horiz-adv-x="1366" d="M811 1462Q1045 1462 1171 1342T1298 1010Q1298 796 1171 679T811 561H412V0H156V1462H811ZM792 770Q896 770 969 832T1042 1012Q1042 1135 979 1194T798 1253H412V770H792Z"  />
<glyph unicode="&#x421;" horiz-adv-x="1479" d="M778 1497Q1034 1497 1203 1363T1399 997H1143Q1105 1143 1014 1215T778 1288Q571 1288 453 1133T334 731Q334 485 452 330T778 174Q934 174 1032 275T1151 557H1401Q1382 288 1210 127T778 -35Q469 -35 274 183T78 731Q78 1061 273 1279T778 1497Z"  />
<glyph unicode="&#x422;" horiz-adv-x="1214" d="M1200 1462V1241H735V0H479V1241H16V1462H1200Z"  />
<glyph unicode="&#x423;" horiz-adv-x="1251" d="M272 1462L627 668L983 1462H1262L697 302Q604 112 505 39T281 -35Q234 -35 188 -24T109 2V217Q153 196 189 188T258 180Q332 180 381 230T496 416L-10 1462H272Z"  />
<glyph unicode="&#x424;" horiz-adv-x="1657" d="M956 1462V1317Q1256 1305 1420 1153T1585 752Q1585 501 1418 344T956 164V0H700V164Q413 176 243 330T72 733Q72 982 238 1138T700 1317V1462H956ZM956 379Q1135 393 1234 485T1333 752Q1333 910 1242 998T956 1104V379ZM324 733Q324 570 418 484T700 377V1102Q520 1089 422 994T324 733Z"  />
<glyph unicode="&#x425;" horiz-adv-x="1327" d="M334 1462L666 946L1012 1462H1298L815 758L1333 0H1022L657 559L287 0H-6L512 758L29 1462H334Z"  />
<glyph unicode="&#x426;" horiz-adv-x="1503" d="M406 1462V221H1071V1462H1327V221H1487V-362H1235V0H150V1462H406Z"  />
<glyph unicode="&#x427;" horiz-adv-x="1405" d="M358 1462V1078Q358 955 425 889T637 823Q716 823 801 832T997 866V1462H1253V0H997V647Q858 618 769 608T595 598Q349 598 226 711T102 1022V1462H358Z"  />
<glyph unicode="&#x428;" horiz-adv-x="2191" d="M406 1462V221H967V1462H1223V221H1784V1462H2040V0H150V1462H406Z"  />
<glyph unicode="&#x429;" horiz-adv-x="2216" d="M406 1462V221H967V1462H1223V221H1784V1462H2040V221H2200V-362H1948V0H150V1462H406Z"  />
<glyph unicode="&#x42A;" horiz-adv-x="1663" d="M709 1462V901H1104Q1331 901 1463 784T1595 453Q1595 234 1462 117T1104 0H453V1241H16V1462H709ZM1090 211Q1207 211 1273 268T1339 446Q1339 564 1268 628T1086 692H709V211H1090Z"  />
<glyph unicode="&#x42B;" horiz-adv-x="1833" d="M406 1462V901H760Q987 901 1119 784T1251 453Q1251 233 1118 117T760 0H150V1462H406ZM1679 1462V0H1423V1462H1679ZM746 211Q863 211 929 268T995 446Q995 564 924 628T742 692H406V211H746Z"  />
<glyph unicode="&#x42C;" horiz-adv-x="1366" d="M412 1462V901H807Q1037 901 1167 784T1298 453Q1298 232 1165 116T807 0H156V1462H412ZM793 211Q910 211 976 268T1042 446Q1042 564 971 628T789 692H412V211H793Z"  />
<glyph unicode="&#x42D;" horiz-adv-x="1479" d="M733 1497Q1044 1497 1222 1284T1401 729Q1401 392 1206 179T709 -35Q458 -35 286 102T80 489H338Q364 341 461 258T709 174Q896 174 1015 301T1145 649H504V856H1139Q1119 1065 1012 1176T737 1288Q588 1288 487 1222T350 1026H94Q142 1243 316 1370T733 1497Z"  />
<glyph unicode="&#x42E;" horiz-adv-x="2089" d="M1333 1497Q1529 1497 1684 1397T1925 1120T2011 731Q2011 514 1924 337T1681 62T1333 -35Q1052 -35 869 153T662 659H406V0H150V1462H406V881H670Q715 1169 893 1333T1333 1497ZM909 731Q909 484 1021 329T1333 174Q1530 174 1642 327T1755 731Q1755 983 1642 1135T1331 1288Q1135 1288 1022 1134T909 731Z"  />
<glyph unicode="&#x42F;" horiz-adv-x="1413" d="M1262 1462V0H1006V602H707L293 0H-18L432 625Q278 668 197 769T115 1024Q115 1223 248 1342T591 1462H1262ZM371 1026Q371 910 434 854T614 797H1006V1253H607Q497 1253 434 1193T371 1026Z"  />
<glyph unicode="&#x430;" horiz-adv-x="1139" d="M585 1087Q778 1087 894 1004T1010 786V230Q1010 188 1022 172T1073 156Q1082 156 1096 156T1122 160V-2Q1078 -15 1037 -22T974 -29Q898 -29 852 2T795 100Q730 37 629 4T428 -29Q270 -29 168 53T66 281Q66 421 143 494T339 589T607 629Q710 642 750 669T791 760Q791 829 736 866T572 903Q465 903 406 859T338 735H104Q116 909 239 998T585 1087ZM299 301Q299 234 352 195T500 156Q620 156 698 210T776 351V530Q732 503 684 494T521 472Q405 458 352 416T299 301Z"  />
<glyph unicode="&#x431;" horiz-adv-x="1214" d="M1104 1462Q1091 1352 1011 1292T783 1214L651 1198Q503 1180 416 1093T289 836H295Q362 938 459 990T682 1042Q887 1042 1015 900T1143 518Q1143 274 998 123T625 -29Q374 -29 230 132T86 593Q86 943 221 1148T659 1387Q791 1402 824 1417T870 1462H1104ZM322 510Q322 349 403 253T621 156Q755 156 832 251T909 518Q909 681 831 769T617 858Q487 858 405 763T322 510Z"  />
<glyph unicode="&#x432;" horiz-adv-x="1139" d="M708 1059Q843 1059 930 990T1018 799Q1018 715 979 661T856 575V571Q959 545 1013 480T1067 319Q1067 166 967 83T687 0H123V1059H708ZM660 637Q720 637 755 668T791 762Q791 824 754 853T653 883H356V637H660ZM683 176Q755 176 795 213T836 319Q836 390 794 428T684 467H356V176H683Z"  />
<glyph unicode="&#x433;" horiz-adv-x="872" d="M862 1059V874H356V0H123V1059H862Z"  />
<glyph unicode="&#x434;" horiz-adv-x="1229" d="M1073 1059V184H1214V-336H985V0H244V-336H14V184H139Q209 350 236 499T264 802V1059H1073ZM380 185H840V874H492V834Q492 645 465 496T380 185Z"  />
<glyph unicode="&#x435;" horiz-adv-x="1139" d="M584 1087Q806 1087 947 929T1088 548Q1088 524 1087 505T1083 469H305Q305 327 382 242T590 156Q687 156 750 197T848 332H1069Q1033 163 900 67T589 -29Q349 -29 211 122T72 527Q72 764 216 925T584 1087ZM305 623H850Q838 751 765 827T582 903Q472 903 394 829T305 623Z"  />
<glyph unicode="&#x436;" horiz-adv-x="1595" d="M311 1059L674 616H680V1059H913V612H920L1282 1059H1565L1169 608L1616 0H1335L1016 457L913 346V0H680V338L578 451L254 0H-20L434 592L29 1059H311Z"  />
<glyph unicode="&#x437;" horiz-adv-x="1063" d="M551 1087Q738 1087 845 1008T952 797Q952 721 907 664T782 578V573Q880 552 933 485T987 319Q987 162 856 67T527 -29Q312 -29 191 62T59 330H295Q302 244 359 198T534 152Q638 152 696 196T754 315Q754 396 699 430T555 465H416V637H496Q625 637 665 670Q721 704 721 770Q721 838 674 873T529 909Q440 909 388 868T326 752H90Q104 913 223 1000T551 1087Z"  />
<glyph unicode="&#x438;" horiz-adv-x="1176" d="M356 1059V287H362L758 1059H1053V0H819V772H813L418 0H123V1059H356Z"  />
<glyph unicode="&#x439;" horiz-adv-x="1176" d="M356 1059V287H362L758 1059H1053V0H819V772H813L418 0H123V1059H356ZM260 1497H379Q394 1419 450 1380T598 1341Q675 1341 730 1379T805 1497H922Q904 1355 816 1282T582 1208Q440 1208 356 1282T260 1497Z"  />
<glyph unicode="&#x43A;" horiz-adv-x="1094" d="M356 1059V604L778 1059H1065L657 643L1104 0H819L496 479L356 346V0H123V1059H356Z"  />
<glyph unicode="&#x43B;" horiz-adv-x="1159" d="M1036 1059V0H803V874H477L464 375Q458 164 368 68T150 -29Q117 -29 81 -23T20 -6V176Q58 168 71 168Q83 166 97 166Q175 166 202 219T233 397L252 1059H1036Z"  />
<glyph unicode="&#x43C;" horiz-adv-x="1442" d="M424 1059L725 211H729L1018 1059H1319V0H1098V737H1094L836 0H608L348 737H344V0H123V1059H424Z"  />
<glyph unicode="&#x43D;" horiz-adv-x="1176" d="M356 1059V643H819V1059H1053V0H819V459H356V0H123V1059H356Z"  />
<glyph unicode="&#x43E;" horiz-adv-x="1214" d="M608 1087Q853 1087 998 933T1143 530Q1143 278 998 125T608 -29Q369 -29 222 122T74 530Q74 781 219 934T608 1087ZM307 530Q307 370 388 263T608 156Q745 156 827 260T909 530Q909 693 828 798T606 903Q469 903 388 796T307 530Z"  />
<glyph unicode="&#x43F;" horiz-adv-x="1176" d="M1053 1059V0H819V874H356V0H123V1059H1053Z"  />
<glyph unicode="&#x440;" horiz-adv-x="1251" d="M682 1087Q918 1087 1048 931T1178 524Q1178 286 1057 129T721 -29Q609 -29 513 13T367 137H362V-391H129V1059H350V915H354Q402 1003 486 1045T682 1087ZM354 528Q354 363 434 260T651 156Q792 156 868 260T944 528Q944 685 864 794T649 903Q510 903 432 805T354 528Z"  />
<glyph unicode="&#x441;" horiz-adv-x="1139" d="M594 1087Q796 1087 925 987T1071 705H838Q824 800 761 851T596 903Q461 903 383 805T305 519Q305 361 378 259T586 156Q686 156 752 217T838 397H1071Q1038 188 913 80T586 -29Q353 -29 213 122T72 518Q72 774 210 930T594 1087Z"  />
<glyph unicode="&#x442;" horiz-adv-x="950" d="M940 1059V874H592V0H358V874H10V1059H940Z"  />
<glyph unicode="&#x443;" horiz-adv-x="1063" d="M262 1059L539 268H543L811 1059H1055L646 -48Q580 -226 532 -293T419 -390T266 -420Q229 -420 189 -417T106 -408V-211Q132 -214 158 -219Q183 -225 217 -225Q330 -225 362 -130T408 4L6 1059H262Z"  />
<glyph unicode="&#x444;" horiz-adv-x="1700" d="M967 1462V979H973Q1018 1028 1080 1057T1218 1087Q1403 1087 1512 942T1622 545Q1622 288 1508 130T1189 -29Q1130 -29 1072 -5T974 69H967V-391H733V70H727Q677 21 617 -4T487 -29Q294 -29 186 127T78 545Q78 797 193 942T494 1087Q568 1087 625 1060T727 979H733V1462H967ZM311 541Q311 358 372 255T553 152Q638 152 685 195T733 268V782Q717 839 665 873T541 907Q435 907 373 818T311 541ZM967 268Q967 239 1014 196T1147 152Q1266 152 1327 255T1389 541Q1389 721 1330 814T1156 907Q1098 907 1053 883T987 826T967 782V268Z"  />
<glyph unicode="&#x445;" horiz-adv-x="1100" d="M324 1059L545 733L776 1059H1047L686 569L1092 0H811L543 391L283 0H8L408 557L41 1059H324Z"  />
<glyph unicode="&#x446;" horiz-adv-x="1208" d="M356 1059V184H819V1059H1053V184H1194V-336H965V0H123V1059H356Z"  />
<glyph unicode="&#x447;" horiz-adv-x="1106" d="M305 1059V773Q305 684 345 637T477 590Q532 590 598 598T750 623V1059H983V0H750V434Q641 412 570 404T436 395Q254 395 163 484T72 731V1059H305Z"  />
<glyph unicode="&#x448;" horiz-adv-x="1667" d="M356 1059V184H717V1059H950V184H1311V1059H1544V0H123V1059H356Z"  />
<glyph unicode="&#x449;" horiz-adv-x="1700" d="M356 1059V184H717V1059H950V184H1311V1059H1544V184H1686V-336H1456V0H123V1059H356Z"  />
<glyph unicode="&#x44A;" horiz-adv-x="1290" d="M543 1059V674H849Q1019 674 1122 589T1225 344Q1225 179 1124 90T856 0H309V874H10V1059H543ZM827 182Q903 182 947 221T991 340Q991 416 944 454T823 492H543V182H827Z"  />
<glyph unicode="&#x44B;" horiz-adv-x="1489" d="M356 1059V674H621Q796 674 896 588T997 344Q997 177 896 89T629 0H123V1059H356ZM1366 1059V0H1133V1059H1366ZM600 182Q679 182 721 223T764 340Q764 416 717 454T596 492H356V182H600Z"  />
<glyph unicode="&#x44C;" horiz-adv-x="1104" d="M356 1059V674H662Q837 674 937 588T1038 344Q1038 177 937 89T670 0H123V1059H356ZM641 182Q720 182 762 223T805 340Q805 416 758 454T637 492H356V182H641Z"  />
<glyph unicode="&#x44D;" horiz-adv-x="1139" d="M561 1087Q797 1087 932 939T1067 537Q1067 292 922 132T547 -29Q356 -29 226 70T68 358H299Q315 263 379 210T547 156Q670 156 744 239T829 463H432V629H827Q817 758 745 830T557 903Q468 903 404 859T307 729H74Q115 898 245 992T561 1087Z"  />
<glyph unicode="&#x44E;" horiz-adv-x="1655" d="M1065 1087Q1301 1087 1442 934T1583 530Q1583 278 1442 125T1065 -29Q849 -29 709 100T547 462H356V0H123V1059H356V639H553Q586 848 721 967T1065 1087ZM776 530Q776 367 853 260T1065 152Q1199 152 1274 259T1350 530Q1350 692 1275 799T1063 907Q932 907 854 803T776 530Z"  />
<glyph unicode="&#x44F;" horiz-adv-x="1126" d="M1004 1059V0H770V426H567L252 0H-12L328 446Q213 479 156 554T98 739Q98 884 203 971T465 1059H1004ZM328 739Q328 667 371 632T484 596H770V881H483Q416 881 372 846T328 739Z"  />
<glyph unicode="&#x450;" horiz-adv-x="1139" d="M584 1087Q806 1087 947 929T1088 548Q1088 524 1087 505T1083 469H305Q305 327 382 242T590 156Q687 156 750 197T848 332H1069Q1033 163 900 67T589 -29Q349 -29 211 122T72 527Q72 764 216 925T584 1087ZM305 623H850Q838 751 765 827T582 903Q472 903 394 829T305 623ZM514 1499L700 1206H530L240 1499H514Z"  />
<glyph unicode="&#x451;" horiz-adv-x="1139" d="M584 1087Q806 1087 947 929T1088 548Q1088 524 1087 505T1083 469H305Q305 327 382 242T590 156Q687 156 750 197T848 332H1069Q1033 163 900 67T589 -29Q349 -29 211 122T72 527Q72 764 216 925T584 1087ZM305 623H850Q838 751 765 827T582 903Q472 903 394 829T305 623ZM532 1454V1233H299V1454H532ZM885 1454V1233H651V1454H885Z"  />
<glyph unicode="&#x452;" horiz-adv-x="1176" d="M356 1462V1337H702V1169H356V889H360Q412 971 498 1014T679 1057Q861 1057 957 961T1053 704V243Q1053 80 985 -63T780 -294T451 -391V-188H453Q637 -172 728 -57T819 241V643Q819 756 771 816T612 877Q499 877 428 794T356 600V0H123V1169H-41V1337H123V1462H356Z"  />
<glyph unicode="&#x453;" horiz-adv-x="872" d="M862 1059V874H356V0H123V1059H862ZM797 1499L506 1206H336L520 1499H797Z"  />
<glyph unicode="&#x454;" horiz-adv-x="1139" d="M598 1087Q794 1087 918 993T1071 731H838Q813 823 753 863T600 903Q476 903 397 833T305 629H717V463H303Q309 317 383 237T592 156Q684 156 748 206T840 360H1071Q1030 170 903 71T592 -29Q355 -29 214 118T72 518Q72 771 217 929T598 1087Z"  />
<glyph unicode="&#x455;" horiz-adv-x="1063" d="M530 1087Q721 1087 837 1004T973 762H729Q715 834 663 868T515 903Q428 903 375 875T322 795Q322 737 379 703T590 640Q832 595 920 519T1008 315Q1008 154 874 63T535 -29Q324 -29 198 65T66 340H299Q310 247 370 202T539 156Q647 156 710 188T774 288Q774 349 719 386T498 456Q243 505 166 583T88 784Q88 929 212 1008T530 1087Z"  />
<glyph unicode="&#x456;" horiz-adv-x="494" d="M362 1462V1241H129V1462H362ZM362 1059V0H129V1059H362Z"  />
<glyph unicode="&#x457;" horiz-adv-x="494" d="M362 1059V0H129V1059H362ZM188 1454V1233H-45V1454H188ZM541 1454V1233H307V1454H541Z"  />
<glyph unicode="&#x458;" horiz-adv-x="494" d="M362 1462V1241H129V1462H362ZM362 1059V-99Q362 -261 289 -340T58 -420Q29 -420 6 -419T-45 -412V-227Q-21 -232 -1 -234T34 -236Q85 -236 107 -207T129 -92V1059H362Z"  />
<glyph unicode="&#x459;" horiz-adv-x="1716" d="M1024 1059V662H1275Q1445 662 1548 577T1651 338Q1651 180 1552 90T1282 0H791V874H477L464 375Q458 164 369 68T150 -29Q117 -29 81 -23T20 -6V176Q58 168 71 168Q83 166 97 166Q177 166 203 219T233 397L252 1059H1024ZM1253 182Q1326 182 1371 219T1417 334Q1417 406 1370 442T1249 479H1024V182H1253Z"  />
<glyph unicode="&#x45A;" horiz-adv-x="1700" d="M356 1059V662H754V1059H987V662H1258Q1425 662 1529 579T1634 338Q1634 176 1534 88T1266 0H754V479H356V0H123V1059H356ZM1237 182Q1312 182 1356 221T1401 334Q1401 406 1354 442T1233 479H987V182H1237Z"  />
<glyph unicode="&#x45B;" horiz-adv-x="1176" d="M356 1462V1337H702V1169H356V889H360Q412 971 498 1014T679 1057Q861 1057 957 961T1053 704V0H819V643Q819 756 769 816T612 877Q499 877 428 794T356 600V0H123V1169H-41V1337H123V1462H356Z"  />
<glyph unicode="&#x45C;" horiz-adv-x="1094" d="M356 1059V604L778 1059H1065L657 643L1104 0H819L496 479L356 346V0H123V1059H356ZM877 1499L586 1206H416L600 1499H877Z"  />
<glyph unicode="&#x45D;" horiz-adv-x="1176" d="M356 1059V287H362L758 1059H1053V0H819V772H813L418 0H123V1059H356ZM512 1499L698 1206H528L238 1499H512Z"  />
<glyph unicode="&#x45E;" horiz-adv-x="1063" d="M262 1059L539 268H543L811 1059H1055L646 -48Q580 -226 532 -293T419 -390T266 -420Q229 -420 189 -417T106 -408V-211Q132 -214 158 -219Q183 -225 217 -225Q330 -225 362 -130T408 4L6 1059H262ZM217 1497H336Q351 1419 407 1380T555 1341Q632 1341 687 1379T762 1497H879Q861 1355 773 1282T539 1208Q397 1208 313 1282T217 1497Z"  />
<glyph unicode="&#x45F;" horiz-adv-x="1176" d="M356 1059V184H819V1059H1053V0H702V-336H469V0H123V1059H356Z"  />
<glyph unicode="&#x462;" horiz-adv-x="1540" d="M586 1462V1298H987V1094H586V885H981Q1204 885 1338 771T1473 444Q1473 305 1413 203T1236 50T981 0H330V1094H16V1298H330V1462H586ZM969 211Q1086 211 1151 267T1217 438Q1217 548 1146 612T963 676H586V211H969Z"  />
<glyph unicode="&#x463;" horiz-adv-x="1257" d="M510 1462V1059H928V874H510V674H816Q987 674 1089 589T1192 344Q1192 178 1091 89T824 0H276V874H10V1059H276V1462H510ZM794 182Q870 182 914 221T958 340Q958 415 912 453T790 492H510V182H794Z"  />
<glyph unicode="&#x472;" horiz-adv-x="1556" d="M778 1497Q1088 1497 1283 1278T1479 731Q1479 403 1283 184T778 -35Q470 -35 274 182T78 731Q78 1060 273 1278T778 1497ZM338 868H1219Q1185 1071 1073 1179T776 1288Q596 1288 483 1179T338 868ZM330 655Q348 423 465 299T778 174Q972 174 1088 298T1225 655H330Z"  />
<glyph unicode="&#x473;" horiz-adv-x="1214" d="M608 1087Q853 1087 998 933T1143 530Q1143 279 998 125T608 -29Q369 -29 222 122T74 530Q74 781 219 934T608 1087ZM907 623Q888 758 811 830T606 903Q484 903 407 832T309 623H907ZM608 156Q742 156 819 236T911 469H305Q319 319 395 238T608 156Z"  />
<glyph unicode="&#x474;" horiz-adv-x="1294" d="M1200 1497Q1225 1497 1253 1494T1317 1481V1276Q1288 1284 1275 1286T1244 1288Q1205 1288 1180 1260T1141 1187L763 3L761 0H477L-10 1462H256L623 305H627L909 1254Q946 1376 1015 1436T1200 1497Z"  />
<glyph unicode="&#x475;" horiz-adv-x="1087" d="M994 1087Q1027 1087 1048 1084T1098 1071V893Q1077 899 1060 901T1029 903Q995 903 970 882T927 804L666 0H403L18 1059H272L541 246H545L737 897Q763 979 822 1033T994 1087Z"  />
<glyph unicode="&#x490;" horiz-adv-x="1182" d="M1145 1780V1241H412V0H156V1462H893V1780H1145Z"  />
<glyph unicode="&#x491;" horiz-adv-x="872" d="M858 1372V874H356V0H123V1059H629V1372H858Z"  />
<glyph unicode="&#x1E80;" horiz-adv-x="1933" d="M272 1462L537 344H541L836 1462H1098L1384 344H1389L1661 1462H1921L1518 0H1257L964 1118H961L662 0H397L12 1462H272ZM909 1896L1095 1604H925L634 1896H909Z"  />
<glyph unicode="&#x1E81;" horiz-adv-x="1593" d="M274 1059L481 268H485L684 1059H920L1110 268H1114L1329 1059H1567L1235 0H995L799 786H795L600 0H354L27 1059H274ZM739 1499L925 1206H755L465 1499H739Z"  />
<glyph unicode="&#x1E82;" horiz-adv-x="1933" d="M272 1462L537 344H541L836 1462H1098L1384 344H1389L1661 1462H1921L1518 0H1257L964 1118H961L662 0H397L12 1462H272ZM1298 1896L1007 1604H837L1021 1896H1298Z"  />
<glyph unicode="&#x1E83;" horiz-adv-x="1593" d="M274 1059L481 268H485L684 1059H920L1110 268H1114L1329 1059H1567L1235 0H995L799 786H795L600 0H354L27 1059H274ZM1149 1499L858 1206H688L872 1499H1149Z"  />
<glyph unicode="&#x1E84;" horiz-adv-x="1933" d="M272 1462L537 344H541L836 1462H1098L1384 344H1389L1661 1462H1921L1518 0H1257L964 1118H961L662 0H397L12 1462H272ZM907 1851V1630H674V1851H907ZM1260 1851V1630H1026V1851H1260Z"  />
<glyph unicode="&#x1E85;" horiz-adv-x="1593" d="M274 1059L481 268H485L684 1059H920L1110 268H1114L1329 1059H1567L1235 0H995L799 786H795L600 0H354L27 1059H274ZM747 1454V1233H514V1454H747ZM1100 1454V1233H866V1454H1100Z"  />
<glyph unicode="&#x1EF2;" horiz-adv-x="1327" d="M285 1462L672 807L1053 1462H1339L793 573V0H537V573L-12 1462H285ZM588 1896L774 1604H604L313 1896H588Z"  />
<glyph unicode="&#x1EF3;" horiz-adv-x="1063" d="M262 1059L539 268H543L811 1059H1055L646 -48Q580 -226 532 -293T419 -390T266 -420Q229 -420 189 -417T106 -408V-211Q132 -214 158 -219Q183 -225 217 -225Q330 -225 362 -130T408 4L6 1059H262ZM467 1499L653 1206H483L193 1499H467Z"  />
<glyph unicode="&#x2010;" horiz-adv-x="797" d="M696 668V446H100V668H696Z"  />
<glyph unicode="&#x2013;" horiz-adv-x="1024" d="M1024 668V446H0V668H1024Z"  />
<glyph unicode="&#x2014;" horiz-adv-x="2048" d="M1782 668V446H266V668H1782Z"  />
<glyph unicode="&#x2015;" horiz-adv-x="2048" d="M1905 668V446H143V668H1905Z"  />
<glyph unicode="&#x2018;" horiz-adv-x="569" d="M414 1343Q352 1321 321 1275T289 1161H414V885H158V1167Q158 1266 226 1345T414 1462V1343Z"  />
<glyph unicode="&#x2019;" horiz-adv-x="569" d="M414 1462V1180Q414 1070 347 987T158 885V1004Q224 1013 254 1060T283 1186H158V1462H414Z"  />
<glyph unicode="&#x201A;" horiz-adv-x="569" d="M414 276V-6Q414 -101 347 -184T158 -301V-182Q220 -160 251 -114T283 0H158V276H414Z"  />
<glyph unicode="&#x201C;" horiz-adv-x="909" d="M379 1343Q317 1321 286 1275T254 1161H379V885H123V1167Q123 1266 191 1345T379 1462V1343ZM786 1343Q724 1320 693 1274T662 1161H786V885H530V1167Q530 1262 597 1342T786 1462V1343Z"  />
<glyph unicode="&#x201D;" horiz-adv-x="909" d="M379 1462V1181Q379 1085 314 1003T125 885H123V1004Q185 1026 216 1072T248 1186H123V1462H379ZM786 1462V1180Q786 1081 719 1000T532 885H530V1004Q590 1025 622 1070T655 1186H530V1462H786Z"  />
<glyph unicode="&#x201E;" horiz-adv-x="909" d="M379 276V-6Q379 -102 311 -185T123 -301V-182Q185 -160 216 -114T248 0H123V276H379ZM786 276V-6Q786 -102 719 -184T532 -301H530V-182Q590 -161 622 -116T655 0H530V276H786Z"  />
<glyph unicode="&#x2020;" horiz-adv-x="1139" d="M686 1462V1059H1077V864H686V-328H453V864H61V1059H453V1462H686Z"  />
<glyph unicode="&#x2021;" horiz-adv-x="1139" d="M686 1462V1059H1077V864H686V270H1077V76H686V-328H453V76H61V270H453V864H61V1059H453V1462H686Z"  />
<glyph unicode="&#x2022;" horiz-adv-x="1024" d="M512 1096Q663 1096 771 989T879 731Q879 583 773 474T512 365Q358 365 253 474T147 731Q147 881 254 988T512 1096Z"  />
<glyph unicode="&#x2026;" horiz-adv-x="2048" d="M483 276V0H199V276H483ZM1165 276V0H881V276H1165ZM1847 276V0H1563V276H1847Z"  />
<glyph unicode="&#x2030;" horiz-adv-x="2351" d="M1303 1483L483 -49H338L1152 1481L1154 1483H1303ZM473 1462Q616 1462 697 1364T778 1097Q778 943 697 852T473 760Q327 760 248 853T168 1096Q168 1264 249 1363T473 1462ZM342 1091Q342 984 374 934T473 883Q538 883 571 932T604 1092Q604 1217 572 1278T472 1339Q405 1339 374 1278T342 1091ZM1180 674Q1322 674 1403 577T1485 315Q1485 160 1403 66T1180 -29Q1040 -29 957 65T874 315Q874 479 955 576T1180 674ZM1878 674Q2022 674 2102 578T2183 316Q2183 162 2103 67T1878 -29Q1734 -29 1654 66T1573 316Q1573 482 1653 578T1878 674ZM1049 309Q1049 195 1083 145T1180 94Q1246 94 1278 149T1311 311Q1311 440 1277 495T1179 551Q1119 551 1084 498T1049 309ZM1747 311Q1747 202 1779 148T1878 94Q1942 94 1975 146T2009 311Q2009 437 1976 494T1877 551Q1814 551 1781 495T1747 311Z"  />
<glyph unicode="&#x2039;" horiz-adv-x="530" d="M420 924V713L225 557L420 401V190L102 442V672L420 924Z"  />
<glyph unicode="&#x203A;" horiz-adv-x="530" d="M111 924L428 672V442L111 190V401L305 557L111 713V924Z"  />
<glyph unicode="&#x203D;" horiz-adv-x="1139" d="M664 1462V1350Q844 1331 941 1238T1038 1001Q1038 903 993 829T843 674Q741 596 705 542T668 402V397H494L428 1040V1159Q378 1138 349 1090T311 956H96Q96 1105 181 1202T424 1335V1462H664ZM625 737Q728 815 760 864T793 993Q793 1062 759 1108T659 1174V1040L625 737ZM705 256V0H430V256H705Z"  />
<glyph unicode="&#x2044;" horiz-adv-x="342" d="M680 1483L-176 -49H-338L520 1483H680Z"  />
<glyph unicode="&#x2070;" horiz-adv-x="799" d="M399 1698Q560 1698 644 1587T729 1251Q729 1027 644 911T399 795Q240 795 155 905T70 1243Q70 1470 155 1584T399 1698ZM248 1244Q248 1084 286 1011T399 938Q483 938 517 1009T551 1250Q551 1403 515 1478T398 1554Q317 1554 283 1486T248 1244Z"  />
<glyph unicode="&#x2074;" horiz-adv-x="799" d="M618 1679V1141H737V1001H618V813H449V1001H53V1157L459 1679H618ZM449 1466L195 1141H449V1466Z"  />
<glyph unicode="&#x2075;" horiz-adv-x="799" d="M676 1679V1540H299L266 1335Q302 1364 346 1379T444 1395Q567 1395 642 1317T717 1110Q717 978 624 887T385 795Q255 795 169 863T74 1051H238Q244 1002 284 970T387 938Q463 938 508 983T553 1106Q553 1185 510 1230T397 1276Q352 1276 315 1256T256 1198H96L172 1679H676Z"  />
<glyph unicode="&#x2076;" horiz-adv-x="799" d="M430 1698Q552 1698 623 1644T711 1479H547Q533 1526 502 1546T426 1567Q342 1567 294 1498T242 1300Q282 1346 335 1368T455 1391Q577 1391 651 1316T725 1112Q725 972 639 884T415 795Q248 795 162 906T76 1223Q76 1447 170 1572T430 1698ZM250 1102Q250 1027 293 978T408 928Q479 928 521 973T563 1100Q563 1175 520 1222T408 1270Q338 1270 294 1225T250 1102Z"  />
<glyph unicode="&#x2077;" horiz-adv-x="799" d="M700 1679V1544Q570 1425 491 1216T408 813H221Q237 1008 313 1192T516 1532H96V1679H700Z"  />
<glyph unicode="&#x2078;" horiz-adv-x="799" d="M399 1698Q533 1698 611 1635T690 1466Q690 1404 657 1356T557 1282Q641 1257 684 1199T727 1061Q727 944 635 870T401 795Q252 795 162 866T72 1059Q72 1135 116 1193T242 1276Q180 1298 145 1346T109 1458Q109 1564 191 1631T399 1698ZM260 1450Q260 1396 298 1364T399 1331Q465 1331 501 1363T537 1450Q537 1505 502 1539T398 1573Q338 1573 299 1541T260 1450ZM233 1069Q233 1000 279 962T401 924Q478 924 520 963T563 1069Q563 1135 517 1176T397 1217Q323 1217 278 1176T233 1069Z"  />
<glyph unicode="&#x2079;" horiz-adv-x="799" d="M383 1698Q548 1698 635 1590T723 1272Q723 1047 631 921T369 795Q246 795 174 850T88 1014H252Q260 970 292 948T375 926Q457 926 504 993T557 1194Q518 1151 465 1129T344 1106Q220 1106 147 1180T74 1380Q74 1519 160 1608T383 1698ZM236 1393Q236 1318 277 1273T389 1227Q464 1227 506 1271T549 1391Q549 1466 505 1514T390 1563Q323 1563 280 1521T236 1393Z"  />
<glyph unicode="&#x207A;" horiz-adv-x="819" d="M483 1452V1202H729V1063H483V813H336V1063H90V1202H336V1452H483Z"  />
<glyph unicode="&#x207B;" horiz-adv-x="553" d="M467 1227V1073H86V1227H467Z"  />
<glyph unicode="&#x207C;" horiz-adv-x="819" d="M729 1331V1196H90V1331H729ZM729 1061V926H90V1061H729Z"  />
<glyph unicode="&#x207D;" horiz-adv-x="461" d="M408 1794Q345 1684 308 1537T270 1227Q270 1075 305 931T408 651H258Q174 785 132 925T90 1214Q90 1360 135 1520T258 1794H408Z"  />
<glyph unicode="&#x207E;" horiz-adv-x="461" d="M203 1794Q289 1657 330 1515T371 1231Q371 1092 330 938T203 651H53Q118 769 154 910T190 1219Q190 1371 156 1515T53 1794H203Z"  />
<glyph unicode="&#x207F;" horiz-adv-x="799" d="M476 1485Q598 1485 652 1419T707 1233V813H528V1208Q528 1276 499 1309T412 1343Q346 1343 308 1301T270 1179V813H92V1466H262V1368Q297 1425 354 1455T476 1485Z"  />
<glyph unicode="&#x2080;" horiz-adv-x="799" d="M399 539Q560 539 644 428T729 92Q729 -132 644 -248T399 -364Q240 -364 155 -254T70 84Q70 311 155 425T399 539ZM248 85Q248 -75 286 -148T399 -221Q483 -221 517 -150T551 91Q551 244 515 319T398 395Q317 395 283 327T248 85Z"  />
<glyph unicode="&#x2081;" horiz-adv-x="799" d="M545 521V-345H367V259H119V378Q236 378 310 415T401 521H545Z"  />
<glyph unicode="&#x2082;" horiz-adv-x="799" d="M422 540Q567 540 648 470T729 280Q729 199 683 133T519 -4Q402 -74 349 -110T276 -202H723V-345H70Q70 -232 111 -147T278 17L416 102Q503 156 527 197T551 280Q551 334 515 365T420 396Q347 396 309 356T264 227H86Q88 373 179 456T422 540Z"  />
<glyph unicode="&#x2083;" horiz-adv-x="799" d="M402 539Q536 539 617 477T699 307Q699 248 666 203T568 131Q652 104 693 49T734 -89Q734 -209 638 -286T397 -364Q240 -364 152 -287T63 -80H226Q233 -151 274 -186T398 -221Q477 -221 523 -185T570 -82Q570 -17 526 19T363 55H329V178H385Q450 178 493 207T536 289Q536 340 499 370T394 400Q328 400 287 362T245 248H81Q87 385 173 462T402 539Z"  />
<glyph unicode="&#x2084;" horiz-adv-x="799" d="M618 521V-17H737V-157H618V-345H449V-157H53V-1L459 521H618ZM449 308L195 -17H449V308Z"  />
<glyph unicode="&#x2085;" horiz-adv-x="799" d="M676 520V381H299L266 176Q302 205 346 220T444 236Q567 236 642 158T717 -49Q717 -181 624 -272T385 -364Q255 -364 169 -296T74 -108H238Q244 -157 284 -189T387 -221Q463 -221 508 -176T553 -53Q553 26 510 71T397 117Q352 117 315 97T256 39H96L172 520H676Z"  />
<glyph unicode="&#x2086;" horiz-adv-x="799" d="M430 539Q552 539 623 485T711 320H547Q533 367 502 387T426 408Q342 408 294 339T242 141Q282 187 335 209T455 232Q577 232 651 157T725 -47Q725 -187 639 -275T415 -364Q248 -364 162 -253T76 64Q76 288 170 413T430 539ZM250 -57Q250 -132 293 -181T408 -231Q479 -231 521 -186T563 -59Q563 16 520 63T408 111Q338 111 294 66T250 -57Z"  />
<glyph unicode="&#x2087;" horiz-adv-x="799" d="M700 521V386Q570 267 491 58T408 -345H221Q237 -150 313 34T516 374H96V521H700Z"  />
<glyph unicode="&#x2088;" horiz-adv-x="799" d="M399 539Q533 539 611 476T690 307Q690 245 657 197T557 123Q641 98 684 40T727 -98Q727 -215 635 -289T401 -364Q252 -364 162 -293T72 -100Q72 -24 116 34T242 117Q180 139 145 187T109 299Q109 405 191 472T399 539ZM260 291Q260 237 298 205T399 172Q465 172 501 204T537 291Q537 346 502 380T398 414Q338 414 299 382T260 291ZM233 -90Q233 -159 279 -197T401 -235Q478 -235 520 -196T563 -90Q563 -24 517 17T397 58Q323 58 278 17T233 -90Z"  />
<glyph unicode="&#x2089;" horiz-adv-x="799" d="M383 539Q548 539 635 431T723 113Q723 -112 631 -238T369 -364Q246 -364 174 -309T88 -145H252Q260 -189 292 -211T375 -233Q457 -233 504 -166T557 35Q518 -8 465 -30T344 -53Q220 -53 147 21T74 221Q74 360 160 449T383 539ZM236 234Q236 159 277 114T389 68Q464 68 506 112T549 232Q549 307 505 355T390 404Q323 404 280 362T236 234Z"  />
<glyph unicode="&#x208A;" horiz-adv-x="819" d="M483 294V44H729V-95H483V-345H336V-95H90V44H336V294H483Z"  />
<glyph unicode="&#x208B;" horiz-adv-x="553" d="M467 69V-85H86V69H467Z"  />
<glyph unicode="&#x208C;" horiz-adv-x="819" d="M729 173V38H90V173H729ZM729 -97V-232H90V-97H729Z"  />
<glyph unicode="&#x208D;" horiz-adv-x="461" d="M408 636Q345 526 308 379T270 69Q270 -83 305 -227T408 -507H258Q174 -373 132 -233T90 56Q90 202 135 362T258 636H408Z"  />
<glyph unicode="&#x208E;" horiz-adv-x="461" d="M203 636Q289 499 330 357T371 73Q371 -66 330 -220T203 -507H53Q118 -389 154 -248T190 61Q190 213 156 357T53 636H203Z"  />
<glyph unicode="&#x20AC;" horiz-adv-x="1139" d="M796 1462Q886 1462 977 1430T1161 1335L1067 1149Q1001 1215 930 1247T780 1280Q654 1280 567 1188T446 932H987L934 801H432Q427 731 432 662H905L854 532H442Q468 360 558 258T798 156Q900 156 962 186T1106 291V63Q1037 19 959 -4T796 -27Q542 -27 392 117T203 532H45L100 662H193Q184 731 193 801H45L98 932H207Q266 1194 418 1328T796 1462Z"  />
<glyph unicode="&#x2105;" horiz-adv-x="1708" d="M1364 1483L508 -49H346L1204 1483H1364ZM414 1462Q549 1462 628 1392T715 1186H539Q529 1255 498 1287T410 1319Q324 1319 288 1246T252 1007Q252 851 289 777T410 702Q472 702 505 741T545 855H717Q700 714 619 637T408 559Q244 559 158 672T72 1004Q72 1229 157 1345T414 1462ZM1307 874Q1468 874 1552 763T1636 428Q1636 200 1550 86T1307 -29Q1143 -29 1060 84T977 420Q977 644 1062 759T1307 874ZM1155 421Q1155 265 1192 190T1307 115Q1389 115 1423 185T1458 427Q1458 583 1422 657T1305 731Q1222 731 1189 659T1155 421Z"  />
<glyph unicode="&#x2113;" horiz-adv-x="1024" d="M604 1477Q728 1477 803 1397T879 1186Q879 1031 785 875T504 551V288Q504 216 542 178T639 139Q679 139 724 158T819 217H823L901 98Q823 30 745 1T584 -29Q438 -29 357 50T276 250V399L160 291H156L76 414L274 588V1099Q274 1257 367 1367T604 1477ZM504 745Q593 843 642 953T692 1170Q692 1239 666 1281T601 1323Q557 1323 531 1270T504 1142V745Z"  />
<glyph unicode="&#x2116;" horiz-adv-x="2187" d="M416 1434L1026 386V1434H1270V0H999L389 1047V0H145V1434H416ZM1722 885Q1874 885 1965 800T2056 571Q2056 429 1966 339T1722 248Q1570 248 1480 332T1389 561Q1389 705 1482 795T1722 885ZM1565 567Q1565 482 1610 433T1722 383Q1796 383 1838 430T1880 565Q1880 648 1837 699T1720 750Q1651 750 1608 703T1565 567ZM2056 174V0H1391V174H2056Z"  />
<glyph unicode="&#x2117;" horiz-adv-x="1638" d="M821 1497Q1133 1497 1352 1280T1571 731Q1571 399 1351 182T821 -35Q496 -35 282 183T68 731Q68 1063 288 1280T821 1497ZM231 731Q231 460 395 279T821 98Q1070 98 1238 276T1407 731Q1407 1005 1238 1184T819 1364Q569 1364 400 1184T231 731ZM885 1141Q1016 1141 1097 1076T1178 889Q1178 772 1103 702T902 631H686V293H547V1141H885ZM883 750Q958 750 998 783T1038 889Q1038 960 998 991T877 1022H686V750H883Z"  />
<glyph unicode="&#x2122;" horiz-adv-x="2028" d="M801 1462V1329H543V618H379V1329H121V1462H801ZM1210 1462L1442 865L1671 1462H1907V618H1753V1278H1749L1497 618H1382L1129 1278H1126V618H973V1462H1210Z"  />
<glyph unicode="&#x2126;" horiz-adv-x="1571" d="M791 1497Q994 1497 1153 1407T1400 1159T1487 819Q1487 635 1412 487T1180 225V215H1509V0H903V195Q1067 291 1149 449T1231 820Q1231 1024 1110 1156T791 1288Q590 1288 465 1154T340 800Q340 591 425 441T676 195V0H68V215H375V225Q224 331 154 471T84 799Q84 1100 283 1298T791 1497Z"  />
<glyph unicode="&#x212E;" horiz-adv-x="1577" d="M786 1462Q1092 1462 1287 1257T1487 715H395V227Q477 147 573 108T786 68Q961 68 1086 148T1309 393L1403 336Q1273 135 1133 53T787 -29Q481 -29 286 183T90 715Q90 1039 285 1250T786 1462ZM395 815H1182V1206Q1099 1284 1000 1326T782 1368Q675 1368 578 1329T395 1206V815Z"  />
<glyph unicode="&#x2153;" horiz-adv-x="1708" d="M1286 1483L430 -49H268L1126 1483H1286ZM500 1444V578H322V1182H74V1300Q192 1300 266 1338T356 1444H500ZM1321 885Q1454 885 1536 822T1618 653Q1618 593 1584 549T1487 477Q1571 450 1612 395T1653 257Q1653 139 1557 61T1316 -18Q1158 -18 1071 57T981 266H1145Q1150 197 1192 161T1317 125Q1397 125 1443 162T1489 264Q1489 327 1446 364T1281 402H1247V524H1278Q1374 524 1414 554T1454 635Q1454 687 1418 716T1313 745Q1243 745 1204 705T1164 594H999Q1007 735 1093 810T1321 885Z"  />
<glyph unicode="&#x2154;" horiz-adv-x="1708" d="M1399 1483L543 -49H381L1239 1483H1399ZM399 1458Q542 1458 624 1389T707 1198Q707 1116 659 1050T525 932Q440 880 356 828T254 717H690V573H47Q51 708 96 785T218 911T412 1033Q528 1104 528 1198Q528 1251 493 1283T397 1315Q323 1315 285 1273T242 1145H63Q65 1290 154 1374T399 1458ZM1346 885Q1479 885 1560 822T1642 653Q1642 594 1609 549T1511 477Q1595 450 1636 395T1677 257Q1677 138 1581 60T1341 -18Q1184 -18 1095 58T1006 266H1169Q1176 195 1218 160T1341 125Q1421 125 1467 161T1513 264Q1513 330 1470 366T1306 402H1272V524H1330Q1392 524 1435 553T1479 635Q1479 687 1443 716T1337 745Q1267 745 1228 705T1189 594H1024Q1032 734 1117 809T1346 885Z"  />
<glyph unicode="&#x215B;" horiz-adv-x="1708" d="M1309 1483L453 -49H291L1149 1483H1309ZM500 1444V578H322V1182H74V1300Q192 1300 266 1338T356 1444H500ZM1323 885Q1454 885 1534 822T1614 653Q1614 591 1581 543T1481 469Q1567 442 1609 385T1651 248Q1651 132 1560 57T1325 -18Q1175 -18 1085 54T995 246Q995 322 1038 379T1165 463Q1101 487 1067 535T1032 645Q1032 748 1113 816T1323 885ZM1184 637Q1184 582 1222 550T1323 518Q1388 518 1424 550T1460 637Q1460 696 1423 728T1322 760Q1259 760 1222 728T1184 637ZM1157 256Q1157 188 1202 150T1325 111Q1402 111 1444 150T1487 256Q1487 322 1442 362T1321 403Q1247 403 1202 364T1157 256Z"  />
<glyph unicode="&#x215C;" horiz-adv-x="1708" d="M1391 1483L535 -49H373L1231 1483H1391ZM395 1458Q529 1458 610 1396T692 1227Q692 1167 658 1122T561 1051Q645 1024 686 969T727 830Q727 714 632 635T390 555Q233 555 145 631T55 840H219Q224 769 267 734T391 698Q470 698 516 735T563 838Q563 905 517 940T354 976H322V1098H348Q447 1098 487 1127T528 1208Q528 1261 492 1290T387 1319Q320 1319 280 1281T239 1167H74Q80 1305 166 1381T395 1458ZM1343 885Q1475 885 1554 822T1634 653Q1634 590 1600 542T1501 469Q1582 445 1626 389T1671 248Q1671 131 1579 57T1346 -18Q1196 -18 1106 53T1016 246Q1016 322 1060 380T1186 463Q1124 485 1089 533T1053 645Q1053 751 1135 818T1343 885ZM1204 637Q1204 583 1242 551T1343 518Q1409 518 1445 550T1481 637Q1481 692 1446 726T1342 760Q1282 760 1243 728T1204 637ZM1178 256Q1178 186 1224 149T1346 111Q1421 111 1464 149T1507 256Q1507 321 1462 362T1341 403Q1267 403 1223 364T1178 256Z"  />
<glyph unicode="&#x215D;" horiz-adv-x="1708" d="M1391 1483L535 -49H373L1231 1483H1391ZM674 1440V1300H297L264 1096Q299 1125 344 1140T442 1155Q566 1155 640 1077T715 871Q715 736 621 646T383 555Q256 555 169 622T72 811H236Q244 757 285 728T385 698Q461 698 506 743T551 866Q551 944 509 990T395 1036Q353 1036 316 1018T254 958H94L170 1440H674ZM1343 885Q1475 885 1554 822T1634 653Q1634 590 1600 542T1501 469Q1582 445 1626 389T1671 248Q1671 129 1579 56T1346 -18Q1196 -18 1106 53T1016 246Q1016 322 1060 380T1186 463Q1124 485 1089 533T1053 645Q1053 751 1135 818T1343 885ZM1204 637Q1204 583 1242 551T1343 518Q1409 518 1445 550T1481 637Q1481 692 1446 726T1342 760Q1282 760 1243 728T1204 637ZM1178 256Q1178 186 1224 149T1346 111Q1421 111 1464 149T1507 256Q1507 321 1462 362T1341 403Q1267 403 1223 364T1178 256Z"  />
<glyph unicode="&#x215E;" horiz-adv-x="1708" d="M1294 1483L438 -49H276L1135 1483H1294ZM754 1440V1305Q626 1189 546 983T461 573H274Q294 788 372 967T569 1292H150V1440H754ZM1303 885Q1435 885 1514 822T1593 653Q1593 590 1559 542T1460 469Q1541 445 1585 389T1630 248Q1630 131 1538 57T1305 -18Q1155 -18 1065 53T975 246Q975 322 1019 380T1145 463Q1083 485 1048 533T1012 645Q1012 751 1093 818T1303 885ZM1163 637Q1163 582 1201 550T1303 518Q1368 518 1404 549T1440 637Q1440 692 1405 726T1302 760Q1240 760 1202 728T1163 637ZM1137 256Q1137 186 1183 149T1305 111Q1380 111 1423 149T1466 256Q1466 323 1421 363T1301 403Q1227 403 1182 364T1137 256Z"  />
<glyph unicode="&#x2202;" horiz-adv-x="1122" d="M487 1477Q752 1477 895 1277T1038 734Q1038 366 907 171T523 -25Q328 -25 204 106T80 440Q80 637 202 763T514 889Q592 889 665 862T815 770L817 852Q817 1046 731 1176T496 1307Q439 1307 379 1283T254 1208L137 1343Q233 1419 313 1448T487 1477ZM291 428Q291 300 356 220T530 139Q656 139 734 258T813 527L811 588Q748 661 686 693T546 725Q429 725 360 641T291 428Z"  />
<glyph unicode="&#x2206;" horiz-adv-x="1346" d="M809 1462L1362 0H-14L537 1462H809ZM328 215H1012L670 1202L328 215Z"  />
<glyph unicode="&#x220F;" horiz-adv-x="1509" d="M1380 1610V-438H1159V1409H348V-438H129V1610H1380Z"  />
<glyph unicode="&#x2211;" horiz-adv-x="1317" d="M1239 1610V1409H371L942 598L334 -240H1266V-438H51V-262L678 596L78 1438V1610H1239Z"  />
<glyph unicode="&#x2212;" horiz-adv-x="1229" d="M1130 623V414H98V623H1130Z"  />
<glyph unicode="&#x2215;" horiz-adv-x="342" d="M680 1483L-176 -49H-338L520 1483H680Z"  />
<glyph unicode="&#x2219;" horiz-adv-x="569" d="M285 770Q345 770 391 724T438 618Q438 556 393 510T285 463Q223 463 177 510T131 618Q131 675 177 722T285 770Z"  />
<glyph unicode="&#x221A;" horiz-adv-x="1087" d="M1112 1610L680 -438H473L160 215L57 168L-24 340L-26 342L268 475L541 -100L889 1610H1112Z"  />
<glyph unicode="&#x221E;" horiz-adv-x="1651" d="M1223 895Q1372 895 1465 794T1559 537Q1559 379 1468 275T1221 170Q1125 170 1032 222T825 399Q698 267 615 221T432 174Q281 174 186 274T90 532Q90 690 183 791T426 893Q531 893 624 837T825 651Q935 781 1029 838T1223 895ZM938 526Q1025 434 1094 396T1225 358Q1292 358 1337 404T1382 530Q1382 614 1336 660T1218 707Q1166 707 1103 671T938 526ZM266 530Q266 455 310 408T432 360Q492 360 566 403T712 527H714Q611 631 545 668T425 705Q358 705 312 655T266 530Z"  />
<glyph unicode="&#x222B;" horiz-adv-x="1229" d="M755 1610Q843 1610 907 1569T971 1460Q971 1419 941 1390T866 1360Q823 1360 799 1382T760 1449Q745 1493 721 1493Q703 1493 693 1479T683 1431L686 1164L688 3Q688 -231 619 -334T400 -438Q312 -438 251 -397T190 -291Q190 -249 217 -220T289 -190Q317 -190 343 -203T401 -296Q413 -328 432 -328Q448 -328 460 -314T472 -255L465 -29V1171Q465 1410 536 1510T755 1610Z"  />
<glyph unicode="&#x2248;" horiz-adv-x="1229" d="M369 905Q420 905 483 888T642 834Q736 796 792 782T890 768Q943 768 975 802T1022 903H1159Q1143 741 1067 654T862 567Q765 567 588 638Q411 709 348 709Q297 709 262 672T215 567H76Q91 723 166 814T369 905ZM365 483Q416 483 479 466T638 412Q732 374 788 360T886 346Q939 346 971 380T1018 481H1155Q1139 319 1063 232T859 145Q796 145 709 172T512 243Q401 287 344 287Q294 287 258 251T211 145H72Q87 299 162 391T365 483Z"  />
<glyph unicode="&#x2260;" horiz-adv-x="1229" d="M999 1032L889 829H1130V627H772L659 410H1130V207H551L396 -79H394L233 4L344 207H98V410H461L571 627H98V829H682L838 1116L999 1032Z"  />
<glyph unicode="&#x2264;" horiz-adv-x="1229" d="M1130 915L333 682L1125 447H1130V250L98 584V780L1130 1114V915ZM1130 209V0H98V209H1130Z"  />
<glyph unicode="&#x2265;" horiz-adv-x="1229" d="M1130 780V584L98 250V446L897 682L101 914H98V1114L1130 780ZM1130 209V0H98V209H1130Z"  />
<glyph unicode="&#x25CA;" horiz-adv-x="1214" d="M702 1530L1065 729L702 -72H508L147 728L508 1530H702ZM360 729L604 134L854 729L604 1323L360 729Z"  />
<glyph unicode="&#xF001;" horiz-adv-x="1139" d="M488 1462Q540 1462 581 1459T649 1448V1266Q630 1271 600 1274T542 1278Q480 1278 454 1251T426 1177V1059H625V885H426V0H193V885H18V1059H193V1179Q199 1316 264 1389T488 1462ZM1007 1462V1241H774V1462H1007ZM1007 1059V0H774V1059H1007Z"  />
<glyph unicode="&#xF002;" horiz-adv-x="1139" d="M488 1462Q540 1462 581 1459T649 1448V1266Q630 1271 600 1274T542 1278Q480 1278 454 1251T426 1177V1059H625V885H426V0H193V885H18V1059H193V1179Q199 1316 264 1389T488 1462ZM1007 1462V0H774V1462H1007Z"  />
<glyph unicode="&#xF8FF;" horiz-adv-x="1049" d="M1049 1470V0H0V1470H1049ZM946 102V1366H102V102H946ZM530 1247Q640 1247 712 1173T784 979Q784 897 751 844T653 731Q586 671 571 637T555 479H461L457 519Q457 637 490 694T585 808Q619 839 649 878T680 971Q680 1043 634 1094T524 1145Q457 1145 413 1097T356 951L254 967Q268 1104 339 1175T530 1247ZM455 377H569V240H455V377Z"  />
<glyph unicode="&#xFB00;" horiz-adv-x="1233" d="M484 1462Q529 1462 569 1459T639 1448V1266Q618 1271 589 1274T537 1278Q479 1278 453 1250T426 1174V1059H780V1136Q780 1269 814 1334T908 1431T1076 1462Q1128 1462 1169 1459T1237 1448V1266Q1212 1272 1184 1275T1130 1278Q1069 1278 1042 1251T1014 1176V1059H1212V885H1014V0H780V885H426V0H193V885H18V1059H193V1163Q193 1303 258 1382T484 1462Z"  />
<glyph unicode="&#xFB01;" horiz-adv-x="1139" d="M488 1462Q540 1462 581 1459T649 1448V1266Q630 1271 600 1274T542 1278Q480 1278 454 1251T426 1177V1059H625V885H426V0H193V885H18V1059H193V1179Q199 1316 264 1389T488 1462ZM1007 1462V1241H774V1462H1007ZM1007 1059V0H774V1059H1007Z"  />
<glyph unicode="&#xFB02;" horiz-adv-x="1139" d="M488 1462Q540 1462 581 1459T649 1448V1266Q630 1271 600 1274T542 1278Q480 1278 454 1251T426 1177V1059H625V885H426V0H193V885H18V1059H193V1179Q199 1316 264 1389T488 1462ZM1007 1462V0H774V1462H1007Z"  />
<glyph unicode="&#xFB03;" horiz-adv-x="1726" d="M484 1462Q529 1462 569 1459T639 1448V1266Q618 1271 589 1274T537 1278Q479 1278 453 1250T426 1174V1059H780V1136Q780 1269 814 1334T908 1431T1076 1462Q1128 1462 1169 1459T1237 1448V1266Q1212 1272 1184 1275T1130 1278Q1069 1278 1042 1251T1014 1176V1059H1212V885H1014V0H780V885H426V0H193V885H18V1059H193V1163Q193 1303 258 1382T484 1462ZM1595 1462V1241H1362V1462H1595ZM1595 1059V0H1362V1059H1595Z"  />
<glyph unicode="&#xFB04;" horiz-adv-x="1726" d="M484 1462Q529 1462 569 1459T639 1448V1266Q618 1271 589 1274T537 1278Q479 1278 453 1250T426 1174V1059H780V1136Q780 1269 814 1334T908 1431T1076 1462Q1128 1462 1169 1459T1237 1448V1266Q1212 1272 1184 1275T1130 1278Q1069 1278 1042 1251T1014 1176V1059H1212V885H1014V0H780V885H426V0H193V885H18V1059H193V1163Q193 1303 258 1382T484 1462ZM1595 1462V0H1362V1462H1595Z"  />

</font>
</defs>
</svg>
